<svg width="310" height="310" viewBox="0 0 310 310" fill="none" xmlns="http://www.w3.org/2000/svg">
<path d="M243.193 166.435L198.104 149.383C194.988 148.204 193.417 144.723 194.596 141.607L218.198 79.1987C219.377 76.0825 222.857 74.5121 225.973 75.6901L254.569 86.5047L268.076 117.691L250.968 162.927C249.789 166.043 246.309 167.613 243.193 166.435Z" fill="#F5F5F5"/>
<path d="M254.57 86.5032L247.927 104.068C246.831 106.966 248.291 110.203 251.189 111.299L268.076 117.689L254.57 86.5032Z" fill="#EBEBEB"/>
<path d="M247.575 105.698C247.575 105.698 245.742 109.873 250.062 113.108C250.224 113.23 250.396 113.339 250.569 113.443C252.625 114.671 266.166 122.743 266.292 122.41C266.428 122.049 268.077 117.69 268.077 117.69L251.188 111.303C251.188 111.303 247.026 109.564 247.575 105.698Z" fill="#E0E0E0"/>
<path d="M244.415 101.921C244.329 102.147 239.59 100.564 233.831 98.3855C228.07 96.2068 223.469 94.2575 223.555 94.0319C223.64 93.8062 228.378 95.389 234.14 97.5677C239.899 99.7464 244.5 101.696 244.415 101.921Z" fill="#E0E0E0"/>
<path d="M254.131 116.95C254.046 117.176 246.291 114.452 236.812 110.867C227.329 107.281 219.714 104.192 219.8 103.966C219.885 103.74 227.639 106.463 237.121 110.049C246.6 113.634 254.217 116.724 254.131 116.95Z" fill="#E0E0E0"/>
<path d="M254.09 126.41C254.004 126.636 245.556 123.65 235.224 119.743C224.888 115.834 216.58 112.483 216.666 112.257C216.751 112.031 225.197 115.017 235.533 118.926C245.866 122.833 254.175 126.185 254.09 126.41Z" fill="#E0E0E0"/>
<path d="M251.131 134.234C251.045 134.46 242.597 131.475 232.265 127.567C221.929 123.658 213.621 120.306 213.707 120.081C213.792 119.855 222.238 122.84 232.574 126.75C242.906 130.657 251.215 134.009 251.131 134.234Z" fill="#E0E0E0"/>
<path d="M248.172 142.058C248.087 142.284 239.639 139.298 229.306 135.39C218.97 131.481 210.662 128.13 210.748 127.905C210.833 127.679 219.279 130.664 229.615 134.573C239.948 138.481 248.258 141.833 248.172 142.058Z" fill="#E0E0E0"/>
<path d="M245.211 149.883C245.125 150.108 236.678 147.122 226.345 143.215C216.009 139.306 207.701 135.955 207.787 135.729C207.872 135.504 216.318 138.488 226.655 142.398C236.986 146.305 245.296 149.657 245.211 149.883Z" fill="#E0E0E0"/>
<path d="M125.278 194.251L65.8371 215.065C63.7806 215.785 61.53 214.702 60.8102 212.646L30.9863 127.479C30.2665 125.423 31.3496 123.172 33.4062 122.452L92.8468 101.638C94.9034 100.918 97.154 102.001 97.8738 104.057L127.697 189.223C128.417 191.28 127.334 193.531 125.278 194.251Z" fill="#EBEBEB"/>
<path d="M93.6107 106.935L36.1104 127.07L65.6711 211.486L123.171 191.351L93.6107 106.935Z" fill="#E0E0E0"/>
<path d="M92.5814 106.535L35.0811 126.671L64.0772 209.474L121.578 189.339L92.5814 106.535Z" fill="#FAFAFA"/>
<path d="M121.578 189.341C121.335 188.649 109.659 155.406 92.5043 106.563L92.6091 106.613C75.1703 112.723 55.6589 119.558 35.1177 126.754L35.1109 126.757L35.1661 126.641C46.0043 157.745 56.0923 186.468 64.1455 209.452L64.0525 209.407C99.0279 197.207 121.014 189.538 121.578 189.341C121.015 189.538 99.0465 197.261 64.1009 209.545L64.032 209.569L64.0079 209.5C55.9553 186.518 45.8896 157.793 34.9956 126.701L34.9658 126.616L35.0514 126.586L35.0582 126.584C55.6013 119.393 75.1145 112.563 92.5551 106.458L92.6333 106.431L92.6605 106.509C109.723 155.384 121.337 188.649 121.578 189.341Z" fill="#E0E0E0"/>
<path d="M101.18 196.483C101.18 196.483 113.985 185.684 116.204 174.436C116.204 174.436 112.649 180.009 105.257 181.027C105.257 181.027 105.001 192.837 101.18 196.483Z" fill="#E0E0E0"/>
<path d="M57.1967 152.151L54.1687 153.212C53.0638 153.598 51.8548 153.016 51.4679 151.911L50.4077 148.883C50.0209 147.778 50.603 146.57 51.7079 146.182L54.736 145.122C55.8408 144.735 57.0498 145.317 57.4367 146.422L58.4969 149.45C58.8838 150.555 58.3016 151.764 57.1967 152.151Z" fill="#EBEBEB"/>
<path d="M54.3683 150.334C54.3664 150.334 54.3646 150.335 54.3627 150.336C54.3162 150.351 54.266 150.344 54.2238 150.32L52.8375 149.516C52.7544 149.468 52.7265 149.362 52.7743 149.279C52.8226 149.196 52.9286 149.168 53.0117 149.215L54.2344 149.924L55.6988 146.792C55.7391 146.705 55.8426 146.668 55.9294 146.708C56.0162 146.748 56.0541 146.852 56.0131 146.939L54.4687 150.243C54.4483 150.286 54.4123 150.318 54.3683 150.334Z" fill="white"/>
<path d="M94.0753 132.308C94.0921 132.355 86.6242 135.013 77.398 138.244C68.1686 141.476 60.6759 144.056 60.6592 144.009C60.6425 143.962 68.1085 141.305 77.3378 138.072C86.564 134.842 94.0586 132.261 94.0753 132.308Z" fill="#E0E0E0"/>
<path d="M76.5351 144.22C76.5394 144.232 76.346 144.312 75.9932 144.447C75.6107 144.589 75.1054 144.776 74.494 145.003C73.2255 145.464 71.4691 146.09 69.5254 146.77C67.581 147.451 65.8178 148.058 64.5387 148.488C63.9199 148.692 63.4084 148.861 63.0209 148.989C62.6613 149.104 62.4605 149.161 62.4561 149.15C62.4518 149.138 62.6452 149.058 62.9974 148.923C63.3799 148.781 63.8852 148.594 64.4965 148.367C65.7651 147.906 67.5215 147.28 69.4658 146.599C71.4095 145.918 73.1728 145.312 74.4519 144.881C75.0706 144.677 75.5828 144.508 75.9703 144.38C76.3299 144.266 76.5307 144.208 76.5351 144.22Z" fill="#E0E0E0"/>
<path d="M94.87 134.585C94.8868 134.632 87.4188 137.29 78.1932 140.521C68.9639 143.753 61.4712 146.333 61.4551 146.286C61.4384 146.239 68.9044 143.582 78.1337 140.35C87.3593 137.119 94.8539 134.538 94.87 134.585Z" fill="#E0E0E0"/>
<path d="M61.5167 164.49L58.4886 165.55C57.3838 165.937 56.1748 165.355 55.7873 164.25L54.7271 161.222C54.3402 160.117 54.9224 158.908 56.0272 158.521L59.0553 157.461C60.1601 157.074 61.3691 157.657 61.756 158.761L62.8162 161.789C63.2037 162.894 62.6215 164.103 61.5167 164.49Z" fill="#EBEBEB"/>
<path d="M58.6892 162.673C58.6874 162.674 58.6855 162.675 58.6836 162.675C58.6371 162.69 58.5869 162.684 58.5448 162.66L57.1578 161.856C57.0747 161.808 57.0468 161.701 57.0946 161.618C57.1429 161.536 57.249 161.507 57.332 161.555L58.5547 162.264L60.0191 159.131C60.0594 159.045 60.163 159.007 60.2498 159.048C60.3366 159.088 60.3744 159.191 60.3335 159.278L58.7884 162.582C58.7692 162.626 58.7332 162.658 58.6892 162.673Z" fill="white"/>
<path d="M98.398 144.645C98.4147 144.692 90.9468 147.35 81.7206 150.581C72.4913 153.813 64.9986 156.394 64.9824 156.346C64.9657 156.299 72.4318 153.642 81.6611 150.41C90.8873 147.18 98.3812 144.598 98.398 144.645Z" fill="#E0E0E0"/>
<path d="M80.8583 156.556C80.8627 156.568 80.6692 156.648 80.3171 156.783C79.9345 156.925 79.4292 157.113 78.8179 157.339C77.5494 157.8 75.7929 158.426 73.8492 159.107C71.9049 159.787 70.1416 160.394 68.8626 160.825C68.2438 161.029 67.7323 161.198 67.3442 161.326C66.9846 161.44 66.7837 161.498 66.7794 161.486C66.775 161.474 66.9685 161.394 67.3206 161.259C67.7032 161.117 68.2085 160.93 68.8198 160.704C70.0883 160.242 71.8448 159.616 73.7891 158.935C75.7328 158.255 77.4961 157.648 78.7751 157.217C79.3939 157.013 79.9054 156.844 80.2935 156.716C80.6537 156.602 80.8546 156.545 80.8583 156.556Z" fill="#E0E0E0"/>
<path d="M99.1939 146.923C99.2106 146.97 91.7427 149.628 82.5165 152.859C73.2872 156.091 65.7945 158.671 65.7783 158.624C65.7616 158.577 73.2277 155.919 82.457 152.688C91.6826 149.457 99.1771 146.876 99.1939 146.923Z" fill="#E0E0E0"/>
<path d="M65.8374 176.827L62.8093 177.887C61.7045 178.274 60.4955 177.691 60.1086 176.587L59.0484 173.559C58.6615 172.454 59.2437 171.245 60.3485 170.858L63.3766 169.798C64.4814 169.411 65.6904 169.993 66.0773 171.098L67.1375 174.126C67.5238 175.231 66.9422 176.44 65.8374 176.827Z" fill="#EBEBEB"/>
<path d="M63.007 175.01C63.0051 175.01 63.0032 175.011 63.0014 175.012C62.9549 175.026 62.9047 175.02 62.8625 174.996L61.4762 174.192C61.3931 174.144 61.3652 174.037 61.4129 173.954C61.4613 173.872 61.5673 173.843 61.6504 173.891L62.873 174.6L64.3375 171.468C64.3784 171.381 64.4813 171.344 64.5681 171.384C64.6549 171.424 64.6927 171.528 64.6518 171.615L63.1068 174.918C63.0869 174.961 63.051 174.994 63.007 175.01Z" fill="white"/>
<path d="M102.714 156.982C102.731 157.03 95.2632 159.688 86.037 162.918C76.8077 166.15 69.315 168.731 69.2989 168.684C69.2821 168.637 76.7482 165.979 85.9775 162.748C95.2037 159.516 102.698 156.935 102.714 156.982Z" fill="#E0E0E0"/>
<path d="M85.1777 168.895C85.182 168.907 84.9886 168.987 84.6358 169.122C84.2532 169.264 83.7479 169.451 83.1366 169.678C81.8681 170.139 80.1116 170.765 78.1679 171.445C76.2236 172.126 74.4603 172.733 73.1813 173.163C72.5625 173.367 72.051 173.536 71.6635 173.664C71.3039 173.779 71.103 173.836 71.0987 173.825C71.0944 173.813 71.2878 173.733 71.64 173.598C72.0225 173.456 72.5278 173.269 73.1391 173.042C74.4076 172.581 76.1641 171.955 78.1084 171.274C80.0521 170.593 81.8154 169.987 83.0945 169.556C83.7132 169.352 84.2247 169.183 84.6128 169.055C84.9731 168.942 85.1739 168.884 85.1777 168.895Z" fill="#E0E0E0"/>
<path d="M103.511 159.262C103.528 159.309 96.0601 161.967 86.8339 165.197C77.6046 168.43 70.1119 171.01 70.0957 170.963C70.079 170.916 77.545 168.258 86.7744 165.027C96.0006 161.796 103.495 159.214 103.511 159.262Z" fill="#E0E0E0"/>
<path d="M70.1606 189.164L67.1325 190.225C66.0277 190.611 64.8187 190.029 64.4318 188.924L63.3716 185.896C62.9847 184.791 63.5669 183.583 64.6718 183.196L67.6998 182.135C68.8047 181.749 70.0137 182.331 70.4006 183.436L71.4608 186.464C71.8476 187.568 71.2655 188.777 70.1606 189.164Z" fill="#EBEBEB"/>
<path d="M67.3282 187.348C67.3264 187.349 67.3245 187.349 67.3227 187.35C67.2762 187.364 67.2259 187.358 67.1838 187.334L65.7975 186.53C65.7144 186.482 65.6865 186.376 65.7342 186.293C65.782 186.21 65.8886 186.182 65.9717 186.229L67.1943 186.938L68.6588 183.806C68.6991 183.719 68.8032 183.682 68.8894 183.722C68.9762 183.763 69.014 183.866 68.9731 183.953L67.4281 187.257C67.4082 187.3 67.3716 187.332 67.3282 187.348Z" fill="white"/>
<path d="M107.036 169.321C107.053 169.368 99.5849 172.026 90.3593 175.257C81.1299 178.489 73.6372 181.069 73.6211 181.022C73.6044 180.975 81.0704 178.318 90.2997 175.086C99.5253 171.855 107.02 169.274 107.036 169.321Z" fill="#E0E0E0"/>
<path d="M89.5015 181.232C89.5059 181.244 89.3124 181.323 88.9596 181.459C88.5771 181.601 88.0718 181.788 87.4605 182.014C86.192 182.475 84.4355 183.102 82.4918 183.782C80.5475 184.463 78.7842 185.07 77.5051 185.5C76.8864 185.704 76.3749 185.873 75.9868 186.001C75.6272 186.115 75.4263 186.173 75.4219 186.161C75.4176 186.15 75.611 186.07 75.9632 185.934C76.3457 185.792 76.851 185.605 77.4624 185.379C78.7309 184.918 80.4874 184.291 82.4317 183.611C84.3754 182.93 86.1386 182.324 87.4177 181.893C88.0365 181.689 88.548 181.519 88.9361 181.392C89.2963 181.278 89.4972 181.22 89.5015 181.232Z" fill="#E0E0E0"/>
<path d="M107.836 171.599C107.853 171.646 100.385 174.304 91.1591 177.535C81.9297 180.767 74.437 183.347 74.4209 183.3C74.4042 183.253 81.8702 180.596 91.0995 177.364C100.326 174.133 107.82 171.552 107.836 171.599Z" fill="#E0E0E0"/>
<path d="M41.5938 118.605L43.1115 122.939C43.9925 125.454 46.7453 126.779 49.2607 125.898L81.0654 114.761C83.5808 113.88 84.9057 111.127 84.0247 108.613L82.51 104.286L41.5938 118.605Z" fill="#E0E0E0"/>
<path d="M62.4741 112.729C60.1193 113.554 57.5333 112.309 56.7087 109.955C55.8841 107.6 57.129 105.014 59.4838 104.189C61.8386 103.365 64.4246 104.61 65.2492 106.964C66.0738 109.318 64.8288 111.904 62.4741 112.729ZM60.0573 105.827C58.6059 106.335 57.8383 107.93 58.3467 109.381C58.8551 110.833 60.4491 111.6 61.9012 111.092C63.3526 110.583 64.1202 108.989 63.6118 107.538C63.1027 106.086 61.5087 105.318 60.0573 105.827Z" fill="#E0E0E0"/>
<path d="M87.8948 123.975C87.924 124.057 79.5378 127.068 69.1665 130.7C58.792 134.334 50.3606 137.211 50.3321 137.129C50.303 137.046 58.6872 134.035 69.0623 130.402C79.433 126.77 87.8657 123.892 87.8948 123.975Z" fill="#E0E0E0"/>
<path d="M77.156 125.517C77.1851 125.599 73.493 126.967 68.9112 128.571C64.3282 130.176 60.5902 131.41 60.5617 131.328C60.5326 131.245 64.224 129.878 68.8071 128.273C73.3889 126.668 77.1275 125.435 77.156 125.517Z" fill="#E0E0E0"/>
<path d="M242.392 251.149C244.619 250 247.241 249.85 249.713 250.259C251.041 250.478 252.425 250.876 253.329 251.873C254.233 252.871 254.404 254.627 253.366 255.484C252.749 255.994 251.887 256.072 251.086 256.062C249.151 256.04 247.003 255.699 245.458 256.863C244.575 257.528 243.988 258.632 242.934 258.959C241.902 259.279 240.738 258.67 240.191 257.738C239.643 256.807 239.625 255.643 239.88 254.593C239.88 254.593 240.149 252.306 242.392 251.149Z" fill="#004267"/>
<path d="M237.29 241.302C238.652 243.247 241.298 242.602 242.526 241.416C243.753 240.229 244.271 238.508 244.743 236.867C245.822 233.119 246.91 229.187 246.107 225.37C245.867 224.228 245.441 223.09 244.639 222.244C243.837 221.397 242.604 220.893 241.477 221.191C240.142 221.544 239.313 222.851 238.714 224.094C236.952 227.749 236.019 231.8 236.005 235.856C235.998 237.75 236.221 239.737 237.29 241.302Z" fill="#004267"/>
<path d="M233.546 244.093C235.024 242.339 235.305 239.779 234.647 237.581C233.989 235.383 232.503 233.513 230.79 231.986C228.781 230.196 226.421 228.804 223.883 227.911C222.885 227.56 221.831 227.283 220.777 227.383C219.723 227.484 218.662 228.023 218.171 228.961C217.444 230.347 218.141 232.029 218.894 233.4C220.222 235.817 221.741 238.129 223.43 240.308C224.79 242.061 226.347 243.79 228.419 244.582C230.491 245.375 232.644 245.281 233.742 243.844" fill="#004267"/>
<path d="M237.198 270.639C237.223 270.64 237.265 270.325 237.321 269.755C237.384 269.112 237.463 268.304 237.556 267.343C237.668 266.328 237.817 265.121 238.099 263.806C238.38 262.494 238.819 261.073 239.385 259.631C239.97 258.198 240.683 256.895 241.517 255.853C242.345 254.807 243.307 254.05 244.212 253.613C245.114 253.167 245.923 252.987 246.482 252.906C247.046 252.848 247.362 252.804 247.362 252.779C247.362 252.753 247.045 252.75 246.466 252.765C245.892 252.804 245.05 252.949 244.099 253.381C243.146 253.804 242.124 254.573 241.256 255.641C240.38 256.705 239.641 258.037 239.046 259.495C238.471 260.962 238.038 262.399 237.77 263.739C237.502 265.077 237.38 266.297 237.3 267.32C237.223 268.345 237.194 269.174 237.18 269.747C237.166 270.32 237.172 270.637 237.198 270.639Z" fill="#263238"/>
<path d="M237.367 268.785C237.38 268.784 237.388 268.643 237.391 268.374C237.39 268.066 237.389 267.678 237.388 267.202C237.385 266.184 237.385 264.712 237.44 262.893C237.53 259.257 237.843 255.343 238.448 249.825C239.021 244.636 239.79 238.597 240.601 234.671C240.775 233.778 240.95 232.974 241.115 232.271C241.272 231.566 241.406 230.958 241.536 230.466C241.647 230.002 241.738 229.626 241.81 229.326C241.869 229.064 241.893 228.925 241.882 228.922C241.869 228.918 241.821 229.051 241.739 229.306C241.65 229.601 241.537 229.973 241.399 230.43C241.247 230.917 241.093 231.521 240.916 232.223C240.732 232.924 240.539 233.726 240.348 234.617C239.545 238.175 238.696 243.146 238.085 248.678C237.479 254.208 237.206 259.243 237.182 262.889C237.16 264.711 237.199 266.187 237.246 267.206C237.275 267.682 237.298 268.07 237.317 268.377C237.338 268.645 237.354 268.785 237.367 268.785Z" fill="#263238"/>
<path d="M237.388 259.072C237.413 259.071 237.409 258.636 237.379 257.847C237.334 257.059 237.226 255.922 237.004 254.529C236.769 253.139 236.441 251.488 235.925 249.694C235.701 248.874 235.176 246.909 233.903 243.973C232.226 239.995 229.947 236.742 227.965 234.727C227.5 234.193 226.983 233.807 226.568 233.429C226.354 233.248 226.165 233.067 225.972 232.924C225.778 232.79 225.598 232.666 225.43 232.55C224.778 232.104 224.413 231.869 224.399 231.89C224.341 231.969 225.86 232.864 227.779 234.905C229.69 236.942 231.905 240.172 233.568 244.117C234.496 246.257 235.142 248.165 235.601 249.786C236.131 251.562 236.483 253.196 236.749 254.573C237.002 255.952 237.149 257.079 237.237 257.859C237.311 258.64 237.363 259.073 237.388 259.072Z" fill="#263238"/>
<path d="M228.003 276.203L228.976 289.533H246.102L247.075 276.203H228.003Z" fill="#263238"/>
<path d="M249.118 270.948H226.349V276.203H249.118V270.948Z" fill="#263238"/>
<path d="M226.349 289.022V290.478H227.418H248.742V289.022H226.349Z" fill="#455A64"/>
<path d="M228.463 293.043L227.414 290.48H247.922L246.699 293.043H228.463Z" fill="#455A64"/>
<path d="M246.75 280.56C246.754 280.563 246.727 280.604 246.67 280.682C246.602 280.772 246.519 280.884 246.414 281.021C246.171 281.332 245.837 281.76 245.417 282.298L245.372 282.355L245.329 282.295C244.702 281.428 243.864 280.269 242.878 278.905H243.019C242.29 279.937 241.478 281.087 240.606 282.322L240.531 282.429L240.446 282.328C239.555 281.268 238.588 280.118 237.584 278.923L237.749 278.921C237.699 278.984 237.645 279.051 237.591 279.119C236.703 280.232 235.845 281.309 235.032 282.327L234.946 282.434L234.867 282.322C233.999 281.093 233.187 279.945 232.453 278.906L232.593 278.913C231.404 280.268 230.394 281.419 229.62 282.301L229.567 282.361L229.527 282.293C229.135 281.635 228.822 281.11 228.596 280.729C228.498 280.559 228.419 280.422 228.357 280.312C228.304 280.217 228.279 280.167 228.284 280.164C228.288 280.161 228.322 280.206 228.384 280.296C228.453 280.401 228.54 280.533 228.648 280.696C228.885 281.07 229.214 281.585 229.625 282.232L229.532 282.225C230.294 281.331 231.287 280.167 232.458 278.795L232.531 278.709L232.598 278.802C233.339 279.836 234.158 280.979 235.034 282.203L234.871 282.198C235.681 281.179 236.538 280.1 237.424 278.986C237.478 278.918 237.532 278.85 237.581 278.788L237.662 278.686L237.746 278.785C238.747 279.983 239.712 281.135 240.6 282.197L240.44 282.203C241.32 280.975 242.141 279.831 242.877 278.804L242.949 278.704L243.019 278.804C243.984 280.183 244.804 281.354 245.418 282.231L245.331 282.228C245.768 281.704 246.116 281.287 246.368 280.984C246.481 280.854 246.572 280.748 246.646 280.662C246.712 280.592 246.747 280.557 246.75 280.56Z" fill="#E0E0E0"/>
<path d="M247.312 276.116C247.312 276.174 243.021 276.222 237.729 276.222C232.435 276.222 228.145 276.174 228.145 276.116C228.145 276.057 232.435 276.009 237.729 276.009C243.021 276.009 247.312 276.057 247.312 276.116Z" fill="#455A64"/>
<path d="M248.177 290.623C248.177 290.682 243.513 290.729 237.761 290.729C232.008 290.729 227.345 290.682 227.345 290.623C227.345 290.564 232.008 290.516 237.761 290.516C243.513 290.516 248.177 290.564 248.177 290.623Z" fill="#263238"/>
<path d="M79.2375 248.091C79.1903 248.149 78.7997 247.914 78.3645 247.566C77.9293 247.218 77.6143 246.888 77.6608 246.829C77.7079 246.771 78.0985 247.006 78.5338 247.354C78.969 247.702 79.284 248.032 79.2375 248.091Z" fill="#263238"/>
<path d="M91.1135 230.339C91.1854 228.68 91.2319 226.979 90.7086 225.404C90.1847 223.828 88.9701 222.379 87.3445 222.043C85.4895 221.658 83.5879 222.829 82.5482 224.414C81.5084 225.998 81.1507 227.921 80.8438 229.79C78.7277 242.674 77.9465 255.777 78.5163 268.82L86.1088 269.885C89.4438 256.261 90.5077 244.353 91.1135 230.339Z" fill="#455A64"/>
<path d="M86.2917 221.985C86.2961 221.986 86.2843 222.027 86.2576 222.105C86.2241 222.198 86.1826 222.311 86.1324 222.45C86.0084 222.771 85.8397 223.208 85.6265 223.761C85.5204 224.047 85.3797 224.356 85.2662 224.709C85.1528 225.064 85.0294 225.448 84.898 225.86C84.7647 226.272 84.6227 226.713 84.472 227.179C84.348 227.656 84.2172 228.158 84.0802 228.685C83.5073 230.789 83.0324 233.347 82.6139 236.199C82.2028 239.054 81.9337 242.216 81.7217 245.539C81.3336 252.191 81.2728 258.23 81.1017 262.596C81.0205 264.779 80.9461 266.546 80.8624 267.765C80.8221 268.357 80.7905 268.826 80.7669 269.169C80.7545 269.315 80.744 269.436 80.7353 269.534C80.7266 269.615 80.7198 269.658 80.7154 269.658C80.7111 269.658 80.708 269.615 80.708 269.532C80.7092 269.434 80.7105 269.313 80.713 269.167C80.7235 268.822 80.7384 268.353 80.757 267.76C80.8078 266.54 80.8537 264.773 80.9101 262.59C81.0323 258.224 81.062 252.185 81.4514 245.523C81.6634 242.195 81.9412 239.025 82.3671 236.163C82.8005 233.304 83.2971 230.741 83.8954 228.636C84.0393 228.109 84.1769 227.607 84.3071 227.13C84.4652 226.665 84.614 226.224 84.7541 225.812C84.8936 225.402 85.0244 225.019 85.1447 224.665C85.2656 224.313 85.4138 224.006 85.5279 223.722C85.7616 223.177 85.9464 222.745 86.0822 222.428C86.1423 222.294 86.1919 222.184 86.2322 222.094C86.2675 222.02 86.2874 221.983 86.2917 221.985Z" fill="#263238"/>
<path d="M86.9954 221.989C86.9954 221.989 87.4611 222.467 87.923 223.559C88.401 224.643 88.7004 226.367 88.6155 228.471C88.414 232.666 88.0383 238.447 87.5386 244.83C87.0364 251.214 86.4802 256.985 86.032 261.156C85.8081 263.242 85.6141 264.928 85.4709 266.092C85.3983 266.656 85.3413 267.103 85.2985 267.432C85.278 267.571 85.2607 267.685 85.247 267.78C85.234 267.858 85.2247 267.898 85.2204 267.897C85.216 267.897 85.2154 267.856 85.2198 267.777C85.2266 267.682 85.2346 267.567 85.2446 267.427C85.2743 267.096 85.3152 266.647 85.3661 266.081C85.4808 264.889 85.642 263.206 85.841 261.137C86.2403 256.962 86.766 251.191 87.2676 244.809C87.7667 238.431 88.1728 232.647 88.4233 228.465C88.5312 226.376 88.2652 224.68 87.825 223.599C87.3997 222.51 86.962 222.008 86.9954 221.989Z" fill="#263238"/>
<path d="M92.2587 241.639C92.2333 241.71 91.5891 241.543 90.8197 241.267C90.0503 240.991 89.447 240.71 89.4725 240.639C89.4979 240.569 90.1421 240.736 90.9115 241.011C91.6809 241.287 92.2842 241.569 92.2587 241.639Z" fill="#263238"/>
<path d="M93.1722 233.901C93.2026 233.969 92.5901 234.31 91.8033 234.663C91.0165 235.015 90.3543 235.245 90.3233 235.176C90.293 235.108 90.9055 234.767 91.6923 234.415C92.4791 234.063 93.1419 233.833 93.1722 233.901Z" fill="#263238"/>
<path d="M92.6978 227.586C92.6929 227.661 92.1857 227.687 91.5657 227.644C90.9457 227.601 90.4472 227.506 90.4522 227.431C90.4571 227.356 90.9643 227.331 91.5843 227.374C92.2049 227.416 92.7034 227.511 92.6978 227.586Z" fill="#263238"/>
<path d="M84.8648 223.539C84.8015 223.579 84.4686 223.164 84.122 222.614C83.7754 222.063 83.5454 221.584 83.6093 221.544C83.6725 221.505 84.0048 221.919 84.352 222.469C84.6986 223.02 84.928 223.499 84.8648 223.539Z" fill="#263238"/>
<path d="M82.2748 227.358C82.2729 227.433 81.7906 227.483 81.1966 227.47C80.6027 227.458 80.1222 227.387 80.124 227.312C80.1259 227.237 80.6082 227.186 81.2022 227.199C81.7962 227.212 82.276 227.283 82.2748 227.358Z" fill="#263238"/>
<path d="M80.4145 234.999C80.3866 235.068 79.8782 234.929 79.2799 234.687C78.6809 234.446 78.2184 234.194 78.2463 234.124C78.2742 234.055 78.782 234.195 79.3809 234.436C79.9798 234.678 80.4424 234.929 80.4145 234.999Z" fill="#263238"/>
<path d="M80.2176 241.425C80.2331 241.498 79.8004 241.652 79.2517 241.766C78.7023 241.882 78.2454 241.916 78.2299 241.842C78.2144 241.769 78.6472 241.616 79.1959 241.5C79.7446 241.386 80.2021 241.351 80.2176 241.425Z" fill="#263238"/>
<path d="M79.3421 251.936C79.3552 252.01 78.8964 252.154 78.3167 252.258C77.737 252.362 77.2565 252.386 77.2434 252.312C77.2304 252.239 77.6892 252.095 78.2689 251.991C78.8486 251.886 79.3291 251.862 79.3421 251.936Z" fill="#263238"/>
<path d="M78.7612 257.739C78.7959 257.805 78.4134 258.076 77.9062 258.344C77.3991 258.613 76.9595 258.776 76.9241 258.71C76.8888 258.644 77.272 258.373 77.7791 258.104C78.2863 257.836 78.7265 257.672 78.7612 257.739Z" fill="#263238"/>
<path d="M83.5008 264.323C83.4357 264.36 83.1021 263.899 82.7555 263.294C82.409 262.689 82.1808 262.168 82.2453 262.131C82.3104 262.093 82.6439 262.554 82.9905 263.159C83.3377 263.765 83.5659 264.286 83.5008 264.323Z" fill="#263238"/>
<path d="M84.8678 253.379C84.9205 253.433 84.5485 253.882 84.0376 254.383C83.5267 254.884 83.0698 255.247 83.0177 255.193C82.965 255.14 83.337 254.691 83.8479 254.19C84.3587 253.688 84.8157 253.325 84.8678 253.379Z" fill="#263238"/>
<path d="M84.5653 247.637C84.5102 247.688 84.1654 247.405 83.7953 247.005C83.4245 246.605 83.1691 246.24 83.2243 246.189C83.2795 246.138 83.6242 246.421 83.9943 246.821C84.3645 247.22 84.6205 247.586 84.5653 247.637Z" fill="#263238"/>
<path d="M85.5075 240.3C85.5633 240.35 85.2533 240.787 84.8156 241.275C84.3772 241.765 83.9773 242.12 83.9215 242.07C83.8657 242.019 84.1757 241.583 84.6135 241.094C85.0512 240.606 85.4517 240.25 85.5075 240.3Z" fill="#263238"/>
<path d="M86.0323 234.976C85.9796 235.029 85.5474 234.69 85.0669 234.217C84.5858 233.745 84.2392 233.318 84.2913 233.265C84.344 233.211 84.7761 233.551 85.2566 234.024C85.7378 234.496 86.085 234.922 86.0323 234.976Z" fill="#263238"/>
<path d="M87.0725 227.778C87.137 227.816 86.92 228.299 86.5877 228.855C86.2554 229.412 85.9342 229.832 85.8697 229.794C85.8053 229.756 86.0223 229.273 86.3546 228.716C86.6869 228.16 87.0081 227.739 87.0725 227.778Z" fill="#263238"/>
<path d="M89.028 221.107C89.0937 221.143 88.9022 221.625 88.5996 222.186C88.297 222.746 87.9982 223.171 87.9319 223.136C87.8661 223.1 88.0577 222.617 88.3609 222.057C88.6635 221.497 88.9623 221.071 89.028 221.107Z" fill="#263238"/>
<path d="M91.2466 224.136C91.2788 224.204 90.975 224.417 90.5683 224.611C90.1616 224.806 89.8051 224.909 89.7729 224.841C89.7406 224.774 90.0444 224.561 90.4511 224.366C90.8585 224.172 91.2144 224.069 91.2466 224.136Z" fill="#263238"/>
<path d="M91.2992 248.093C91.2843 248.163 90.5954 248.068 89.8142 247.733C89.0306 247.401 88.4862 246.969 88.5265 246.91C88.5687 246.844 89.162 247.162 89.9203 247.483C90.6773 247.808 91.3171 248.017 91.2992 248.093Z" fill="#263238"/>
<path d="M90.3939 253.165C90.4081 253.239 89.9506 253.389 89.3727 253.501C88.7943 253.612 88.3138 253.643 88.3001 253.57C88.2859 253.496 88.7434 253.346 89.3213 253.234C89.8991 253.123 90.3796 253.092 90.3939 253.165Z" fill="#263238"/>
<path d="M89.2768 261.866C89.2328 261.922 88.6525 261.525 88.1205 260.851C87.5848 260.179 87.3306 259.523 87.3957 259.493C87.4658 259.458 87.8173 260.036 88.3332 260.682C88.8447 261.331 89.3277 261.806 89.2768 261.866Z" fill="#263238"/>
<path d="M77.0734 265.844C77.025 265.787 77.3331 265.443 77.7622 265.076C78.1912 264.709 78.5787 264.458 78.6277 264.515C78.6761 264.572 78.3679 264.915 77.9389 265.282C77.5098 265.649 77.1223 265.901 77.0734 265.844Z" fill="#263238"/>
<path d="M73.5658 246.858C73.0717 245.315 72.1442 243.516 70.5241 243.492C69.5625 243.479 68.6982 244.168 68.2462 245.017C67.7943 245.865 67.6027 246.849 67.6306 247.81C67.816 254.159 68.9158 261.42 71.1125 268.033H77.0403C76.9653 260.687 75.8059 253.855 73.5658 246.858Z" fill="#455A64"/>
<path d="M62.8457 237.143C62.0174 233.829 59.5455 232.039 56.6743 231.873C54.0541 232.332 53.038 234.912 52.7267 237.554C52.4155 240.195 53.2357 242.825 54.0461 245.359C56.647 253.494 59.2485 261.629 61.8494 269.765C64.3077 269.497 66.766 269.228 69.2243 268.96C66.89 258.061 65.5496 247.957 62.8457 237.143Z" fill="#455A64"/>
<path d="M70.5251 243.491C70.5506 243.511 70.2821 243.757 70.0229 244.33C69.7663 244.905 69.6429 245.823 69.7458 246.95C69.8605 248.077 69.9895 249.434 70.1786 250.921C70.372 252.411 70.6398 254.042 70.9734 255.744C71.6436 259.15 72.3988 262.206 72.878 264.434C73.1211 265.547 73.304 266.451 73.4199 267.077C73.4689 267.366 73.5098 267.604 73.5439 267.801C73.5693 267.967 73.578 268.055 73.5687 268.057C73.5594 268.059 73.5328 267.975 73.49 267.812C73.4429 267.619 73.3858 267.384 73.3164 267.1C73.1589 266.439 72.9475 265.553 72.6908 264.477C72.1638 262.262 71.3789 259.213 70.7068 255.797C70.3726 254.09 70.111 252.451 69.9306 250.953C69.8363 250.205 69.7737 249.49 69.7129 248.822C69.6584 248.157 69.5858 247.537 69.5542 246.965C69.4736 245.821 69.6305 244.867 69.9268 244.287C70.2263 243.706 70.5251 243.491 70.5251 243.491Z" fill="#263238"/>
<path d="M56.7789 231.663C56.8043 231.686 56.3865 232.037 55.888 232.861C55.3907 233.675 54.8631 235.003 54.7658 236.72C54.6529 238.436 55.0355 240.473 55.6784 242.657C56.3263 244.852 57.0368 247.26 57.7827 249.789C59.2533 254.844 60.5845 259.418 61.5573 262.764C62.0216 264.406 62.4005 265.745 62.6714 266.705C62.7917 267.151 62.8878 267.509 62.9609 267.78C63.0242 268.026 63.0533 268.157 63.044 268.16C63.0347 268.162 62.9888 268.037 62.9082 267.795C62.8227 267.527 62.7105 267.175 62.5697 266.734C62.2783 265.781 61.8716 264.45 61.3731 262.818C60.3805 259.479 59.0227 254.913 57.5223 249.866C56.7833 247.335 56.0796 244.924 55.4379 242.726C54.8055 240.529 54.4347 238.456 54.5742 236.708C54.6982 234.96 55.2655 233.616 55.7987 232.805C56.3331 231.985 56.7789 231.663 56.7789 231.663Z" fill="#263238"/>
<path d="M67.6155 268.173C67.6068 268.177 67.5497 268.055 67.4487 267.82C67.352 267.583 67.1951 267.239 67.0283 266.782C66.6768 265.876 66.226 264.541 65.7598 262.866C65.2911 261.191 64.8304 259.171 64.3853 256.918C63.9581 254.66 63.4887 252.183 62.9965 249.582C62.4837 246.986 61.9127 244.529 61.2499 242.337C60.589 240.145 59.8475 238.216 59.0998 236.655C58.3558 235.092 57.6453 233.88 57.1114 233.072C56.8579 232.658 56.6272 232.361 56.4902 232.145C56.3476 231.933 56.2763 231.819 56.2837 231.813C56.2912 231.808 56.3774 231.911 56.5342 232.113C56.6861 232.319 56.931 232.607 57.1988 233.014C57.7612 233.807 58.5021 235.01 59.2721 236.572C60.0465 238.132 60.811 240.065 61.4886 242.265C62.1681 244.464 62.7485 246.928 63.2624 249.53C63.7473 252.132 64.2092 254.611 64.6302 256.871C65.0611 259.123 65.5013 261.14 65.9446 262.816C66.3854 264.492 66.8064 265.831 67.1269 266.746C67.2776 267.208 67.4183 267.557 67.4983 267.8C67.5838 268.041 67.6242 268.169 67.6155 268.173Z" fill="#263238"/>
<path d="M54.1756 244.142C54.1929 244.215 53.7924 244.375 53.2797 244.499C52.7669 244.624 52.3373 244.666 52.3199 244.593C52.3019 244.52 52.7031 244.361 53.2158 244.236C53.7279 244.111 54.1576 244.069 54.1756 244.142Z" fill="#263238"/>
<path d="M53.3958 239.108C53.392 239.184 52.8347 239.215 52.152 239.242C51.4688 239.268 50.9114 239.281 50.9015 239.206C50.8916 239.133 51.4446 238.998 52.1415 238.971C52.8384 238.944 53.4001 239.035 53.3958 239.108Z" fill="#263238"/>
<path d="M54.2261 234.512C54.1777 234.569 53.7772 234.309 53.3314 233.931C52.8856 233.553 52.5639 233.2 52.6122 233.143C52.6606 233.086 53.0611 233.346 53.5069 233.725C53.9521 234.102 54.2744 234.455 54.2261 234.512Z" fill="#263238"/>
<path d="M56.475 230.257C56.5494 230.274 56.529 230.632 56.5178 231.066C56.5042 231.499 56.5035 231.858 56.4279 231.871C56.356 231.884 56.232 231.522 56.2462 231.058C56.2593 230.594 56.4037 230.239 56.475 230.257Z" fill="#263238"/>
<path d="M61.0726 232.261C61.1339 232.304 60.9535 232.668 60.6702 233.073C60.3862 233.478 60.1066 233.772 60.0452 233.729C59.9838 233.686 60.1636 233.323 60.4476 232.917C60.7316 232.512 61.0112 232.219 61.0726 232.261Z" fill="#263238"/>
<path d="M64.0552 237.445C64.0837 237.514 63.7018 237.736 63.202 237.939C62.7029 238.142 62.2751 238.252 62.2466 238.182C62.2181 238.113 62.6 237.891 63.0997 237.688C63.5988 237.484 64.0266 237.375 64.0552 237.445Z" fill="#263238"/>
<path d="M65.8665 242.777C65.8969 242.843 65.391 243.132 64.6972 243.288C64.0041 243.446 63.4231 243.404 63.4219 243.332C63.4188 243.254 63.9718 243.176 64.6371 243.023C65.303 242.874 65.8362 242.707 65.8665 242.777Z" fill="#263238"/>
<path d="M57.5565 241.262C57.4852 241.24 57.5366 240.871 57.6724 240.439C57.8076 240.007 57.9756 239.675 58.0469 239.697C58.1182 239.719 58.0667 240.088 57.931 240.52C57.7958 240.952 57.6284 241.284 57.5565 241.262Z" fill="#263238"/>
<path d="M58.716 247.957C58.6472 247.928 58.7966 247.431 59.0495 246.849C59.3025 246.267 59.5629 245.818 59.6317 245.848C59.7005 245.878 59.5511 246.375 59.2982 246.957C59.0458 247.539 58.7848 247.987 58.716 247.957Z" fill="#263238"/>
<path d="M55.8523 249.79C55.8232 249.86 55.3557 249.733 54.7902 249.557C54.2248 249.38 53.7685 249.218 53.7846 249.143C53.8001 249.071 54.293 249.116 54.8715 249.298C55.4493 249.477 55.8808 249.722 55.8523 249.79Z" fill="#263238"/>
<path d="M57.5033 255.248C57.5467 255.309 57.2311 255.609 56.7977 255.918C56.3643 256.228 55.9781 256.428 55.9347 256.368C55.8913 256.307 56.2068 256.007 56.6402 255.697C57.0736 255.388 57.4599 255.187 57.5033 255.248Z" fill="#263238"/>
<path d="M58.827 260.691C58.845 260.763 58.4537 260.921 57.954 261.043C57.4543 261.165 57.0346 261.204 57.0172 261.131C56.9992 261.058 57.3904 260.901 57.8902 260.779C58.3893 260.658 58.809 260.618 58.827 260.691Z" fill="#263238"/>
<path d="M66.0115 247.323C66.0493 247.385 65.7152 247.652 65.2285 247.834C64.7424 248.018 64.3152 248.039 64.3022 247.967C64.2873 247.892 64.6705 247.756 65.133 247.581C65.5955 247.407 65.9731 247.256 66.0115 247.323Z" fill="#263238"/>
<path d="M67.0389 255.79C67.0072 255.857 66.6086 255.737 66.1498 255.521C65.6904 255.305 65.3444 255.075 65.376 255.007C65.4076 254.94 65.8057 255.06 66.2651 255.276C66.7245 255.492 67.0711 255.722 67.0389 255.79Z" fill="#263238"/>
<path d="M68.8511 261.85C68.8238 261.919 68.298 261.779 67.6768 261.535C67.0555 261.292 66.5744 261.038 66.6017 260.968C66.629 260.899 67.1547 261.039 67.776 261.283C68.3972 261.526 68.8783 261.78 68.8511 261.85Z" fill="#263238"/>
<path d="M59.1162 266.595C59.0796 266.527 59.5632 266.202 60.1218 265.761C60.6829 265.323 61.1132 264.929 61.1703 264.982C61.2254 265.029 60.8714 265.519 60.2892 265.974C59.7089 266.432 59.1491 266.66 59.1162 266.595Z" fill="#263238"/>
<path d="M63.9087 263.513C63.8318 263.522 63.7276 263.115 63.5423 262.642C63.3612 262.167 63.1647 261.796 63.2279 261.751C63.285 261.707 63.5993 262.033 63.7952 262.545C63.9942 263.055 63.9806 263.508 63.9087 263.513Z" fill="#263238"/>
<path d="M62.6393 256.228C62.5952 256.288 62.2859 256.141 61.948 255.898C61.6101 255.655 61.3714 255.41 61.4154 255.349C61.4588 255.288 61.7682 255.435 62.1067 255.678C62.4446 255.921 62.6833 256.167 62.6393 256.228Z" fill="#263238"/>
<path d="M73.8042 244.808C73.8489 244.868 73.5475 245.166 73.1309 245.473C72.7143 245.78 72.341 245.98 72.2964 245.92C72.2517 245.86 72.5531 245.562 72.9697 245.255C73.3863 244.948 73.7602 244.748 73.8042 244.808Z" fill="#263238"/>
<path d="M75.4873 249.408C75.4941 249.481 75.0223 249.58 74.4383 249.516C73.8542 249.454 73.414 249.256 73.4364 249.187C73.4581 249.113 73.9113 249.188 74.4674 249.246C75.0229 249.308 75.4817 249.332 75.4873 249.408Z" fill="#263238"/>
<path d="M68.2539 250.441C68.2701 250.512 67.833 250.669 67.2688 250.706C66.7039 250.744 66.2501 250.647 66.2569 250.574C66.2625 250.498 66.7083 250.472 67.2508 250.435C67.7933 250.401 68.2378 250.366 68.2539 250.441Z" fill="#263238"/>
<path d="M68.8739 246.092C68.8683 246.164 68.4269 246.176 67.9439 245.952C67.4591 245.731 67.1807 245.389 67.2315 245.338C67.2836 245.28 67.6159 245.506 68.0574 245.705C68.4957 245.91 68.8838 246.015 68.8739 246.092Z" fill="#263238"/>
<path d="M76.1097 254.349C76.0701 254.412 75.6175 254.2 75.0998 253.874C74.5814 253.547 74.1946 253.232 74.2342 253.169C74.2739 253.105 74.7265 253.318 75.2442 253.644C75.7619 253.97 76.1494 254.286 76.1097 254.349Z" fill="#263238"/>
<path d="M93.7607 267.259H55.165V274.1H93.7607V267.259Z" fill="#004267"/>
<path d="M58.0479 272.743L62.7406 293.185H85.7439L90.8787 272.743H58.0479Z" fill="#004267"/>
<path d="M93.7415 274.11C93.7415 274.185 85.0355 274.245 74.2989 274.245C63.5587 274.245 54.8545 274.185 54.8545 274.11C54.8545 274.035 63.5587 273.974 74.2989 273.974C85.0355 273.974 93.7415 274.035 93.7415 274.11Z" fill="#263238"/>
<path d="M72.2744 250.591C72.2112 250.631 71.9471 250.323 71.6855 249.905C71.4238 249.486 71.2626 249.114 71.3265 249.074C71.3903 249.034 71.6538 249.342 71.9155 249.761C72.1771 250.18 72.3377 250.552 72.2744 250.591Z" fill="#263238"/>
<path d="M72.29 256.094C72.2187 256.071 72.3092 255.606 72.4921 255.056C72.675 254.506 72.8808 254.079 72.9515 254.103C73.0228 254.126 72.9323 254.591 72.7494 255.141C72.5665 255.691 72.3607 256.118 72.29 256.094Z" fill="#263238"/>
<path d="M74.173 261.873C74.1054 261.905 73.8171 261.443 73.5288 260.841C73.2405 260.239 73.0619 259.724 73.1295 259.692C73.1971 259.66 73.4854 260.122 73.7737 260.724C74.062 261.326 74.2406 261.84 74.173 261.873Z" fill="#263238"/>
<path d="M70.0964 266.522C70.04 266.473 70.27 266.115 70.611 265.722C70.9514 265.33 71.2738 265.051 71.3302 265.1C71.3866 265.149 71.1566 265.507 70.8156 265.9C70.4752 266.293 70.1534 266.571 70.0964 266.522Z" fill="#263238"/>
<path d="M69.2403 258.08C69.2273 258.153 68.8559 258.15 68.4107 258.071C67.9656 257.992 67.6153 257.869 67.6283 257.795C67.6413 257.721 68.0127 257.725 68.4578 257.804C68.903 257.883 69.2533 258.006 69.2403 258.08Z" fill="#263238"/>
<path d="M203.514 220.246H111.988V293.233H203.514V220.246Z" fill="#E0E0E0"/>
<g opacity="0.3">
<path d="M118.658 220.397C129.434 224.243 141.319 225.062 152.883 225.279C155.278 225.323 157.703 225.32 160.021 225.924C162.338 226.527 164.582 227.828 165.772 229.906C167.068 232.168 166.93 235.002 166.194 237.503C165.459 240.005 164.184 242.311 163.263 244.75C161.647 249.03 161.144 253.726 161.819 258.25C162.105 260.173 162.621 262.109 163.732 263.704C164.843 265.3 166.633 266.514 168.577 266.542C172.055 266.592 174.437 263.173 176.162 260.152C183.235 247.761 190.888 233.673 195.414 220.143L118.658 220.397Z" fill="black"/>
</g>
<path d="M143.174 292.843C143.085 292.843 143.013 276.666 143.013 256.715C143.013 236.757 143.085 220.583 143.174 220.583C143.263 220.583 143.335 236.757 143.335 256.715C143.335 276.665 143.263 292.843 143.174 292.843Z" fill="#455A64"/>
<path d="M180.681 166.307C180.408 164.488 174.969 158.469 174.969 158.469C174.969 158.469 172.249 147.552 171.433 144.333C171.229 143.529 170.792 142.615 170.25 141.696C168.351 138.476 165.567 135.868 162.309 134.036L154.781 129.803L152.979 125.795L134.89 116.502L129.986 125.154C129.986 125.154 118.076 128.939 116.5 131.643C114.923 134.346 117.282 170.577 117.282 170.577C117.282 170.577 112.297 191.487 111.246 195.813C110.195 200.138 111.584 205.301 111.584 205.301L120.455 194.168C123.211 190.709 129.264 189.119 133.61 189.18L170.754 189.344L169.277 178.94L199.311 184.781C199.311 184.781 204.479 174.703 204.887 174.501C205.295 174.299 180.681 166.307 180.681 166.307Z" fill="#004267"/>
<path d="M134.117 128.556C133.856 128.291 136.217 136.26 139.178 144.377C140.774 148.75 141.574 153.388 141.574 158.059V175.927V187.446L159.385 186.236L156.722 166.878C156.722 166.878 154.551 154.39 153.943 149.641C153.386 145.293 151.474 133.5 151.474 133.5C151.474 133.5 141.575 136.151 134.117 128.556Z" fill="white"/>
<path d="M173.637 173.611C173.617 173.609 173.61 173.45 173.636 173.163C173.661 172.877 173.729 172.463 173.87 171.966C174.145 170.975 174.779 169.639 175.906 168.51C177.032 167.38 178.368 166.744 179.358 166.467C179.855 166.325 180.268 166.256 180.555 166.23C180.842 166.204 181.001 166.21 181.003 166.231C181.01 166.286 180.379 166.353 179.428 166.685C178.481 167.01 177.216 167.654 176.135 168.738C175.053 169.821 174.411 171.087 174.089 172.035C173.759 172.987 173.693 173.619 173.637 173.611Z" fill="#263238"/>
<path d="M174.555 166.56C174.516 166.489 175.686 165.897 177.273 165.772C178.861 165.636 180.112 166.029 180.084 166.105C180.066 166.201 178.827 165.961 177.299 166.094C175.772 166.213 174.589 166.652 174.555 166.56Z" fill="#263238"/>
<g opacity="0.3">
<path d="M115.485 182.594L113.939 184.347C115.595 186.273 117.747 187.889 120.214 188.496C122.681 189.103 125.245 189.175 127.785 189.181C128.813 189.184 129.858 189.174 130.846 188.89C131.854 188.6 132.794 188.027 133.84 187.964C134.541 187.922 135.231 188.114 135.918 188.261C136.604 188.409 137.331 188.51 137.999 188.295C138.668 188.079 139.252 187.459 139.211 186.759C131.487 184.506 123.514 183.106 115.485 182.594Z" fill="black"/>
</g>
<path d="M166.328 184.842L161.958 180.201L152.969 177.926C152.969 177.926 144.732 180.394 144.535 180.387C144.338 180.38 137.366 178.482 137.366 178.482L134.93 187.419L147.486 188.279L161.823 187.705C161.823 187.705 162.571 187.009 162.127 186.533C161.684 186.057 164.524 187.337 164.858 187.353C165.186 187.368 165.841 187.625 166.284 187.089C166.586 186.725 166.996 185.552 166.328 184.842Z" fill="#FFBE9D"/>
<path d="M162.127 186.533C162.11 186.577 161.569 186.403 160.698 186.126C159.827 185.85 158.621 185.48 157.273 185.134C155.924 184.79 154.688 184.534 153.792 184.354C152.896 184.175 152.34 184.062 152.346 184.017C152.351 183.974 152.919 184.007 153.83 184.129C154.74 184.252 155.993 184.474 157.353 184.821C158.713 185.17 159.918 185.577 160.774 185.911C161.631 186.245 162.142 186.494 162.127 186.533Z" fill="#EB996E"/>
<path d="M166.327 184.842C166.309 184.887 165.558 184.607 164.334 184.199C163.11 183.786 161.4 183.281 159.498 182.75C157.598 182.185 155.907 181.621 154.624 181.546C153.347 181.437 152.567 181.69 152.555 181.627C152.55 181.609 152.736 181.531 153.093 181.445C153.449 181.359 153.981 181.295 154.637 181.318C155.962 181.336 157.706 181.881 159.586 182.439C161.488 182.97 163.2 183.513 164.41 183.984C165.016 184.216 165.499 184.422 165.829 184.574C166.159 184.725 166.336 184.822 166.327 184.842Z" fill="#EB996E"/>
<path d="M116.499 131.644C116.499 131.644 110.019 136.15 108.442 142.639C106.866 149.128 100.035 175.626 101.436 179.591C102.837 183.557 130.084 187.445 130.084 187.445L133.312 173.823L119.476 170.038C119.476 170.038 119.651 157.421 119.826 152.194C120.001 146.966 116.499 131.644 116.499 131.644Z" fill="#004267"/>
<path d="M133.132 175.854L137.591 176.952L134.909 187.233L130.527 186.532L133.132 175.854Z" fill="white"/>
<path d="M101.334 178.189C101.357 178.189 101.321 178.416 101.4 178.831C101.489 179.239 101.753 179.832 102.35 180.377C103.535 181.48 105.795 182.398 108.663 182.914L108.672 182.916L108.684 182.919C109.994 183.35 111.487 183.692 113.083 184.053C114.683 184.411 116.398 184.777 118.211 185.146C121.836 185.887 125.848 186.667 130.098 187.462L129.913 187.582C130.221 186.318 130.546 184.982 130.877 183.628C131.641 180.502 132.381 177.474 133.084 174.603L133.193 174.79C128.617 173.484 124.441 172.292 120.895 171.28L120.888 171.278L120.882 171.275C119.004 170.506 117.137 170.225 115.518 170.335C113.892 170.41 112.528 170.845 111.47 171.286C110.41 171.74 109.651 172.233 109.144 172.574C108.91 172.745 108.724 172.88 108.581 172.985C108.454 173.077 108.386 173.122 108.382 173.117C108.377 173.112 108.437 173.057 108.558 172.955C108.68 172.855 108.856 172.699 109.102 172.513C109.597 172.151 110.35 171.634 111.413 171.155C112.476 170.689 113.853 170.227 115.506 170.133C117.152 170.002 119.059 170.271 120.978 171.042L120.965 171.037C124.515 172.032 128.696 173.205 133.278 174.489L133.423 174.53L133.388 174.676C132.689 177.548 131.952 180.576 131.191 183.704C130.861 185.058 130.534 186.394 130.226 187.657L130.19 187.804L130.041 187.777C125.789 186.976 121.78 186.185 118.155 185.426C116.342 185.049 114.628 184.672 113.028 184.303C111.429 183.929 109.944 183.577 108.61 183.125L108.63 183.13C105.731 182.578 103.464 181.622 102.269 180.463C101.668 179.89 101.41 179.264 101.341 178.842C101.279 178.413 101.334 178.189 101.334 178.189Z" fill="#263238"/>
<path d="M120.224 170.941C120.186 170.982 119.724 170.559 118.892 170.002C118.064 169.444 116.836 168.789 115.374 168.36C113.909 167.936 112.522 167.83 111.523 167.856C110.523 167.88 109.906 167.989 109.896 167.934C109.888 167.902 110.493 167.712 111.512 167.629C112.527 167.543 113.96 167.615 115.464 168.05C116.966 168.491 118.214 169.199 119.024 169.817C119.839 170.433 120.248 170.919 120.224 170.941Z" fill="#263238"/>
<path d="M122.037 148.746C122.059 148.747 122.061 149.043 122.046 149.577C122.035 150.111 121.988 150.882 121.915 151.835C121.763 153.739 121.479 156.366 120.981 159.239C120.493 162.115 119.868 164.689 119.262 166.507C119.111 166.961 118.954 167.366 118.82 167.722C118.673 168.054 118.541 168.351 118.424 168.614C118.169 169.087 118.019 169.342 118 169.331C117.981 169.32 118.093 169.046 118.31 168.563C118.411 168.296 118.525 167.995 118.652 167.658C118.768 167.299 118.908 166.892 119.045 166.437C119.59 164.617 120.176 162.05 120.663 159.184C121.158 156.321 121.478 153.707 121.688 151.813C121.781 150.914 121.859 150.161 121.921 149.567C121.975 149.038 122.015 148.745 122.037 148.746Z" fill="#263238"/>
<path d="M137.841 141.718C137.82 141.724 137.776 141.549 137.626 141.26C137.474 140.976 137.197 140.569 136.694 140.241C136.207 139.917 135.454 139.686 134.678 139.946C133.917 140.192 133.166 140.908 132.977 141.872L132.89 142.313L132.7 141.905C132.047 140.501 131.38 138.877 130.806 137.118C129.758 133.925 129.306 130.868 129.405 128.66C129.402 128.108 129.482 127.611 129.514 127.176C129.589 126.743 129.644 126.37 129.711 126.069C129.868 125.472 129.965 125.148 129.986 125.154C130.066 125.169 129.619 126.477 129.633 128.664C129.593 130.843 130.074 133.851 131.112 137.018C131.682 138.762 132.334 140.378 132.966 141.783L132.689 141.816C132.92 140.73 133.759 139.969 134.604 139.714C135.472 139.445 136.291 139.73 136.792 140.096C137.312 140.467 137.578 140.912 137.709 141.22C137.773 141.375 137.811 141.5 137.826 141.586C137.844 141.672 137.849 141.716 137.841 141.718Z" fill="#263238"/>
<path d="M152.958 143.114C152.937 143.116 152.896 142.854 152.815 142.376C152.749 141.899 152.591 141.198 152.684 140.298C152.808 139.415 153.225 138.345 154.178 137.552C154.65 137.162 155.296 136.901 155.981 136.905C156.658 136.904 157.397 137.168 157.879 137.754L157.605 137.91C157.417 137.435 157.218 136.936 157.017 136.429C155.86 133.508 154.83 130.857 154.1 128.933C153.757 128.013 153.472 127.246 153.25 126.649C153.056 126.107 152.959 125.804 152.98 125.796C153.001 125.788 153.138 126.077 153.368 126.605C153.615 127.192 153.932 127.948 154.314 128.854C155.098 130.757 156.162 133.396 157.319 136.316C157.52 136.824 157.717 137.323 157.905 137.799L158.283 138.756L157.631 137.956C157.226 137.457 156.585 137.217 155.979 137.211C155.366 137.204 154.794 137.423 154.354 137.775C153.468 138.482 153.034 139.503 152.894 140.327C152.778 141.175 152.898 141.882 152.93 142.362C152.975 142.845 152.978 143.113 152.958 143.114Z" fill="#263238"/>
<path d="M164.455 144.653C164.543 144.64 165.944 154.066 167.584 165.704C169.224 177.345 170.482 186.789 170.393 186.802C170.305 186.814 168.904 177.39 167.264 165.749C165.624 154.112 164.366 144.665 164.455 144.653Z" fill="#263238"/>
<g opacity="0.3">
<path d="M130.994 137.221C131.07 139.628 131.597 142.018 132.539 144.223C133.214 143.389 133.962 142.507 134.989 142.261C136.27 141.955 137.565 142.747 138.49 143.708C138.294 142.749 137.97 141.795 137.372 141.033C136.774 140.271 135.866 139.723 134.914 139.749C133.963 139.775 133.017 140.472 132.845 141.436L131.069 137.262" fill="black"/>
</g>
<path d="M120.524 144.032C120.464 144.031 120.485 143.383 120.297 142.37C120.111 141.36 119.66 139.989 118.789 138.683C118.35 138.034 117.858 137.471 117.372 136.998C116.871 136.542 116.391 136.159 115.951 135.892C115.08 135.342 114.466 135.131 114.487 135.074C114.494 135.053 114.651 135.092 114.931 135.183C115.073 135.224 115.243 135.286 115.431 135.377C115.621 135.465 115.843 135.557 116.068 135.696C116.535 135.945 117.046 136.32 117.574 136.78C118.087 137.256 118.604 137.833 119.057 138.503C119.958 139.854 120.391 141.289 120.522 142.334C120.588 142.857 120.606 143.285 120.583 143.579C120.566 143.872 120.546 144.033 120.524 144.032Z" fill="#263238"/>
<path d="M156.511 99.7882C155.777 92.9043 149.878 87.741 142.957 87.9189L142.27 87.9369C134.865 88.5606 131.258 95.1983 132.086 102.583L134.118 128.558L134.979 129.614C138.96 134.5 145.731 136.096 151.475 133.502L150.906 125.146C150.906 125.146 158.007 123.853 157.912 116.723C157.865 113.279 157.193 106.193 156.511 99.7882Z" fill="#FFBE9D"/>
<path d="M150.96 125.132C150.96 125.132 146.415 125.523 141.55 122.638C141.55 122.638 143.879 127.712 150.974 126.887L150.96 125.132Z" fill="#EB996E"/>
<path d="M154.264 105.68C154.296 106.217 153.869 106.687 153.309 106.732C152.75 106.776 152.268 106.378 152.236 105.841C152.203 105.304 152.631 104.832 153.19 104.788C153.75 104.744 154.231 105.143 154.264 105.68Z" fill="#263238"/>
<path d="M154.711 101.807C154.631 101.933 153.822 102.018 152.859 102.54C151.894 103.052 151.315 103.711 151.18 103.701C151.115 103.7 151.173 103.521 151.423 103.23C151.668 102.942 152.128 102.542 152.729 102.219C153.331 101.897 153.893 101.748 154.242 101.717C154.597 101.685 154.753 101.748 154.711 101.807Z" fill="#263238"/>
<path d="M143.974 106.225C144.007 106.762 143.579 107.233 143.019 107.277C142.459 107.322 141.979 106.924 141.946 106.386C141.913 105.85 142.341 105.378 142.9 105.334C143.461 105.289 143.941 105.688 143.974 106.225Z" fill="#263238"/>
<path d="M143.807 103.307C143.665 103.338 143.001 102.889 141.939 102.627C140.879 102.359 140.015 102.426 139.919 102.336C139.872 102.294 140.031 102.214 140.41 102.181C140.782 102.146 141.39 102.173 142.052 102.338C142.713 102.504 143.232 102.757 143.514 102.956C143.801 103.155 143.876 103.294 143.807 103.307Z" fill="#263238"/>
<path d="M148.11 111.82C148.103 111.758 148.782 111.623 149.881 111.453C150.16 111.417 150.423 111.355 150.466 111.163C150.526 110.959 150.401 110.66 150.258 110.339C149.978 109.668 149.684 108.966 149.376 108.23C148.149 105.227 147.253 102.755 147.374 102.706C147.496 102.658 148.588 105.052 149.815 108.056C150.111 108.797 150.394 109.502 150.663 110.178C150.777 110.493 150.968 110.849 150.836 111.272C150.766 111.483 150.565 111.641 150.387 111.693C150.209 111.753 150.051 111.76 149.914 111.771C148.805 111.859 148.116 111.882 148.11 111.82Z" fill="#263238"/>
<path d="M143.828 99.0755C143.706 99.3675 142.62 99.1734 141.328 99.2658C140.035 99.3321 138.981 99.6576 138.824 99.383C138.753 99.2515 138.948 98.9806 139.38 98.7128C139.809 98.4455 140.485 98.2037 141.26 98.156C142.035 98.1089 142.734 98.2657 143.193 98.479C143.656 98.6911 143.882 98.9366 143.828 99.0755Z" fill="#263238"/>
<path d="M154.685 99.3184C154.447 99.5695 153.503 99.3208 152.372 99.3202C151.24 99.2873 150.284 99.5087 150.06 99.2502C149.962 99.1249 150.111 98.8738 150.527 98.6345C150.938 98.3952 151.626 98.1968 152.403 98.2073C153.181 98.2191 153.857 98.438 154.254 98.6891C154.656 98.9408 154.79 99.1956 154.685 99.3184Z" fill="#263238"/>
<path d="M158.593 93.4821C158.457 92.8348 157.819 92.288 157.165 92.3853C157.514 92.2607 157.872 92.1311 158.148 91.8843C158.424 91.6376 158.601 91.242 158.485 90.8905C158.302 90.3393 157.597 90.2258 157.038 90.0671C156.309 89.8607 155.648 89.4192 155.178 88.8259C154.501 87.9703 154.24 86.8568 153.654 85.9348C152.897 84.7419 151.58 83.9204 150.175 83.7661C148.77 83.6111 147.305 84.1257 146.307 85.1251C145.217 84.0066 143.575 83.4548 142.031 83.6904C140.488 83.9254 139.084 84.941 138.377 86.3335C136.486 85.5461 134.177 85.8716 132.576 87.1506C130.975 88.4297 130.149 90.6096 130.5 92.6283L134.94 95.3495C135.013 93.9768 136.544 92.8875 137.864 93.2688C139.204 93.6563 140.061 95.2082 141.453 95.3136C142.536 95.396 143.458 94.5565 144.507 94.275C145.78 93.934 147.124 94.4437 148.273 95.091C149.421 95.7383 150.512 96.5424 151.79 96.8654C153.288 97.2436 154.884 96.9119 156.314 96.3266C156.926 96.0762 157.533 95.7699 157.989 95.2906C158.444 94.8113 158.728 94.1294 158.593 93.4821Z" fill="#263238"/>
<path d="M135.71 93.2562L156.043 93.1396C155.372 91.7552 154.213 90.664 152.962 89.7693C150.265 87.8399 146.984 86.6792 143.669 86.7133C140.353 86.7474 133.719 90.9715 131.381 93.3231C129.511 95.2048 129.567 96.7871 129.567 96.7871C129.335 99.4301 130.893 102.384 131.551 104.955C131.89 106.281 132.586 110.301 132.586 110.301H132.587C133.706 110.266 134.098 109.363 133.897 108.261L133.567 103.924C133.567 103.924 137.3 101.112 135.358 96.2092C135.057 95.823 134.389 94.0299 135.71 93.2562Z" fill="#263238"/>
<path d="M133.251 103.636C132.216 100.035 131.266 96.1766 132.366 92.5949C132.164 92.5868 131.964 92.5781 131.762 92.5701L131.51 92.7536C130.373 92.3711 129.012 92.8044 128.305 93.7741C127.598 94.7438 127.602 96.1723 128.314 97.1382C127.11 97.0818 125.954 98.0893 125.844 99.2903C125.768 100.119 126.129 100.92 126.498 101.665C126.868 102.411 127.265 103.183 127.271 104.016C127.276 104.848 126.744 105.752 125.917 105.85C126.287 106.704 127.322 107.206 128.221 106.97C127.935 107.673 127.444 108.293 126.824 108.731C128.149 109.633 129.967 109.325 131.408 108.623C132.263 108.207 133.102 107.614 133.45 106.73C133.837 105.75 133.542 104.648 133.251 103.636Z" fill="#263238"/>
<path d="M132.92 107.833C132.797 107.783 127.985 106.51 128.266 111.379C128.547 116.249 133.378 114.962 133.378 114.822C133.378 114.682 132.92 107.833 132.92 107.833Z" fill="#FFBE9D"/>
<path d="M132.208 113.049C132.186 113.035 132.127 113.113 131.987 113.187C131.851 113.259 131.613 113.317 131.354 113.237C130.829 113.077 130.348 112.286 130.274 111.41C130.236 110.968 130.304 110.54 130.441 110.181C130.57 109.817 130.786 109.555 131.042 109.494C131.296 109.419 131.488 109.564 131.556 109.697C131.629 109.83 131.603 109.928 131.63 109.935C131.644 109.946 131.73 109.847 131.679 109.649C131.653 109.553 131.59 109.442 131.47 109.355C131.348 109.266 131.173 109.228 130.994 109.258C130.62 109.306 130.302 109.671 130.151 110.064C129.98 110.46 129.893 110.942 129.936 111.438C130.024 112.418 130.579 113.307 131.295 113.469C131.642 113.539 131.922 113.419 132.063 113.296C132.206 113.167 132.226 113.056 132.208 113.049Z" fill="#EB996E"/>
<path d="M127.86 103.792C127.846 103.802 127.723 103.608 127.771 103.226C127.816 102.853 128.085 102.313 128.681 101.956C129.27 101.597 130.084 101.51 130.911 101.418C131.73 101.329 132.666 101.096 133.134 100.289C133.602 99.5018 133.615 98.5389 133.515 97.7329C133.4 96.9152 133.183 96.1724 133.076 95.5332C132.819 94.2442 133.065 93.4221 133.109 93.4438C133.168 93.4525 133.023 94.2417 133.339 95.4792C133.476 96.1005 133.718 96.8228 133.861 97.684C133.982 98.5327 134 99.5638 133.457 100.487C133.187 100.941 132.754 101.287 132.297 101.469C131.839 101.655 131.378 101.719 130.952 101.765C130.101 101.839 129.352 101.899 128.811 102.191C128.276 102.473 127.997 102.932 127.916 103.255C127.829 103.586 127.894 103.785 127.86 103.792Z" fill="#455A64"/>
<path d="M126.686 101.669C126.667 101.677 126.579 101.53 126.536 101.229C126.496 100.933 126.519 100.468 126.779 99.9761C126.908 99.733 127.097 99.4863 127.357 99.281C127.613 99.0671 127.961 98.9351 128.292 98.8446C128.624 98.7478 128.968 98.6623 129.216 98.4651C129.464 98.2698 129.575 97.9468 129.583 97.5729C129.597 97.2016 129.541 96.8116 129.549 96.4204C129.555 96.0335 129.6 95.6621 129.674 95.3149C129.826 94.6193 130.078 94.0321 130.372 93.5746C130.666 93.1034 131.135 92.8727 131.45 92.8895C131.773 92.8926 131.908 93.0376 131.893 93.05C131.88 93.0798 131.731 92.9949 131.461 93.037C131.192 93.0711 130.839 93.2807 130.599 93.7178C130.358 94.1512 130.138 94.7302 130.016 95.3837C129.956 95.7117 129.921 96.0614 129.921 96.4235C129.916 96.7824 129.975 97.1644 129.961 97.5878C129.96 98.0007 129.807 98.4862 129.446 98.7565C129.094 99.0219 128.708 99.0926 128.384 99.1818C127.717 99.312 127.271 99.6834 127.01 100.109C126.495 100.982 126.759 101.672 126.686 101.669Z" fill="#455A64"/>
<path d="M155.183 88.8303C155.214 88.8371 154.816 89.0956 154.178 88.7956C153.865 88.6567 153.557 88.3634 153.258 88.0125C152.96 87.6572 152.621 87.2778 152.127 87.0094C151.176 86.4687 149.637 86.3286 148.455 87.2524C147.852 87.6895 147.32 88.299 146.619 88.8092C146.269 89.0597 145.862 89.2829 145.4 89.3728C144.939 89.4633 144.449 89.3988 144.014 89.2414C143.136 88.9264 142.444 88.3882 141.686 88.1136C140.931 87.8216 140.145 87.6926 139.399 87.7019C137.897 87.7056 136.598 88.271 135.711 88.9704C134.809 89.6685 134.281 90.4553 133.97 91.0108C133.667 91.5763 133.557 91.9204 133.525 91.9098C133.513 91.9061 133.53 91.8175 133.574 91.6507C133.62 91.4845 133.704 91.2446 133.838 90.9445C134.116 90.3555 134.625 89.5166 135.544 88.7608C136.446 88.0038 137.809 87.3752 139.394 87.3522C140.181 87.3324 141.014 87.4607 141.819 87.7664C142.636 88.0634 143.343 88.6034 144.139 88.883C144.534 89.025 144.942 89.0758 145.33 89.0014C145.718 88.9276 146.077 88.7373 146.403 88.506C147.058 88.0379 147.604 87.4278 148.249 86.969C148.887 86.4892 149.669 86.2567 150.377 86.2647C151.09 86.2684 151.742 86.4693 152.261 86.7756C152.786 87.0807 153.145 87.5159 153.421 87.8755C153.703 88.2363 153.968 88.516 154.245 88.6635C154.805 88.9797 155.185 88.7937 155.183 88.8303Z" fill="#455A64"/>
<path d="M145.406 113.097C145.56 113.061 145.737 114.102 146.753 114.691C147.767 115.283 148.857 114.979 148.89 115.123C148.916 115.187 148.677 115.367 148.211 115.459C147.754 115.552 147.058 115.517 146.437 115.157C145.817 114.795 145.481 114.23 145.374 113.809C145.261 113.38 145.334 113.103 145.406 113.097Z" fill="#263238"/>
<path d="M209.563 209.971C207.721 208.329 205.175 207.567 202.712 207.711L198.523 221.026C201.594 221.161 204.656 222.744 207.621 221.933C210.001 221.281 211.806 219.046 212.137 216.6C212.468 214.154 211.405 211.612 209.563 209.971Z" fill="#004267"/>
<path d="M202.787 207.396C202.796 207.288 203.242 207.205 204.056 207.213C204.865 207.236 206.066 207.328 207.485 207.859C208.908 208.386 210.46 209.463 211.661 211.102C212.262 211.92 212.764 212.895 213.054 213.99C213.349 215.082 213.402 216.301 213.158 217.483C212.915 218.667 212.395 219.778 211.635 220.662C210.875 221.554 209.9 222.171 208.932 222.536C206.977 223.27 205.098 223.153 203.661 222.877C202.209 222.592 201.117 222.168 200.377 221.857C199.638 221.538 199.252 221.305 199.284 221.199C199.316 221.091 199.768 221.122 200.554 221.254C201.339 221.378 202.458 221.623 203.821 221.746C205.172 221.868 206.811 221.827 208.373 221.158C209.146 220.825 209.867 220.326 210.423 219.645C210.985 218.965 211.384 218.097 211.576 217.159C211.977 215.266 211.405 213.379 210.442 211.954C209.478 210.512 208.214 209.486 207.028 208.905C205.831 208.307 204.727 208.043 203.971 207.836C203.21 207.639 202.778 207.51 202.787 207.396Z" fill="#F5F5F5"/>
<path d="M163.962 257.341L154.848 282.877L186.56 294.379C187.473 291.283 173.273 279.25 173.273 279.25L179.784 263.128L163.962 257.341Z" fill="#004267"/>
<g opacity="0.6">
<path d="M163.963 274.32C163.289 274.265 162.614 274.801 162.532 275.473C162.449 276.144 162.989 276.835 163.662 276.902C164.335 276.968 165.165 276.349 165.172 275.673C165.179 274.996 164.501 274.22 163.831 274.317" fill="white"/>
</g>
<path d="M154.848 282.877L155.768 280.3L185.892 292.316C185.892 292.316 187.081 293.442 186.561 294.379L154.848 282.877Z" fill="white"/>
<path d="M173.842 279.279C173.781 279.433 172.981 279.222 172.039 279.444C171.09 279.64 170.455 280.169 170.334 280.056C170.202 279.974 170.769 279.132 171.915 278.884C173.058 278.625 173.927 279.149 173.842 279.279Z" fill="#263238"/>
<path d="M176.671 281.856C176.653 282.02 175.886 282.039 175.123 282.504C174.346 282.945 173.956 283.605 173.805 283.543C173.65 283.514 173.872 282.569 174.832 282.01C175.787 281.442 176.722 281.708 176.671 281.856Z" fill="#263238"/>
<path d="M177.121 286.521C176.969 286.503 177.034 285.651 177.739 284.947C178.44 284.238 179.291 284.168 179.309 284.321C179.351 284.48 178.715 284.764 178.145 285.351C177.562 285.924 177.281 286.561 177.121 286.521Z" fill="#263238"/>
<path d="M174.922 275.437C174.806 275.554 174.173 275.083 173.276 274.825C172.385 274.549 171.597 274.595 171.564 274.433C171.515 274.289 172.388 273.957 173.441 274.276C174.495 274.586 175.043 275.342 174.922 275.437Z" fill="#263238"/>
<path d="M175.544 271.403C175.523 271.467 174.876 271.341 173.959 270.818C173.503 270.558 172.987 270.19 172.483 269.705C172.231 269.462 171.982 269.191 171.746 268.891C171.635 268.744 171.495 268.586 171.402 268.343C171.289 268.119 171.341 267.674 171.63 267.494C171.88 267.309 172.206 267.308 172.436 267.386C172.673 267.463 172.846 267.579 173.002 267.684C173.325 267.898 173.613 268.135 173.867 268.381C174.373 268.876 174.739 269.403 174.983 269.873C175.472 270.821 175.513 271.491 175.45 271.501C175.361 271.527 175.179 270.912 174.634 270.079C174.361 269.663 173.989 269.201 173.506 268.767C173.263 268.551 172.994 268.343 172.696 268.155C172.392 267.944 172.107 267.838 171.967 267.957C171.915 268.002 171.902 268.023 171.937 268.147C171.977 268.264 172.081 268.402 172.191 268.548C172.405 268.832 172.63 269.094 172.856 269.331C173.31 269.806 173.771 270.186 174.178 270.477C174.995 271.061 175.577 271.32 175.544 271.403Z" fill="#263238"/>
<path d="M175.253 271.552C175.189 271.556 175.084 270.89 175.391 269.866C175.545 269.359 175.815 268.775 176.238 268.206C176.451 267.923 176.702 267.645 176.992 267.388C177.292 267.142 177.67 266.805 178.296 266.954C178.614 267.056 178.786 267.395 178.799 267.637C178.826 267.89 178.78 268.081 178.751 268.279C178.674 268.67 178.536 269.031 178.364 269.349C178.019 269.988 177.539 270.449 177.09 270.744C176.173 271.341 175.459 271.291 175.465 271.234C175.442 271.137 176.09 271.034 176.85 270.417C177.225 270.112 177.619 269.674 177.894 269.107C178.031 268.824 178.14 268.511 178.197 268.179C178.27 267.823 178.242 267.506 178.104 267.495C177.947 267.435 177.587 267.592 177.36 267.814C177.094 268.039 176.859 268.283 176.654 268.532C176.248 269.033 175.962 269.55 175.772 270.005C175.391 270.92 175.345 271.559 175.253 271.552Z" fill="#263238"/>
<path d="M133.236 189.135C128.426 189.247 123.862 189.927 120.549 193.416C116.155 198.044 110.72 204.635 110.412 209.207C109.95 216.04 114.073 218.071 117.082 219.737C118.413 220.475 119.931 220.806 121.451 220.748L177.053 220.326L178.799 210.908L142.837 202.045L144.331 188.51L133.236 189.135Z" fill="#263238"/>
<path d="M144.33 188.512L161.822 187.707C161.822 187.707 192.038 189.386 198.483 195.294C204.927 201.202 204.122 207.916 201.974 214.361C199.825 220.806 180.893 262.028 180.893 262.028C180.893 262.028 182.428 264.649 181.565 267.264C180.228 271.314 176.627 271.967 176.627 271.967L159.813 265.787C159.813 265.787 157.53 264.982 159.141 262.833C160.752 260.685 161.826 260.282 161.826 260.282V255.985C161.826 255.985 167.734 245.243 168.271 243.766C168.808 242.289 174.471 220.427 174.471 220.427L178.233 213.962C178.233 213.962 169.135 209.685 161.251 206.585L142.837 202.047L144.33 188.512Z" fill="#263238"/>
<path d="M172.701 265.007C172.667 265.048 172.137 264.629 171.226 264.04C170.316 263.451 169.003 262.719 167.459 262.129C165.913 261.544 164.446 261.219 163.374 261.055C162.302 260.889 161.627 260.851 161.629 260.798C161.629 260.762 162.309 260.719 163.403 260.828C164.496 260.935 166 261.231 167.573 261.827C169.145 262.427 170.466 263.205 171.354 263.851C172.245 264.497 172.725 264.98 172.701 265.007Z" fill="#455A64"/>
<path d="M181.104 262.057C181.071 262.085 180.694 261.694 180.128 261.028C179.56 260.362 178.806 259.419 178.015 258.344C177.224 257.269 176.547 256.267 176.08 255.527C175.614 254.788 175.353 254.313 175.389 254.289C175.427 254.265 175.755 254.695 176.27 255.399C176.857 256.205 177.531 257.131 178.275 258.153C179.029 259.167 179.712 260.086 180.307 260.886C180.826 261.587 181.139 262.028 181.104 262.057Z" fill="#455A64"/>
<path d="M187.267 208.06C187.277 208.113 186.65 208.246 185.674 208.57C184.698 208.892 183.383 209.441 182.053 210.267C180.726 211.099 179.656 212.04 178.939 212.775C178.219 213.51 177.824 214.014 177.781 213.982C177.752 213.962 178.084 213.406 178.772 212.619C179.456 211.833 180.527 210.842 181.883 209.994C183.241 209.149 184.601 208.622 185.608 208.352C186.616 208.079 187.262 208.025 187.267 208.06Z" fill="#455A64"/>
<path d="M170.065 237.25C170.054 237.247 170.078 237.122 170.134 236.887C170.201 236.618 170.287 236.279 170.392 235.862C170.641 234.934 170.982 233.663 171.399 232.11C172.29 228.912 173.502 224.566 174.841 219.764C175.538 217.356 176.137 215.059 176.81 212.98C177.592 210.917 178.83 209.326 179.976 208.149C181.132 206.969 182.214 206.175 182.981 205.672C183.37 205.425 183.674 205.238 183.888 205.125C184.101 205.009 184.215 204.952 184.22 204.962C184.235 204.987 183.799 205.248 183.053 205.775C182.311 206.308 181.26 207.122 180.141 208.307C179.03 209.488 177.834 211.069 177.089 213.083C176.444 215.133 175.845 217.457 175.15 219.856C173.777 224.647 172.533 228.983 171.619 232.173C171.161 233.714 170.786 234.976 170.513 235.896C170.384 236.306 170.279 236.64 170.196 236.904C170.121 237.134 170.076 237.253 170.065 237.25Z" fill="#455A64"/>
<path d="M154.596 205.759C154.507 205.767 154.14 202.497 153.775 198.456C153.41 194.413 153.187 191.13 153.275 191.122C153.364 191.114 153.732 194.384 154.096 198.427C154.461 202.468 154.685 205.751 154.596 205.759Z" fill="#455A64"/>
<path d="M125.481 214.492C125.432 214.516 125.162 213.986 124.614 213.211C124.07 212.435 123.211 211.434 122.074 210.542C120.933 209.654 119.754 209.063 118.869 208.723C117.984 208.379 117.405 208.245 117.417 208.192C117.423 208.158 118.022 208.213 118.946 208.507C119.868 208.799 121.1 209.374 122.272 210.288C123.441 211.204 124.298 212.26 124.804 213.084C125.314 213.909 125.513 214.478 125.481 214.492Z" fill="#455A64"/>
<path d="M136.198 202.619C136.167 202.669 135.426 202.193 134.141 201.609C132.86 201.023 131.006 200.38 128.877 200.07C126.746 199.769 124.786 199.865 123.392 200.067C121.995 200.267 121.15 200.514 121.134 200.458C121.128 200.437 121.334 200.359 121.714 200.238C122.092 200.11 122.654 199.971 123.356 199.842C124.758 199.578 126.755 199.444 128.923 199.751C131.089 200.066 132.967 200.757 134.239 201.403C134.876 201.725 135.377 202.017 135.703 202.245C136.034 202.469 136.21 202.6 136.198 202.619Z" fill="#455A64"/>
<path d="M178.08 210.901C178.078 210.912 177.928 210.887 177.644 210.829C177.331 210.761 176.92 210.672 176.41 210.561C175.303 210.313 173.764 209.967 171.878 209.543C168.05 208.685 162.756 207.537 156.887 206.373C151.016 205.212 145.683 204.257 141.818 203.591C139.912 203.265 138.357 202.998 137.239 202.807C136.725 202.714 136.312 202.64 135.996 202.584C135.712 202.529 135.564 202.495 135.565 202.485C135.567 202.474 135.719 202.486 136.006 202.52C136.324 202.562 136.74 202.616 137.259 202.683C138.346 202.83 139.917 203.063 141.855 203.367C145.731 203.975 151.075 204.895 156.95 206.057C162.823 207.221 168.114 208.406 171.929 209.321C173.837 209.778 175.378 210.161 176.439 210.439C176.944 210.575 177.35 210.683 177.66 210.766C177.937 210.844 178.083 210.891 178.08 210.901Z" fill="#455A64"/>
<path d="M142.837 203.643C142.775 203.661 142.645 202.908 142.067 201.866C141.774 201.349 141.352 200.778 140.795 200.22C140.243 199.659 139.567 199.101 138.848 198.537C137.396 197.425 135.922 196.64 134.865 196.063C133.802 195.494 133.142 195.138 133.164 195.096C133.182 195.058 133.875 195.34 134.968 195.86C136.055 196.386 137.563 197.146 139.045 198.281C139.775 198.854 140.451 199.424 141.009 200.014C141.57 200.598 141.992 201.209 142.268 201.758C142.543 202.309 142.691 202.785 142.765 203.118C142.839 203.451 142.856 203.638 142.837 203.643Z" fill="#455A64"/>
<path d="M204.766 212.05C204.837 212.119 203.907 213.059 203.183 214.488C202.444 215.91 202.222 217.214 202.125 217.196C202.045 217.196 202.128 215.822 202.896 214.341C203.651 212.854 204.72 211.985 204.766 212.05Z" fill="#263238"/>
<g opacity="0.3">
<path d="M164.969 148.513L168.949 176.549L169.148 176.997C170.087 167.352 168.64 157.482 164.969 148.513Z" fill="black"/>
</g>
<path d="M186.403 164.623L173.461 187.257L141.573 187.951L141.494 189.395L172.37 189.165L173.349 189.132L205.953 189.196L212.541 177.833L220.958 165.771C221.509 164.98 220.941 163.896 219.977 163.899L187.431 164.023C187.006 164.025 186.613 164.254 186.403 164.623Z" fill="#E0E0E0"/>
<path d="M212.54 177.833C212.54 177.833 214.215 179.368 213.951 180.673C213.686 181.978 213.775 182.948 212.54 183.036C212.54 183.036 212.628 184.711 210.864 184.976C210.864 184.976 211.242 187.021 208.862 187.374C208.862 187.374 208.131 189.562 206.632 189.033C205.133 188.504 204.163 187.886 204.163 187.886L203.723 187.093C203.723 187.093 201.514 186.263 202.058 185.015C202.388 184.258 203.53 184.062 203.53 184.062C203.53 184.062 203.055 182.951 203.672 182.122C204.201 181.41 205.925 181.999 205.925 181.999C205.925 181.999 205.824 181.08 206.472 180.311C207.059 179.615 209.803 181.507 209.803 181.507L211.301 179.718L212.54 177.833Z" fill="#FFBE9D"/>
<path d="M208.862 187.375C208.815 187.45 207.583 186.77 206.111 185.856C204.638 184.941 203.483 184.138 203.53 184.062C203.577 183.986 204.808 184.666 206.281 185.582C207.753 186.495 208.909 187.299 208.862 187.375Z" fill="#EB996E"/>
<path d="M210.865 184.977C210.819 185.053 209.676 184.449 208.312 183.627C206.948 182.804 205.879 182.076 205.925 182C205.971 181.924 207.114 182.528 208.478 183.35C209.842 184.172 210.911 184.901 210.865 184.977Z" fill="#EB996E"/>
<path d="M208.137 180.488C208.186 180.397 209.21 180.936 210.4 181.69C211.592 182.451 212.552 183.043 212.529 183.103C212.484 183.208 211.42 182.725 210.229 181.964C209.033 181.207 208.101 180.555 208.137 180.488Z" fill="#EB996E"/>
<path d="M220.963 164.757C220.963 164.762 220.91 164.768 220.807 164.773C220.685 164.778 220.534 164.783 220.349 164.789C219.921 164.797 219.333 164.807 218.588 164.82C217.032 164.832 214.827 164.85 212.114 164.871C206.623 164.884 199.083 164.9 190.753 164.918C190.231 164.918 189.713 164.918 189.198 164.918C188.709 164.881 188.265 165.096 188.012 165.478C187.521 166.363 187.038 167.235 186.563 168.092C185.61 169.811 184.691 171.471 183.814 173.053C182.059 176.206 180.478 179.048 179.144 181.444C177.814 183.809 176.733 185.731 175.971 187.087C175.6 187.732 175.307 188.242 175.094 188.614C174.999 188.772 174.922 188.901 174.859 189.007C174.805 189.094 174.774 189.138 174.769 189.135C174.764 189.132 174.785 189.083 174.83 188.99C174.885 188.881 174.953 188.747 175.037 188.582C175.237 188.203 175.513 187.684 175.861 187.026C176.602 185.657 177.652 183.718 178.944 181.332C180.261 178.927 181.822 176.073 183.555 172.907C184.426 171.322 185.34 169.66 186.287 167.937C186.765 167.073 187.251 166.194 187.744 165.302C188.045 164.82 188.656 164.549 189.197 164.596C189.713 164.596 190.231 164.596 190.752 164.596C199.082 164.615 206.623 164.631 212.113 164.643C214.826 164.665 217.032 164.682 218.588 164.695C219.332 164.708 219.92 164.717 220.349 164.725C220.534 164.731 220.684 164.737 220.806 164.741C220.91 164.746 220.963 164.751 220.963 164.757Z" fill="#263238"/>
<path d="M198.018 176.136C197.442 176.774 197.429 177.701 197.988 178.205C198.547 178.71 199.467 178.601 200.043 177.962C200.619 177.324 200.633 176.397 200.074 175.893C199.514 175.389 198.594 175.497 198.018 176.136Z" fill="white"/>
<g opacity="0.3">
<path d="M107.505 167.383C107.228 167.495 106.913 167.679 106.91 167.977C106.908 168.218 107.132 168.413 107.368 168.464C107.605 168.515 108.457 168.161 108.693 168.109C112.044 167.369 114.807 168.078 118.001 169.333L118.105 169.227C116.83 166.538 111.11 165.931 107.505 167.383Z" fill="black"/>
</g>
<path d="M280.252 293.234C280.252 293.323 224.17 293.395 155.004 293.395C85.8154 293.395 29.7451 293.323 29.7451 293.234C29.7451 293.145 85.8154 293.073 155.004 293.073C224.17 293.073 280.252 293.145 280.252 293.234Z" fill="#263238"/>
<path d="M90.1601 95.6085C90.2673 95.7158 110.855 88.6385 110.855 88.6385L102.939 70.4713L84.6123 77.4779L94.6935 83.2705L90.1601 95.6085Z" fill="#004267"/>
<path d="M99.8174 75.9469V51.2095C99.8174 51.2095 128.219 46.0176 148.68 46.3233C169.141 46.6289 190.214 49.9881 190.214 49.9881V73.736C190.214 73.736 126.081 68.0066 99.8174 75.9469Z" fill="#004267"/>
<path d="M99.6709 75.9674L110.856 88.7462V73.736C110.856 73.736 101.501 74.8551 99.6709 75.9674Z" fill="#004267"/>
<path d="M99.8173 51.21C99.9066 51.2106 99.9456 56.7534 99.9047 63.5896C99.8638 70.4275 99.7584 75.9685 99.6691 75.9685C99.5798 75.9679 99.5407 70.4257 99.5817 63.5877C99.6226 56.7522 99.728 51.21 99.8173 51.21Z" fill="#004267"/>
<path d="M199.84 93.7117C199.733 93.8189 179.146 86.7416 179.146 86.7416L187.062 68.5744L205.388 75.581L195.307 81.3737L199.84 93.7117Z" fill="#004267"/>
<path d="M190.331 74.0704L179.146 86.8493V72.9247C182.874 73.0493 186.603 73.4312 190.331 74.0704Z" fill="#004267"/>
<path d="M190.215 49.989C190.304 49.9884 190.403 55.3793 190.435 62.0288C190.467 68.6802 190.421 74.0704 190.332 74.0711C190.243 74.0717 190.145 68.6814 190.112 62.03C190.08 55.3812 190.126 49.9896 190.215 49.989Z" fill="#004267"/>
<path d="M115.836 62.0559C115.562 60.0837 116.881 58.4624 118.918 58.1797C120.049 58.0228 121.05 58.3031 121.771 58.9658L120.923 59.9981C120.414 59.5542 119.826 59.3688 119.172 59.46C117.947 59.6299 117.198 60.6101 117.368 61.8439C117.539 63.0777 118.528 63.8173 119.752 63.6475C120.406 63.5569 120.921 63.2184 121.29 62.6437L122.387 63.4057C121.874 64.2482 120.988 64.7907 119.847 64.9488C117.818 65.2297 116.109 64.0281 115.836 62.0559Z" fill="white"/>
<path d="M122.602 61.1242C122.402 59.1724 123.774 57.5704 125.848 57.3571C127.912 57.1451 129.589 58.4235 129.791 60.3845C129.993 62.3462 128.61 63.939 126.546 64.1517C124.472 64.365 122.803 63.076 122.602 61.1242ZM128.253 60.5433C128.124 59.2952 127.155 58.5314 125.981 58.6523C124.808 58.7725 124.014 59.7174 124.143 60.9655C124.271 62.2136 125.241 62.9768 126.414 62.8565C127.586 62.7356 128.381 61.7913 128.253 60.5433Z" fill="white"/>
<path d="M137.213 63.19L136.95 59.2375L135.22 62.6189L134.533 62.663L132.399 59.6144L132.648 63.4832L131.217 63.575L130.793 56.9856L132.054 56.9044L134.784 60.8408L136.949 56.5901L138.201 56.5095L138.644 63.0976L137.213 63.19Z" fill="white"/>
<path d="M145.749 58.6789C145.79 60.1501 144.712 61.0956 142.948 61.1458L141.618 61.183L141.669 63.004L140.141 63.0468L139.956 56.4444L142.814 56.3644C144.578 56.3142 145.707 57.1983 145.749 58.6789ZM144.202 58.7223C144.181 57.9962 143.698 57.5846 142.764 57.6106L141.519 57.6459L141.584 59.9381L142.829 59.9027C143.762 59.8767 144.222 59.439 144.202 58.7223Z" fill="white"/>
<path d="M146.911 56.2794H148.439V61.6368H151.75V62.8818H146.911V56.2794Z" fill="white"/>
<path d="M157.702 61.8239L157.666 63.0503L152.554 62.9015L152.746 56.2991L157.736 56.4442L157.7 57.6705L154.229 57.5694L154.187 59.0035L157.253 59.0928L157.219 60.2813L154.153 60.1921L154.108 61.7204L157.702 61.8239Z" fill="white"/>
<path d="M160.523 57.8472L158.415 57.7201L158.49 56.4777L164.233 56.8242L164.157 58.0667L162.049 57.9396L161.726 63.2859L160.201 63.1941L160.523 57.8472Z" fill="white"/>
<path d="M169.796 62.7279L169.682 63.9493L164.591 63.4775L165.2 56.9017L170.17 57.3624L170.056 58.5838L166.599 58.2633L166.467 59.6911L169.52 59.9738L169.41 61.1574L166.357 60.8747L166.216 62.3968L169.796 62.7279Z" fill="white"/>
<path d="M171.702 57.5267L174.674 57.9241C176.814 58.2099 178.11 59.6961 177.845 61.6776C177.58 63.6591 175.941 64.7528 173.799 64.467L170.827 64.0695L171.702 57.5267ZM173.891 63.2139C175.191 63.3875 176.145 62.7254 176.312 61.473C176.48 60.22 175.732 59.3309 174.433 59.1573L173.05 58.9725L172.509 63.0292L173.891 63.2139Z" fill="white"/>
<path d="M202.921 52.2388L204.541 54.1447L209.116 52.2388L207.782 50.2375L202.921 52.2388Z" fill="#455A64"/>
<path d="M200.825 43.1842C200.825 44.5005 199.758 45.5669 198.442 45.5669C197.127 45.5669 196.06 44.4999 196.06 43.1842C196.06 41.8686 197.127 40.8016 198.442 40.8016C199.758 40.8016 200.825 41.8686 200.825 43.1842Z" fill="#004267"/>
<path d="M147.492 78.6949C147.492 79.3528 146.959 79.8866 146.301 79.8866C145.643 79.8866 145.109 79.3534 145.109 78.6949C145.109 78.0371 145.643 77.5033 146.301 77.5033C146.959 77.5039 147.492 78.0371 147.492 78.6949Z" fill="#004267"/>
<path d="M92.0316 60.8032C92.0316 61.3023 91.6267 61.7072 91.1276 61.7072C90.6285 61.7072 90.2236 61.3023 90.2236 60.8032C90.2236 60.3041 90.6285 59.8992 91.1276 59.8992C91.6267 59.8992 92.0316 60.3041 92.0316 60.8032Z" fill="#004267"/>
<path d="M88.6709 50.8373L91.3388 50.9998L92.606 45.7583L90.1143 45.8594L88.6709 50.8373Z" fill="#455A64"/>
<path d="M171.999 92.7073L172.896 95.2251L178.215 94.3348L177.144 92.0829L171.999 92.7073Z" fill="#004267"/>
<path d="M118.194 78.1832L116.551 80.2918L120.157 84.3013L121.482 82.189L118.194 78.1832Z" fill="#455A64"/>
<path d="M111.826 28.6595L118.124 35.0808L126.985 31.7322L127.335 33.9301L123.497 41.7892L127.034 47.6557L126.738 49.4065L118.164 47.9632L113.095 53.5277L111.906 52.6231L110.855 45.5489L102.856 41.3837L102.506 39.7699L110.56 37.5645L111.826 28.6595Z" fill="#EA8D09"/>
<g opacity="0.3">
<path d="M111.826 28.6595L118.124 35.0808L126.985 31.7322L127.335 33.9301L123.497 41.7892L127.034 47.6557L126.738 49.4065L118.164 47.9632L113.095 53.5277L111.906 52.6231L110.855 45.5489L102.856 41.3837L102.506 39.7699L110.56 37.5645L111.826 28.6595Z" fill="black"/>
</g>
<path d="M111.826 26.8585L118.124 33.2805L126.985 31.7323L122.824 39.7068L127.034 47.6558L118.164 46.1628L111.906 52.6232L110.584 43.7256L102.506 39.77L110.56 35.7642L111.826 26.8585Z" fill="#EA8D09"/>
<path d="M177.081 28.6595L170.782 35.0808L161.922 31.7322L161.571 33.9301L165.409 41.7892L161.872 47.6557L162.168 49.4065L170.742 47.9632L175.811 53.5277L177.001 52.6231L178.051 45.5489L186.05 41.3837L186.4 39.7699L178.347 37.5645L177.081 28.6595Z" fill="#EA8D09"/>
<g opacity="0.3">
<path d="M177.081 28.6595L170.782 35.0808L161.922 31.7322L161.571 33.9301L165.409 41.7892L161.872 47.6557L162.168 49.4065L170.742 47.9632L175.811 53.5277L177.001 52.6231L178.051 45.5489L186.05 41.3837L186.4 39.7699L178.347 37.5645L177.081 28.6595Z" fill="black"/>
</g>
<path d="M177.081 26.8585L170.782 33.2804L161.922 31.7323L166.082 39.7067L161.872 47.6557L170.742 46.1628L177.001 52.6232L178.322 43.7256L186.401 39.77L178.347 35.7641L177.081 26.8585Z" fill="#EA8D09"/>
<path d="M144.249 17.3969L149.488 27.6306L161.574 26.92L161.164 29.7349L153.488 37.8618L155.569 46.3664L154.541 48.39L144.63 43.3631L136.326 48.2214L135.219 46.6652L136.632 37.6336L128.459 29.5055L128.646 27.403L139.313 27.78L144.249 17.3969Z" fill="#EA8D09"/>
<g opacity="0.3">
<path d="M144.249 17.3969L149.488 27.6306L161.574 26.92L161.164 29.7349L153.488 37.8618L155.569 46.3664L154.541 48.39L144.63 43.3631L136.326 48.2214L135.219 46.6652L136.632 37.6336L128.459 29.5055L128.646 27.403L139.313 27.78L144.249 17.3969Z" fill="black"/>
</g>
<path d="M144.935 15.2002L150.174 25.4345L161.574 26.9207L153.46 35.0656L155.569 46.367L145.316 41.167L135.219 46.6658L136.996 35.3068L128.646 27.4037L139.999 25.5833L144.935 15.2002Z" fill="#EA8D09"/>
<path d="M165.806 107.032L174.563 107.996C176.67 104.996 179.606 102.522 183.221 100.966C193.619 96.4911 205.674 101.292 210.149 111.689C214.623 122.087 209.822 134.142 199.425 138.616C189.028 143.091 176.972 138.29 172.498 127.893C170.63 123.552 170.384 118.923 171.482 114.675L171.477 114.685L165.806 107.032Z" fill="#FAFAFA"/>
<path d="M165.806 107.031C166.149 107.487 167.919 109.834 171.541 114.637L171.407 114.645L171.412 114.636C171.434 114.596 171.483 114.583 171.521 114.604C171.554 114.622 171.569 114.66 171.561 114.694C170.836 117.526 170.557 121.257 171.696 125.28C171.987 126.277 172.339 127.298 172.83 128.291C173.079 128.785 173.315 129.296 173.585 129.797C173.887 130.28 174.194 130.769 174.505 131.265C175.835 133.19 177.567 134.996 179.682 136.463C181.792 137.931 184.28 139.058 186.993 139.651C189.701 140.243 192.636 140.312 195.524 139.69C198.405 139.065 201.235 137.793 203.69 135.908C206.132 134.022 208.25 131.555 209.612 128.639C211.01 125.68 211.76 122.446 211.644 119.286C211.555 116.128 210.727 113.074 209.347 110.407C207.968 107.739 206.049 105.442 203.807 103.725C201.572 101.997 199.065 100.805 196.547 100.132C194.026 99.4555 191.498 99.2986 189.146 99.5354C186.787 99.781 184.644 100.488 182.729 101.311C178.912 103.061 176.284 105.702 174.627 108.04C174.611 108.064 174.582 108.075 174.555 108.072C169.013 107.413 166.347 107.096 165.806 107.031C166.348 107.086 169.019 107.357 174.571 107.919L174.499 107.951C176.148 105.582 178.785 102.897 182.634 101.108C184.565 100.268 186.731 99.5429 189.118 99.2856C191.498 99.037 194.06 99.187 196.617 99.8659C199.171 100.54 201.716 101.744 203.987 103.492C206.265 105.23 208.218 107.558 209.622 110.265C211.027 112.97 211.87 116.071 211.962 119.279C212.082 122.489 211.323 125.774 209.901 128.78C208.518 131.741 206.366 134.248 203.883 136.162C201.388 138.076 198.514 139.364 195.587 139.995C192.654 140.622 189.674 140.548 186.928 139.941C184.177 139.334 181.656 138.185 179.521 136.691C177.382 135.198 175.632 133.363 174.293 131.408C173.98 130.905 173.672 130.408 173.367 129.919C173.096 129.41 172.859 128.892 172.609 128.391C172.117 127.385 171.766 126.35 171.477 125.34C170.345 121.266 170.651 117.501 171.404 114.654L171.552 114.713L171.547 114.723C171.526 114.762 171.477 114.776 171.438 114.755C171.428 114.749 171.419 114.74 171.412 114.732C167.872 109.87 166.141 107.493 165.806 107.031Z" fill="#263238"/>
<path d="M183.766 112.495C183.771 112.501 183.776 112.597 183.781 112.779C183.786 112.982 183.791 113.244 183.797 113.574C183.806 114.29 183.818 115.292 183.834 116.554C183.851 119.124 183.876 122.748 183.905 127.086L183.766 126.947C188.013 126.941 193.016 126.933 198.355 126.925C198.392 126.891 198.051 127.23 198.195 127.084V127.08V127.072V127.057V127.025V126.962V126.837V126.587V126.09C198.195 125.758 198.195 125.429 198.196 125.1C198.196 124.443 198.196 123.793 198.197 123.15C198.198 121.862 198.2 120.603 198.201 119.378C198.207 116.93 198.212 114.618 198.217 112.495L198.357 112.635C194.018 112.606 190.394 112.581 187.824 112.564C186.562 112.548 185.559 112.536 184.844 112.527C184.515 112.52 184.252 112.515 184.05 112.511C183.867 112.506 183.771 112.5 183.766 112.495C183.761 112.49 183.846 112.485 184.019 112.48C184.215 112.476 184.469 112.471 184.786 112.464C185.494 112.455 186.486 112.443 187.734 112.427C190.327 112.41 193.981 112.385 198.356 112.356L198.496 112.355L198.496 112.495C198.501 114.618 198.507 116.93 198.512 119.378C198.514 120.603 198.515 121.862 198.517 123.15C198.517 123.793 198.517 124.443 198.518 125.1C198.518 125.428 198.518 125.758 198.518 126.09V126.587V126.837V126.962V127.025V127.057V127.072V127.08V127.084C198.662 126.941 198.322 127.284 198.355 127.248C193.016 127.24 188.013 127.232 183.766 127.226H183.625L183.626 127.086C183.655 122.712 183.68 119.057 183.697 116.465C183.712 115.216 183.725 114.225 183.733 113.516C183.74 113.198 183.745 112.945 183.75 112.748C183.755 112.576 183.761 112.49 183.766 112.495Z" fill="#263238"/>
<path d="M196.784 114.908C196.994 115.074 195.031 117.901 192.4 121.221C191.875 121.884 191.362 122.516 190.886 123.091L190.574 123.468L190.225 123.153C187.946 121.101 186.4 119.525 186.54 119.363C186.68 119.202 188.464 120.502 190.826 122.458L190.165 122.52C190.616 121.926 191.114 121.283 191.64 120.62C194.271 117.299 196.575 114.742 196.784 114.908Z" fill="#004267"/>
</svg>
