<svg width="32" height="32" viewBox="0 0 32 32" fill="none" xmlns="http://www.w3.org/2000/svg">
<path fill-rule="evenodd" clip-rule="evenodd" d="M16.164 3.00002C16.1627 3.00068 16.1614 3.00134 16.16 3.00202C16.1567 3.00198 16.1534 3.00198 16.15 3.00202C16.0913 3.00622 16.0337 3.02078 15.98 3.04502L4.42204 7.98802C4.30336 8.00675 4.19539 8.06759 4.1179 8.15941C4.04041 8.25123 3.99857 8.36788 4.00004 8.48802V23.49C3.99945 23.5613 4.01411 23.6319 4.04304 23.697C4.04369 23.699 4.04436 23.701 4.04504 23.703C4.04943 23.7122 4.0541 23.7212 4.05904 23.73C4.11252 23.8378 4.20306 23.9226 4.31404 23.969L15.881 28.914C15.9664 28.9754 16.0689 29.0083 16.174 29.008C16.2915 29.015 16.4076 28.9803 16.502 28.91L28.062 23.969C28.1434 23.9359 28.2146 23.882 28.2685 23.8127C28.3224 23.7433 28.3571 23.661 28.369 23.574C28.3706 23.5651 28.3719 23.5561 28.373 23.547C28.3739 23.539 28.3746 23.531 28.375 23.523C28.3752 23.5147 28.3752 23.5063 28.375 23.498C28.3751 23.4953 28.3751 23.4927 28.375 23.49V8.48802C28.3763 8.36939 28.3354 8.25416 28.2596 8.16293C28.1837 8.07171 28.0779 8.01042 27.961 7.99002L16.406 3.05002C16.4024 3.04831 16.3987 3.04664 16.395 3.04502C16.3685 3.03367 16.3411 3.02464 16.313 3.01802C16.3084 3.01662 16.3037 3.01528 16.299 3.01402C16.2875 3.01093 16.2758 3.00826 16.264 3.00602C16.2594 3.00528 16.2547 3.00462 16.25 3.00402C16.2377 3.00289 16.2254 3.00223 16.213 3.00202C16.1967 3.00055 16.1804 2.99988 16.164 3.00002ZM16.187 4.04502L18.637 5.09202L8.25004 9.53502C8.23989 9.53935 8.22988 9.54402 8.22004 9.54902L5.76904 8.50002L16.189 4.04502H16.187ZM19.91 5.63702L22.883 6.90802L12.303 11.434C12.2051 11.4759 12.1231 11.5479 12.0689 11.6397C12.0148 11.7314 11.9913 11.838 12.002 11.944C12.0002 11.9633 11.9996 11.9827 12 12.002V17.352L10.916 15.725C10.8485 15.6237 10.7463 15.5506 10.6287 15.5193C10.511 15.488 10.386 15.5007 10.277 15.555L9.00004 16.193V10.303L19.91 5.63702ZM24.154 7.45102L26.607 8.50002L16.187 12.955L13.737 11.908L24.125 7.46502C24.1352 7.46068 24.1442 7.45601 24.154 7.45102ZM5.00004 9.25802L8.00004 10.541V17.002C8.00012 17.0871 8.02194 17.1708 8.06343 17.2452C8.10492 17.3195 8.1647 17.382 8.2371 17.4268C8.30951 17.4716 8.39215 17.4971 8.47718 17.501C8.56222 17.5049 8.64684 17.487 8.72304 17.449L10.328 16.646L12.057 19.238C12.0577 19.2394 12.0584 19.2407 12.059 19.242C12.114 19.3447 12.2032 19.425 12.311 19.469C12.3117 19.4697 12.3124 19.4704 12.313 19.471C12.3275 19.4767 12.3421 19.4817 12.357 19.486C12.387 19.4956 12.4178 19.5023 12.449 19.506C12.4686 19.5078 12.4883 19.5085 12.508 19.508C12.5274 19.5078 12.5468 19.5065 12.566 19.504C12.5798 19.5019 12.5935 19.4993 12.607 19.496C12.6171 19.4937 12.6271 19.491 12.637 19.488C12.6454 19.4856 12.6538 19.4829 12.662 19.48C12.6904 19.4708 12.7178 19.4591 12.744 19.445C12.7447 19.4444 12.7454 19.4437 12.746 19.443C12.8339 19.3945 12.905 19.3207 12.9503 19.2311C12.9956 19.1416 13.013 19.0405 13 18.941V12.681L15.688 13.831V27.746L5.00004 23.174V9.25802ZM27.375 9.26002V23.174L16.687 27.746V13.83L27.375 9.26002Z" fill="#004267"/>
<path d="M27.375 9.26002V23.174L16.687 27.746V13.83L27.375 9.26002Z" fill="#004267"/>
<path d="M19.91 5.63702L22.883 6.90802L12.303 11.434C12.2051 11.4759 12.1231 11.5479 12.0689 11.6397C12.0148 11.7314 11.9913 11.838 12.002 11.944C12.0002 11.9633 11.9996 11.9827 12 12.002V17.352L10.916 15.725C10.8485 15.6237 10.7463 15.5506 10.6287 15.5193C10.511 15.488 10.386 15.5007 10.277 15.555L9.00004 16.193V10.303L19.91 5.63702Z" fill="#004267"/>
</svg>
