<svg width="517" height="191" viewBox="0 0 517 191" fill="none" xmlns="http://www.w3.org/2000/svg">
<g filter="url(#filter0_d_597_31355)">
<path d="M4.5 79.5C4.5 70.9396 11.4396 64 20 64H290C298.56 64 305.5 70.9396 305.5 79.5V111.5C305.5 120.06 298.56 127 290 127H20C11.4396 127 4.5 120.06 4.5 111.5V79.5Z" stroke="#004267" shape-rendering="crispEdges"/>
<path d="M67.3012 102.5C66.2812 102.5 65.4412 102.338 64.7812 102.014C64.1212 101.69 63.6292 101.198 63.3052 100.538C62.9932 99.878 62.8372 99.044 62.8372 98.036C62.8372 97.028 62.9932 96.188 63.3052 95.516C63.6292 94.832 64.1212 94.322 64.7812 93.986C65.4412 93.638 66.2812 93.464 67.3012 93.464H71.3692V101.366H68.9572V95.03L69.5512 95.552H67.3012C66.8092 95.552 66.4132 95.612 66.1132 95.732C65.8132 95.84 65.5912 96.074 65.4472 96.434C65.3152 96.782 65.2492 97.316 65.2492 98.036C65.2492 98.72 65.3092 99.236 65.4292 99.584C65.5612 99.92 65.7772 100.142 66.0772 100.25C66.3772 100.358 66.7852 100.412 67.3012 100.412H73.2592V102.5H67.3012ZM73.2592 102.5V100.412C73.3312 100.412 73.3852 100.436 73.4212 100.484C73.4692 100.532 73.5052 100.604 73.5292 100.7C73.5652 100.796 73.5892 100.91 73.6012 101.042C73.6132 101.162 73.6192 101.3 73.6192 101.456C73.6192 101.612 73.6132 101.756 73.6012 101.888C73.5892 102.02 73.5652 102.134 73.5292 102.23C73.5052 102.314 73.4692 102.38 73.4212 102.428C73.3852 102.476 73.3312 102.5 73.2592 102.5ZM64.6192 91.808V89.756H66.9412V91.808H64.6192ZM67.8952 91.808V89.756H70.2172V91.808H67.8952ZM78.5177 102.5V100.412H80.7677V102.5H78.5177ZM80.7677 102.5V100.412C80.8277 100.412 80.8817 100.436 80.9297 100.484C80.9777 100.532 81.0137 100.604 81.0377 100.7C81.0617 100.796 81.0797 100.91 81.0917 101.042C81.1157 101.162 81.1277 101.3 81.1277 101.456C81.1277 101.612 81.1157 101.756 81.0917 101.888C81.0797 102.02 81.0617 102.134 81.0377 102.23C81.0137 102.314 80.9777 102.38 80.9297 102.428C80.8937 102.476 80.8397 102.5 80.7677 102.5ZM73.2617 102.5C73.1897 102.5 73.1357 102.476 73.0997 102.428C73.0517 102.38 73.0157 102.314 72.9917 102.23C72.9557 102.134 72.9317 102.02 72.9197 101.888C72.9077 101.756 72.9017 101.612 72.9017 101.456C72.9017 101.24 72.9137 101.06 72.9377 100.916C72.9617 100.76 73.0037 100.64 73.0637 100.556C73.1117 100.46 73.1777 100.412 73.2617 100.412V102.5ZM73.2617 102.5V100.412H77.5277L76.1237 101.582V93.464H78.5177V102.5H73.2617ZM73.9097 106.334V104.282H76.2317V106.334H73.9097ZM77.1857 106.334V104.282H79.5077V106.334H77.1857ZM94.7536 102.5V100.412H96.6436V102.5H94.7536ZM80.7676 102.5C80.6956 102.5 80.6416 102.476 80.6056 102.428C80.5576 102.38 80.5216 102.314 80.4976 102.23C80.4616 102.134 80.4376 102.02 80.4256 101.888C80.4136 101.756 80.4076 101.612 80.4076 101.456C80.4076 101.24 80.4196 101.06 80.4436 100.916C80.4676 100.76 80.5096 100.64 80.5696 100.556C80.6176 100.46 80.6836 100.412 80.7676 100.412V102.5ZM80.7676 102.5V100.412H94.3756L92.3416 102.176V98.396C92.3416 97.712 92.2516 97.166 92.0716 96.758C91.8916 96.338 91.6276 96.032 91.2796 95.84C90.9436 95.648 90.5356 95.552 90.0556 95.552C89.5396 95.552 89.0476 95.654 88.5796 95.858C88.1236 96.062 87.6976 96.326 87.3016 96.65C86.9056 96.974 86.5396 97.322 86.2036 97.694C85.8676 98.066 85.5676 98.426 85.3036 98.774C85.0396 99.11 84.8116 99.398 84.6196 99.638L84.0796 97.892C84.5476 97.328 84.9676 96.812 85.3396 96.344C85.7116 95.876 86.0656 95.462 86.4016 95.102C86.7496 94.742 87.1096 94.442 87.4816 94.202C87.8656 93.962 88.2796 93.782 88.7236 93.662C89.1796 93.53 89.7076 93.464 90.3076 93.464C91.1116 93.464 91.7956 93.602 92.3596 93.878C92.9236 94.142 93.3796 94.508 93.7276 94.976C94.0876 95.444 94.3456 95.972 94.5016 96.56C94.6696 97.148 94.7536 97.76 94.7536 98.396V102.5H80.7676ZM83.0356 100.412V93.464H85.4476V100.412H83.0356ZM96.6436 102.5V100.412C96.7156 100.412 96.7696 100.436 96.8056 100.484C96.8536 100.532 96.8896 100.604 96.9136 100.7C96.9496 100.796 96.9736 100.91 96.9856 101.042C96.9976 101.162 97.0036 101.3 97.0036 101.456C97.0036 101.612 96.9976 101.756 96.9856 101.888C96.9736 102.02 96.9496 102.134 96.9136 102.23C96.8896 102.314 96.8536 102.38 96.8056 102.428C96.7696 102.476 96.7156 102.5 96.6436 102.5ZM105.965 102.5V100.412H107.873V102.5H105.965ZM96.6406 102.5C96.5686 102.5 96.5146 102.476 96.4786 102.428C96.4306 102.38 96.3946 102.314 96.3706 102.23C96.3346 102.134 96.3106 102.02 96.2986 101.888C96.2866 101.756 96.2806 101.612 96.2806 101.456C96.2806 101.24 96.2926 101.06 96.3166 100.916C96.3406 100.76 96.3826 100.64 96.4426 100.556C96.4906 100.46 96.5566 100.412 96.6406 100.412V102.5ZM96.6406 102.5V100.412H104.381L103.571 101.078V97.748C103.571 97.028 103.343 96.482 102.887 96.11C102.443 95.738 101.735 95.552 100.763 95.552C100.487 95.552 100.109 95.576 99.6286 95.624C99.1486 95.66 98.6266 95.72 98.0626 95.804L97.8286 93.896C98.3446 93.776 98.8666 93.674 99.3946 93.59C99.9346 93.506 100.463 93.464 100.979 93.464C101.963 93.464 102.827 93.638 103.571 93.986C104.315 94.322 104.897 94.808 105.317 95.444C105.749 96.08 105.965 96.848 105.965 97.748V102.5H96.6406ZM107.873 102.5V100.412C107.933 100.412 107.987 100.436 108.035 100.484C108.083 100.532 108.119 100.604 108.143 100.7C108.167 100.796 108.185 100.91 108.197 101.042C108.221 101.162 108.233 101.3 108.233 101.456C108.233 101.612 108.221 101.756 108.197 101.888C108.185 102.02 108.167 102.134 108.143 102.23C108.119 102.314 108.083 102.38 108.035 102.428C107.987 102.476 107.933 102.5 107.873 102.5ZM99.7546 92.042V89.99H102.167V92.042H99.7546ZM122.975 102.5V100.412H124.883V102.5H122.975ZM107.873 102.5C107.801 102.5 107.747 102.476 107.711 102.428C107.663 102.38 107.627 102.314 107.603 102.23C107.567 102.134 107.543 102.02 107.531 101.888C107.519 101.756 107.513 101.612 107.513 101.456C107.513 101.24 107.525 101.06 107.549 100.916C107.573 100.76 107.615 100.64 107.675 100.556C107.723 100.46 107.789 100.412 107.873 100.412V102.5ZM118.457 102.5C117.965 102.5 117.473 102.41 116.981 102.23C116.501 102.038 116.057 101.756 115.649 101.384L117.125 99.854C117.365 100.046 117.587 100.19 117.791 100.286C118.007 100.37 118.229 100.412 118.457 100.412H121.823L120.581 101.546V97.55C120.581 97.358 120.557 97.07 120.509 96.686C120.473 96.29 120.413 95.846 120.329 95.354C120.257 94.85 120.167 94.34 120.059 93.824L122.435 93.464C122.519 93.896 122.597 94.382 122.669 94.922C122.753 95.45 122.825 95.954 122.885 96.434C122.945 96.902 122.975 97.274 122.975 97.55V102.5H118.457ZM107.873 102.5V100.412H110.501L109.961 100.97V95.3H112.373V102.5H107.873ZM112.373 102.5V100.412H113.831C114.215 100.412 114.509 100.358 114.713 100.25C114.917 100.13 115.055 99.896 115.127 99.548C115.211 99.188 115.253 98.654 115.253 97.946V94.4H117.665V97.946C117.665 99.014 117.527 99.884 117.251 100.556C116.987 101.228 116.573 101.72 116.009 102.032C115.445 102.344 114.719 102.5 113.831 102.5H112.373ZM124.883 102.5V100.412C124.943 100.412 124.997 100.436 125.045 100.484C125.093 100.532 125.129 100.604 125.153 100.7C125.177 100.796 125.195 100.91 125.207 101.042C125.231 101.162 125.243 101.3 125.243 101.456C125.243 101.612 125.231 101.756 125.207 101.888C125.195 102.02 125.177 102.134 125.153 102.23C125.129 102.314 125.093 102.38 125.045 102.428C124.997 102.476 124.943 102.5 124.883 102.5ZM115.433 89.054V87.254H117.521V89.054H115.433ZM113.687 91.808V89.756H116.009V91.808H113.687ZM116.963 91.808V89.756H119.285V91.808H116.963ZM126.923 102.5V89.774H129.335V102.5H126.923ZM124.889 102.5V100.412H126.923V102.5H124.889ZM124.889 102.5C124.817 102.5 124.763 102.476 124.727 102.428C124.679 102.38 124.643 102.314 124.619 102.23C124.583 102.134 124.559 102.02 124.547 101.888C124.535 101.756 124.529 101.612 124.529 101.456C124.529 101.24 124.541 101.06 124.565 100.916C124.589 100.76 124.631 100.64 124.691 100.556C124.739 100.46 124.805 100.412 124.889 100.412V102.5ZM132.222 102.5V89.774H134.616V102.5H132.222ZM140.884 102.5V98.414C140.884 97.226 141.07 96.272 141.442 95.552C141.814 94.82 142.366 94.292 143.098 93.968C143.83 93.632 144.73 93.464 145.798 93.464C146.878 93.464 147.784 93.632 148.516 93.968C149.248 94.292 149.8 94.82 150.172 95.552C150.544 96.272 150.73 97.226 150.73 98.414V102.5H140.884ZM143.296 101.492L142.144 100.412H149.47L148.336 101.492V98.468C148.336 97.748 148.264 97.178 148.12 96.758C147.976 96.326 147.718 96.02 147.346 95.84C146.986 95.648 146.47 95.552 145.798 95.552C145.138 95.552 144.622 95.648 144.25 95.84C143.89 96.02 143.638 96.326 143.494 96.758C143.362 97.178 143.296 97.748 143.296 98.468V101.492ZM143.008 91.808V89.756H145.33V91.808H143.008ZM146.284 91.808V89.756H148.606V91.808H146.284ZM152.133 106.964C151.977 106.964 151.809 106.958 151.629 106.946C151.449 106.934 151.263 106.916 151.071 106.892L151.161 104.84C151.353 104.852 151.533 104.864 151.701 104.876C151.881 104.888 152.013 104.894 152.097 104.894C152.565 104.894 152.937 104.708 153.213 104.336C153.501 103.964 153.645 103.442 153.645 102.77V93.464H156.057V102.77C156.057 103.586 155.889 104.312 155.553 104.948C155.229 105.584 154.773 106.076 154.185 106.424C153.597 106.784 152.913 106.964 152.133 106.964ZM166.52 102.5V100.412H168.41V102.5H166.52ZM161.66 106.964C161.216 106.964 160.748 106.928 160.256 106.856C159.776 106.796 159.26 106.712 158.708 106.604L159.068 104.678C159.668 104.75 160.178 104.804 160.598 104.84C161.018 104.876 161.372 104.894 161.66 104.894C162.524 104.894 163.148 104.738 163.532 104.426C163.916 104.114 164.108 103.646 164.108 103.022V95.12L164.702 95.552H162.452C161.96 95.552 161.564 95.612 161.264 95.732C160.964 95.84 160.742 96.074 160.598 96.434C160.466 96.782 160.4 97.316 160.4 98.036C160.4 98.72 160.46 99.236 160.58 99.584C160.712 99.92 160.928 100.142 161.228 100.25C161.528 100.358 161.936 100.412 162.452 100.412H164.108V102.5H162.452C161.432 102.5 160.592 102.338 159.932 102.014C159.272 101.69 158.78 101.198 158.456 100.538C158.144 99.878 157.988 99.044 157.988 98.036C157.988 97.028 158.144 96.188 158.456 95.516C158.78 94.832 159.272 94.322 159.932 93.986C160.592 93.638 161.432 93.464 162.452 93.464H166.52V103.022C166.52 103.838 166.316 104.54 165.908 105.128C165.512 105.728 164.948 106.184 164.216 106.496C163.496 106.808 162.644 106.964 161.66 106.964ZM168.41 102.5V100.412C168.482 100.412 168.536 100.436 168.572 100.484C168.62 100.532 168.656 100.604 168.68 100.7C168.716 100.796 168.74 100.91 168.752 101.042C168.764 101.162 168.77 101.3 168.77 101.456C168.77 101.612 168.764 101.756 168.752 101.888C168.74 102.02 168.716 102.134 168.68 102.23C168.656 102.314 168.62 102.38 168.572 102.428C168.536 102.476 168.482 102.5 168.41 102.5ZM182.398 102.5V100.412H184.288V102.5H182.398ZM168.412 102.5C168.34 102.5 168.286 102.476 168.25 102.428C168.202 102.38 168.166 102.314 168.142 102.23C168.106 102.134 168.082 102.02 168.07 101.888C168.058 101.756 168.052 101.612 168.052 101.456C168.052 101.24 168.064 101.06 168.088 100.916C168.112 100.76 168.154 100.64 168.214 100.556C168.262 100.46 168.328 100.412 168.412 100.412V102.5ZM168.412 102.5V100.412H182.02L179.986 102.176V98.396C179.986 97.712 179.896 97.166 179.716 96.758C179.536 96.338 179.272 96.032 178.924 95.84C178.588 95.648 178.18 95.552 177.7 95.552C177.184 95.552 176.692 95.654 176.224 95.858C175.768 96.062 175.342 96.326 174.946 96.65C174.55 96.974 174.184 97.322 173.848 97.694C173.512 98.066 173.212 98.426 172.948 98.774C172.684 99.11 172.456 99.398 172.264 99.638L171.724 97.892C172.192 97.328 172.612 96.812 172.984 96.344C173.356 95.876 173.71 95.462 174.046 95.102C174.394 94.742 174.754 94.442 175.126 94.202C175.51 93.962 175.924 93.782 176.368 93.662C176.824 93.53 177.352 93.464 177.952 93.464C178.756 93.464 179.44 93.602 180.004 93.878C180.568 94.142 181.024 94.508 181.372 94.976C181.732 95.444 181.99 95.972 182.146 96.56C182.314 97.148 182.398 97.76 182.398 98.396V102.5H168.412ZM170.68 100.412V93.464H173.092V100.412H170.68ZM184.288 102.5V100.412C184.36 100.412 184.414 100.436 184.45 100.484C184.498 100.532 184.534 100.604 184.558 100.7C184.594 100.796 184.618 100.91 184.63 101.042C184.642 101.162 184.648 101.3 184.648 101.456C184.648 101.612 184.642 101.756 184.63 101.888C184.618 102.02 184.594 102.134 184.558 102.23C184.534 102.314 184.498 102.38 184.45 102.428C184.414 102.476 184.36 102.5 184.288 102.5ZM186.319 102.5V89.774H188.731V102.5H186.319ZM184.285 102.5V100.412H186.319V102.5H184.285ZM184.285 102.5C184.213 102.5 184.159 102.476 184.123 102.428C184.075 102.38 184.039 102.314 184.015 102.23C183.979 102.134 183.955 102.02 183.943 101.888C183.931 101.756 183.925 101.612 183.925 101.456C183.925 101.24 183.937 101.06 183.961 100.916C183.985 100.76 184.027 100.64 184.087 100.556C184.135 100.46 184.201 100.412 184.285 100.412V102.5ZM191.618 102.5V89.774H194.012V102.5H191.618ZM210.901 102.5V100.412H212.791V102.5H210.901ZM205.717 106.964C204.673 106.964 203.737 106.772 202.909 106.388C202.093 106.016 201.451 105.494 200.983 104.822C200.515 104.15 200.281 103.388 200.281 102.536C200.281 102.296 200.299 101.978 200.335 101.582C200.371 101.186 200.419 100.742 200.479 100.25C200.551 99.758 200.623 99.26 200.695 98.756C200.779 98.24 200.857 97.742 200.929 97.262L203.305 97.586C203.173 98.39 203.059 99.128 202.963 99.8C202.879 100.46 202.813 101.024 202.765 101.492C202.717 101.96 202.693 102.302 202.693 102.518C202.693 102.998 202.813 103.412 203.053 103.76C203.293 104.108 203.635 104.378 204.079 104.57C204.535 104.774 205.081 104.876 205.717 104.876C206.377 104.876 206.911 104.78 207.319 104.588C207.727 104.396 208.021 104.132 208.201 103.796C208.393 103.46 208.489 103.082 208.489 102.662V89.774H210.901V102.662C210.901 103.526 210.673 104.282 210.217 104.93C209.773 105.578 209.161 106.076 208.381 106.424C207.601 106.784 206.713 106.964 205.717 106.964ZM212.791 102.5V100.412C212.863 100.412 212.917 100.436 212.953 100.484C213.001 100.532 213.037 100.604 213.061 100.7C213.097 100.796 213.121 100.91 213.133 101.042C213.145 101.162 213.151 101.3 213.151 101.456C213.151 101.612 213.145 101.756 213.133 101.888C213.121 102.02 213.097 102.134 213.061 102.23C213.037 102.314 213.001 102.38 212.953 102.428C212.917 102.476 212.863 102.5 212.791 102.5ZM212.797 102.5V100.412H217.063L215.659 101.582V93.464H218.053V102.5H212.797ZM212.797 102.5C212.725 102.5 212.671 102.476 212.635 102.428C212.587 102.38 212.551 102.314 212.527 102.23C212.491 102.134 212.467 102.02 212.455 101.888C212.443 101.756 212.437 101.612 212.437 101.456C212.437 101.24 212.449 101.06 212.473 100.916C212.497 100.76 212.539 100.64 212.599 100.556C212.647 100.46 212.713 100.412 212.797 100.412V102.5ZM213.445 106.334V104.282H215.767V106.334H213.445ZM216.721 106.334V104.282H219.043V106.334H216.721ZM227.399 102.5V100.412H229.289V102.5H227.399ZM220.091 102.5V100.412H226.625L224.987 101.834V98.81C224.987 97.958 224.897 97.298 224.717 96.83C224.549 96.362 224.261 96.032 223.853 95.84C223.457 95.648 222.911 95.552 222.215 95.552H220.757V93.464H222.215C223.319 93.464 224.255 93.644 225.023 94.004C225.803 94.364 226.391 94.94 226.787 95.732C227.195 96.512 227.399 97.538 227.399 98.81V102.5H220.091ZM229.289 102.5V100.412C229.361 100.412 229.421 100.436 229.469 100.484C229.517 100.532 229.553 100.604 229.577 100.7C229.601 100.796 229.619 100.91 229.631 101.042C229.643 101.162 229.649 101.3 229.649 101.456C229.649 101.612 229.643 101.756 229.631 101.888C229.619 102.02 229.601 102.134 229.577 102.23C229.553 102.314 229.517 102.38 229.469 102.428C229.421 102.476 229.361 102.5 229.289 102.5ZM229.285 102.5V100.412H233.101C233.617 100.412 234.115 100.316 234.595 100.124C235.075 99.92 235.513 99.656 235.909 99.332C236.317 98.996 236.671 98.63 236.971 98.234C237.283 97.826 237.523 97.412 237.691 96.992C237.871 96.572 237.961 96.176 237.961 95.804V94.652L239.113 96.56C238.489 96.224 237.853 95.972 237.205 95.804C236.557 95.636 235.939 95.552 235.351 95.552C234.775 95.552 234.157 95.636 233.497 95.804C232.849 95.972 232.219 96.224 231.607 96.56L232.759 94.652V95.804C232.759 96.176 232.843 96.572 233.011 96.992C233.191 97.412 233.431 97.826 233.731 98.234C234.031 98.63 234.385 98.996 234.793 99.332C235.201 99.656 235.645 99.92 236.125 100.124C236.605 100.316 237.097 100.412 237.601 100.412H241.309V102.5H238.357C237.421 102.5 236.545 102.35 235.729 102.05C234.913 101.75 234.175 101.354 233.515 100.862C232.855 100.358 232.285 99.812 231.805 99.224C231.337 98.624 230.977 98.03 230.725 97.442C230.473 96.842 230.347 96.296 230.347 95.804V94.778C230.863 94.49 231.409 94.25 231.985 94.058C232.573 93.866 233.155 93.722 233.731 93.626C234.319 93.518 234.859 93.464 235.351 93.464C235.855 93.464 236.395 93.518 236.971 93.626C237.547 93.722 238.123 93.866 238.699 94.058C239.287 94.25 239.839 94.49 240.355 94.778V95.804C240.355 96.296 240.229 96.842 239.977 97.442C239.725 98.03 239.359 98.624 238.879 99.224C238.411 99.812 237.847 100.358 237.187 100.862C236.527 101.354 235.789 101.75 234.973 102.05C234.157 102.35 233.281 102.5 232.345 102.5H229.285ZM229.285 102.5C229.213 102.5 229.159 102.476 229.123 102.428C229.075 102.38 229.039 102.314 229.015 102.23C228.979 102.134 228.955 102.02 228.943 101.888C228.931 101.756 228.925 101.612 228.925 101.456C228.925 101.24 228.937 101.06 228.961 100.916C228.985 100.76 229.027 100.64 229.087 100.556C229.135 100.46 229.201 100.412 229.285 100.412V102.5ZM241.309 102.5V100.412C241.381 100.412 241.441 100.436 241.489 100.484C241.537 100.532 241.573 100.604 241.597 100.7C241.621 100.796 241.639 100.91 241.651 101.042C241.663 101.162 241.669 101.3 241.669 101.456C241.669 101.612 241.663 101.756 241.651 101.888C241.639 102.02 241.621 102.134 241.597 102.23C241.573 102.314 241.537 102.38 241.489 102.428C241.441 102.476 241.381 102.5 241.309 102.5ZM241.309 102.5V100.412H245.575L244.171 101.582V93.464H246.565V102.5H241.309ZM241.309 102.5C241.237 102.5 241.183 102.476 241.147 102.428C241.099 102.38 241.063 102.314 241.039 102.23C241.003 102.134 240.979 102.02 240.967 101.888C240.955 101.756 240.949 101.612 240.949 101.456C240.949 101.24 240.961 101.06 240.985 100.916C241.009 100.76 241.051 100.64 241.111 100.556C241.159 100.46 241.225 100.412 241.309 100.412V102.5ZM242.587 91.808V89.756H244.909V91.808H242.587ZM245.863 91.808V89.756H248.185V91.808H245.863Z" fill="#004267"/>
</g>
<path fill-rule="evenodd" clip-rule="evenodd" d="M496.895 90.4789C496.895 134.896 460.891 170.9 416.474 170.9C372.061 170.9 336.053 134.896 336.053 90.4789C336.053 46.0663 372.061 10.0578 416.474 10.0578C460.891 10.0578 496.895 46.0663 496.895 90.4789Z" fill="#2C3842"/>
<mask id="mask0_597_31355" style="mask-type:luminance" maskUnits="userSpaceOnUse" x="336" y="10" width="161" height="161">
<path d="M496.894 90.4802C496.894 111.809 488.421 132.264 473.34 147.346C458.258 162.428 437.802 170.901 416.474 170.901C395.145 170.901 374.689 162.428 359.607 147.346C344.526 132.264 336.053 111.809 336.053 90.4802C336.053 69.1513 344.526 48.6959 359.607 33.6141C374.689 18.5323 395.145 10.0594 416.474 10.0594C437.802 10.0594 458.258 18.5323 473.34 33.6141C488.421 48.6959 496.894 69.1513 496.894 90.4802Z" fill="white"/>
</mask>
<g mask="url(#mask0_597_31355)">
<path d="M399.367 121.204C400.362 121.018 383.242 128.065 359.106 141.224C354.431 143.778 352.863 148.648 352.863 153.976V171.93H480.079V151.895C480.079 147.12 475.666 142.752 471.494 140.445C453.47 130.473 431.173 120.747 431.5 120.682L399.367 121.204Z" fill="#B5BDC4"/>
</g>
<path d="M432.015 124.849C432.015 129.262 430.261 133.495 427.14 136.616C424.019 139.737 419.786 141.491 415.373 141.491C410.959 141.491 406.726 139.737 403.605 136.616C400.484 133.495 398.73 129.262 398.73 124.849C398.73 120.435 400.484 116.202 403.605 113.081C406.726 109.96 410.959 108.207 415.373 108.207C419.786 108.207 424.019 109.96 427.14 113.081C430.261 116.202 432.015 120.435 432.015 124.849Z" fill="#FFCCAA"/>
<path d="M414.218 26.3882C428.327 26.3882 443.989 39.3209 443.17 55.3348L441.345 90.7502C440.521 106.764 424.296 119.234 414.218 119.234C404.14 119.234 387.915 106.764 387.091 90.7502L385.271 55.3348C384.447 39.3209 400.114 26.3832 414.223 26.3832L414.218 26.3882Z" fill="#FFCCAA"/>
<path d="M448.912 84.5778C448.988 91.2377 445.711 96.6711 441.594 96.7164C437.482 96.7666 434.085 91.4036 434.009 84.7437C433.934 78.0889 437.211 72.6504 441.328 72.6051C445.444 72.5599 448.837 77.923 448.912 84.5778ZM395 84.5778C395.075 91.2377 391.798 96.6711 387.682 96.7164C383.57 96.7666 380.172 91.4036 380.097 84.7437C380.022 78.0889 383.299 72.6504 387.415 72.6051C391.532 72.5599 394.925 77.923 395 84.5778Z" fill="#FFCCAA"/>
<path d="M441.488 87.5684C454.632 71.7254 455.311 48.2224 439.468 35.0786C426.962 24.7043 407.279 20.6329 397.282 31.8416C394.181 35.3249 389.813 37.1394 386.978 39.9591C375.407 51.4593 377.86 70.3834 386.742 84.065V67.7295C386.742 61.0093 395.668 58.1041 404.57 58.1041H421.222C431.546 58.1041 442.102 64.9148 441.78 76.8372L441.488 87.5684Z" fill="black"/>
<defs>
<filter id="filter0_d_597_31355" x="0" y="63.5" width="310" height="72" filterUnits="userSpaceOnUse" color-interpolation-filters="sRGB">
<feFlood flood-opacity="0" result="BackgroundImageFix"/>
<feColorMatrix in="SourceAlpha" type="matrix" values="0 0 0 0 0 0 0 0 0 0 0 0 0 0 0 0 0 0 127 0" result="hardAlpha"/>
<feOffset dy="4"/>
<feGaussianBlur stdDeviation="2"/>
<feComposite in2="hardAlpha" operator="out"/>
<feColorMatrix type="matrix" values="0 0 0 0 0.345098 0 0 0 0 0.14902 0 0 0 0 0.290196 0 0 0 0.1 0"/>
<feBlend mode="normal" in2="BackgroundImageFix" result="effect1_dropShadow_597_31355"/>
<feBlend mode="normal" in="SourceGraphic" in2="effect1_dropShadow_597_31355" result="shape"/>
</filter>
</defs>
</svg>
