<svg width="111" height="84" viewBox="0 0 111 84" fill="none" xmlns="http://www.w3.org/2000/svg">
<g clip-path="url(#clip0_227_4196)">
<path d="M32.2626 83.7235C32.1108 83.7235 32.0066 83.6538 31.9523 83.5168L29.2565 78.0681H26.8304C26.7466 78.0681 26.7058 78.1085 26.7058 78.1916V83.5168C26.7058 83.6538 26.6356 83.7235 26.4974 83.7235H24.4654C24.3272 83.7235 24.2593 83.6538 24.2593 83.5168V69.9264C24.2593 69.7894 24.3272 69.7197 24.4654 69.7197H29.9203C30.5704 69.7197 31.1685 69.823 31.7144 70.0297C32.2603 70.2363 32.7338 70.5215 33.1347 70.8831C33.5357 71.247 33.8506 71.6872 34.0794 72.2015C34.3082 72.7159 34.4214 73.2819 34.4214 73.8995C34.4214 74.8204 34.1791 75.6154 33.6943 76.2892C33.2095 76.963 32.5594 77.4504 31.7461 77.7514L34.7114 83.4562C34.7522 83.5258 34.7567 83.5865 34.7205 83.6426C34.6865 83.6965 34.6344 83.7257 34.5642 83.7257H32.2626V83.7235ZM29.8342 75.8692C30.4843 75.8692 31.0054 75.6918 31.3995 75.3369C31.7937 74.9821 31.9908 74.5059 31.9908 73.904C31.9908 73.2909 31.7937 72.8057 31.3995 72.4509C31.0054 72.096 30.4821 71.9186 29.8342 71.9186H26.8259C26.7421 71.9186 26.7013 71.959 26.7013 72.0421V75.7435C26.7013 75.8243 26.7421 75.867 26.8259 75.867H29.8342V75.8692Z" fill="#004267"/>
<path d="M42.3613 83.9494C41.8358 83.9494 41.3238 83.9 40.8255 83.8034C40.3271 83.7069 39.8536 83.5743 39.4051 83.4104C38.9566 83.2442 38.5398 83.0465 38.1615 82.8174C37.7809 82.5883 37.4524 82.3435 37.176 82.0808C37.065 81.9707 37.0515 81.8674 37.1353 81.7686L38.422 80.2885C38.5194 80.1784 38.6168 80.1717 38.7119 80.2682C38.9339 80.4457 39.1854 80.6254 39.4685 80.8028C39.7517 80.9802 40.0553 81.1397 40.3815 81.2744C40.7054 81.4115 41.0475 81.526 41.4076 81.6136C41.7678 81.7034 42.1484 81.7461 42.5493 81.7461C43.392 81.7461 44.0467 81.5574 44.5088 81.1801C44.971 80.8028 45.2043 80.3199 45.2043 79.7315C45.2043 79.2239 45.0163 78.8106 44.6448 78.4872C44.271 78.166 43.6005 77.9347 42.6332 77.7977L41.8856 77.6943C40.5174 77.5034 39.4663 77.0812 38.7323 76.4298C37.9984 75.7785 37.6336 74.8711 37.6336 73.7055C37.6336 73.0743 37.7446 72.4994 37.9666 71.9783C38.1886 71.4572 38.5058 71.0125 38.9203 70.6419C39.3349 70.2714 39.8355 69.9883 40.4245 69.7885C41.0112 69.5908 41.6727 69.4897 42.4044 69.4897C43.2901 69.4897 44.1283 69.6178 44.9234 69.8738C45.7185 70.1298 46.3981 70.4735 46.9667 70.9002C47.0641 70.9833 47.0777 71.0799 47.0075 71.1899L46.013 72.715C45.9292 72.825 45.834 72.8453 45.723 72.7756C45.1409 72.405 44.5813 72.131 44.0422 71.9536C43.503 71.7762 42.9367 71.6863 42.3409 71.6863C41.6228 71.6863 41.0724 71.8615 40.6918 72.2096C40.3112 72.56 40.1209 73.0092 40.1209 73.5572C40.1209 74.0379 40.3158 74.4377 40.7031 74.7611C41.0905 75.0823 41.7633 75.3136 42.7215 75.4506L43.4691 75.5539C44.8418 75.7471 45.8884 76.1671 46.6088 76.8184C47.3291 77.4697 47.6893 78.3996 47.6893 79.6034C47.6893 80.2211 47.5783 80.7961 47.3541 81.3306C47.1321 81.8651 46.7923 82.3256 46.3392 82.7074C45.8861 83.0915 45.3266 83.3924 44.6629 83.6125C44.0014 83.8394 43.2335 83.9494 42.3613 83.9494Z" fill="#004267"/>
<path d="M50.9265 69.9264C50.9265 69.7894 50.9945 69.7197 51.1327 69.7197H59.9673C60.1055 69.7197 60.1735 69.7894 60.1735 69.9264V71.7119C60.1735 71.8512 60.1033 71.9186 59.9673 71.9186H53.4954C53.4116 71.9186 53.3708 71.959 53.3708 72.0421V75.4358C53.3708 75.5166 53.4116 75.5593 53.4954 75.5593H58.9502C59.0884 75.5593 59.1564 75.6289 59.1564 75.7682V77.5537C59.1564 77.693 59.0861 77.7604 58.9502 77.7604H53.4954C53.4116 77.7604 53.3708 77.8008 53.3708 77.8839V81.4011C53.3708 81.482 53.4116 81.5246 53.4954 81.5246H59.9673C60.1055 81.5246 60.1735 81.5943 60.1735 81.7313V83.5168C60.1735 83.6561 60.1033 83.7235 59.9673 83.7235H51.1327C50.9945 83.7235 50.9265 83.6538 50.9265 83.5168V69.9264Z" fill="#004267"/>
<path d="M63.5782 69.9264C63.5782 69.7894 63.6462 69.7197 63.7844 69.7197H72.6191C72.7573 69.7197 72.8252 69.7894 72.8252 69.9264V71.7119C72.8252 71.8512 72.755 71.9186 72.6191 71.9186H66.1471C66.0633 71.9186 66.0225 71.959 66.0225 72.0421V75.4358C66.0225 75.5166 66.0633 75.5593 66.1471 75.5593H71.602C71.7402 75.5593 71.8081 75.6289 71.8081 75.7682V77.5537C71.8081 77.693 71.7379 77.7604 71.602 77.7604H66.1471C66.0633 77.7604 66.0225 77.8008 66.0225 77.8839V81.4011C66.0225 81.482 66.0633 81.5246 66.1471 81.5246H72.6191C72.7573 81.5246 72.8252 81.5943 72.8252 81.7313V83.5168C72.8252 83.6561 72.755 83.7235 72.6191 83.7235H63.7844C63.6462 83.7235 63.5782 83.6538 63.5782 83.5168V69.9264Z" fill="#004267"/>
<path d="M76.2299 69.9466C76.2299 69.8096 76.2978 69.7422 76.436 69.7422H78.3434C78.4952 69.7422 78.613 69.8118 78.6968 69.9466L84.4416 79.5908H84.5254V69.9466C84.5254 69.8096 84.5956 69.7422 84.7338 69.7422H86.537C86.6752 69.7422 86.7431 69.8118 86.7431 69.9466V83.5168C86.7431 83.6538 86.6752 83.7235 86.537 83.7235H84.65C84.4982 83.7235 84.3804 83.6538 84.2966 83.5168L78.5314 73.8928H78.4476V83.5168C78.4476 83.6538 78.3774 83.7235 78.2392 83.7235H76.436C76.2978 83.7235 76.2299 83.6538 76.2299 83.5168V69.9466Z" fill="#004267"/>
<path d="M111.009 77.7124H93.0114V80.8905H111.009V77.7124Z" fill="#EA8D09"/>
<path d="M17.9866 77.7134H-0.0112305V80.8914H17.9866V77.7134Z" fill="#EA8D09"/>
<path d="M88.2836 60.2549H62.0128V61.8248H88.2836V60.2549Z" fill="#004267"/>
<path d="M29.5625 7.52072H28.3505L26.0762 14.1105H28.9463C28.9463 14.9909 29.6667 15.7074 30.557 15.7074C31.4472 15.7074 32.1699 14.9931 32.1699 14.1105H35.04L32.7656 7.52072H31.5537V5.90137H29.5647V7.52072H29.5625Z" fill="#EA8D09"/>
<path d="M77.4351 20.6287L56.8322 6.52612C55.5387 5.63446 53.8238 5.63446 52.5303 6.52612L31.9274 20.6287C30.8876 21.3249 30.2964 22.4681 30.2964 23.7214V51.0326H38.8705V28.182C38.8705 26.9556 39.489 25.7855 40.5016 25.0892L52.5326 16.8667C53.8261 15.975 55.5409 15.975 56.8344 16.8667L68.836 25.0892C69.8758 25.7855 70.4942 26.9556 70.4942 28.182V56.8587H64.6203V31.2477C64.6203 29.9945 64.0019 28.8512 62.9621 28.155L56.8344 23.946C55.5409 23.0544 53.8261 23.0544 52.5326 23.946L46.3755 28.155C45.3629 28.8512 44.7467 29.9945 44.7467 31.2477V56.8587H23.9173V5.38291C23.9173 3.7658 25.2674 2.45639 26.8961 2.45639C28.5543 2.45639 29.875 3.7658 29.875 5.38291V6.07917H31.2251V5.38291C31.2251 3.01339 29.286 1.09082 26.8961 1.09082C24.5062 1.09082 22.5671 3.01339 22.5671 5.38291V58.1951H46.0946V31.944C46.0946 30.7177 46.713 29.5475 47.7528 28.8513L52.5326 25.5631C53.8261 24.6984 55.5409 24.6984 56.8344 25.5631L61.6142 28.8513C62.654 29.5475 63.243 30.7177 63.243 31.944V58.1973H79.0684V23.7214C79.0639 22.4681 78.4477 21.3249 77.4351 20.6287Z" fill="#EA8D09"/>
<path d="M56.6328 0.2622L56.3315 0.0488281L55.5409 1.29535L87.3435 23.9574L87.6426 24.1708L88.4354 22.9265L56.6328 0.2622Z" fill="#004267"/>
<path d="M82.9461 12.04H81.3632V64.2952H82.9461V12.04Z" fill="#004267"/>
<path d="M79.9247 13.61L82.1537 8.98779L84.0747 13.61" fill="#004267"/>
</g>
<defs>
<clipPath id="clip0_227_4196">
<rect width="111" height="84" fill="white"/>
</clipPath>
</defs>
</svg>
