<svg width="191" height="191" viewBox="0 0 191 191" fill="none" xmlns="http://www.w3.org/2000/svg">
<path fill-rule="evenodd" clip-rule="evenodd" d="M170.895 90.4789C170.895 134.896 134.891 170.9 90.4738 170.9C46.0613 170.9 10.0527 134.896 10.0527 90.4789C10.0527 46.0663 46.0613 10.0578 90.4738 10.0578C134.891 10.0578 170.895 46.0663 170.895 90.4789Z" fill="#2C3842"/>
<mask id="mask0_597_31328" style="mask-type:luminance" maskUnits="userSpaceOnUse" x="10" y="10" width="161" height="161">
<path d="M170.894 90.4802C170.894 111.809 162.421 132.264 147.34 147.346C132.258 162.428 111.802 170.901 90.4735 170.901C69.1446 170.901 48.6893 162.428 33.6074 147.346C18.5256 132.264 10.0527 111.809 10.0527 90.4802C10.0527 69.1513 18.5256 48.6959 33.6074 33.6141C48.6893 18.5323 69.1446 10.0594 90.4735 10.0594C111.802 10.0594 132.258 18.5323 147.34 33.6141C162.421 48.6959 170.894 69.1513 170.894 90.4802Z" fill="white"/>
</mask>
<g mask="url(#mask0_597_31328)">
<path d="M73.3668 121.204C74.362 121.018 57.2423 128.065 33.106 141.224C28.4315 143.778 26.8633 148.648 26.8633 153.976V171.93H154.079V151.895C154.079 147.12 149.666 142.752 145.494 140.445C127.47 130.473 105.173 120.747 105.5 120.682L73.3668 121.204Z" fill="#B5BDC4"/>
</g>
<path d="M106.015 124.849C106.015 129.262 104.261 133.495 101.14 136.616C98.0194 139.737 93.7864 141.491 89.3726 141.491C84.9588 141.491 80.7258 139.737 77.6048 136.616C74.4838 133.495 72.7305 129.262 72.7305 124.849C72.7305 120.435 74.4838 116.202 77.6048 113.081C80.7258 109.96 84.9588 108.207 89.3726 108.207C93.7864 108.207 98.0194 109.96 101.14 113.081C104.261 116.202 106.015 120.435 106.015 124.849Z" fill="#FFCCAA"/>
<path d="M88.218 26.3882C102.327 26.3882 117.989 39.3209 117.17 55.3348L115.345 90.7502C114.521 106.764 98.2957 119.234 88.218 119.234C78.1402 119.234 61.9153 106.764 61.091 90.7502L59.2714 55.3348C58.4471 39.3209 74.1141 26.3832 88.223 26.3832L88.218 26.3882Z" fill="#FFCCAA"/>
<path d="M122.912 84.5778C122.988 91.2377 119.711 96.6711 115.594 96.7164C111.482 96.7666 108.085 91.4036 108.009 84.7437C107.934 78.0889 111.211 72.6504 115.328 72.6051C119.444 72.5599 122.837 77.923 122.912 84.5778ZM69 84.5778C69.0754 91.2377 65.7982 96.6711 61.6817 96.7164C57.5702 96.7666 54.1724 91.4036 54.097 84.7437C54.0216 78.0889 57.2987 72.6504 61.4153 72.6051C65.5318 72.5599 68.9246 77.923 69 84.5778Z" fill="#FFCCAA"/>
<path d="M115.488 87.5684C128.632 71.7254 129.311 48.2224 113.468 35.0786C100.962 24.7043 81.2793 20.6329 71.2819 31.8416C68.1807 35.3249 63.8128 37.1394 60.978 39.9591C49.4074 51.4593 51.8603 70.3834 60.7418 84.065V67.7295C60.7418 61.0093 69.6685 58.1041 78.5701 58.1041H95.2223C105.546 58.1041 116.102 64.9148 115.78 76.8372L115.488 87.5684Z" fill="black"/>
</svg>
