<svg width="158" height="157" viewBox="0 0 158 157" fill="none" xmlns="http://www.w3.org/2000/svg">
<path d="M12.3257 70.7574C12.4484 70.4201 12.663 70.0522 12.9697 69.8375C13.2457 69.5615 13.583 69.4082 13.9203 69.2855C14.3189 69.1629 14.7175 69.1016 15.1468 69.1016C15.5761 69.1016 16.0054 69.1322 16.3734 69.2855C16.772 69.4082 17.0787 69.5922 17.324 69.8375C17.5693 70.0828 17.8146 70.3895 17.9679 70.7574C18.1519 71.1561 18.1826 71.5854 18.1826 72.076C18.1826 72.5973 18.0906 73.0266 17.9679 73.3945C17.8453 73.7932 17.6306 74.0998 17.3546 74.3145C17.0787 74.5904 16.7414 74.7438 16.4041 74.8664C16.0054 74.9891 15.6068 75.0504 15.1468 75.0504H13.5523C13.2763 75.0504 13.0617 75.0811 12.9083 75.1424C12.755 75.2037 12.6017 75.3264 12.5097 75.4184C12.4177 75.541 12.3257 75.6943 12.2951 75.817C12.2644 75.9397 12.2644 76.1236 12.2644 76.2463V77.9328H10.8845V76.2463C10.8845 75.6023 11.0685 75.0811 11.3751 74.6518C11.7125 74.2225 12.2337 73.9465 12.939 73.8545C12.847 73.7625 12.755 73.6705 12.663 73.5479C12.571 73.4252 12.4791 73.2719 12.3871 73.1186C12.2951 72.9652 12.2644 72.7813 12.1724 72.5973C12.1417 72.4133 12.0804 72.26 12.0804 72.076C12.0498 71.524 12.1417 71.1561 12.3257 70.7574ZM13.9203 70.7574C13.6443 71.0947 13.5216 71.4934 13.5216 72.076C13.5216 72.5973 13.6443 73.0266 13.9509 73.3945C14.2269 73.7012 14.6562 73.8852 15.1775 73.8852C15.6988 73.8852 16.0974 73.7012 16.4041 73.3945C16.68 73.0879 16.8333 72.6586 16.8333 72.076C16.8333 71.5547 16.7107 71.1254 16.4347 70.7574C16.1587 70.3895 15.7294 70.2668 15.2082 70.2668C14.6255 70.2668 14.1962 70.3895 13.9203 70.7574Z" fill="#808080"/>
<path d="M24.5617 66.3744H26.0029V72.5992C26.0029 72.8139 26.0335 72.9979 26.0949 73.1205C26.1255 73.2432 26.2175 73.3965 26.3708 73.4578C26.4628 73.5498 26.5855 73.6418 26.7082 73.6725C26.8308 73.7031 26.9841 73.7645 27.1068 73.7645H27.7507C27.8427 73.7645 27.8734 73.7645 27.9347 73.7951C27.9654 73.7951 28.0267 73.8258 28.0267 73.9178V74.8684C28.0267 74.9604 27.9347 74.991 27.7507 74.991H27.2294C26.9228 74.991 26.6162 74.899 26.3095 74.7764C26.0029 74.6537 25.7882 74.4697 25.6042 74.2551C25.4816 74.4391 25.2976 74.5617 25.1136 74.6537C24.9296 74.7457 24.715 74.8377 24.5617 74.8684C24.3777 74.899 24.2244 74.9604 24.0404 74.9604C23.8564 74.9604 23.7337 74.991 23.5498 74.991H19.0115V73.7338H20.5447V68.5516H21.9859V73.7338H23.7337C23.8257 73.7338 23.9177 73.7338 24.0097 73.7031C24.1017 73.6725 24.1937 73.6111 24.2857 73.5805C24.3777 73.4885 24.4697 73.3965 24.5003 73.2738C24.531 73.1512 24.5923 72.9979 24.5923 72.7832V66.3438H24.5617V66.3744Z" fill="#808080"/>
<path d="M27.4744 74.8695V73.9189C27.4744 73.827 27.505 73.7963 27.5664 73.7963C27.597 73.7963 27.689 73.7656 27.7503 73.7656H29.8662C30.0501 73.7656 30.1421 73.7963 30.1421 73.8883V74.8389C30.1421 74.9309 30.1115 74.9615 30.0501 74.9615C29.9888 74.9615 29.9275 74.9922 29.8662 74.9922H27.7503C27.5664 75.0229 27.4744 74.9615 27.4744 74.8695Z" fill="#808080"/>
<path d="M29.5583 74.8695V73.9189C29.5583 73.827 29.589 73.7963 29.6503 73.7963C29.681 73.7963 29.773 73.7656 29.8343 73.7656H31.9501C32.1341 73.7656 32.2261 73.7963 32.2261 73.8883V74.8389C32.2261 74.9309 32.1955 74.9615 32.1341 74.9615C32.1035 74.9615 32.0115 74.9922 31.9501 74.9922H29.8343C29.6503 75.0229 29.5583 74.9615 29.5583 74.8695Z" fill="#808080"/>
<path d="M31.7048 74.8695V73.9189C31.7048 73.827 31.7355 73.7963 31.7968 73.7963C31.8275 73.7963 31.9195 73.7656 31.9808 73.7656H34.0966C34.2806 73.7656 34.3726 73.7963 34.3726 73.8883V74.8389C34.3726 74.9309 34.3419 74.9615 34.2806 74.9615C34.2193 74.9615 34.158 74.9922 34.0966 74.9922H31.9808C31.7662 75.0229 31.7048 74.9615 31.7048 74.8695Z" fill="#808080"/>
<path d="M36.214 73.7096C36.122 73.6176 36.03 73.5256 35.938 73.3723C35.846 73.2496 35.7541 73.0656 35.6621 72.943C35.5701 72.759 35.5394 72.6057 35.4781 72.4217C35.4167 72.2377 35.3861 72.0844 35.3861 71.9004C35.3861 71.4711 35.4781 71.0725 35.6007 70.7352C35.7234 70.3979 35.938 70.0912 36.214 69.8766C36.49 69.6006 36.766 69.4473 37.1339 69.3246C37.4712 69.202 37.8699 69.1406 38.2992 69.1406C38.7285 69.1406 39.0964 69.1713 39.3724 69.3246C39.6791 69.4473 39.9244 69.6313 40.1697 69.8459C40.3843 70.0605 40.5683 70.3365 40.6603 70.6432C40.7523 70.9498 40.875 71.2564 40.9363 71.5938H39.6177C39.5871 71.4098 39.5257 71.2564 39.4337 71.1031C39.3417 70.9805 39.2498 70.8272 39.1271 70.7045C39.0044 70.5818 38.8511 70.4898 38.7285 70.4285C38.6058 70.3979 38.4218 70.3365 38.2992 70.3365C37.8699 70.3365 37.5019 70.4592 37.2566 70.7352C36.9806 71.0111 36.858 71.3791 36.858 71.9004C36.858 72.4523 36.9806 72.943 37.2566 73.2803C37.5326 73.6176 37.9005 73.8016 38.3912 73.8016H40.9669V75.0588H34.0062C33.8222 75.0588 33.7302 75.0281 33.7302 74.9361V73.9855C33.7302 73.8936 33.7609 73.8629 33.8222 73.8629C33.8529 73.8629 33.9449 73.8322 34.0062 73.8322H36.1833V73.7096H36.214Z" fill="#808080"/>
<path d="M43.3265 73.7729V68.5906H44.7677V73.7729H47.3742V66.3828H48.8154V75.0301H41.824V73.7729H43.3265ZM43.3265 77.7898V77.7592C43.2958 77.7285 43.2345 77.6365 43.2039 77.4832C43.1732 77.3912 43.1732 77.2992 43.1732 77.2072C43.1732 76.9006 43.2652 76.6859 43.4492 76.5633C43.6332 76.3793 43.8785 76.3486 44.1851 76.3486C44.3998 76.3486 44.6144 76.4406 44.829 76.5633C45.013 76.6859 45.1357 76.9006 45.1357 77.2072H44.5837C44.5837 77.0846 44.5531 76.9926 44.4611 76.9006C44.3691 76.8086 44.2771 76.7779 44.1544 76.7779C44.0318 76.7779 43.9398 76.8086 43.8478 76.9006C43.7558 76.9926 43.7251 77.1152 43.7251 77.2379C43.7251 77.4219 43.7558 77.5139 43.8478 77.5752C43.9398 77.6672 44.0625 77.6978 44.1851 77.6978H45.105V78.1885H42.8666V77.6978L43.3265 77.7898Z" fill="#808080"/>
<path d="M50.3181 66.3828H51.698V75.0301H50.3181V66.3828Z" fill="#808080"/>
<path d="M61.4503 73.4049C61.3277 73.8035 61.113 74.1102 60.8371 74.3555C60.5611 74.6314 60.2238 74.7848 59.8865 74.9074C59.4878 75.0301 59.0892 75.0914 58.6292 75.0914C58.1693 75.0914 57.7707 75.0607 57.372 74.9074C56.9734 74.7848 56.6667 74.6008 56.4214 74.3555C56.1455 74.0795 55.9308 73.8035 55.8082 73.4049C55.6855 73.0062 55.5935 72.577 55.5935 72.0863C55.5935 71.565 55.6855 71.1357 55.8082 70.7678C55.9308 70.3691 56.1455 70.0625 56.4214 69.8172C56.6974 69.5412 57.0347 69.3879 57.372 69.2652C57.7707 69.1426 58.1693 69.0813 58.6292 69.0813C59.0892 69.0813 59.4878 69.1119 59.8865 69.2652C60.2851 69.3879 60.5918 69.5719 60.8371 69.8172C61.113 70.0932 61.3277 70.3691 61.4503 70.7678C61.573 71.1664 61.665 71.5957 61.665 72.0863C61.665 72.577 61.573 73.0676 61.4503 73.4049ZM58.3226 66.3828V67.824H56.9427V66.3828H58.3226ZM57.4027 73.3742C57.6787 73.7115 58.108 73.8955 58.6292 73.8955C59.1505 73.8955 59.5798 73.7115 59.8558 73.3742C60.1318 73.0369 60.2544 72.577 60.2544 72.0557C60.2544 71.5344 60.1318 71.1051 59.8558 70.7371C59.5798 70.3998 59.1505 70.2158 58.6292 70.2158C58.108 70.2158 57.6787 70.3998 57.4027 70.7371C57.1267 71.0744 57.0041 71.5344 57.0041 72.0557C56.9734 72.6383 57.096 73.0676 57.4027 73.3742ZM60.4078 66.3828V67.824H59.0279V66.3828H60.4078Z" fill="#808080"/>
<path d="M63.6263 76.6434C63.7183 76.6127 63.841 76.5207 63.9023 76.4287C63.9943 76.3061 64.0249 76.1221 64.0863 75.9074C64.1169 75.6928 64.1169 75.3861 64.1169 75.0488V69.8359H65.4968V75.0488C65.4968 75.9688 65.3128 76.6434 65.0062 77.134C64.6996 77.6246 64.1476 77.8699 63.3503 77.8699C63.1664 77.8699 63.0437 77.8699 62.921 77.8393C62.7984 77.8393 62.6451 77.8086 62.5837 77.7473C62.4917 77.7166 62.3691 77.6553 62.2771 77.6246V76.4594C62.5531 76.582 62.8291 76.674 63.197 76.674C63.4117 76.7047 63.5343 76.7047 63.6263 76.6434Z" fill="#808080"/>
<path d="M66.9998 66.3828H68.3796V75.0301H66.9998V66.3828Z" fill="#808080"/>
<path d="M70.5873 76.6553C70.6792 76.6246 70.8019 76.5326 70.8632 76.4406C70.9552 76.318 70.9859 76.134 71.0472 75.9193C71.0779 75.7047 71.0779 75.398 71.0779 75.0607V69.8479H72.4578V75.0607C72.4578 75.9807 72.2738 76.6553 71.9671 77.1459C71.6605 77.6365 71.1085 77.8818 70.3113 77.8818C70.1273 77.8818 70.0046 77.8818 69.882 77.8512C69.7593 77.8512 69.606 77.8205 69.5447 77.7592C69.4527 77.7285 69.33 77.6672 69.238 77.6365V76.4713C69.514 76.5939 69.79 76.6859 70.158 76.6859C70.3726 76.7166 70.4953 76.7166 70.5873 76.6553ZM72.6724 66.3828V67.824H71.2925V66.3828H72.6724Z" fill="#808080"/>
<path d="M76.6591 76.6191C76.9351 76.5885 77.1498 76.4965 77.3031 76.3432C77.4871 76.2205 77.6404 76.0365 77.7937 75.8219C77.9164 75.6072 78.0083 75.3006 78.1003 74.9633H76.8738C76.4445 74.9633 76.0459 74.8713 75.7085 74.7486C75.3712 74.626 75.0646 74.442 74.7886 74.1967C74.5127 73.9514 74.298 73.6447 74.1753 73.2768C74.0527 72.9395 73.9607 72.5408 73.9607 72.1115C73.9607 71.7129 73.9914 71.3143 74.0834 70.9463C74.1753 70.5477 74.298 70.241 74.5126 69.9344C74.7273 69.6277 75.0339 69.4131 75.3712 69.2291C75.7699 69.0451 76.1992 68.9531 76.7511 68.9531C77.3031 68.9531 77.7937 69.0451 78.131 69.2291C78.5296 69.4131 78.8363 69.6277 79.0509 69.9344C79.2656 70.241 79.4496 70.6397 79.5416 71.0689C79.6335 71.4982 79.6642 72.0195 79.6642 72.6022C79.6642 73.5527 79.6335 74.35 79.4802 74.9939C79.3576 75.6379 79.1429 76.2205 78.8669 76.5885C78.5603 77.0178 78.223 77.3244 77.7324 77.5084C77.2417 77.6924 76.6898 77.815 75.9845 77.815C75.8005 77.815 75.6472 77.815 75.4939 77.7844C75.3712 77.7844 75.2179 77.7537 75.1566 77.7537C75.0339 77.7231 74.9419 77.7231 74.85 77.6617V76.4352C74.9726 76.4658 75.1259 76.5578 75.2792 76.5578C75.4019 76.5885 75.5859 76.5885 75.8005 76.5885C76.1378 76.7111 76.4138 76.6498 76.6591 76.6191ZM75.7392 73.3688C75.9539 73.6447 76.3525 73.7674 76.8738 73.7674H78.2537C78.2843 73.4301 78.2843 73.0314 78.2843 72.6328C78.2843 71.8969 78.1923 71.2836 77.9777 70.885C77.763 70.4863 77.3644 70.2717 76.8431 70.2717C76.5671 70.2717 76.3218 70.3023 76.1378 70.3943C75.9539 70.4863 75.8005 70.609 75.7085 70.793C75.5859 70.977 75.5246 71.1303 75.4939 71.4063C75.4632 71.6209 75.4019 71.8969 75.4019 72.1422C75.4019 72.7248 75.4939 73.1541 75.7392 73.3688Z" fill="#808080"/>
<path d="M16.4039 83V89.1328H15.4533V84.6559L15.4226 84.8705L13.8587 89.1635H12.9388L11.375 84.8705L11.3443 84.6559V89.1635H10.363V83H11.5896L13.1841 87.4463L13.3681 88.1822L13.5521 87.4769L15.1466 83.0307L16.4039 83Z" fill="#808080"/>
<path d="M60.6212 83.5312V89.6641H59.6707V85.1565L59.64 85.3711L58.0761 89.6641H57.1562L55.5923 85.3711L55.5617 85.1565V89.6641H54.6111V83.5312H55.8376L57.4322 87.9775L57.6162 88.7135L57.8001 88.0082L59.3947 83.5619H60.6519L60.6212 83.5312Z" fill="#808080"/>
<path d="M17.6599 83.74C17.6599 83.4334 17.9359 83.2188 18.2732 83.2188C18.5798 83.2188 18.8865 83.4334 18.8865 83.74C18.8865 84.0773 18.6105 84.292 18.2732 84.292C17.9666 84.3227 17.6599 84.1387 17.6599 83.74ZM17.7826 84.8746H18.7332V89.1369H17.7826V84.8746Z" fill="#808080"/>
<path d="M19.9607 84.9725C20.666 84.8498 21.4939 84.7578 21.9232 84.7578C22.9658 84.7578 23.8244 85.1564 23.8244 86.3523C23.8244 87.2723 23.8244 88.2229 23.8244 89.1428H22.8738V86.567C22.8738 85.923 22.5365 85.7084 21.8619 85.7084C21.5859 85.7084 21.2486 85.7391 20.9419 85.8004V89.1428H19.9914V84.9725H19.9607Z" fill="#808080"/>
<path d="M24.9587 83.74C24.9587 83.4334 25.2347 83.2188 25.572 83.2188C25.8787 83.2188 26.1853 83.4334 26.1853 83.74C26.1853 84.0773 25.9093 84.292 25.572 84.292C25.2347 84.3227 24.9587 84.1387 24.9587 83.74ZM25.0507 84.8746H26.0013V89.1369H25.0507V84.8746Z" fill="#808080"/>
<path d="M72.0896 84.2557C72.0896 83.949 72.3656 83.7344 72.7029 83.7344C73.0095 83.7344 73.3162 83.949 73.3162 84.2557C73.3162 84.593 73.0402 84.8076 72.7029 84.8076C72.3962 84.777 72.0896 84.6236 72.0896 84.2557ZM72.2429 85.3902H73.1935V89.6525H72.2429V85.3902Z" fill="#808080"/>
<path d="M26.8298 88.8975L27.1058 88.1002C27.6271 88.3148 28.1177 88.4068 28.547 88.4068C29.1603 88.4068 29.5589 88.3148 29.5589 87.9775C29.5589 87.6402 29.4363 87.5789 28.7003 87.4256C28.5777 87.3949 28.4244 87.3336 28.3017 87.3336C27.3818 87.1189 26.9525 86.6896 26.9525 85.9844C26.9525 85.2484 27.5964 84.7578 28.639 84.7578C29.283 84.7578 29.8962 84.8805 30.3255 85.0951L30.0496 85.8924C29.6509 85.7084 29.191 85.5857 28.731 85.5857C28.2097 85.5857 27.9031 85.6777 27.9031 85.9844C27.9031 86.291 28.1791 86.383 28.731 86.5057L29.0376 86.5977C30.0496 86.8736 30.4175 87.3029 30.4175 87.9469C30.4175 88.8055 29.8043 89.2961 28.547 89.2961C27.9644 89.2654 27.3818 89.1428 26.8298 88.8975Z" fill="#808080"/>
<path d="M31.5509 87.7816V85.7271H30.7537V84.8685H31.5509V83.3047H32.5015V84.8685H34.096V85.7271H32.5015V87.475C32.5015 88.0269 32.7775 88.2109 33.3601 88.2109H34.096V89.1309H32.9615C31.9189 89.1922 31.5509 88.7322 31.5509 87.7816Z" fill="#808080"/>
<path d="M34.9568 85.0897C35.5701 84.9057 36.214 84.875 36.6433 84.875H37.4406V85.7949H36.7353C36.5207 85.7949 36.03 85.7949 35.9074 85.8869V89.1986H34.9568V85.0897Z" fill="#808080"/>
<path d="M42.0396 88.7008V89.1301C42.0396 90.3566 41.181 90.9086 40.0771 90.9086C39.5251 90.9086 39.0039 90.8166 38.6972 90.6939L38.4826 89.8354C38.9119 90.0193 39.4332 90.1113 39.8625 90.1113C40.6597 90.1113 41.089 89.8353 41.089 89.1607V89.0381C40.7824 89.0687 40.4757 89.1301 40.1384 89.1301C38.9119 89.1301 38.2986 88.6395 38.2986 87.4742V84.8984H39.2492V87.2596C39.2492 87.9035 39.5558 88.1182 40.1691 88.1182C40.5064 88.1182 40.813 88.0875 41.089 88.0262V84.8984H42.0396V88.7008Z" fill="#808080"/>
<path d="M44.1248 87.0186C44.1248 85.7 45.1367 84.7188 46.4246 84.7188C47.7738 84.7188 48.7857 85.6693 48.7857 86.9879C48.7857 88.3065 47.7738 89.257 46.4246 89.257C45.106 89.257 44.1248 88.3064 44.1248 87.0186ZM46.4552 88.3678C47.2832 88.3678 47.8044 87.7545 47.8044 87.0186C47.8044 86.2213 47.2525 85.6693 46.4552 85.6387C45.658 85.6387 45.106 86.252 45.106 87.0186C45.106 87.7545 45.6273 88.3678 46.4552 88.3678Z" fill="#808080"/>
<path d="M49.9806 85.7904H49.1833V84.8705H49.9806V84.3799C49.9806 83.3066 50.5019 83 51.7285 83H52.6484V83.8279H51.8511C51.2378 83.8279 50.9925 84.0119 50.9925 84.5639V84.8705H52.5871V85.7904H50.9925V89.1941H50.0419L49.9806 85.7904Z" fill="#808080"/>
<path d="M65.9255 87.7465H62.6138C62.7365 88.3904 63.2271 88.7891 63.963 88.7891C64.4843 88.7891 64.975 88.6664 65.2816 88.4824L65.6802 89.2184C65.2509 89.433 64.6376 89.6477 63.9017 89.6477C62.5525 89.6477 61.6326 88.7277 61.6326 87.3785C61.6326 86.0293 62.4912 85.1094 63.8404 85.1094C65.0976 85.1094 65.9255 85.968 65.9255 87.2865V87.7465ZM62.6138 86.9186H64.975C64.9443 86.3666 64.4843 85.968 63.8404 85.968C63.1351 85.9986 62.7671 86.3359 62.6138 86.9186Z" fill="#808080"/>
<path d="M78.6507 86.8266V89.4023C78.1601 89.525 77.4242 89.6783 76.7496 89.6783C75.431 89.6783 74.6951 89.157 74.6951 88.2371C74.6951 87.3172 75.4003 86.7959 76.5962 86.7959C76.9029 86.7959 77.2402 86.8266 77.6388 86.8879V86.8572C77.6388 86.3359 77.2402 86.0293 76.4736 86.0293C76.075 86.0293 75.4617 86.1213 75.0017 86.3053L75.2164 85.3853C75.5537 85.2627 76.1363 85.1094 76.6576 85.1094C77.8841 85.1707 78.6507 85.6613 78.6507 86.8266ZM76.7802 88.7891C77.0562 88.7891 77.4855 88.7584 77.7001 88.6971V87.6852C77.5162 87.6545 77.0869 87.5932 76.7802 87.5932C76.0443 87.5932 75.7376 87.7772 75.7376 88.2064C75.7376 88.5744 76.0443 88.7891 76.7802 88.7891Z" fill="#808080"/>
<path d="M70.9556 83.1863V88.3992C70.9556 88.8285 70.9556 89.3498 70.9863 89.6564H69.9744L69.9437 88.9512C69.6677 89.4418 69.1464 89.7484 68.5025 89.7484C67.4599 89.7484 66.6013 88.8285 66.6013 87.4793C66.6013 86.0074 67.5212 85.0875 68.5945 85.0875C69.2078 85.0875 69.6371 85.3635 69.8517 85.6394V83.125L70.9556 83.1863ZM69.8517 87.05C69.8517 86.958 69.8517 86.8353 69.821 86.7434C69.7291 86.3141 69.3918 85.9461 68.8705 85.9461C68.1345 85.9461 67.7359 86.59 67.7359 87.418C67.7359 88.2459 68.1345 88.7979 68.8705 88.7979C69.2998 88.7979 69.7291 88.4912 69.821 88.0006C69.8517 87.9086 69.8517 87.7859 69.8517 87.6633V87.05Z" fill="#808080"/>
<path d="M127.04 94.9582C129.463 96.5527 132.805 98.8832 132.682 99.6498C132.652 99.9258 132.468 100.171 132.468 100.171C132.376 100.294 132.192 100.57 131.977 100.508C131.701 100.508 131.701 100.079 131.333 99.8031C130.996 99.5885 130.475 99.5885 130.015 99.8338C129.493 100.171 129.493 100.846 129.493 100.846C129.493 101.398 129.984 101.858 130.352 101.98C130.904 102.195 131.487 101.95 131.824 101.796C132.958 101.275 133.05 100.447 133.664 100.416C134.062 100.416 134.369 100.846 135.228 101.582C137.221 103.329 138.785 103.973 139.735 103.973C140.349 103.973 141.176 103.881 141.483 103.146C141.698 102.655 141.483 102.072 141.054 101.704C140.563 101.275 139.827 101.275 139.459 101.582C139.153 101.796 139.183 102.226 138.969 102.226C138.631 102.226 135.718 99.5271 134.614 98.3619C134.492 98.2393 135.258 96.9207 135.534 96.89C135.964 96.798 136.086 97.534 136.761 97.6873C137.19 97.7793 137.711 97.5646 137.987 97.1353C138.263 96.6141 137.987 96.0621 137.987 96.0008C137.681 95.3875 136.853 95.1729 136.24 95.2648C135.074 95.4488 134.4 96.7061 134.338 96.7981C134.124 97.1354 134.032 97.4113 133.786 97.5033C133.51 97.5953 133.234 97.2273 132.836 96.7674C132.192 96.0621 129.892 93.977 129.8 93.8236C129.8 93.8236 129.8 93.793 129.769 93.7316C129.739 93.425 134.492 91.0332 138.601 90.1133C142.28 89.2854 148.474 89.04 148.382 88.8561C148.658 88.5801 142.771 87.2922 138.386 87.4762C136.086 87.5682 131.855 88.1815 127.04 91.7385H127.01C122.134 88.1815 117.964 87.5682 115.664 87.4762C111.279 87.2615 105.361 88.6107 105.667 88.8561C105.575 89.04 111.8 89.2854 115.449 90.1133C119.528 91.0332 124.342 93.425 124.281 93.7316C124.281 93.7623 124.25 93.8236 124.25 93.8236C124.158 94.0076 121.827 96.0314 121.214 96.7674C120.785 97.258 120.509 97.5646 120.264 97.5033C119.988 97.4727 119.926 97.166 119.712 96.7981C119.681 96.7061 119.006 95.4488 117.81 95.2648C117.197 95.1729 116.369 95.3875 116.063 96.0008C116.063 96.0314 115.756 96.6141 116.063 97.1353C116.339 97.5646 116.86 97.7793 117.289 97.6873C117.933 97.5953 118.086 96.8594 118.516 96.89C118.792 96.9207 119.558 98.2393 119.436 98.3619C118.362 99.5271 115.388 102.226 115.081 102.226C114.867 102.226 114.897 101.827 114.591 101.582C114.192 101.275 113.456 101.306 112.996 101.704C112.598 102.042 112.383 102.655 112.567 103.146C112.874 103.881 113.701 103.973 114.315 103.973C115.265 103.973 116.829 103.36 118.822 101.582C119.681 100.784 119.988 100.355 120.386 100.416C121.03 100.447 121.122 101.275 122.226 101.796C122.563 101.919 123.146 102.226 123.698 101.98C124.097 101.796 124.557 101.428 124.557 100.846C124.557 100.815 124.557 100.202 124.035 99.8338C123.637 99.5578 123.085 99.5578 122.717 99.8031C122.318 100.079 122.318 100.508 122.073 100.508C121.889 100.508 121.735 100.294 121.582 100.171C121.582 100.171 121.398 99.8951 121.367 99.6498C121.183 98.8525 124.587 96.5527 127.01 94.9582H127.04Z" fill="#006749"/>
<path d="M119.681 61.3846C117.811 62.3045 115.91 63.6844 114.714 65.8615C113.457 68.2227 113.242 71.1051 113.794 71.1971C114.315 71.2277 114.315 69.2346 116.094 66.6895C117.688 64.3896 119.528 63.899 120.448 63.899C120.479 63.899 120.847 63.899 120.356 64.3283C120.08 64.6043 117.566 66.1988 116.707 69.4186C116.063 71.6877 116.799 74.6621 117.014 74.6314C117.535 74.6008 117.228 72.3623 118.393 69.9092C118.516 69.6332 119.865 66.9041 121.307 66.9961C121.399 66.9961 121.797 66.9961 121.797 67.2107C121.797 67.4867 121.092 68.1307 120.356 69.3266C119.62 70.4918 119.62 72.025 119.651 72.6383C119.773 74.3861 120.295 75.8887 120.724 75.7967C121.153 75.7047 120.632 73.7115 121.736 71.3197C121.92 70.9211 123.269 67.916 124.312 68.6213C124.864 69.0199 125.232 69.6639 125.232 70.3078C125.354 74.7541 125.354 78.7404 125.201 83.616C125.109 85.3945 124.649 87.0197 124.496 88.7062C124.496 88.7369 124.925 88.8902 124.925 88.9209L124.956 88.9516C125.446 89.2582 126.305 89.8715 126.826 90.3008C126.857 90.3314 126.949 90.3314 127.01 90.3008C127.439 89.9021 128.329 89.2889 128.758 89.0436C128.789 89.0129 129.249 88.8289 129.249 88.7676C129.065 87.0811 128.605 85.4252 128.513 83.6467C128.237 78.6484 128.298 74.6621 128.543 70.2771C128.635 69.6639 128.973 68.8973 129.463 68.5906C130.536 67.8854 131.855 70.8904 132.039 71.2891C133.112 73.7115 132.591 75.674 133.051 75.766C133.48 75.858 134.001 74.3248 134.124 72.6076C134.155 71.9637 134.155 70.4918 133.419 69.2959C132.683 68.0693 131.978 67.4561 131.978 67.1801C131.978 66.9961 132.376 66.9654 132.468 66.9654C133.94 66.8734 135.289 69.6025 135.381 69.8785C136.547 72.3623 136.24 74.5701 136.761 74.6008C136.976 74.6008 137.681 71.657 137.068 69.3879C136.148 66.1682 133.664 64.5736 133.419 64.2977C132.928 63.807 133.296 63.8684 133.327 63.8684C134.277 63.8684 136.056 64.359 137.681 66.6588C139.521 69.2346 139.521 71.2277 139.981 71.1664C140.533 71.1357 140.318 68.1613 139.061 65.8309C137.896 63.623 135.964 62.2738 134.093 61.3539C133.45 61.0473 133.909 60.71 133.971 60.6486C134.308 60.3113 136.915 60.8326 138.233 61.9059C138.662 62.3045 139.398 63.0404 139.153 62.0898C138.938 61.1699 137.712 59.974 136.577 59.3914C135.228 58.7781 134.308 58.5941 133.235 58.2262C132.622 57.9502 132.438 57.7049 132.591 57.5822C133.204 57.0303 135.197 57.0303 136.332 56.8463C136.945 56.7543 135.075 56.0184 133.817 55.9264C131.426 55.7424 130.69 56.9996 130.26 56.6316C130.138 56.509 130.046 56.2943 130.076 56.1104C130.199 55.2518 132.652 54.2705 132.039 54.1172C130.996 53.8412 129.126 55.0678 128.053 56.0797C127.93 56.2023 127.654 56.1104 127.715 55.6811C127.807 54.6385 127.838 54.2092 127.409 53.4119C127.286 53.1973 127.071 52.8906 126.887 52.8906C126.765 52.8906 126.489 53.1973 126.366 53.4119C125.937 54.2092 125.967 54.6385 126.059 55.6811C126.09 56.1104 125.845 56.1717 125.722 56.0797C124.649 55.1291 122.778 53.8719 121.736 54.1172C121.123 54.2398 123.576 55.2518 123.698 56.1104C123.729 56.2943 123.668 56.509 123.514 56.6316C123.085 57.0303 122.349 55.773 119.957 55.9264C118.7 56.0184 116.83 56.7543 117.443 56.8463C118.577 57.0303 120.601 57.0303 121.184 57.5822C121.307 57.7049 121.153 57.9809 120.54 58.2262C119.467 58.6555 118.547 58.7781 117.198 59.3914C116.032 59.9127 114.836 61.1699 114.622 62.0898C114.407 63.0404 115.112 62.2738 115.542 61.9059C116.799 60.8326 119.467 60.3113 119.804 60.6486C119.896 60.7406 120.325 61.0166 119.681 61.3846Z" fill="#006749"/>
<path d="M92.6964 108.697C93.3908 108.697 93.9537 95.1744 93.9537 78.4932C93.9537 61.8119 93.3908 48.2891 92.6964 48.2891C92.0021 48.2891 91.4392 61.8119 91.4392 78.4932C91.4392 95.1744 92.0021 108.697 92.6964 108.697Z" fill="#808080"/>
</svg>
