<svg width="143" height="101" viewBox="0 0 143 101" fill="none" xmlns="http://www.w3.org/2000/svg">
<g clip-path="url(#clip0_864_90)">
<path d="M74.1599 71.0424C73.4208 70.5104 72.4225 70.2401 71.1924 70.2401H66.5185C65.9902 70.2401 65.607 70.1124 65.3764 69.8619C65.1358 69.6014 65.018 69.2517 65.018 68.7904V68.1977C65.018 67.7128 65.1197 67.3668 65.3206 67.1684C65.5252 66.965 65.8427 66.8621 66.2655 66.8621H74.6695V63.8438H66.7702C66.0064 63.8438 65.3342 63.912 64.7737 64.0422C64.1686 64.1848 63.6576 64.4415 63.2571 64.8085C62.8541 65.1768 62.5527 65.6629 62.3593 66.2557C62.177 66.8175 62.084 67.5255 62.084 68.3576V69.0198C62.084 70.4732 62.492 71.5087 63.2943 72.0952C64.052 72.6496 65.1172 72.9286 66.4602 72.9286H71.0708C71.5123 72.9286 71.8409 73.0303 72.079 73.2374C72.296 73.4283 72.4014 73.716 72.4014 74.119V75.2698C72.4014 76.1565 72.017 76.5186 71.0708 76.5186H62.42V79.527H71.1638C72.6433 79.527 73.7259 79.124 74.3819 78.3304C75.0205 77.5578 75.3454 76.4033 75.3454 74.8978V73.9467C75.3454 72.5876 74.9461 71.6104 74.1599 71.0424Z" fill="#76777B"/>
<path d="M106.079 72.4958V76.5484H101.093C100.247 76.5484 99.9024 76.1863 99.9024 75.2996V73.8016C99.9024 72.8728 100.247 72.4958 101.093 72.4958H106.079ZM104.354 63.8438H97.8675V66.9923H104.354C105.547 66.9923 106.079 67.6173 106.079 69.0186V69.6907H100.924C98.3908 69.6907 97.0527 70.9829 97.0527 73.4271V75.5885C97.0527 76.8559 97.3739 77.8393 98.0064 78.5077C98.6425 79.1835 99.6247 79.5258 100.924 79.5258H109.013V68.933C109.013 65.6034 107.402 63.8438 104.354 63.8438Z" fill="#76777B"/>
<path d="M112.777 66.3311H114.836L115.605 60.6094H112.008L112.777 66.3311Z" fill="#76777B"/>
<path d="M127.378 72.4333V76.4871H122.391C121.545 76.4871 121.2 76.125 121.2 75.2383V73.7391C121.2 72.8115 121.545 72.4333 122.391 72.4333H127.378ZM125.653 63.7812H119.166V66.9311H125.653C126.846 66.9311 127.378 67.5561 127.378 68.9573V69.6295H122.222C119.69 69.6295 118.352 70.9204 118.352 73.3658V75.526C118.352 76.7946 118.672 77.7768 119.305 78.4464C119.941 79.1223 120.923 79.4633 122.222 79.4633H130.312V68.8705C130.312 65.5409 128.701 63.7812 125.653 63.7812Z" fill="#76777B"/>
<path d="M142.857 66.6457V63.8431H139.229V58.8828H136.211V74.3491C136.211 78.6261 138.638 79.5239 140.672 79.5239H142.799V76.5763H140.869C140.105 76.5763 139.229 76.3332 139.229 74.4346V66.6457" fill="#76777B"/>
<path d="M36.5918 68.7042V74.6281C36.5918 75.6698 35.7647 76.5167 34.7491 76.5167H31.0735C30.0566 76.5167 29.2307 75.6698 29.2307 74.6281V68.7042C29.2307 67.6626 30.0566 66.8156 31.0735 66.8156H34.7491C35.7647 66.8156 36.5918 67.6626 36.5918 68.7042ZM34.7491 63.8047H31.0735C28.4371 63.8047 26.293 66.0021 26.293 68.7042V74.6281C26.293 77.329 28.4371 79.5277 31.0735 79.5277H34.7491C37.3842 79.5277 39.5296 77.329 39.5296 74.6281V68.7042C39.5296 66.0021 37.3842 63.8047 34.7491 63.8047Z" fill="#76777B"/>
<path d="M56.6698 70.2827C56.6487 65.8482 53.6849 63.8281 50.9369 63.8281H44.5059V79.499H47.4436V66.839H50.9369C52.3704 66.839 53.7259 68.2316 53.7259 69.7061L53.7271 78.9261L53.7581 79.499H56.6723L56.671 70.3051" fill="#76777B"/>
<path d="M22.3239 70.3051L22.3227 70.2827C22.3041 66.3108 19.9244 64.282 17.4529 63.9L17.407 63.8281H16.5985C16.596 63.8281 16.5923 63.8281 16.5923 63.8281H14.277L14.313 63.8653C12.9204 64.0253 11.6171 64.7073 10.6758 65.7788C9.59449 64.5486 8.03695 63.8281 6.41245 63.8281H0V79.499H2.93775V66.8403H6.41245C7.92659 66.8403 9.20511 68.1275 9.20635 69.6305C9.20511 69.6466 9.20387 69.659 9.21007 79.0476V79.499H12.1491V79.0476C12.1478 70.1488 12.1466 69.6503 12.1466 69.6305C12.1466 68.0915 13.3991 66.8403 14.9392 66.8403H16.5935C18.0258 66.8415 19.3787 68.2341 19.3787 69.7061L19.38 78.9261L19.411 79.499H22.3251" fill="#76777B"/>
<path d="M92.7543 70.3052L92.7518 70.2829C92.732 65.8483 89.7682 63.8282 87.0189 63.8282H83.5281V58.8828H80.5879V79.4991H83.5281V66.8392H87.0189C88.4525 66.8392 89.8091 68.233 89.8091 69.7062L89.8104 78.9262L89.8401 79.4991H92.7543" fill="#76777B"/>
<path d="M117.117 26.16C117.117 23.9861 112.565 21.8594 112.565 21.8594C112.565 21.8594 107.93 26.3125 108.088 26.4464L113.221 30.7458C113.221 30.7458 117.117 28.3338 117.117 26.16Z" fill="#007298"/>
<path d="M90.6915 26.4464L95.8205 30.7458C95.8205 30.7458 99.718 28.3338 99.718 26.16C99.718 23.9861 95.1682 21.8594 95.1682 21.8594C95.1682 21.8594 90.5328 26.3125 90.6915 26.4464Z" fill="#007298"/>
<path d="M88.1751 26.16C88.1751 23.9861 83.624 21.8594 83.624 21.8594C83.624 21.8594 78.9886 26.3125 79.1486 26.4464L84.2788 30.7458C84.2788 30.7458 88.1751 28.3338 88.1751 26.16Z" fill="#007298"/>
<path d="M92.727 17.4112C92.727 15.2349 88.1771 13.1094 88.1771 13.1094C88.1771 13.1094 83.5429 17.5637 83.6992 17.6964L88.8306 21.997C88.8306 21.997 92.727 19.5826 92.727 17.4112Z" fill="#007298"/>
<path d="M132.141 47.7938C127.558 47.7938 127.797 43.8813 127.779 42.0634V33.8404H134.78C137.207 33.8404 137.994 37.5172 137.994 41.8178C137.994 41.9257 138.001 46.6653 138.002 47.8C136.875 47.8 132.267 47.7938 132.141 47.7938ZM142.851 34.8015C142.802 33.5415 142.038 28.9657 135.845 28.9657H132.175L122.924 38.6705V47.0386C122.924 47.4912 122.982 47.9054 123.066 48.2997C120.357 48.3097 117.166 48.3146 115.594 45.6348C114.96 44.5559 114.765 43.2824 114.759 42.0386V34.1851L109.903 39.1616V47.0386C109.907 47.4614 109.936 47.8843 109.996 48.2997C107.294 48.3097 104.122 48.3047 102.555 45.6348C101.921 44.5559 101.726 43.2824 101.718 42.0386V30.176L96.8635 35.1524V47.0386C96.8672 47.4614 96.8957 47.8843 96.9565 48.2997C95.7077 48.177 94.4763 47.5619 93.5153 46.7732C92.0991 45.6075 91.272 43.9284 91.2534 42.0634V32.6598L86.3985 37.6338V47.0386C86.4022 47.4726 86.453 47.8942 86.5411 48.3034C85.2762 48.1918 84.0262 47.5743 83.0503 46.7732C81.6353 45.6075 80.8082 43.9284 80.7908 42.0634V30.176L75.9359 35.1524V47.0386C75.9384 47.4701 75.9892 47.8905 76.0773 48.2997C73.3652 48.3097 70.1646 48.3196 68.5884 45.6348C67.9548 44.5559 67.7588 43.2824 67.7526 42.0398V11.8203L62.8965 16.7943V47.3287L62.9089 47.3151C62.9771 49.2372 63.5959 51.1234 65.2551 52.1985C66.5547 53.0381 68.1457 53.26 69.6549 53.2935C70.2973 53.3072 70.9384 53.2749 71.5795 53.2737C71.8189 53.2712 72.3074 52.7591 72.4116 52.6673C73.0242 52.1279 73.6095 51.5438 74.1787 50.9597C74.7479 50.3719 75.3221 49.7804 75.8454 49.1504C75.8826 49.1045 76.0314 48.8912 76.1728 48.6879C76.5138 49.8833 77.2132 50.9399 78.1953 51.7484C79.2618 52.6239 80.6594 53.2836 82.0433 53.2972C82.2789 53.301 82.7774 52.7801 82.8754 52.6921C83.488 52.1527 84.0746 51.5698 84.6425 50.9833C85.2117 50.3967 85.7846 49.8052 86.3092 49.1727C86.3439 49.1318 86.4989 48.9123 86.6415 48.7077C86.985 49.8945 87.682 50.9436 88.6591 51.7484C89.7244 52.6239 91.1232 53.2836 92.5071 53.2972C92.7427 53.301 93.24 52.7801 93.3404 52.6921C93.9518 52.1527 94.5371 51.5698 95.1075 50.9833C95.6755 50.3967 96.2484 49.8052 96.7742 49.1727C96.804 49.138 96.9218 48.9706 97.0446 48.7945C97.3347 50.1636 97.9957 51.4024 99.2234 52.1985C100.523 53.0381 102.114 53.26 103.622 53.2935C104.264 53.3072 104.907 53.2749 105.548 53.2737C105.786 53.2712 106.276 52.7591 106.377 52.6673C106.99 52.1279 107.577 51.5438 108.145 50.9597C108.714 50.3719 109.288 49.7804 109.812 49.1504C109.843 49.1107 109.959 48.947 110.08 48.7734L110.084 48.7945C110.374 50.1636 111.035 51.4024 112.262 52.1985C113.564 53.0381 115.153 53.26 116.661 53.2935C117.304 53.3072 117.946 53.2749 118.587 53.2737C118.824 53.2712 119.314 52.7591 119.417 52.6673C120.031 52.1279 120.616 51.5438 121.184 50.9597C121.753 50.3719 122.327 49.7804 122.852 49.1504C122.887 49.107 123.025 48.9098 123.161 48.7152C124.179 52.1378 128.327 53.2972 131.653 53.2972C131.717 53.2972 132.787 53.2972 132.787 53.2972L142.857 43.1646C142.857 43.1646 142.856 34.9255 142.851 34.8015Z" fill="#007298"/>
<path d="M30.7398 29.8087L36.0325 34.2469C36.0325 34.2469 40.1248 31.7134 40.1248 29.4304C40.1248 27.1499 35.3467 24.9141 35.3467 24.9141C35.3467 24.9141 31.4504 28.6603 30.7584 29.5408C30.694 27.2739 25.9866 25.0716 25.9866 25.0716C25.9866 25.0716 21.1181 29.7491 21.2855 29.8868L26.6724 34.4032C26.6724 34.4032 30.4931 32.0309 30.7398 29.8087Z" fill="#007298"/>
<path d="M68.6749 8.06324L74.5678 2.33036V0.5L70.7223 4.15823L62.4373 1.38418L62.0244 1.24653L56.2754 6.93849V8.73537L59.8295 5.17882L68.2905 7.93924" fill="#007298"/>
<path d="M56.4881 35.5226C56.1434 34.9062 55.3485 33.7344 55.3485 33.7344L50.0248 38.9067C50.0248 38.9067 52.3276 42.7882 52.3648 45.2001C52.3797 46.1997 52.3648 45.1654 52.3648 46.1662V48.1019H10.3844C6.63194 48.1019 5.11409 47.0541 5.10789 41.9189L7.68105 39.2726V36.3187L0 44.2056C0 44.2453 0.00496032 47.0255 0.00744048 47.1148C0.0582838 48.4392 0.339782 49.7773 1.11111 50.8661C1.75967 51.7812 2.69469 52.41 3.7252 52.7808C5.45759 53.4058 7.27431 53.3103 9.07738 53.3003H49.8723L57.6972 46.2629V44.0221C57.6972 41.1265 57.9564 38.1528 56.4881 35.5226Z" fill="#007298"/>
<path d="M2.39459 96.7428C2.33383 96.7254 2.1193 96.6696 1.75223 96.5779C1.39261 96.4861 1.14211 96.4117 1.00818 96.3547C0.870536 96.2939 0.77753 96.2245 0.732887 96.1488C0.687004 96.0719 0.664683 95.9665 0.664683 95.8363V95.721C0.664683 95.5573 0.737847 95.4159 0.890377 95.2882C1.04167 95.1592 1.27356 95.0947 1.57986 95.0947C1.92088 95.0947 2.18006 95.1617 2.35119 95.2981C2.5186 95.4296 2.60169 95.623 2.60169 95.8723V95.9392H3.25893V95.8723C3.25893 95.6801 3.22669 95.5027 3.16716 95.3477C3.10516 95.1915 3.01959 95.06 2.91295 94.9559C2.81002 94.8542 2.68229 94.7674 2.53596 94.7004C2.38591 94.6322 2.2371 94.5851 2.08209 94.5578C1.92584 94.5293 1.75719 94.5156 1.57986 94.5156C1.12103 94.5156 0.740327 94.6248 0.448909 94.8393C0.15129 95.0588 0 95.3539 0 95.7148V95.7755C0 96.0843 0.0669644 96.341 0.198413 96.5419C0.331101 96.7453 0.569197 96.8991 0.902778 96.997C0.957341 97.0156 1.13219 97.0603 1.54514 97.1644C1.906 97.2562 2.1565 97.3318 2.28795 97.3876C2.42312 97.4472 2.51488 97.5179 2.56076 97.5947C2.60665 97.6753 2.62897 97.7845 2.62897 97.9159V98.0573C2.62897 98.221 2.5558 98.3624 2.40327 98.4901C2.25198 98.619 2.02009 98.6848 1.71503 98.6848C1.37277 98.6848 1.11483 98.6153 0.9437 98.4802C0.77629 98.3462 0.694444 98.159 0.694444 97.906V97.7026H0.0297619V97.906C0.0297619 98.0995 0.0620041 98.2755 0.124008 98.4306C0.186012 98.5868 0.271577 98.7195 0.376984 98.8224C0.481151 98.9241 0.608879 99.0109 0.753968 99.0779C0.894097 99.1424 1.04787 99.192 1.21032 99.2205C1.37029 99.2478 1.53894 99.2626 1.71503 99.2626C2.17386 99.2626 2.55332 99.1535 2.84722 98.9402C3.14608 98.7207 3.29737 98.4268 3.29737 98.066V97.9606C3.29737 97.653 3.22917 97.3951 3.09772 97.1967C2.96379 96.9945 2.72693 96.8408 2.39459 96.7428Z" fill="#76777B"/>
<path d="M10.7853 97.3512C10.7853 96.9358 10.861 96.6369 11.0098 96.4621C11.1561 96.2897 11.3942 96.2029 11.7154 96.2029H12.5549V98.6037H11.7154C11.393 98.6037 11.1561 98.5181 11.0098 98.3457C10.861 98.1709 10.7853 97.872 10.7853 97.4566V97.3512ZM11.2566 95.6709C11.1115 95.7031 10.9689 95.7577 10.8374 95.8346C10.6998 95.9115 10.5807 96.0094 10.4852 96.1272C10.3885 96.245 10.3079 96.3988 10.2509 96.5823C10.1926 96.7634 10.1641 96.9742 10.1641 97.2073V97.5992C10.1641 97.8323 10.1926 98.0419 10.2509 98.223C10.3079 98.4077 10.3885 98.5603 10.4852 98.6781C10.5807 98.7946 10.6985 98.8938 10.8362 98.972C10.9701 99.0476 11.1115 99.1022 11.2566 99.1344C11.3967 99.1654 11.5517 99.1815 11.7154 99.1815H13.175V95.625H11.7154C11.5517 95.625 11.3967 95.6399 11.2566 95.6709Z" fill="#76777B"/>
<path d="M14.3262 99.1807H14.9462V94.3047H14.3262V99.1807Z" fill="#76777B"/>
<path d="M16.0918 99.1807H16.7118V94.3047H16.0918V99.1807Z" fill="#76777B"/>
<path d="M19.9984 98.6029C19.7107 98.6029 19.4874 98.5384 19.3362 98.4082C19.1861 98.2793 19.1142 98.1193 19.1142 97.9159V97.725C19.1142 97.5228 19.1774 97.3616 19.3089 97.2326C19.4378 97.1049 19.6152 97.0404 19.8334 97.0404H20.8267V98.6029H19.9984ZM19.3151 96.284C19.1799 96.1687 19.1142 96.0087 19.1142 95.7966V95.69C19.1142 95.5102 19.1836 95.3688 19.3275 95.2609C19.4738 95.1505 19.6896 95.0935 19.9686 95.0935C20.2513 95.0935 20.4696 95.1481 20.6147 95.256C20.7573 95.3614 20.8267 95.5027 20.8267 95.69V95.9479H21.4468V95.685C21.4468 95.6057 21.4381 95.5238 21.4207 95.4345C21.4034 95.349 21.3624 95.2473 21.2992 95.1332C21.236 95.0191 21.1529 94.9162 21.0499 94.8281C20.9445 94.7401 20.8019 94.6682 20.6134 94.6074C20.4274 94.5466 20.2104 94.5156 19.9686 94.5156C19.728 94.5156 19.511 94.5466 19.3238 94.6074C19.1365 94.6706 18.9889 94.7475 18.8872 94.8356C18.7856 94.9236 18.7012 95.0278 18.6392 95.1443C18.576 95.2634 18.5363 95.3614 18.5202 95.4457C18.5041 95.5288 18.4941 95.6094 18.4941 95.685V95.8202C18.4941 95.8983 18.5016 95.9715 18.514 96.0434C18.5289 96.1166 18.5524 96.1997 18.5871 96.2989C18.6231 96.3956 18.6802 96.4911 18.7546 96.5828C18.8079 96.6498 18.8711 96.7106 18.9418 96.7651C18.6454 96.9722 18.4941 97.2946 18.4941 97.725V97.9358C18.4941 98.0598 18.5103 98.1801 18.54 98.2904C18.5698 98.4033 18.6243 98.5174 18.6988 98.629C18.7744 98.7393 18.8699 98.8361 18.9827 98.9154C19.0981 98.996 19.2431 99.0605 19.4143 99.1089C19.5829 99.156 19.7801 99.1808 19.9984 99.1808H21.4468V97.0404H21.9614V96.4601H19.9686C19.6722 96.4601 19.4527 96.4005 19.3151 96.284Z" fill="#76777B"/>
<path d="M25.9895 98.2238L24.6862 94.645L24.67 94.6016H23.709V99.1849H24.3749V95.5887L25.6633 99.1403L25.6782 99.1849H26.2871L27.609 95.5663V99.1849H28.2737V94.6016H27.3003" fill="#76777B"/>
<path d="M31.7447 97.0567H29.8821C29.9069 96.7343 29.99 96.4974 30.1289 96.3535C30.2752 96.2023 30.5046 96.1254 30.8084 96.1254C31.116 96.1254 31.3466 96.2023 31.4954 96.3535C31.6356 96.4974 31.7187 96.7343 31.7447 97.0567ZM32.0448 96.0497L32.0436 96.0485C31.9444 95.9307 31.8241 95.8327 31.6901 95.7571C31.555 95.6814 31.4136 95.6256 31.2673 95.5934C30.9858 95.5314 30.6286 95.5314 30.3508 95.5934C30.2045 95.6256 30.0669 95.6789 29.9305 95.7571C29.7928 95.834 29.675 95.9319 29.5783 96.0497C29.4803 96.1688 29.4022 96.3225 29.3439 96.5061C29.2856 96.6859 29.2559 96.8967 29.2559 97.1298V97.673C29.2559 97.9061 29.2856 98.1157 29.3439 98.2955C29.4022 98.4803 29.4803 98.6341 29.5783 98.7543C29.6725 98.8709 29.7916 98.9701 29.9292 99.0495C30.0681 99.1288 30.2058 99.1822 30.3508 99.2144C30.4897 99.2454 30.6447 99.2615 30.8084 99.2615C30.9845 99.2615 31.1544 99.2405 31.3144 99.1995C31.4744 99.1586 31.6219 99.0954 31.7633 99.0073C31.9071 98.9156 32.0299 98.7903 32.1316 98.6291C32.2308 98.4691 32.3003 98.2794 32.3362 98.0673L32.3499 97.9892H31.7075L31.6951 98.0413C31.6393 98.2657 31.5401 98.4294 31.3975 98.5299C31.2549 98.6316 31.0565 98.6837 30.8084 98.6837C30.4848 98.6837 30.2554 98.6018 30.1053 98.4307C29.9652 98.2719 29.8883 98.0029 29.8796 97.6345H32.3672V97.1298C32.3672 96.8992 32.3387 96.6884 32.2804 96.5061C32.2209 96.3213 32.1415 96.1675 32.0448 96.0497Z" fill="#76777B"/>
<path d="M33.8823 97.3503C33.8823 96.9349 33.9567 96.636 34.1055 96.4612C34.2518 96.2888 34.4899 96.202 34.8111 96.202H35.6606V98.6028H34.8111C34.4887 98.6028 34.2518 98.5172 34.1055 98.3449C33.9567 98.17 33.8823 97.8712 33.8823 97.4557V97.3503ZM35.6606 95.6241H34.8111C34.6487 95.6241 34.4936 95.639 34.3548 95.67C34.2097 95.7023 34.0708 95.7556 33.9319 95.8349C33.7942 95.9143 33.6764 96.0135 33.5809 96.1326C33.483 96.2529 33.4049 96.4066 33.3466 96.5914C33.2883 96.7712 33.2598 96.982 33.2598 97.2152V97.5983C33.2598 97.8315 33.2883 98.041 33.3466 98.2221C33.4049 98.4069 33.4842 98.5594 33.5809 98.6772C33.6764 98.7938 33.7955 98.893 33.9331 98.9711C34.0695 99.0492 34.2084 99.1013 34.3535 99.1336C34.4936 99.1646 34.6487 99.1807 34.8111 99.1807H36.2719V94.3047H35.6606" fill="#76777B"/>
<path d="M37.4199 99.1815H38.04V95.625H37.4199V99.1815Z" fill="#76777B"/>
<path d="M41.5851 97.5384C41.5851 97.9625 41.5169 98.2639 41.3817 98.435C41.249 98.6012 41.0146 98.6855 40.686 98.6855C40.3562 98.6855 40.123 98.6012 39.9928 98.4363C39.8601 98.2664 39.7919 97.9638 39.7919 97.5384V95.625H39.1719V97.6749C39.1719 97.9055 39.2004 98.1151 39.2512 98.2961C39.3058 98.4834 39.3802 98.6384 39.4695 98.755C39.5613 98.8752 39.6741 98.9757 39.8068 99.0526C39.9358 99.1295 40.0759 99.184 40.221 99.2163C40.3624 99.2473 40.5186 99.2634 40.686 99.2634C40.8534 99.2634 41.0109 99.2473 41.151 99.2163C41.2949 99.184 41.435 99.1295 41.5652 99.0526C41.6979 98.9745 41.8108 98.874 41.9013 98.755C41.9943 98.6347 42.0675 98.4809 42.1195 98.2961C42.1716 98.1151 42.1989 97.9055 42.1989 97.6749V95.625H41.5851" fill="#76777B"/>
<path d="M50.8789 99.1849H53.5166V98.607H51.5448V97.1561H53.4062V96.5795H51.5448V95.1819H53.5166V94.6016H50.8789" fill="#76777B"/>
<path d="M63.3099 97.0567H61.4473C61.4721 96.7343 61.5552 96.4974 61.694 96.3535C61.8416 96.2023 62.0698 96.1254 62.3736 96.1254C62.6811 96.1254 62.9118 96.2023 63.0606 96.3535C63.2007 96.4974 63.2851 96.7343 63.3099 97.0567ZM63.61 96.0497L63.6087 96.0485C63.5095 95.9307 63.3905 95.8327 63.2553 95.7571C63.1201 95.6814 62.9788 95.6256 62.8324 95.5934C62.5509 95.5314 62.1938 95.5314 61.916 95.5934C61.7697 95.6256 61.632 95.6789 61.4956 95.7571C61.358 95.834 61.2402 95.9319 61.1434 96.0497C61.0455 96.1688 60.9674 96.3225 60.9091 96.5061C60.8508 96.6859 60.8223 96.8967 60.8223 97.1298V97.673C60.8223 97.9061 60.8508 98.1157 60.9091 98.2955C60.9674 98.4803 61.0455 98.6341 61.1434 98.7543C61.2377 98.8709 61.3567 98.9701 61.4944 99.0495C61.6333 99.1288 61.7709 99.1822 61.916 99.2144C62.0561 99.2454 62.2099 99.2615 62.3736 99.2615C62.5497 99.2615 62.7196 99.2405 62.8796 99.1995C63.0395 99.1586 63.1871 99.0954 63.3285 99.0073C63.4723 98.9156 63.5951 98.7903 63.6955 98.6303C63.796 98.4716 63.8642 98.2819 63.9014 98.0673L63.9138 97.9892H63.2727L63.2603 98.0413C63.2057 98.2657 63.1053 98.4294 62.9626 98.5299C62.82 98.6316 62.6216 98.6837 62.3736 98.6837C62.0499 98.6837 61.8205 98.6018 61.6705 98.4307C61.5304 98.2719 61.4535 98.0029 61.4448 97.6345H63.9324V97.1298C63.9324 96.8992 63.9039 96.6884 63.8456 96.5061C63.7873 96.3213 63.7067 96.1675 63.61 96.0497Z" fill="#76777B"/>
<path d="M69.8319 97.3512V97.4566C69.8319 97.872 69.7563 98.1696 69.605 98.3445C69.4537 98.5193 69.2205 98.6037 68.8932 98.6037H68.0536V96.2029H68.8932C69.2156 96.2029 69.4549 96.2897 69.605 96.4633C69.7563 96.6381 69.8319 96.937 69.8319 97.3512ZM70.1295 96.1272C70.0303 96.0094 69.9113 95.9102 69.7749 95.8346C69.6397 95.7577 69.4983 95.7031 69.352 95.6709C69.2119 95.6399 69.0569 95.625 68.8932 95.625H67.4336V100.501H68.0536V99.1815H68.8932C69.0569 99.1815 69.2119 99.1654 69.352 99.1344C69.4971 99.1022 69.6397 99.0476 69.7736 98.972C69.9113 98.8938 70.0316 98.7946 70.1295 98.6781C70.2275 98.5603 70.3069 98.4065 70.3639 98.223C70.4222 98.0394 70.4519 97.8299 70.4519 97.5992V97.2073C70.4519 96.9767 70.4222 96.7659 70.3639 96.5823C70.3069 96.3988 70.2275 96.245 70.1295 96.1272Z" fill="#76777B"/>
<path d="M73.9531 99.1815H74.5744V95.625H73.9531V99.1815Z" fill="#76777B"/>
<path d="M77.7082 97.2247C77.6314 97.2024 77.4329 97.154 77.1465 97.0883C76.8489 97.0188 76.6381 96.9643 76.5178 96.9246C76.3541 96.8688 76.2871 96.818 76.2598 96.787C76.2226 96.7423 76.2053 96.6691 76.2053 96.565V96.534C76.2053 96.4187 76.2648 96.3256 76.3888 96.2488C76.524 96.1657 76.7261 96.1248 76.9927 96.1248C77.8012 96.1248 77.8012 96.4893 77.8012 96.6096V96.6766H78.4225V96.6096C78.4225 96.4249 78.3828 96.2587 78.306 96.1173C78.2278 95.9759 78.1187 95.8631 77.9811 95.78C77.8459 95.7019 77.6946 95.6424 77.5321 95.6052C77.3672 95.5655 77.1911 95.5469 76.9927 95.5469C76.5897 95.5469 76.2536 95.6312 75.9932 95.7974C75.7216 95.9685 75.584 96.2066 75.584 96.503V96.5402C75.584 96.7907 75.641 96.994 75.7539 97.1404C75.8667 97.2879 76.054 97.4008 76.307 97.474C76.3702 97.4926 76.55 97.5372 76.8588 97.6128C77.1539 97.6823 77.366 97.7393 77.4887 97.7803C77.6524 97.8348 77.7219 97.8869 77.7516 97.9191C77.7913 97.965 77.8112 98.0394 77.8112 98.1399V98.2068C77.8112 98.3234 77.8112 98.683 77.0584 98.683C76.2573 98.683 76.2573 98.3123 76.2573 98.1907V97.9067H75.6348V98.1907C75.6348 98.3755 75.6745 98.5404 75.7514 98.6843C75.8295 98.8269 75.9399 98.941 76.0763 99.0228C76.2102 99.1047 76.3615 99.1642 76.524 99.2026C76.6852 99.2398 76.865 99.2609 77.0584 99.2609C77.237 99.2609 77.4081 99.2423 77.5669 99.2076C77.7244 99.1716 77.8695 99.1146 77.9997 99.0377C78.1323 98.9596 78.239 98.848 78.3159 98.7066C78.3928 98.5652 78.4312 98.4003 78.4312 98.2155V98.161C78.4312 97.908 78.3729 97.7059 78.2613 97.557C78.1485 97.4107 77.9625 97.2991 77.7082 97.2247Z" fill="#76777B"/>
<path d="M81.7962 97.0567H79.9348C79.9584 96.7343 80.0415 96.4974 80.1804 96.3535C80.3279 96.2023 80.5561 96.1254 80.8612 96.1254C81.1675 96.1254 81.3994 96.2023 81.5469 96.3535C81.6883 96.4974 81.7714 96.7343 81.7962 97.0567ZM82.0963 96.0485C81.9971 95.9307 81.878 95.8327 81.7416 95.7571C81.604 95.6789 81.4651 95.6256 81.32 95.5934C81.0385 95.5314 80.6838 95.5314 80.4023 95.5934C80.2573 95.6256 80.1146 95.6814 79.982 95.7571C79.8455 95.834 79.7277 95.9319 79.631 96.0497C79.5318 96.1688 79.4537 96.3225 79.3954 96.5061C79.3384 96.6871 79.3086 96.8967 79.3086 97.1298V97.673C79.3086 97.9049 79.3384 98.1145 79.3954 98.2955C79.4537 98.479 79.5318 98.6328 79.631 98.7543C79.7253 98.8709 79.8443 98.9701 79.982 99.0495C80.1171 99.1264 80.2573 99.1822 80.4023 99.2144C80.5425 99.2454 80.6975 99.2615 80.8612 99.2615C81.0373 99.2615 81.2072 99.2405 81.3671 99.1995C81.5246 99.1586 81.6771 99.0941 81.816 99.0073C81.9586 98.918 82.0814 98.7915 82.1819 98.6303C82.2811 98.4716 82.3505 98.2819 82.389 98.0686L82.4026 97.9892H81.7602L81.7478 98.0413C81.692 98.2645 81.5916 98.4294 81.449 98.5299C81.3064 98.6316 81.1079 98.6837 80.8612 98.6837C80.5375 98.6837 80.3081 98.6018 80.158 98.4307C80.0167 98.2719 79.941 98.0029 79.9324 97.6345H82.42V97.1298C82.42 96.8992 82.3902 96.6884 82.3319 96.5061C82.2724 96.3176 82.1955 96.1688 82.0963 96.0485Z" fill="#76777B"/>
<path d="M85.4289 97.2247C85.3496 97.2024 85.145 97.1528 84.8672 97.0883C84.5708 97.0188 84.3588 96.9643 84.2397 96.9246C84.0748 96.8676 84.0066 96.818 83.9805 96.7882C83.9433 96.7423 83.9247 96.6679 83.9247 96.565V96.534C83.9247 96.4187 83.9855 96.3244 84.1107 96.2488C84.2447 96.1657 84.448 96.1248 84.7134 96.1248C85.5232 96.1248 85.5232 96.4893 85.5232 96.6096V96.6766H86.1432V96.6096C86.1432 96.4236 86.1035 96.2574 86.0267 96.1173C85.9498 95.9759 85.8406 95.8631 85.703 95.78C85.5678 95.7019 85.4178 95.6436 85.2541 95.6052C85.0904 95.5667 84.9094 95.5469 84.7134 95.5469C84.3104 95.5469 83.9743 95.6312 83.7127 95.7974C83.4423 95.9697 83.3047 96.2066 83.3047 96.503V96.5402C83.3047 96.7919 83.363 96.994 83.4758 97.1404C83.5874 97.2879 83.7747 97.4008 84.0289 97.474C84.0946 97.4926 84.2794 97.5397 84.5795 97.6128C84.8771 97.6835 85.0892 97.7406 85.2094 97.7803C85.3731 97.8348 85.4426 97.8869 85.4736 97.9191C85.512 97.965 85.5319 98.0394 85.5319 98.1399V98.2068C85.5319 98.3234 85.5319 98.683 84.7791 98.683C83.9793 98.683 83.9793 98.3123 83.9793 98.1907V97.9067H83.3568V98.1907C83.3568 98.3755 83.3952 98.5404 83.4721 98.6843C83.5515 98.8269 83.6606 98.941 83.7982 99.0228C83.9334 99.1047 84.0822 99.1654 84.2447 99.2026C84.4071 99.2398 84.5857 99.2609 84.7791 99.2609C84.959 99.2609 85.1301 99.2423 85.2888 99.2076C85.4451 99.1716 85.5902 99.1146 85.7191 99.0377C85.8531 98.9596 85.9597 98.848 86.0366 98.7066C86.1135 98.5665 86.1519 98.4015 86.1519 98.2155V98.161C86.1519 97.9067 86.0949 97.7046 85.982 97.557C85.8679 97.4107 85.6832 97.2991 85.4289 97.2247Z" fill="#76777B"/>
<path d="M89.5229 95.3677C89.6891 95.1854 89.9495 95.0937 90.2943 95.0937C90.613 95.0937 90.8585 95.1718 91.0234 95.3243C91.1871 95.4793 91.2863 95.7311 91.3161 96.0733L91.3211 96.1341H91.9895L91.9882 96.0659C91.9857 95.8377 91.9523 95.6319 91.8878 95.4545C91.8208 95.2697 91.7352 95.1234 91.6298 95.0081C91.5219 94.889 91.393 94.7923 91.2479 94.7204C91.1003 94.646 90.9466 94.5927 90.7928 94.5617C90.4778 94.4997 90.1008 94.5009 89.7883 94.5617C89.6308 94.5927 89.4758 94.6472 89.3295 94.7254C89.1807 94.8022 89.053 94.9002 88.9488 95.0205C88.8434 95.1383 88.7591 95.2921 88.6946 95.4768C88.6326 95.6616 88.6016 95.8662 88.6016 96.1031V97.673C88.6016 97.9062 88.6338 98.117 88.6946 98.298C88.7591 98.4828 88.8434 98.6378 88.9488 98.7556C89.053 98.8734 89.1794 98.9726 89.3282 99.0508C89.4733 99.1276 89.6283 99.1834 89.7883 99.2144C89.9433 99.2454 90.1145 99.2616 90.2943 99.2616C90.6787 99.2616 91.0048 99.2194 91.2653 99.1376C91.5294 99.057 91.7662 98.9181 91.9671 98.7221L91.9882 98.7035V96.7244H90.5076V97.3022H91.3235V98.4518C91.2057 98.5299 91.078 98.587 90.9441 98.6229C90.7965 98.6626 90.577 98.6837 90.2943 98.6837C89.9495 98.6837 89.6904 98.5907 89.5229 98.4084C89.3543 98.2236 89.2687 97.9198 89.2687 97.5069V96.2693C89.2687 95.8563 89.3543 95.5525 89.5229 95.3677Z" fill="#76777B"/>
<path d="M95.4075 97.0561H93.5462C93.5697 96.7336 93.6528 96.4968 93.7917 96.3529C93.9393 96.2016 94.1674 96.1248 94.4713 96.1248C94.7788 96.1248 95.0095 96.2016 95.1583 96.3529C95.2996 96.4968 95.3827 96.7336 95.4075 97.0561ZM95.7076 96.0491V96.0479C95.6059 95.9301 95.4881 95.8309 95.353 95.7564C95.2178 95.6796 95.0752 95.625 94.9301 95.5928C94.7862 95.5618 94.6374 95.5469 94.4713 95.5469C94.3076 95.5469 94.1538 95.5618 94.0137 95.5928C93.8686 95.625 93.7272 95.6808 93.5933 95.7564C93.4569 95.8333 93.3378 95.9313 93.2411 96.0491C93.1431 96.1682 93.065 96.3219 93.008 96.5055C92.9484 96.6853 92.9199 96.8961 92.9199 97.1292V97.6724C92.9199 97.9055 92.9484 98.1151 93.008 98.2949C93.065 98.4797 93.1431 98.6334 93.2411 98.7537C93.3353 98.8703 93.4544 98.9695 93.592 99.0489C93.7285 99.1257 93.8698 99.1828 94.0137 99.2138C94.1538 99.2448 94.3076 99.2609 94.4713 99.2609C94.6486 99.2609 94.8185 99.2398 94.9785 99.1989C95.1372 99.158 95.2835 99.0947 95.4286 99.0067C95.57 98.9149 95.694 98.7884 95.7932 98.6297C95.8936 98.471 95.9618 98.2812 96.0003 98.0667L96.0127 97.9886H95.3716L95.3604 98.0394C95.3034 98.2651 95.2029 98.4301 95.0615 98.5293C94.9177 98.631 94.7193 98.683 94.4713 98.683C94.1526 98.683 93.9169 98.5975 93.7694 98.4301C93.6292 98.2713 93.5536 98.0047 93.5424 97.6339H96.0313V97.1292C96.0313 96.8986 96.0015 96.6877 95.9432 96.5055C95.885 96.3219 95.8068 96.1682 95.7076 96.0491Z" fill="#76777B"/>
<path d="M99.6525 95.9759C99.5285 95.8519 99.3586 95.7614 99.149 95.7056C98.9444 95.651 98.6939 95.625 98.3839 95.625H97.0508V99.1815H97.6708V96.2029H98.4446C98.6344 96.2029 98.7943 96.219 98.9196 96.2512C99.0374 96.281 99.1292 96.3306 99.1949 96.3988C99.2618 96.4683 99.3077 96.5464 99.3338 96.6381C99.361 96.7374 99.3747 96.8626 99.3747 97.0102V99.1815H99.9947V97.0858C99.9947 96.8279 99.9687 96.6084 99.9191 96.4335C99.8682 96.255 99.779 96.1012 99.6525 95.9759Z" fill="#76777B"/>
<path d="M103.452 97.0567H101.591C101.616 96.7343 101.698 96.4974 101.837 96.3535C101.984 96.2023 102.212 96.1254 102.516 96.1254C102.824 96.1254 103.054 96.2023 103.204 96.3535C103.345 96.4974 103.428 96.7343 103.452 97.0567ZM103.753 96.0497V96.0485C103.652 95.9294 103.532 95.8315 103.398 95.7571C103.263 95.6814 103.121 95.6256 102.975 95.5934C102.694 95.5314 102.338 95.5314 102.06 95.5934C101.912 95.6256 101.775 95.6789 101.638 95.7571C101.502 95.834 101.383 95.9319 101.286 96.0497C101.188 96.1688 101.11 96.3225 101.053 96.5061C100.995 96.6859 100.965 96.8967 100.965 97.1298V97.673C100.965 97.9061 100.995 98.1157 101.053 98.2955C101.11 98.4803 101.188 98.6341 101.286 98.7543C101.38 98.8709 101.499 98.9701 101.637 99.0495C101.776 99.1288 101.915 99.1822 102.059 99.2144C102.199 99.2454 102.352 99.2615 102.516 99.2615C102.694 99.2615 102.863 99.2405 103.023 99.1995C103.182 99.1586 103.33 99.0954 103.474 99.0073C103.615 98.9156 103.739 98.7891 103.838 98.6303C103.939 98.4716 104.007 98.2819 104.045 98.0673L104.058 97.9892H103.416L103.403 98.0413C103.348 98.2657 103.249 98.4294 103.106 98.5299C102.963 98.6316 102.764 98.6837 102.516 98.6837C102.193 98.6837 101.964 98.6018 101.814 98.4307C101.673 98.2719 101.597 98.0029 101.587 97.6345H104.076V97.1298C104.076 96.8992 104.046 96.6884 103.988 96.5061C103.931 96.3225 103.852 96.1688 103.753 96.0497Z" fill="#76777B"/>
<path d="M105.094 99.1815H105.714V96.2029H106.705V95.625H105.094" fill="#76777B"/>
<path d="M107.843 97.3512C107.843 96.9358 107.918 96.6369 108.068 96.4621C108.213 96.2897 108.451 96.2029 108.773 96.2029H109.613V98.6037H108.773C108.451 98.6037 108.213 98.5181 108.068 98.3457C107.918 98.1709 107.843 97.872 107.843 97.4566V97.3512ZM108.314 95.6709C108.168 95.7031 108.03 95.7564 107.895 95.8346C107.758 95.9115 107.639 96.0094 107.543 96.1272C107.445 96.245 107.366 96.3988 107.309 96.5823C107.25 96.7634 107.221 96.9742 107.221 97.2073V97.5992C107.221 97.8323 107.25 98.0419 107.309 98.223C107.366 98.4077 107.445 98.5603 107.543 98.6781C107.639 98.7946 107.756 98.8938 107.895 98.972C108.032 99.0501 108.169 99.1022 108.314 99.1344C108.455 99.1654 108.61 99.1815 108.773 99.1815H110.233V95.625H108.773C108.61 95.625 108.455 95.6399 108.314 95.6709Z" fill="#76777B"/>
<path d="M111.383 99.1807H112.003V94.3047H111.383V99.1807Z" fill="#76777B"/>
<path d="M116.43 97.6472H115.054L115.74 95.5143L116.43 97.6472ZM116.149 94.6016H115.341L113.894 99.0969L113.865 99.1849H114.561L114.867 98.2276H116.617L116.923 99.1849H117.618L116.164 94.6474" fill="#76777B"/>
<path d="M120.733 97.5384C120.733 97.9613 120.665 98.2626 120.528 98.435C120.395 98.6012 120.161 98.6855 119.832 98.6855C119.503 98.6855 119.27 98.6012 119.139 98.4363C119.007 98.2664 118.94 97.9638 118.94 97.5384V95.625H118.318V97.6749C118.318 97.9055 118.347 98.1151 118.399 98.2961C118.454 98.4834 118.527 98.6384 118.617 98.755C118.708 98.8752 118.821 98.9757 118.953 99.0526C119.085 99.1295 119.224 99.184 119.369 99.2163C119.509 99.2473 119.665 99.2634 119.832 99.2634C120.001 99.2634 120.157 99.2473 120.298 99.2163C120.443 99.184 120.583 99.1295 120.712 99.0526C120.844 98.9745 120.958 98.874 121.048 98.755C121.141 98.6347 121.215 98.4809 121.267 98.2961C121.319 98.1151 121.347 97.9055 121.347 97.6749V95.625H120.733" fill="#76777B"/>
<path d="M127.519 95.9726C127.394 95.8486 127.224 95.7568 127.016 95.7035C126.815 95.6502 126.558 95.6241 126.253 95.6241H125.534V94.3047H124.914V99.1807H125.534V96.202H126.308C126.499 96.202 126.659 96.2181 126.784 96.2504C126.902 96.2801 126.994 96.3297 127.058 96.3979C127.125 96.4674 127.172 96.548 127.196 96.6385C127.224 96.7365 127.238 96.8593 127.238 97.0093V99.1807H127.857V97.0849C127.857 96.8233 127.833 96.6038 127.785 96.4327C127.733 96.2529 127.645 96.0978 127.519 95.9726Z" fill="#76777B"/>
<path d="M131.317 97.265V97.5366C131.317 97.9508 131.241 98.2496 131.089 98.4245C130.942 98.5969 130.702 98.6837 130.379 98.6837C130.056 98.6837 129.819 98.5969 129.673 98.4257C129.524 98.2509 129.449 97.952 129.449 97.5366V97.265C129.449 96.8508 129.524 96.5532 129.673 96.3808C129.819 96.2109 130.056 96.1254 130.379 96.1254C130.704 96.1254 130.944 96.2109 131.092 96.3808C131.242 96.5544 131.317 96.8508 131.317 97.265ZM131.615 96.0497L131.614 96.0485C131.513 95.9307 131.394 95.8315 131.26 95.7571C131.125 95.6802 130.983 95.6256 130.838 95.5934C130.556 95.5314 130.199 95.5314 129.921 95.5934C129.775 95.6256 129.636 95.6789 129.5 95.7571C129.363 95.834 129.245 95.9319 129.149 96.0497C129.051 96.1688 128.973 96.3213 128.914 96.5048C128.856 96.6859 128.826 96.8967 128.826 97.1298V97.673C128.826 97.9061 128.856 98.1157 128.914 98.2955C128.973 98.4803 129.051 98.6341 129.149 98.7531C129.243 98.8709 129.361 98.9701 129.5 99.0495C129.638 99.1288 129.776 99.1822 129.921 99.2144C130.06 99.2454 130.215 99.2615 130.379 99.2615C130.542 99.2615 130.696 99.2454 130.838 99.2144C130.981 99.1834 131.123 99.1276 131.26 99.0495C131.399 98.9701 131.516 98.8746 131.615 98.7531C131.714 98.6341 131.792 98.4803 131.849 98.2955C131.909 98.1132 131.938 97.9036 131.938 97.673V97.1298C131.938 96.8992 131.909 96.6884 131.849 96.5048C131.792 96.3225 131.714 96.1688 131.615 96.0497Z" fill="#76777B"/>
<path d="M135.438 99.1815H136.059V95.625H135.438V99.1815Z" fill="#76777B"/>
<path d="M138.185 94.6016H137.565V95.6283H136.994V96.2062H137.565V99.1849H138.185V96.2062H138.776V95.6283H138.185" fill="#76777B"/>
<path d="M142.189 95.625L141.108 98.4821L140.048 95.6672L140.032 95.625H139.371L140.651 99.003C140.684 99.0923 140.748 99.1617 140.839 99.2101L140.346 100.501H141.004L142.857 95.625" fill="#76777B"/>
<path d="M132.957 99.1815H133.577V96.2029H134.568V95.625H132.957" fill="#76777B"/>
<path d="M71.4727 99.1815H72.0927V96.2029H73.0835V95.625H71.4727" fill="#76777B"/>
<path d="M64.9531 99.1815H65.5732V96.2029H66.564V95.625H64.9531" fill="#76777B"/>
<path d="M123.384 94.6016H122.764V95.6283H122.193V96.2062H122.764V99.1849H123.384V96.2062H123.975V95.6283H123.384" fill="#76777B"/>
<path d="M59.6456 94.6016H59.0255V95.6283H58.4551V96.2062H59.0255V99.1849H59.6456V96.2062H60.2358V95.6283H59.6456" fill="#76777B"/>
<path d="M57.1622 95.9759C57.037 95.8519 56.8683 95.7614 56.6575 95.7056C56.4541 95.651 56.2037 95.625 55.8936 95.625H54.5605V99.1815H55.1793V96.2029H55.9544C56.1441 96.2029 56.3041 96.219 56.4293 96.2512C56.5459 96.281 56.6377 96.3306 56.7046 96.3988C56.7704 96.4683 56.8163 96.5464 56.8435 96.6381C56.8696 96.7374 56.8832 96.8626 56.8832 97.0102V99.1815H57.5033V97.0858C57.5033 96.8254 57.4772 96.6059 57.4276 96.4335C57.378 96.255 57.2875 96.1012 57.1622 95.9759Z" fill="#76777B"/>
<path d="M74.5824 94.7409C74.5588 94.6938 74.5167 94.6541 74.4572 94.6244C74.3468 94.5735 74.1781 94.5723 74.0653 94.6256C74.0058 94.6554 73.9636 94.6938 73.9413 94.7397C73.9214 94.7769 73.9078 94.8116 73.8979 94.8488C73.8904 94.8823 73.8867 94.9146 73.8867 94.9443C73.8867 94.9753 73.8904 95.0076 73.8991 95.046C73.9078 95.0795 73.9214 95.1142 73.94 95.1502C73.9636 95.1985 74.0058 95.237 74.0665 95.2667C74.1211 95.2915 74.1868 95.3052 74.2625 95.3052C74.3369 95.3052 74.4026 95.2915 74.4584 95.2667C74.5167 95.237 74.5588 95.1985 74.5824 95.1539C74.6035 95.1142 74.6184 95.0782 74.6258 95.041C74.6332 95.0076 74.637 94.9753 74.637 94.9443C74.637 94.9146 74.6332 94.8823 74.6258 94.8476C74.6184 94.8129 74.6035 94.7769 74.5824 94.7409Z" fill="#76777B"/>
<path d="M38.0512 94.7397C38.0264 94.6926 37.9842 94.6541 37.9259 94.6244C37.818 94.5735 37.6432 94.5723 37.534 94.6256C37.4758 94.6541 37.4336 94.6926 37.4088 94.7409C37.3865 94.7856 37.3741 94.8178 37.3679 94.8464C37.3592 94.8761 37.3555 94.9096 37.3555 94.9443C37.3555 94.9803 37.3592 95.0138 37.3666 95.0435C37.3741 95.0733 37.3865 95.1068 37.41 95.1527C37.4336 95.1998 37.477 95.2382 37.534 95.2667C37.5886 95.2915 37.6543 95.3052 37.73 95.3052C37.8069 95.3052 37.8726 95.2915 37.9247 95.2667C37.9829 95.2395 38.0251 95.201 38.0512 95.1527C38.0722 95.113 38.0859 95.077 38.0933 95.0435C38.1008 95.0138 38.1045 94.9803 38.1045 94.9443C38.1045 94.9096 38.1008 94.8761 38.0933 94.8476C38.0859 94.8141 38.0722 94.7794 38.0512 94.7397Z" fill="#76777B"/>
<path d="M136.069 94.7409C136.045 94.6938 136.003 94.6541 135.943 94.6244C135.833 94.5735 135.664 94.5723 135.55 94.6256C135.492 94.6554 135.45 94.6938 135.428 94.7397C135.408 94.7769 135.393 94.8116 135.384 94.8488C135.377 94.8823 135.373 94.9146 135.373 94.9443C135.373 94.9753 135.377 95.0076 135.384 95.046C135.393 95.0795 135.408 95.1142 135.426 95.1502C135.45 95.1985 135.492 95.237 135.552 95.2667H135.553C135.607 95.2915 135.673 95.3052 135.748 95.3052C135.823 95.3052 135.888 95.2915 135.943 95.2667C136.002 95.237 136.045 95.1985 136.067 95.1539C136.089 95.1142 136.103 95.0782 136.112 95.041C136.12 95.0076 136.123 94.9753 136.123 94.9443C136.123 94.9146 136.12 94.8823 136.112 94.8476C136.103 94.8129 136.089 94.7769 136.069 94.7409Z" fill="#76777B"/>
<path d="M47.8429 95.9871C47.7263 95.8606 47.5676 95.7664 47.3667 95.7081C47.172 95.6523 46.9277 95.625 46.6412 95.625H43.3203V99.1815H43.9391V96.2029H45.3826V99.1815H46.0014V96.2029H46.6164C46.8062 96.2029 46.9661 96.219 47.0926 96.2512C47.2092 96.281 47.2997 96.3306 47.3655 96.3988C47.4312 96.4683 47.4771 96.5489 47.5006 96.6381C47.5279 96.7361 47.5403 96.8576 47.5403 97.0102V99.1815H48.1603V97.0858C48.1603 96.8254 48.1368 96.6158 48.0897 96.4435C48.0425 96.2661 47.9594 96.1124 47.8429 95.9871Z" fill="#76777B"/>
<path d="M8.87733 95.9871C8.76076 95.8606 8.60079 95.7664 8.40113 95.7081C8.2052 95.6523 7.96091 95.625 7.67445 95.625H4.35352V99.1815H4.97356V96.2029H6.41577V99.1815H7.03457V96.2029H7.64965C7.84062 96.2029 8.00059 96.219 8.12584 96.2512C8.2424 96.281 8.33417 96.3306 8.39865 96.3988C8.46438 96.4683 8.51026 96.5489 8.53382 96.6381C8.5611 96.7374 8.57475 96.8626 8.57475 97.0102V99.1815H9.19355V97.0858C9.19355 96.8304 9.16874 96.6146 9.12286 96.4435C9.07574 96.2674 8.99389 96.1136 8.87733 95.9871Z" fill="#76777B"/>
<path d="M142.211 91.4246H142.857V85.125H142.211V91.4246Z" fill="#76777B"/>
<path d="M136.751 90.7748H136.05C135.811 90.7748 135.642 90.7041 135.524 90.5789C135.368 90.4115 135.358 90.1324 135.358 90.1324C135.358 90.0977 135.358 89.9055 135.359 89.8733C135.37 89.624 135.426 89.4405 135.524 89.3251C135.636 89.1962 135.811 89.1305 136.05 89.1305C136.292 89.1305 136.469 89.1962 136.582 89.3251C136.695 89.4554 136.751 89.6711 136.751 89.9725V90.7748ZM126.411 90.7798C125.87 90.7798 125.187 90.7798 125.177 90.7798C124.938 90.7798 124.763 90.714 124.65 90.5826C124.54 90.4511 124.484 90.2366 124.484 89.9353V88.968C124.484 88.6667 124.54 88.4509 124.65 88.3219C124.758 88.1979 124.923 88.1285 125.146 88.1285C125.156 88.1285 125.702 88.1272 125.702 88.1272C125.953 88.1272 126.129 88.1917 126.242 88.3219C126.355 88.4509 126.411 88.6667 126.411 88.968V90.7798ZM140.191 85.125V90.7748H138.683V89.3797C138.683 88.9779 138.648 88.6456 138.579 88.3802C138.509 88.1161 138.397 87.904 138.245 87.7478C138.09 87.589 137.9 87.4787 137.678 87.4142C137.455 87.3497 137.175 87.3175 136.841 87.3175H135.78V87.9673H136.881C137.088 87.9673 137.259 87.9871 137.395 88.0255C137.531 88.064 137.648 88.1334 137.75 88.2326C137.852 88.3306 137.925 88.467 137.97 88.6419C138.014 88.8155 138.037 89.0337 138.037 89.2991V90.7748H137.397V89.8509C137.397 89.6463 137.372 89.464 137.321 89.3041C137.27 89.1441 137.203 89.0151 137.119 88.9134C137.035 88.8118 136.934 88.7299 136.815 88.6642C136.697 88.596 136.576 88.5501 136.451 88.5228C136.327 88.4943 136.193 88.4819 136.05 88.4819C135.907 88.4819 135.773 88.4943 135.649 88.5228C135.524 88.5501 135.403 88.596 135.286 88.6642C135.168 88.7299 135.068 88.8118 134.985 88.9134C134.902 89.0151 134.835 89.1441 134.784 89.3041C134.733 89.464 134.708 89.6463 134.708 89.8509V89.8906C134.708 90.094 134.733 90.4363 134.784 90.595C134.807 90.6682 134.846 90.714 134.876 90.7748H132.924V87.4737H132.278V90.7748H129.915V87.4737H129.268V90.7748H127.058V88.8477C127.058 88.6431 127.032 88.4608 126.981 88.3008C126.932 88.1409 126.863 88.0119 126.78 87.9102C126.696 87.8085 126.594 87.7267 126.477 87.6597C126.358 87.5928 126.236 87.5469 126.112 87.5196C125.987 87.4923 125.853 87.4774 125.71 87.4774C125.71 87.4774 125.156 87.4774 125.146 87.4774C125.016 87.4799 124.891 87.4936 124.775 87.5196C124.65 87.5469 124.53 87.5928 124.412 87.6597C124.294 87.7267 124.194 87.8085 124.111 87.9102C124.027 88.0119 123.96 88.1409 123.911 88.3008C123.86 88.4608 123.834 88.6431 123.834 88.8477V90.0543C123.834 90.2589 123.86 90.4412 123.911 90.6C123.96 90.7599 124.027 90.8901 124.111 90.9931C124.194 91.0947 124.294 91.1791 124.412 91.2448C124.53 91.313 124.65 91.3601 124.775 91.3874C124.899 91.4159 125.033 91.4246 125.176 91.4246H140.838V85.125" fill="#76777B"/>
<path d="M130.222 86.8475H130.295V86.3973H129.766C129.668 86.3514 129.606 86.2349 129.627 86.127C129.659 85.9769 129.833 85.8864 130.097 85.8864H130.356V85.4375H130.033C129.468 85.4375 129.175 85.657 129.164 86.0972C129.162 86.184 129.185 86.2919 129.221 86.3973H128.828V86.8475H129.592" fill="#76777B"/>
<path d="M133.011 92.8435C133.072 92.872 133.145 92.8869 133.233 92.8869C133.323 92.8869 133.397 92.872 133.457 92.8435C133.516 92.815 133.558 92.7778 133.582 92.7307C133.607 92.6848 133.623 92.6438 133.632 92.6079C133.639 92.5719 133.644 92.5347 133.644 92.4963C133.644 92.4591 133.639 92.4219 133.632 92.3872C133.623 92.3524 133.607 92.3115 133.582 92.2656C133.558 92.2185 133.516 92.1813 133.457 92.1528C133.397 92.1243 133.323 92.1094 133.233 92.1094C133.145 92.1094 133.072 92.1243 133.011 92.1528C132.952 92.1813 132.91 92.2185 132.886 92.2656C132.863 92.3115 132.845 92.3524 132.837 92.3872C132.829 92.4219 132.824 92.4591 132.824 92.4963C132.824 92.5347 132.829 92.5719 132.837 92.6079C132.845 92.6438 132.863 92.6848 132.886 92.7307C132.91 92.7778 132.952 92.815 133.011 92.8435Z" fill="#76777B"/>
<path d="M132.191 92.8435C132.251 92.815 132.293 92.7778 132.318 92.7307C132.341 92.6848 132.357 92.6438 132.366 92.6079C132.373 92.5719 132.378 92.5347 132.378 92.4963C132.378 92.4591 132.373 92.4219 132.366 92.3872C132.357 92.3524 132.341 92.3115 132.318 92.2656C132.293 92.2185 132.251 92.1813 132.191 92.1528C132.132 92.1243 132.057 92.1094 131.969 92.1094C131.881 92.1094 131.807 92.1243 131.747 92.1528C131.688 92.1813 131.644 92.2185 131.621 92.2656C131.597 92.3115 131.58 92.3524 131.571 92.3872C131.564 92.4219 131.559 92.4591 131.559 92.4963C131.559 92.5347 131.564 92.5719 131.571 92.6079C131.58 92.6438 131.597 92.6848 131.621 92.7307C131.644 92.7778 131.688 92.815 131.747 92.8435C131.807 92.872 131.881 92.8869 131.969 92.8869C132.057 92.8869 132.132 92.872 132.191 92.8435Z" fill="#76777B"/>
<path d="M125.731 86.6291C125.755 86.6762 125.798 86.7134 125.857 86.7419C125.917 86.7692 125.991 86.7841 126.079 86.7841C126.167 86.7841 126.241 86.7692 126.301 86.7419C126.362 86.7134 126.403 86.6762 126.427 86.6291C126.451 86.582 126.467 86.5423 126.476 86.5051C126.485 86.4704 126.488 86.4332 126.488 86.3947C126.488 86.3575 126.485 86.3203 126.476 86.2856C126.467 86.2509 126.451 86.2099 126.427 86.1641C126.403 86.1169 126.362 86.0797 126.301 86.0512C126.241 86.0227 126.167 86.0078 126.079 86.0078C125.991 86.0078 125.917 86.0227 125.857 86.0512C125.798 86.0797 125.755 86.1169 125.731 86.1641C125.707 86.2099 125.691 86.2509 125.682 86.2856C125.674 86.3203 125.67 86.3575 125.67 86.3947C125.67 86.4332 125.674 86.4704 125.682 86.5051C125.691 86.5423 125.707 86.582 125.731 86.6291Z" fill="#76777B"/>
<path d="M124.467 86.6291C124.492 86.6762 124.534 86.7134 124.594 86.7419C124.653 86.7692 124.727 86.7841 124.815 86.7841C124.904 86.7841 124.978 86.7692 125.037 86.7419C125.098 86.7134 125.14 86.6762 125.164 86.6291C125.189 86.582 125.204 86.5423 125.212 86.5051C125.221 86.4704 125.225 86.4332 125.225 86.3947C125.225 86.3575 125.221 86.3203 125.212 86.2856C125.204 86.2509 125.189 86.2099 125.164 86.1641C125.14 86.1169 125.098 86.0797 125.037 86.0512C124.978 86.0227 124.904 86.0078 124.815 86.0078C124.727 86.0078 124.653 86.0227 124.594 86.0512C124.534 86.0797 124.492 86.1169 124.467 86.1641C124.443 86.2099 124.427 86.2509 124.419 86.2856C124.41 86.3203 124.406 86.3575 124.406 86.3947C124.406 86.4332 124.41 86.4704 124.419 86.5051C124.427 86.5423 124.443 86.582 124.467 86.6291Z" fill="#76777B"/>
<path d="M92.6045 90.7798C92.0638 90.7798 91.3805 90.7798 91.3694 90.7798C91.13 90.7798 90.9552 90.714 90.8436 90.5826C90.732 90.4524 90.6762 90.2366 90.6762 89.9353V88.968C90.6762 88.6667 90.732 88.4509 90.8436 88.3219C90.9502 88.1979 91.1164 88.1285 91.3396 88.1285C91.3396 88.1285 91.8939 88.1272 91.9038 88.1272C92.1456 88.1272 92.3217 88.193 92.4358 88.3219C92.5487 88.4509 92.6045 88.6667 92.6045 88.968V90.7798ZM96.9237 85.125V90.7748H95.2272V85.125H94.5812V90.7748H93.2506V88.8477C93.2506 88.6431 93.2258 88.4608 93.1737 88.3008C93.1241 88.1409 93.0571 88.0107 92.9728 87.9102C92.8885 87.8098 92.7868 87.7267 92.669 87.661C92.5499 87.5928 92.4296 87.5469 92.3044 87.5196C92.1804 87.4923 92.0464 87.4774 91.9038 87.4774H91.3483C91.2081 87.4799 91.0841 87.4936 90.9676 87.5196C90.8436 87.5469 90.722 87.5928 90.6042 87.661C90.4877 87.7267 90.3872 87.8098 90.3041 87.9102C90.221 88.0107 90.1541 88.1409 90.1032 88.3008C90.0561 88.4497 90.0363 88.622 90.0338 88.808H90.0313V88.8192C90.0313 88.8291 90.0276 88.8366 90.0276 88.8477V89.2507C90.0189 89.7877 89.9247 90.1771 89.7411 90.4077C89.5464 90.6533 89.2153 90.7748 88.7478 90.7748H87.9889V87.4737H87.3428V90.7748H84.5998V87.4737H83.9537V90.7748H83.3522C82.8847 90.7748 82.5536 90.6533 82.3589 90.4077C82.1655 90.1634 82.0688 89.7493 82.0688 89.1639V87.8247H81.4301V89.1639C81.4301 89.7493 81.3334 90.1634 81.1399 90.4077C80.944 90.6533 80.6141 90.7748 80.1454 90.7748H79.5427V87.8197H78.8954V90.7748H75.9403V85.125H75.293V91.4246H80.1454C80.3612 91.4246 80.5608 91.4048 80.7444 91.3638C80.9279 91.3242 81.1027 91.256 81.2689 91.158C81.4338 91.0613 81.5765 90.936 81.6918 90.7847C81.7129 90.7574 81.729 90.7202 81.7488 90.6892C81.7687 90.7202 81.7848 90.7574 81.8071 90.7847C81.9224 90.936 82.0626 91.0613 82.2287 91.158C82.3961 91.256 82.5698 91.3242 82.7533 91.3638C82.917 91.3998 83.0968 91.4134 83.2853 91.4184V91.4246H88.7478C88.9624 91.4246 89.162 91.4048 89.3455 91.3638C89.5303 91.3242 89.7039 91.256 89.8713 91.158C90.0102 91.0761 90.1231 90.9633 90.2272 90.843C90.2545 90.8901 90.2719 90.9546 90.3041 90.9931C90.3872 91.0947 90.4877 91.1791 90.6042 91.246C90.722 91.313 90.8436 91.3601 90.9676 91.3874C91.0916 91.4159 91.2267 91.4246 91.3694 91.4246H97.5698V85.125" fill="#76777B"/>
<path d="M74.4551 84.202L75.085 83.7258C75.2785 83.9193 75.5005 84.0172 75.751 84.0172C76.0139 84.0172 76.2619 83.9156 76.495 83.7109V84.2293C76.2892 84.4103 76.0325 84.4996 75.7237 84.4996C75.4496 84.4996 75.2363 84.424 75.085 84.2715L74.718 84.5418" fill="#76777B"/>
<path d="M73.4046 90.7777H69.0569C68.5894 90.7777 68.2583 90.6549 68.0636 90.4106C67.8701 90.1663 67.7722 89.7521 67.7722 89.1668V88.4227H67.1348V89.4061C67.1348 89.7062 67.1682 89.9741 67.2365 90.2072C67.3034 90.4428 67.3952 90.6375 67.5117 90.7876C67.6258 90.9389 67.7684 91.0641 67.9334 91.1608C68.0995 91.2588 68.2744 91.327 68.4579 91.3667C68.6216 91.4027 68.8014 91.4163 68.9887 91.4213V91.4275H74.0507V87.4766H73.4046" fill="#76777B"/>
<path d="M82.0901 86.1641C82.0665 86.2099 82.0504 86.2509 82.0417 86.2856C82.033 86.3203 82.0293 86.3563 82.0293 86.3947C82.0293 86.4332 82.033 86.4704 82.0417 86.5063C82.0504 86.5423 82.0665 86.582 82.0901 86.6291C82.1136 86.6762 82.157 86.7134 82.2165 86.7419C82.2761 86.7705 82.3505 86.7841 82.4385 86.7841C82.5266 86.7841 82.601 86.7705 82.6605 86.7419C82.7213 86.7134 82.7622 86.6762 82.787 86.6291C82.8105 86.582 82.8267 86.5423 82.8353 86.5063C82.844 86.4704 82.8477 86.4332 82.8477 86.3947C82.8477 86.3563 82.844 86.3203 82.8353 86.2856C82.8267 86.2509 82.8105 86.2099 82.787 86.1641C82.7622 86.1169 82.7213 86.0797 82.6605 86.0512C82.601 86.0227 82.5266 86.0078 82.4385 86.0078C82.3505 86.0078 82.2761 86.0227 82.2165 86.0512C82.157 86.0797 82.1136 86.1169 82.0901 86.1641Z" fill="#76777B"/>
<path d="M87.3166 86.6291C87.3414 86.6762 87.3836 86.7134 87.4431 86.7419C87.5026 86.7692 87.577 86.7841 87.6651 86.7841C87.7531 86.7841 87.8275 86.7692 87.8883 86.7419C87.9478 86.7134 87.9887 86.6762 88.0135 86.6291C88.0383 86.582 88.0532 86.5423 88.0619 86.5051C88.0706 86.4704 88.0743 86.4332 88.0743 86.3947C88.0743 86.3575 88.0706 86.3203 88.0619 86.2856C88.0532 86.2509 88.0383 86.2099 88.0135 86.1641C87.9887 86.1169 87.9478 86.0797 87.8883 86.0512C87.8275 86.0227 87.7531 86.0078 87.6651 86.0078C87.577 86.0078 87.5026 86.0227 87.4431 86.0512C87.3836 86.0797 87.3414 86.1169 87.3166 86.1641C87.2931 86.2099 87.2769 86.2509 87.2683 86.2856C87.2596 86.3203 87.2559 86.3575 87.2559 86.3947C87.2559 86.4332 87.2596 86.4704 87.2683 86.5051C87.2769 86.5423 87.2931 86.582 87.3166 86.6291Z" fill="#76777B"/>
<path d="M81.5549 85.6291C81.5785 85.675 81.6219 85.7134 81.6814 85.7419C81.7409 85.7692 81.8153 85.7841 81.9034 85.7841C81.9914 85.7841 82.0658 85.7692 82.1253 85.7419C82.1861 85.7134 82.227 85.675 82.2518 85.6291C82.2766 85.5832 82.2915 85.5423 82.3002 85.5051C82.3089 85.4691 82.3126 85.4332 82.3126 85.3947C82.3126 85.3563 82.3089 85.3203 82.3002 85.2856C82.2915 85.2509 82.2766 85.2099 82.2518 85.1628C82.227 85.1169 82.1861 85.0785 82.1253 85.0512C82.0658 85.0227 81.9914 85.0078 81.9034 85.0078C81.8153 85.0078 81.7409 85.0227 81.6814 85.0512C81.6219 85.0785 81.5785 85.1169 81.5549 85.1628C81.5313 85.2099 81.5152 85.2509 81.5065 85.2856C81.4979 85.3203 81.4941 85.3563 81.4941 85.3947C81.4941 85.4332 81.4979 85.4691 81.5065 85.5051C81.5152 85.5423 81.5313 85.5832 81.5549 85.6291Z" fill="#76777B"/>
<path d="M80.8264 86.6291C80.85 86.6762 80.8934 86.7134 80.9516 86.7419C81.0124 86.7692 81.0868 86.7841 81.1749 86.7841C81.2629 86.7841 81.3373 86.7692 81.3968 86.7419C81.4576 86.7134 81.4998 86.6762 81.5233 86.6291C81.5469 86.582 81.563 86.5423 81.5717 86.5051C81.5804 86.4704 81.5841 86.4332 81.5841 86.3947C81.5841 86.3575 81.5804 86.3203 81.5717 86.2856C81.563 86.2509 81.5469 86.2099 81.5233 86.1641C81.4998 86.1169 81.4576 86.0797 81.3968 86.0512C81.3373 86.0227 81.2629 86.0078 81.1749 86.0078C81.0868 86.0078 81.0124 86.0227 80.9516 86.0512C80.8934 86.0797 80.85 86.1169 80.8264 86.1641C80.8028 86.2099 80.7867 86.2509 80.778 86.2856C80.7693 86.3203 80.7656 86.3575 80.7656 86.3947C80.7656 86.4332 80.7693 86.4704 80.778 86.5051C80.7867 86.5423 80.8028 86.582 80.8264 86.6291Z" fill="#76777B"/>
<path d="M70.8765 86.6291C70.9 86.6762 70.9422 86.7134 71.0017 86.7419C71.0612 86.7692 71.1356 86.7841 71.2249 86.7841C71.313 86.7841 71.3874 86.7692 71.4469 86.7419C71.5064 86.7134 71.5486 86.6762 71.5721 86.6291C71.5969 86.582 71.6131 86.5423 71.6217 86.5051C71.6292 86.4704 71.6341 86.4332 71.6341 86.3947C71.6341 86.3575 71.6292 86.3203 71.6217 86.2856C71.6131 86.2509 71.5969 86.2099 71.5721 86.1641C71.5486 86.1169 71.5064 86.0797 71.4469 86.0512C71.3874 86.0227 71.313 86.0078 71.2249 86.0078C71.1356 86.0078 71.0612 86.0227 71.0017 86.0512C70.9422 86.0797 70.9 86.1169 70.8765 86.1641C70.8529 86.2099 70.8355 86.2509 70.8269 86.2856C70.8194 86.3203 70.8145 86.3575 70.8145 86.3947C70.8145 86.4332 70.8194 86.4704 70.8269 86.5051C70.8355 86.5423 70.8529 86.582 70.8765 86.6291Z" fill="#76777B"/>
<path d="M69.6128 86.6291C69.6363 86.6762 69.6785 86.7134 69.738 86.7419C69.7976 86.7692 69.872 86.7841 69.96 86.7841C70.0493 86.7841 70.1237 86.7692 70.1832 86.7419C70.2427 86.7134 70.2849 86.6762 70.3085 86.6291C70.3333 86.582 70.3494 86.5423 70.3581 86.5051C70.3655 86.4704 70.3705 86.4332 70.3705 86.3947C70.3705 86.3575 70.3655 86.3203 70.3581 86.2856C70.3494 86.2509 70.3333 86.2099 70.3085 86.1641C70.2849 86.1169 70.2427 86.0797 70.1832 86.0512C70.1237 86.0227 70.0493 86.0078 69.96 86.0078C69.872 86.0078 69.7976 86.0227 69.738 86.0512C69.6785 86.0797 69.6363 86.1169 69.6128 86.1641C69.588 86.2099 69.5719 86.2509 69.5632 86.2856C69.5557 86.3203 69.5508 86.3575 69.5508 86.3947C69.5508 86.4332 69.5557 86.4704 69.5632 86.5051C69.5719 86.5423 69.588 86.582 69.6128 86.6291Z" fill="#76777B"/>
<path d="M63.5234 91.4246H64.1695V85.125H63.5234V91.4246Z" fill="#76777B"/>
<path d="M59.3582 90.7748L56.3076 90.776V88.88C57.2289 88.1892 58.1069 87.9586 58.7431 88.2636C59.1647 88.4658 59.3582 88.839 59.3582 89.1019V90.7748ZM52.4261 90.3829C52.1769 90.2378 51.9698 90.0518 51.8098 89.8274C51.382 89.2309 51.3547 88.7262 51.4452 88.281C51.7552 88.2054 52.4236 88.0727 52.9507 88.152C53.5546 88.2463 53.6104 88.5563 53.5893 88.8155C53.5447 89.4132 53.009 89.9266 52.4261 90.3829ZM61.506 85.125V90.7748H60.003V89.1019C60.003 88.5303 59.6087 87.9586 59.0209 87.6783C58.5521 87.4539 57.6221 87.2505 56.3076 88.0863V87.4774H55.6615V90.776H54.1808C53.7753 90.776 53.412 90.7326 53.0908 90.6496C53.7084 90.0642 54.1858 89.505 54.2342 88.8651C54.29 88.1297 53.8584 87.6362 53.0499 87.5109C52.2004 87.3782 51.1352 87.6882 51.0918 87.7019L50.9293 87.7502L50.876 87.9115C50.695 88.4534 50.6553 89.3264 51.2852 90.2068C51.4291 90.4077 51.5977 90.5838 51.79 90.7364C51.7032 90.7612 51.6188 90.776 51.5382 90.776L48.9465 90.7748V87.4737H48.3004V90.7748H45.8673V87.4973H45.2213V90.7376C45.2213 91.0092 45.2014 91.2374 45.1605 91.4196C45.1183 91.6019 45.0526 91.747 44.9646 91.8537C44.8753 91.9603 44.7724 92.0384 44.6545 92.088C44.5355 92.1376 44.3904 92.1711 44.2168 92.186V92.8991C44.4053 92.8867 44.5764 92.8606 44.7277 92.8197C44.879 92.78 45.0278 92.713 45.1741 92.62C45.3205 92.5283 45.4432 92.4092 45.54 92.2629C45.6392 92.1178 45.7185 91.9281 45.7781 91.6949C45.7991 91.6106 45.8128 91.5176 45.8264 91.4246H51.5382C51.8408 91.4246 52.162 91.313 52.4708 91.1282C52.9494 91.3242 53.5211 91.4246 54.1808 91.4246H62.1508V85.125" fill="#76777B"/>
<path d="M51.9963 86.6291C52.0211 86.6762 52.0633 86.7134 52.1228 86.7419C52.1823 86.7692 52.2567 86.7841 52.3448 86.7841C52.4328 86.7841 52.5072 86.7692 52.568 86.7419C52.6275 86.7134 52.6697 86.6762 52.6932 86.6291C52.718 86.582 52.7329 86.5423 52.7428 86.5051C52.7503 86.4704 52.754 86.4332 52.754 86.3947C52.754 86.3575 52.7503 86.3203 52.7428 86.2856C52.7329 86.2509 52.718 86.2099 52.6932 86.1641C52.6697 86.1169 52.6275 86.0797 52.568 86.0512C52.5072 86.0227 52.4328 86.0078 52.3448 86.0078C52.2567 86.0078 52.1823 86.0227 52.1228 86.0512C52.0633 86.0797 52.0211 86.1169 51.9963 86.1641C51.9727 86.2099 51.9566 86.2509 51.9479 86.2856C51.9393 86.3203 51.9355 86.3575 51.9355 86.3947C51.9355 86.4332 51.9393 86.4704 51.9479 86.5051C51.9566 86.5423 51.9727 86.582 51.9963 86.6291Z" fill="#76777B"/>
<path d="M42.4722 86.6291C42.4957 86.6762 42.5391 86.7134 42.5986 86.7419C42.6582 86.7692 42.7326 86.7841 42.8206 86.7841C42.9087 86.7841 42.9831 86.7692 43.0426 86.7419C43.1021 86.7134 43.1443 86.6762 43.1691 86.6291C43.1939 86.582 43.2088 86.5423 43.2174 86.5051C43.2261 86.4704 43.2298 86.4332 43.2298 86.3947C43.2298 86.3575 43.2261 86.3203 43.2174 86.2856C43.2088 86.2509 43.1939 86.2099 43.1691 86.1641C43.1443 86.1169 43.1021 86.0797 43.0426 86.0512C42.9831 86.0227 42.9087 86.0078 42.8206 86.0078C42.7326 86.0078 42.6582 86.0227 42.5986 86.0512C42.5391 86.0797 42.4957 86.1169 42.4722 86.1641C42.4486 86.2099 42.4325 86.2509 42.4226 86.2856C42.4151 86.3203 42.4102 86.3575 42.4102 86.3947C42.4102 86.4332 42.4151 86.4704 42.4226 86.5051C42.4325 86.5423 42.4486 86.582 42.4722 86.6291Z" fill="#76777B"/>
<path d="M41.2053 86.6291C41.2301 86.6762 41.2723 86.7134 41.3305 86.7419C41.3913 86.7692 41.4657 86.7841 41.5538 86.7841C41.6418 86.7841 41.7162 86.7692 41.7757 86.7419C41.8365 86.7134 41.8787 86.6762 41.9022 86.6291C41.9258 86.582 41.9419 86.5423 41.9506 86.5051C41.9593 86.4704 41.963 86.4332 41.963 86.3947C41.963 86.3575 41.9593 86.3203 41.9506 86.2856C41.9419 86.2509 41.9258 86.2099 41.9022 86.1641C41.8787 86.1169 41.8365 86.0797 41.7757 86.0512C41.7162 86.0227 41.6418 86.0078 41.5538 86.0078C41.4657 86.0078 41.3913 86.0227 41.3305 86.0512C41.2723 86.0797 41.2301 86.1169 41.2053 86.1641C41.1817 86.2099 41.1656 86.2509 41.1569 86.2856C41.1483 86.3203 41.1445 86.3575 41.1445 86.3947C41.1445 86.4332 41.1483 86.4704 41.1569 86.5051C41.1656 86.5423 41.1817 86.582 41.2053 86.6291Z" fill="#76777B"/>
<path d="M49.033 92.8435C49.0925 92.872 49.1669 92.8869 49.2549 92.8869C49.3442 92.8869 49.4174 92.872 49.4781 92.8435C49.5377 92.815 49.5798 92.7778 49.6034 92.7307C49.6282 92.6848 49.6443 92.6438 49.653 92.6079C49.6604 92.5719 49.6654 92.5347 49.6654 92.4963C49.6654 92.4591 49.6604 92.4219 49.653 92.3872C49.6443 92.3524 49.6282 92.3115 49.6034 92.2656C49.5798 92.2185 49.5377 92.1813 49.4781 92.1528C49.4174 92.1243 49.3442 92.1094 49.2549 92.1094C49.1669 92.1094 49.0925 92.1243 49.033 92.1528C48.9734 92.1813 48.9313 92.2185 48.9077 92.2656C48.8829 92.3115 48.8668 92.3524 48.8581 92.3872C48.8507 92.4219 48.8457 92.4591 48.8457 92.4963C48.8457 92.5347 48.8507 92.5719 48.8581 92.6079C48.8668 92.6438 48.8829 92.6848 48.9077 92.7307C48.9313 92.7778 48.9734 92.815 49.033 92.8435Z" fill="#76777B"/>
<path d="M48.3378 92.2656C48.3142 92.2185 48.272 92.1813 48.2125 92.1528C48.153 92.1243 48.0786 92.1094 47.9905 92.1094C47.9013 92.1094 47.8269 92.1243 47.7673 92.1528C47.7078 92.1813 47.6656 92.2185 47.6421 92.2656C47.6173 92.3115 47.6012 92.3524 47.5925 92.3872C47.585 92.4219 47.5801 92.4578 47.5801 92.4963C47.5801 92.5347 47.585 92.5719 47.5925 92.6079C47.6012 92.6438 47.6173 92.6848 47.6421 92.7307C47.6656 92.7778 47.7078 92.815 47.7673 92.8435C47.8269 92.872 47.9013 92.8869 47.9905 92.8869C48.0786 92.8869 48.153 92.872 48.2125 92.8435C48.272 92.815 48.3142 92.7778 48.3378 92.7307C48.3626 92.6848 48.3787 92.6438 48.3874 92.6079C48.3948 92.5719 48.3998 92.5347 48.3998 92.4963C48.3998 92.4578 48.3948 92.4219 48.3874 92.3872C48.3787 92.3524 48.3626 92.3115 48.3378 92.2656Z" fill="#76777B"/>
<path d="M41.2247 88.9671C41.2247 88.6658 41.2805 88.45 41.3921 88.3211C41.4988 88.197 41.665 88.1276 41.8882 88.1276C41.8981 88.1276 42.4425 88.1276 42.4537 88.1276C42.6942 88.1276 42.8716 88.1921 42.9844 88.3211C43.0973 88.45 43.1531 88.6658 43.1531 88.9671V90.7789C42.6136 90.7789 41.9291 90.7789 41.9179 90.7789C41.6798 90.7789 41.5038 90.7132 41.3921 90.5817C41.2805 90.4515 41.2247 90.2345 41.2247 89.9344V88.9671ZM41.154 91.2452C41.2719 91.3121 41.3921 91.3593 41.5162 91.3865C41.6414 91.4151 41.7753 91.4237 41.9179 91.4237H43.7991V88.8456C43.7991 88.6435 43.7743 88.4599 43.7235 88.3C43.6726 88.1412 43.6057 88.0098 43.5214 87.9094C43.437 87.8077 43.3366 87.7258 43.2188 87.6601C43.0997 87.5919 42.9782 87.546 42.853 87.5187C42.7289 87.4914 42.595 87.4766 42.4524 87.4766C42.4425 87.4766 41.8981 87.4766 41.8882 87.4778C41.7567 87.479 41.6327 87.4927 41.5162 87.5187C41.3921 87.546 41.2719 87.5919 41.154 87.6601C41.0362 87.7258 40.9358 87.8077 40.8527 87.9094C40.7696 88.0098 40.7027 88.1412 40.6518 88.3C40.6022 88.4599 40.5762 88.6435 40.5762 88.8456V90.0547C40.5762 90.2581 40.6022 90.4404 40.6518 90.5991C40.7027 90.7591 40.7696 90.8905 40.8527 90.9922C40.9358 91.0939 41.0362 91.1782 41.154 91.2452Z" fill="#76777B"/>
<path d="M120.342 91.4246H120.988V85.125H120.342V91.4246Z" fill="#76777B"/>
<path d="M103.143 86.6291C103.166 86.6762 103.21 86.7134 103.268 86.7419C103.329 86.7692 103.403 86.7841 103.49 86.7841C103.579 86.7841 103.654 86.7692 103.713 86.7419C103.773 86.7134 103.815 86.6762 103.838 86.6291C103.863 86.582 103.879 86.5423 103.888 86.5051C103.897 86.4704 103.9 86.4332 103.9 86.3947C103.9 86.3575 103.897 86.3203 103.888 86.2856C103.879 86.2509 103.863 86.2099 103.838 86.1641C103.815 86.1169 103.773 86.0797 103.713 86.0512C103.654 86.0227 103.579 86.0078 103.49 86.0078C103.403 86.0078 103.329 86.0227 103.268 86.0512C103.21 86.0797 103.166 86.1169 103.143 86.1641C103.119 86.2099 103.102 86.2509 103.093 86.2856C103.086 86.3203 103.082 86.3575 103.082 86.3947C103.082 86.4332 103.086 86.4704 103.093 86.5051C103.102 86.5423 103.119 86.582 103.143 86.6291Z" fill="#76777B"/>
<path d="M101.879 86.6291C101.903 86.6762 101.946 86.7134 102.006 86.7419C102.065 86.7692 102.14 86.7841 102.228 86.7841C102.316 86.7841 102.39 86.7692 102.45 86.7419C102.51 86.7134 102.551 86.6762 102.576 86.6291C102.6 86.582 102.616 86.5423 102.624 86.5051C102.632 86.4704 102.637 86.4332 102.637 86.3947C102.637 86.3575 102.632 86.3203 102.624 86.2856C102.616 86.2509 102.6 86.2099 102.576 86.1641C102.551 86.1169 102.51 86.0797 102.45 86.0512C102.39 86.0227 102.316 86.0078 102.228 86.0078C102.14 86.0078 102.065 86.0227 102.006 86.0512C101.946 86.0797 101.903 86.1169 101.879 86.1641C101.856 86.2099 101.838 86.2509 101.83 86.2856C101.822 86.3203 101.818 86.3575 101.818 86.3947C101.818 86.4332 101.822 86.4704 101.83 86.5051C101.838 86.5423 101.856 86.582 101.879 86.6291Z" fill="#76777B"/>
<path d="M115.11 90.4201C114.836 90.275 114.616 90.0866 114.451 89.8559C114.084 89.3425 114.06 88.6915 114.143 88.2847C114.454 88.2103 115.124 88.0764 115.649 88.1582C116.326 88.2624 116.3 88.6059 116.289 88.7522C116.248 89.2892 115.698 89.9985 115.11 90.4201ZM118.321 85.125V90.7748H116.879V90.7785V90.776C116.488 90.776 116.136 90.7401 115.826 90.6719C116.418 90.1461 116.885 89.4268 116.932 88.8018C116.957 88.4745 116.892 87.6932 115.748 87.5159C114.906 87.3869 113.834 87.6932 113.79 87.7068L113.627 87.754L113.574 87.9152C113.419 88.379 113.321 89.3884 113.927 90.2354C114.068 90.4313 114.235 90.6049 114.428 90.7525C114.363 90.7674 114.298 90.776 114.237 90.776L111.873 90.7748V85.125H111.227V91.4246H114.237C114.526 91.4246 114.844 91.3229 115.156 91.1518C115.615 91.3254 116.165 91.4159 116.792 91.4246H118.967V85.125" fill="#76777B"/>
<path d="M107.577 90.5817C107.466 90.4515 107.41 90.2345 107.41 89.9344V88.9671C107.41 88.6658 107.466 88.45 107.577 88.3211C107.684 88.197 107.849 88.1276 108.073 88.1276C108.083 88.1276 108.628 88.1264 108.638 88.1264C108.879 88.1264 109.056 88.1921 109.168 88.3211C109.281 88.45 109.337 88.6658 109.337 88.9671V90.7789C108.798 90.7789 108.113 90.7789 108.103 90.7789C107.864 90.7789 107.689 90.7132 107.577 90.5817ZM102.064 90.5817C101.952 90.4515 101.898 90.2345 101.898 89.9344V88.9671C101.898 88.6658 101.952 88.45 102.064 88.3211C102.171 88.197 102.337 88.1276 102.56 88.1276C102.57 88.1276 103.114 88.1264 103.126 88.1264C103.366 88.1264 103.543 88.1921 103.656 88.3211C103.768 88.45 103.825 88.6658 103.825 88.9671V90.7789C103.284 90.7789 102.601 90.7789 102.59 90.7789C102.35 90.7789 102.176 90.7132 102.064 90.5817ZM109.984 91.4237V88.8456C109.984 88.6422 109.958 88.4599 109.909 88.3C109.858 88.1412 109.791 88.0098 109.707 87.9094C109.622 87.8077 109.521 87.7258 109.403 87.6601C109.284 87.5919 109.162 87.546 109.038 87.5187C108.913 87.4914 108.78 87.4766 108.636 87.4766C108.628 87.4766 108.082 87.4766 108.073 87.4778C107.942 87.479 107.817 87.4927 107.701 87.5187C107.576 87.546 107.456 87.5919 107.338 87.6601C107.22 87.7258 107.12 87.8077 107.037 87.9094C106.954 88.0098 106.888 88.1412 106.837 88.3C106.79 88.4488 106.77 88.6212 106.766 88.8072H106.758V89.1631C106.758 89.7484 106.661 90.1626 106.466 90.4069C106.273 90.6524 105.942 90.7739 105.473 90.7739H104.471V88.8456C104.471 88.6422 104.446 88.4599 104.395 88.3C104.345 88.1412 104.278 88.0098 104.193 87.9094C104.109 87.8077 104.008 87.7258 103.891 87.6601C103.772 87.5919 103.65 87.546 103.525 87.5187C103.401 87.4914 103.267 87.4766 103.124 87.4766C103.124 87.4766 102.57 87.4766 102.56 87.4778C102.429 87.479 102.305 87.4927 102.189 87.5187C102.064 87.546 101.942 87.5919 101.826 87.6601C101.708 87.7258 101.608 87.8077 101.525 87.9094C101.441 88.0098 101.375 88.1412 101.325 88.3C101.274 88.4599 101.248 88.6422 101.248 88.8456V90.0547C101.248 90.2581 101.274 90.4404 101.325 90.5991C101.375 90.7591 101.441 90.8905 101.525 90.9922C101.608 91.0939 101.708 91.1782 101.826 91.2452C101.942 91.3121 102.064 91.3593 102.189 91.3865C102.313 91.4151 102.447 91.4237 102.59 91.4237H105.473C105.689 91.4237 105.888 91.4039 106.072 91.363C106.255 91.3233 106.43 91.2551 106.597 91.1571C106.738 91.074 106.853 90.9599 106.959 90.8372C106.986 90.8868 107.004 90.9525 107.037 90.9922C107.12 91.0939 107.22 91.1782 107.338 91.2452C107.456 91.3121 107.576 91.3593 107.701 91.3865C107.825 91.4151 107.959 91.4237 108.102 91.4237" fill="#76777B"/>
<path d="M32.4961 91.4246H33.1422V85.125H32.4961V91.4246Z" fill="#76777B"/>
<path d="M8.8285 90.7748L5.7779 90.776V88.8713C6.69928 88.1806 7.57726 87.9511 8.21342 88.255C8.63505 88.4571 8.8285 88.8316 8.8285 89.0933V90.7748ZM2.73971 90.7798C2.19903 90.7798 1.51575 90.7798 1.50583 90.7798C1.26649 90.7798 1.09164 90.714 0.978795 90.5826C0.867188 90.4511 0.812624 90.2366 0.812624 89.9353V88.968C0.812624 88.6667 0.867188 88.4509 0.978795 88.3219C1.08668 88.1979 1.25161 88.1285 1.47483 88.1285C1.48475 88.1285 2.03038 88.1272 2.0403 88.1272C2.28212 88.1272 2.45821 88.1917 2.57106 88.3219C2.6839 88.4509 2.73971 88.6667 2.73971 88.968V90.7798ZM16.2987 90.7748H15.6973C15.2298 90.7748 14.8987 90.652 14.704 90.4077C14.5105 90.1634 14.4138 89.7493 14.4138 89.1639V87.8197H13.7752V89.1639C13.7752 89.7493 13.6784 90.1634 13.4838 90.4077C13.2903 90.652 12.9592 90.7748 12.4905 90.7748H11.8878V87.8197H11.2417V90.7748H9.47334V89.0933C9.47334 88.5228 9.07899 87.9499 8.4912 87.6696C8.02369 87.4452 7.09115 87.2431 5.7779 88.0776V85.125H5.11942V90.776H3.38703V88.8477C3.38703 88.6431 3.36099 88.4608 3.31014 88.3008C3.26054 88.1409 3.19234 88.0119 3.10925 87.9102C3.02493 87.8085 2.92324 87.7267 2.80543 87.6597C2.68638 87.5928 2.56486 87.5469 2.44085 87.5196C2.3156 87.4923 2.18167 87.4774 2.03906 87.4774C2.02914 87.4774 1.48475 87.4774 1.47483 87.4774C1.34338 87.4799 1.21937 87.4936 1.10404 87.5196C0.978795 87.5469 0.858507 87.5928 0.740699 87.6597C0.622892 87.7267 0.522445 87.8085 0.4406 87.9102C0.356275 88.0119 0.28931 88.1409 0.239707 88.3008C0.188864 88.4608 0.164062 88.6431 0.164062 88.8477V90.0543C0.164062 90.2589 0.188864 90.4412 0.239707 90.6C0.28931 90.7599 0.356275 90.8901 0.4406 90.9931C0.522445 91.0947 0.622892 91.1791 0.740699 91.2448C0.858507 91.313 0.978795 91.3601 1.10404 91.3874C1.22805 91.4159 1.36198 91.4246 1.50459 91.4246H12.4905C12.7062 91.4246 12.9059 91.4035 13.0894 91.3638C13.2729 91.3242 13.4478 91.256 13.614 91.158C13.7801 91.0613 13.9215 90.936 14.0368 90.7847C14.0579 90.7574 14.074 90.7202 14.0939 90.6892C14.1137 90.7202 14.1311 90.7574 14.1522 90.7847C14.2675 90.936 14.4089 91.0613 14.5738 91.158C14.74 91.256 14.9148 91.3242 15.0983 91.3638C15.262 91.3998 15.4418 91.4134 15.6291 91.4184V91.4246H16.9461V87.4737H16.2987" fill="#76777B"/>
<path d="M2.05869 86.6291C2.08349 86.6762 2.12565 86.7134 2.18518 86.7419C2.2447 86.7692 2.31911 86.7841 2.40715 86.7841C2.4952 86.7841 2.5696 86.7692 2.62913 86.7419C2.68989 86.7134 2.73205 86.6762 2.75561 86.6291C2.78042 86.582 2.7953 86.5423 2.80398 86.5051C2.81266 86.4704 2.81638 86.4332 2.81638 86.3947C2.81638 86.3575 2.81266 86.3203 2.80398 86.2856C2.7953 86.2509 2.78042 86.2099 2.75561 86.1641C2.73205 86.1169 2.68989 86.0797 2.62913 86.0512C2.5696 86.0227 2.4952 86.0078 2.40715 86.0078C2.31911 86.0078 2.2447 86.0227 2.18518 86.0512C2.12565 86.0797 2.08349 86.1169 2.05869 86.1641C2.03513 86.2099 2.01901 86.2509 2.01033 86.2856C2.00164 86.3203 1.99792 86.3575 1.99792 86.3947C1.99792 86.4332 2.00164 86.4704 2.01033 86.5051C2.01901 86.5423 2.03513 86.582 2.05869 86.6291Z" fill="#76777B"/>
<path d="M0.795139 86.6291C0.81994 86.6762 0.862103 86.7134 0.921627 86.7419C0.981151 86.7692 1.05556 86.7841 1.1436 86.7841C1.23165 86.7841 1.30605 86.7692 1.36558 86.7419C1.42634 86.7134 1.4685 86.6762 1.49206 86.6291C1.51687 86.582 1.53299 86.5423 1.54043 86.5051C1.54911 86.4704 1.55283 86.4332 1.55283 86.3947C1.55283 86.3575 1.54911 86.3203 1.54043 86.2856C1.53299 86.2509 1.51687 86.2099 1.49206 86.1641C1.4685 86.1169 1.42634 86.0797 1.36558 86.0512C1.30605 86.0227 1.23165 86.0078 1.1436 86.0078C1.05556 86.0078 0.981151 86.0227 0.921627 86.0512C0.862103 86.0797 0.81994 86.1169 0.795139 86.1641C0.771577 86.2099 0.755456 86.2509 0.746776 86.2856C0.738095 86.3203 0.734375 86.3575 0.734375 86.3947C0.734375 86.4332 0.738095 86.4704 0.746776 86.5051C0.755456 86.5423 0.771577 86.582 0.795139 86.6291Z" fill="#76777B"/>
<path d="M23.6245 86.6291C23.6481 86.6762 23.6902 86.7134 23.7498 86.7419C23.8105 86.7692 23.8837 86.7841 23.973 86.7841C24.061 86.7841 24.1342 86.7692 24.1949 86.7419C24.2545 86.7134 24.2966 86.6762 24.3202 86.6291C24.345 86.582 24.3611 86.5423 24.3698 86.5051C24.3772 86.4704 24.3822 86.4332 24.3822 86.3947C24.3822 86.3575 24.3772 86.3203 24.3698 86.2856C24.3611 86.2509 24.345 86.2099 24.3202 86.1641C24.2966 86.1169 24.2545 86.0797 24.1949 86.0512C24.1342 86.0227 24.061 86.0078 23.973 86.0078C23.8837 86.0078 23.8105 86.0227 23.7498 86.0512C23.6902 86.0797 23.6481 86.1169 23.6245 86.1641C23.6009 86.2099 23.5836 86.2509 23.5749 86.2856C23.5675 86.3203 23.5625 86.3575 23.5625 86.3947C23.5625 86.4332 23.5675 86.4704 23.5749 86.5051C23.5836 86.5423 23.6009 86.582 23.6245 86.6291Z" fill="#76777B"/>
<path d="M22.3608 86.6291C22.3844 86.6762 22.4266 86.7134 22.4861 86.7419C22.5456 86.7692 22.6212 86.7841 22.7081 86.7841C22.7973 86.7841 22.8705 86.7692 22.9313 86.7419C22.9908 86.7134 23.033 86.6762 23.0565 86.6291C23.0813 86.582 23.0974 86.5423 23.1061 86.5051C23.1136 86.4704 23.1185 86.4332 23.1185 86.3947C23.1185 86.3575 23.1136 86.3203 23.1061 86.2856C23.0974 86.2509 23.0813 86.2099 23.0565 86.1641C23.033 86.1169 22.9908 86.0797 22.9313 86.0512C22.8705 86.0227 22.7973 86.0078 22.7081 86.0078C22.6212 86.0078 22.5456 86.0227 22.4861 86.0512C22.4266 86.0797 22.3844 86.1169 22.3608 86.1641C22.3373 86.2099 22.3199 86.2509 22.3112 86.2856C22.3038 86.3203 22.2988 86.3575 22.2988 86.3947C22.2988 86.4332 22.3038 86.4704 22.3112 86.5051C22.3199 86.5423 22.3373 86.582 22.3608 86.6291Z" fill="#76777B"/>
<path d="M36.9656 89.3243V90.7789C36.4249 90.7789 35.7404 90.7789 35.7304 90.7789C35.4911 90.7789 35.3163 90.7132 35.2046 90.5817C35.093 90.4515 35.0372 90.2357 35.0372 89.9344V88.9671C35.0372 88.6658 35.093 88.45 35.2046 88.3211C35.3113 88.197 35.4775 88.1276 35.7007 88.1276C35.7106 88.1276 36.255 88.1276 36.2649 88.1276C36.5067 88.1276 36.6841 88.1921 36.7957 88.3211C36.9085 88.45 36.9656 88.6658 36.9656 88.9671V89.3243ZM37.6116 91.4237V88.8469C37.6116 88.6435 37.5868 88.4599 37.536 88.3C37.4852 88.14 37.4182 88.0098 37.3339 87.9094C37.2495 87.8089 37.1478 87.7258 37.03 87.6601C36.911 87.5919 36.7907 87.546 36.6655 87.5187C36.5414 87.4914 36.4075 87.4766 36.2649 87.4766C36.2538 87.4766 35.7094 87.4766 35.7007 87.4778C35.5692 87.479 35.444 87.4927 35.3287 87.5187C35.2046 87.546 35.0831 87.5919 34.9653 87.6601C34.8475 87.7258 34.7471 87.8089 34.6652 87.9094C34.5821 88.0098 34.5152 88.14 34.4643 88.3C34.4135 88.4599 34.3887 88.6435 34.3887 88.8469V90.0547C34.3887 90.2581 34.4135 90.4404 34.4643 90.5991C34.5152 90.7591 34.5821 90.8905 34.6652 90.9922C34.7471 91.0939 34.8475 91.1782 34.9653 91.2452C35.0831 91.3121 35.2046 91.3593 35.3287 91.3865C35.4527 91.4151 35.5878 91.4237 35.7292 91.4237H36.9395C36.9395 92.3513 36.4137 92.4307 35.9611 92.4307H35.2691V93.145H35.9611C37.7059 93.145 37.6116 91.6842 37.6116 91.4237Z" fill="#76777B"/>
<path d="M28.2798 90.7798C27.7391 90.7798 27.0546 90.7798 27.0447 90.7798C26.8053 90.7798 26.6305 90.714 26.5176 90.5826C26.4073 90.4524 26.3515 90.2366 26.3515 89.9353V88.968C26.3515 88.6667 26.4073 88.4509 26.5176 88.3219C26.6255 88.1979 26.7905 88.1285 27.0137 88.1285C27.0236 88.1285 27.5692 88.1272 27.5791 88.1272C27.821 88.1272 27.9971 88.193 28.1099 88.3219C28.2227 88.4509 28.2798 88.6667 28.2798 88.968V90.7798ZM20.6843 89.3251V90.7798C20.1449 90.7798 19.4591 90.7798 19.4504 90.7798C19.2099 90.7798 19.035 90.714 18.9234 90.5826C18.8118 90.4524 18.7572 90.2366 18.7572 89.9353V88.968C18.7572 88.6667 18.8118 88.4509 18.9234 88.3219C19.0313 88.1979 19.1962 88.1285 19.4194 88.1285C19.4293 88.1285 19.9737 88.1272 19.9849 88.1272C20.2255 88.1272 20.4028 88.193 20.5157 88.3219C20.6285 88.4509 20.6843 88.6667 20.6843 88.968V89.3251ZM30.4772 85.125V90.7748H28.9246V88.8477C28.9246 88.6431 28.8998 88.4608 28.849 88.3008C28.7981 88.1409 28.7312 88.0107 28.6481 87.9102C28.5638 87.8098 28.4621 87.7267 28.3443 87.661C28.2252 87.5928 28.1037 87.5469 27.9797 87.5196C27.8544 87.4923 27.7205 87.4774 27.5779 87.4774C27.568 87.4774 27.0236 87.4774 27.0137 87.4787C26.8822 87.4799 26.7582 87.4936 26.6429 87.5196C26.5176 87.5469 26.3974 87.5928 26.2795 87.661C26.1617 87.7267 26.0613 87.8098 25.9782 87.9102C25.8951 88.0107 25.8282 88.1409 25.7786 88.3008C25.7314 88.4497 25.7103 88.622 25.7079 88.808H25.7066V88.8192C25.7066 88.8291 25.7029 88.8366 25.7029 88.8477V89.2507C25.693 89.7877 25.5987 90.1771 25.4152 90.4077C25.2205 90.6533 24.8907 90.7748 24.4219 90.7748H23.663V87.4737H23.0169V90.7748H21.3316L21.3304 90.776V88.8477C21.3304 88.6431 21.3056 88.4608 21.2547 88.3008C21.2039 88.1409 21.1369 88.0107 21.0526 87.9102C20.9683 87.8098 20.8678 87.7267 20.75 87.661C20.631 87.5928 20.5095 87.5469 20.3854 87.5196C20.2602 87.4923 20.1263 87.4774 19.9837 87.4774H19.4293C19.288 87.4799 19.164 87.4936 19.0486 87.5196C18.9234 87.5469 18.8019 87.5928 18.6853 87.661C18.5675 87.7267 18.467 87.8098 18.384 87.9102C18.3009 88.0107 18.2339 88.1409 18.1831 88.3008C18.1335 88.4608 18.1074 88.6431 18.1074 88.8477V90.0556C18.1074 90.2589 18.1335 90.4412 18.1831 90.5999C18.2339 90.7599 18.3009 90.8914 18.384 90.9931C18.467 91.0947 18.5675 91.1791 18.6853 91.246C18.8019 91.313 18.9234 91.3601 19.0486 91.3874C19.1727 91.4159 19.3066 91.4246 19.4492 91.4246H20.6595C20.6595 92.3522 20.1325 92.4315 19.6798 92.4315H18.9891V93.1458H19.6798C21.4246 93.1458 21.3304 91.685 21.3304 91.4246H24.4219C24.6377 91.4246 24.8373 91.4048 25.0209 91.3638C25.2044 91.3242 25.3792 91.256 25.5454 91.158C25.6855 91.0761 25.7984 90.9633 25.9026 90.843C25.9286 90.8901 25.9472 90.9546 25.9782 90.9931C26.0613 91.0947 26.1617 91.1791 26.2795 91.246C26.3974 91.313 26.5176 91.3601 26.6429 91.3874C26.7669 91.4159 26.9008 91.4246 27.0434 91.4246H31.1233V85.125" fill="#76777B"/>
</g>
<defs>
<clipPath id="clip0_864_90">
<rect width="142.857" height="100" fill="white" transform="translate(0 0.5)"/>
</clipPath>
</defs>
</svg>
