<svg width="307" height="101" viewBox="0 0 307 101" fill="none" xmlns="http://www.w3.org/2000/svg">
<g clip-path="url(#clip0_864_1806)">
<path d="M71.4883 38.0604C71.4883 38.6654 71.429 39.2796 71.2879 39.9161C71.0652 41.0852 70.8648 41.6697 70.7034 41.6697C70.6125 41.6697 70.5512 41.4266 70.5215 40.9442C70.4603 39.9161 70.4213 39.3316 70.4213 39.2091C70.1689 36.6909 69.5232 32.4488 68.4858 26.492C68.1926 24.8385 67.8011 22.3686 67.3167 19.0729C67.0755 18.8613 66.9734 18.6999 67.0143 18.5904C67.1145 18.2972 67.287 17.8648 67.519 17.2803C67.699 16.7959 67.8196 16.5547 67.8605 16.5547C67.9421 16.5547 68.3448 17.3304 69.0704 18.8929C69.8757 20.6261 70.2283 21.5335 70.1188 21.6133C70.0168 21.6746 69.8052 21.5521 69.4935 21.2106C69.4025 21.1086 69.1706 20.8673 68.7883 20.4851C69.2522 22.9643 69.937 26.9243 70.8444 32.356C71.2675 35.1878 71.4883 37.0936 71.4883 38.0604Z" fill="#403D3F"/>
<path d="M34.1361 39.1797C34.1361 40.4082 33.8336 41.3657 33.2287 42.0412C32.7759 42.5256 31.0816 43.6353 28.1496 45.3666C24.8242 47.3225 22.6771 48.3098 21.7196 48.3098C20.4707 48.3098 19.8453 47.5341 19.8453 45.9716C19.8453 44.5817 20.1682 43.1101 20.8326 41.5773C21.1555 40.8313 21.3763 40.449 21.4988 40.4694C21.6695 40.4694 21.5786 40.9426 21.1963 41.8909C20.8233 42.8373 20.6303 43.6835 20.6303 44.4406C20.6303 45.5485 21.1146 46.1126 22.0833 46.1126C23.0093 46.1126 24.9856 45.2367 28.0086 43.472C31.6773 41.3657 33.5107 40.2078 33.5107 39.9851C33.5107 39.4915 32.9076 38.9162 31.6773 38.2519C30.7402 37.7879 29.7919 37.3147 28.8344 36.8415C27.2125 35.9749 25.9023 34.8856 24.904 33.5755C24.8446 33.5662 24.7537 33.4846 24.6423 33.3343C24.633 33.273 24.6219 32.9112 24.6219 32.245C24.6126 31.5602 24.6219 31.2169 24.6627 31.1965C24.8242 31.1761 25.3271 31.4192 26.1955 31.9443C27.051 32.4677 27.4648 32.7701 27.424 32.8703C27.4036 32.9613 27.1215 33.0114 26.5982 33.0318C27.656 33.98 28.9457 34.8058 30.4674 35.511C31.9798 36.2069 32.9262 36.7191 33.2899 37.0438C33.854 37.5671 34.1361 38.2723 34.1361 39.1797Z" fill="#403D3F"/>
<path d="M5.73412 34.3239C5.47803 35.2332 5.07349 35.6952 4.51121 35.6952C4.19945 35.6952 3.96378 35.582 3.8079 35.3464C3.48129 34.8212 3.31799 34.2608 3.31799 33.6558C3.31799 33.229 3.38851 32.6389 3.54439 31.8799C3.71511 30.9484 4.02873 29.9036 4.47595 28.7382C4.64667 28.3114 4.78956 28.0999 4.88792 28.0999C4.92317 28.1128 4.94544 28.1629 4.94544 28.2409C4.94544 28.3764 4.89534 28.5823 4.79513 28.8514C4.61142 29.4137 4.34048 30.4733 3.98605 32.0284C3.83017 32.895 3.86542 33.5575 4.09924 34.0047C4.25512 34.3165 4.47595 34.4723 4.7673 34.4723C4.93802 34.4723 5.08648 34.4092 5.2071 34.2682C5.27947 34.168 5.38524 34.0121 5.52813 33.7987C5.59865 33.628 5.65618 33.5426 5.69886 33.5426C5.86958 33.5426 5.89 33.7987 5.73412 34.3239ZM23.3113 29.3283C23.3113 29.6605 23.2408 30.0131 23.0886 30.3861C22.9476 30.7498 22.827 30.9409 22.7268 30.9409C22.6767 30.9409 22.5041 30.7498 22.2127 30.3675C21.9307 29.9834 21.6783 29.7904 21.4575 29.7904C20.8525 29.7904 19.9042 30.4065 18.6145 31.6554C17.3248 32.895 16.679 33.8432 16.679 34.489C16.679 34.7897 16.9927 35.1033 17.6273 35.415C18.171 35.6989 18.6943 35.8585 19.1991 35.8994C20.6094 36.0293 21.567 36.2427 22.081 36.5247C22.5449 36.8068 22.788 37.2095 22.788 37.7532C22.788 38.811 22.5245 39.6794 21.9808 40.353C21.1142 41.4628 19.4014 42.6114 16.8609 43.8009C14.0996 45.0702 11.6909 45.716 9.64408 45.716C7.00527 45.716 5.1904 44.5469 4.22358 42.2087C3.69841 40.9079 3.63903 39.3454 4.06213 37.512C4.30337 36.4635 4.65595 35.4651 5.12916 34.5076C5.45205 33.8637 5.65432 33.5612 5.75453 33.602C5.85474 33.641 5.80463 33.9843 5.57267 34.6505C5.02895 36.1926 4.74688 37.4099 4.74688 38.3173C4.74688 39.7499 5.16998 40.9376 6.03659 41.8859C7.02383 42.9733 8.45643 43.5189 10.3307 43.5189C11.9025 43.5189 13.6765 43.1347 15.651 42.3702C17.1226 41.8042 18.5737 41.0898 20.0063 40.2139C21.2144 39.4864 21.8193 39.0633 21.8193 38.9223C21.8193 38.5493 21.2756 38.2969 20.1863 38.1763C17.2042 37.8441 15.7122 37.0072 15.7122 35.6785C15.7122 34.1049 16.4879 32.3717 18.0504 30.4566C19.5517 28.6213 20.8321 27.6953 21.8991 27.6953C22.274 27.6953 22.6061 27.8568 22.8882 28.1889C23.1703 28.5118 23.3113 28.8941 23.3113 29.3283ZM17.0094 47.1282L16.0017 48.9431L13.9456 47.735L13.0994 49.2456L11.0025 48.0171L12.0101 46.2022L14.0662 47.4121L14.9124 45.8997L17.0094 47.1282Z" fill="#403D3F"/>
<path d="M38.2746 38.0775C37.6288 38.0385 37.3059 37.8771 37.3059 37.6154C37.3059 37.4948 37.3968 37.3742 37.5583 37.2721C37.729 37.1608 37.87 37.1107 37.9721 37.1107C38.475 37.1515 38.9593 37.4744 39.4437 38.0589C39.1208 38.0979 38.7274 38.0979 38.2746 38.0775ZM65.2806 29.3947C64.6942 26.2195 64.1301 23.0556 63.5863 19.9009C63.9501 20.2646 64.1913 20.5058 64.2915 20.6061C64.6348 20.9289 64.8371 21.0607 64.9169 21.0106C64.9466 20.979 64.9577 20.9494 64.9577 20.9289C64.9577 20.7675 64.594 19.8805 63.8888 18.2901C63.2041 16.7165 62.8014 15.9297 62.6808 15.9297C62.6195 15.9297 62.4989 16.1821 62.317 16.6757C62.0944 17.2621 61.9348 17.7037 61.8123 18.0062C61.7529 18.1176 61.8735 18.2679 62.1556 18.4497C62.6288 21.7566 63.0018 24.2339 63.2635 25.8874C64.5031 32.9019 65.1192 37.1459 65.1192 38.6064C65.1192 38.7678 64.8872 38.9793 64.4233 39.2206C63.9631 39.4711 63.5641 39.5917 63.2338 39.5936C63.1336 39.5936 63.0371 39.588 62.9406 39.5769C62.5082 39.5286 62.1148 39.3765 61.7548 39.1297C61.5191 38.9886 61.3447 38.8253 61.2277 38.636C61.096 38.4245 61.0385 38.1795 61.0477 37.9012C61.057 37.7806 61.0626 37.6766 61.0644 37.5894C61.0719 37.3686 61.0626 37.2498 61.0477 37.2368C60.9067 37.1756 60.6859 37.4373 60.3834 37.981C60.222 38.3447 60.0401 38.7066 59.8601 39.0499C59.5762 39.473 59.1345 39.6548 58.5296 39.6344C57.8058 39.6084 57.392 39.3542 57.2862 38.8717C57.3419 38.5117 57.4328 38.1554 57.4514 37.7917C57.4978 37.5987 57.4885 37.4948 57.4198 37.4781C57.2788 37.4465 57.0784 37.6488 56.7945 38.0626C56.5291 38.4579 56.3009 38.7734 56.106 39.0165C56.0374 39.0833 55.965 39.1464 55.8889 39.2057C55.3248 39.6845 54.6307 40.1206 53.8885 40.206C53.792 40.2134 53.6936 40.2171 53.5952 40.219C53.5823 40.219 53.5693 40.219 53.5581 40.219C53.4041 40.2134 53.2501 40.1911 53.0942 40.1503C53.0478 40.1429 53.0014 40.1336 52.9532 40.1206C52.4596 39.9406 52.1738 39.5138 52.0996 38.8476C52.0996 38.6268 52.1292 38.3651 52.1793 38.0626C52.209 37.8715 52.1793 37.7602 52.0996 37.7397C51.9975 37.71 51.8472 37.801 51.6356 37.981C51.3406 38.289 51.0901 38.5488 50.8822 38.7622C50.7523 38.8958 50.6391 39.0109 50.5445 39.1092C50.4034 39.2373 50.2606 39.3653 50.114 39.4878C50.0045 39.5787 49.895 39.6678 49.7799 39.7513C49.5888 39.8961 49.3902 40.0297 49.1805 40.1503C49.0488 40.2264 48.9077 40.2839 48.7593 40.3229C48.3733 40.4231 47.9688 40.4862 47.5679 40.4899C47.3304 40.4936 47.0947 40.4769 46.8609 40.4361C46.4285 40.3581 46.0982 40 46.0574 39.5639C46.0314 39.2855 46.0741 38.9886 46.1335 38.7288C46.23 38.3261 46.2931 37.9068 46.4081 37.5059C46.4619 37.3166 46.5287 37.1311 46.6141 36.9529C47.0149 36.7284 47.4417 36.5577 47.8704 36.3962C48.3919 36.1977 48.9207 36.0121 49.4199 35.7616C49.7521 35.5797 50.1455 35.4424 50.422 35.177C50.5074 35.0935 50.5816 34.9989 50.6391 34.8838C50.8785 34.4551 51.1142 34.0153 51.1921 33.5273C50.1585 33.8743 49.2028 34.4125 48.1655 34.7502C47.6997 34.9302 47.2116 35.1139 46.7143 35.2253C46.705 35.2271 46.6958 35.229 46.6865 35.2308C46.0908 35.3607 45.4821 35.3811 44.8864 35.1603C43.658 34.8114 42.7468 33.8706 42.0992 32.8091C42.025 32.6885 41.9544 32.566 41.8858 32.4417C41.728 32.078 41.4664 31.5398 41.8969 31.2596C43.1495 30.4858 44.6749 30.4153 46.1019 30.2854C47.0947 30.1573 48.0263 30.6101 49.0061 30.6083C48.0244 29.7565 46.8368 29.0346 45.5063 28.9511C44.2852 28.8008 42.9305 28.9753 41.9971 29.84C41.2344 30.458 40.8336 31.4248 40.7334 32.386C40.7167 32.5364 40.7223 32.6885 40.7482 32.8407C40.8187 33.2601 40.9338 33.6758 41.0897 34.0766C41.1843 34.316 41.2938 34.5516 41.4219 34.7762C41.6464 35.1752 41.9229 35.5426 42.2532 35.8618C42.5965 36.1531 42.9677 36.4092 43.3184 36.6931C42.5909 37.003 41.8895 37.4001 41.1249 37.6117C40.9858 37.3241 40.8169 37.029 40.6128 36.7284C39.9373 35.7393 39.2414 35.2253 38.5158 35.1752C37.8311 35.1362 37.2261 35.4981 36.7009 36.244C36.2277 36.9195 35.9958 37.595 35.9958 38.2797C35.9958 39.4488 36.7214 40.0334 38.1725 40.0334C39.2117 40.0334 40.0282 39.922 40.6128 39.7105C40.7928 39.9721 40.8744 40.2653 40.8744 40.5975C40.8744 41.1412 39.9076 42.1303 37.9721 43.5815C35.8455 45.1737 34.0417 45.9586 32.5702 45.9586C31.5217 45.9586 30.6959 45.6061 30.1002 44.9102C29.4953 44.205 29.2039 43.3384 29.2039 42.3103C29.2039 41.7072 29.2837 41.0819 29.4266 40.4565C29.5732 39.833 29.6456 39.5305 29.6474 39.5305C29.6474 39.4693 29.627 39.4377 29.6066 39.4284C29.4452 39.3895 29.2243 39.8218 28.9627 40.7181C28.6602 41.7072 28.5192 42.6536 28.5192 43.5815C28.5192 44.8916 28.8309 45.9401 29.4452 46.725C30.1206 47.6028 31.0986 48.0352 32.3679 48.0352C33.7281 48.0352 35.3314 47.3708 37.1649 46.0403C38.7682 44.8916 39.9763 43.7225 40.7928 42.5126C41.2697 41.826 41.5128 40.8165 41.5369 39.4804C42.8637 39.1092 44.3594 38.3762 46.0203 37.2888C45.6157 38.4839 45.3058 39.7625 45.5415 41.0262C45.703 41.5662 46.0555 42.1062 46.6215 42.2769C47.425 42.4254 48.2972 42.3901 49.0302 41.9949C49.2251 41.9132 49.4014 41.8074 49.5647 41.6831C50.1715 41.3324 50.7152 40.7961 51.1921 40.0779C51.1921 41.5179 51.8565 42.2342 53.1666 42.2342C54.4563 42.2342 55.5456 41.4697 56.4326 39.9573C56.3714 40.4008 56.4939 40.7924 56.7648 41.1357C56.9485 41.3584 57.1619 41.5087 57.405 41.5866C57.5349 41.6293 57.6759 41.6497 57.8225 41.6497C58.9322 41.6497 59.7376 40.9353 60.2628 39.5138C60.2925 39.5138 60.3611 39.6511 60.4595 39.9072C60.4613 39.9091 60.4632 39.9128 60.4632 39.9165C60.6154 40.2598 60.7564 40.501 60.8863 40.6625C61.3521 41.2563 61.9552 41.5569 62.7049 41.5681C62.7105 41.5681 62.7142 41.5699 62.7197 41.5699C62.7253 41.5699 62.729 41.5699 62.7327 41.5699C62.7364 41.5699 62.7401 41.5699 62.742 41.5699C62.7457 41.5699 62.7494 41.5681 62.7531 41.5681C64.3064 41.5569 65.3029 40.7107 65.7427 39.0499C66.0155 37.9717 66.1472 37.055 66.1472 36.2886C66.1472 35.1288 65.854 32.8314 65.2806 29.3947Z" fill="#403D3F"/>
<path d="M31.5007 27.2005C31.3337 27.7962 31.0683 28.0968 30.7028 28.0968C30.4986 28.0968 30.3446 28.0226 30.2425 27.8686C30.0291 27.5271 29.9215 27.1597 29.9215 26.7644C29.9215 26.4861 29.9679 26.1001 30.07 25.6028C30.1813 24.9941 30.3854 24.313 30.6786 23.5503C30.79 23.272 30.8828 23.1328 30.9477 23.1328C30.9718 23.1421 30.9848 23.1736 30.9848 23.2256C30.9848 23.3128 30.9533 23.4483 30.8883 23.6246C30.7677 23.992 30.5914 24.6842 30.3576 25.7011C30.2555 26.2671 30.2797 26.6995 30.4318 26.9927C30.5357 27.1968 30.6786 27.2989 30.8698 27.2989C30.9811 27.2989 31.0776 27.2562 31.1574 27.1634C31.2038 27.0984 31.2725 26.9964 31.3671 26.8572C31.4116 26.7459 31.4506 26.6902 31.4766 26.6902C31.5898 26.6902 31.6028 26.8572 31.5007 27.2005Z" fill="#403D3F"/>
<path d="M28.5004 48.0391C28.5375 48.0984 28.5152 48.2321 28.4262 48.425C28.3389 48.6088 28.2721 48.7127 28.2276 48.735C26.9769 49.2007 25.7261 49.6684 24.468 50.1341C22.8758 50.741 21.7215 51.2439 21.0108 51.6521C20.9737 51.5705 20.9662 51.4146 21.0108 51.1919C21.0553 50.9915 21.1073 50.8746 21.1667 50.83C23.4102 49.8224 25.8523 48.8908 28.5004 48.0391Z" fill="#403D3F"/>
<path d="M44.5997 21.5164C44.5997 21.5739 44.5552 21.6815 44.4698 21.8541C44.3845 22.0193 44.3343 22.1046 44.3121 22.1046C44.0745 22.0694 43.8092 21.9896 43.5086 21.8615C42.95 22.7356 41.7939 23.6616 40.0495 24.6303C39.9066 24.7026 39.5411 24.8529 38.9528 25.0812C38.3646 25.3057 38.0565 25.4134 38.0138 25.3911C37.999 25.3558 38.2996 25.161 38.9305 24.8028C41.098 23.6467 42.5622 22.6354 43.3081 21.7743C42.6624 21.4811 42.332 21.1304 42.332 20.7129C42.332 20.4828 42.4694 20.197 42.7477 19.8518C43.0205 19.5085 43.2859 19.3359 43.5383 19.3359C43.8519 19.3359 44.0115 19.6867 44.0115 20.3974C44.0115 20.6702 43.9669 20.943 43.8667 21.2158C44.3548 21.3735 44.5997 21.4737 44.5997 21.5164ZM43.6236 21.1304C43.7813 20.4623 43.6811 20.1246 43.3081 20.1246C42.9778 20.1246 42.8052 20.2619 42.8052 20.5403C42.8052 20.7426 43.078 20.9356 43.6236 21.1304Z" fill="#403D3F"/>
<path d="M59.3691 24.7682C59.3691 24.8258 59.3264 24.9334 59.2411 25.1041C59.1557 25.2693 59.1038 25.3565 59.0833 25.3565C58.8458 25.3194 58.5804 25.2414 58.2798 25.1115C57.7194 25.9874 56.5652 26.9134 54.8208 27.8821C54.6779 27.9526 54.3123 28.1029 53.7241 28.333C53.1358 28.5557 52.8278 28.6634 52.7832 28.6411C52.7703 28.6058 53.0709 28.4128 53.7018 28.0547C55.8693 26.8986 57.3316 25.8872 58.0776 25.0262C57.4336 24.7311 57.1033 24.3804 57.1033 23.9647C57.1033 23.7346 57.2388 23.447 57.519 23.1037C57.7918 22.7585 58.0571 22.5859 58.3077 22.5859C58.6231 22.5859 58.7827 22.9385 58.7827 23.6493C58.7827 23.922 58.7382 24.193 58.638 24.4658C59.126 24.6235 59.3691 24.7256 59.3691 24.7682ZM58.3949 24.3804C58.5526 23.7123 58.4524 23.3746 58.0776 23.3746C57.7491 23.3746 57.5765 23.5119 57.5765 23.7921C57.5765 23.9926 57.8493 24.1856 58.3949 24.3804Z" fill="#403D3F"/>
<path d="M58.339 45.1676C58.339 45.6835 58.1479 45.9489 57.7674 45.9489C57.6153 45.9489 57.4854 45.8969 57.374 45.7912C57.3184 45.7466 57.2608 45.7578 57.2107 45.8357C57.0307 46.1103 56.7672 46.2514 56.4295 46.2514C56.2959 46.2514 56.1771 46.2235 56.088 46.1567C55.7837 45.9767 55.4088 45.9767 54.9598 46.179C54.7631 46.2848 54.4253 46.5539 53.9484 46.9862C53.6738 47.2108 53.4047 47.4409 53.1393 47.671C52.7032 48.0087 52.1799 48.3001 51.5787 48.5487C51.0906 48.7436 50.7585 48.8456 50.5896 48.8456C50.5469 48.8456 50.5172 48.8345 50.5172 48.8011C50.5617 48.7566 50.6527 48.7102 50.7752 48.6656C51.0015 48.5877 51.3152 48.4522 51.7141 48.25C52.449 47.8343 53.0948 47.3462 53.6496 46.7802C54.1061 46.2736 54.5942 45.8914 55.1212 45.6279C55.4868 45.4312 55.8004 45.4145 56.0658 45.5833C56.1827 45.6724 56.3126 45.7188 56.4536 45.7188C56.8359 45.7188 57.0994 45.5388 57.2386 45.1676C57.3109 44.9431 57.4019 44.8243 57.5132 44.8243C57.5429 44.8243 57.554 44.8596 57.5373 44.9375C57.4909 45.1064 57.4798 45.201 57.5132 45.2363C57.6153 45.3699 57.773 45.4145 57.9753 45.3532C58.1089 45.3254 58.1274 45.2623 58.0198 45.1676C57.94 45.1231 57.9233 45.0544 57.9753 44.9598C58.0643 44.7464 58.12 44.6406 58.1553 44.6406C58.2778 44.6406 58.339 44.8132 58.339 45.1676Z" fill="#403D3F"/>
<path d="M16.6953 24.2275C16.6953 24.9401 16.5339 25.5339 16.1906 26.0331C15.8695 26.5081 15.5262 26.7568 15.1644 26.7568C14.9435 26.7568 14.7709 26.6733 14.6299 26.5081C14.088 27.0537 13.6037 27.3395 13.1917 27.3395C12.5868 27.3395 12.275 26.9832 12.275 26.2706C12.275 26.009 12.3752 25.6174 12.5868 25.083C12.7891 24.5485 12.9598 24.2757 13.1008 24.2757C13.2103 24.2757 13.2623 24.3834 13.2307 24.6079C13.1713 25.096 13.1398 25.3446 13.1398 25.3446C13.1398 25.4986 13.2623 25.5822 13.5128 25.5822C13.8765 25.5822 14.2068 25.391 14.5093 24.9995C14.8118 24.6209 14.9528 24.4186 14.9231 24.4186C15.053 24.4186 15.1439 24.5133 15.1848 24.7155C15.2256 24.9048 15.285 24.9995 15.3759 24.9995C15.6988 24.9995 15.9604 24.8102 16.1516 24.4186C16.3427 24.0382 16.4522 23.8359 16.4838 23.8359C16.6248 23.8359 16.6953 23.9677 16.6953 24.2275Z" fill="#403D3F"/>
<path d="M59.2657 29.8309C59.2657 30.5416 59.1043 31.1355 58.7628 31.6346C58.4418 32.1097 58.0985 32.3584 57.7366 32.3584C57.5139 32.3584 57.3432 32.2749 57.2022 32.1097C56.6585 32.6553 56.176 32.9411 55.7622 32.9411C55.159 32.9411 54.8473 32.5848 54.8473 31.8722C54.8473 31.6105 54.9475 31.219 55.159 30.6845C55.3595 30.1501 55.532 29.8773 55.6731 29.8773C55.7826 29.8773 55.8327 29.9849 55.803 30.2095C55.7436 30.6957 55.712 30.9462 55.712 30.9462C55.712 31.1002 55.8327 31.1837 56.085 31.1837C56.4469 31.1837 56.7809 30.9926 57.0816 30.601C57.384 30.2206 57.5251 30.0183 57.4935 30.0183C57.6253 30.0183 57.7162 30.1148 57.757 30.3152C57.796 30.5064 57.8572 30.601 57.9482 30.601C58.2692 30.601 58.5309 30.4117 58.7238 30.0183C58.9131 29.6398 59.0245 29.4375 59.056 29.4375C59.1952 29.4375 59.2657 29.5693 59.2657 29.8309Z" fill="#403D3F"/>
<path d="M45.97 47.5447C45.3316 48.3742 44.5021 48.7898 43.4778 48.7898C42.7578 48.7731 42.3922 48.4874 42.3922 47.9344C42.3922 47.6746 42.5017 47.3034 42.7207 46.8024C42.9638 46.2661 43.1976 45.9116 43.4184 45.7391C43.0231 45.4366 42.8172 45.1415 42.8172 44.8558C42.8172 44.6238 42.9712 44.312 43.2792 43.9223C43.5873 43.5345 43.8731 43.3359 44.1366 43.3359C44.3574 43.3359 44.4669 43.4992 44.4669 43.8277C44.4669 43.9223 44.4372 44.0522 44.3704 44.2267C44.3129 44.3807 44.2535 44.4679 44.1941 44.4679C44.1588 44.4494 44.1291 44.3974 44.1069 44.3287C44.0716 44.1914 43.99 44.1135 43.8656 44.1135C43.8063 44.1135 43.7116 44.1562 43.565 44.2601C43.4258 44.3473 43.3516 44.4419 43.3516 44.5366C43.3516 44.8391 43.63 44.9949 44.1941 44.9949C44.3129 44.9949 44.4966 44.891 44.7378 44.685C44.8993 44.5199 45.0236 44.4419 45.1257 44.4679C45.185 44.4679 45.1776 44.6572 45.0978 45.0376C45.0607 45.1248 44.9568 45.2195 44.7972 45.316C44.4595 45.4533 44.0549 45.7725 43.5947 46.2735C43.0955 46.7671 42.8469 47.1308 42.8469 47.3721C42.8469 47.7172 43.1827 47.8991 43.8656 47.8991C44.4223 47.8991 45.0756 47.7172 45.816 47.3368C45.9329 47.2941 46.0127 47.2774 46.0572 47.3034C46.0943 47.3461 46.0721 47.424 45.97 47.5447Z" fill="#403D3F"/>
<path d="M143.59 36.3591C143.59 36.9641 143.531 37.5783 143.39 38.213C143.167 39.3821 142.966 39.9666 142.803 39.9666C142.714 39.9666 142.653 39.7254 142.623 39.241C142.562 38.213 142.521 37.6284 142.521 37.5078C142.271 34.9878 141.625 30.7456 140.587 24.7888C140.294 23.1354 139.903 20.6673 139.418 17.3716C139.175 17.1601 139.075 16.9986 139.116 16.8891C139.216 16.5959 139.389 16.1617 139.621 15.5771C139.801 15.0947 139.921 14.8516 139.962 14.8516C140.044 14.8516 140.446 15.6272 141.172 17.1897C141.977 18.923 142.33 19.8304 142.221 19.9121C142.118 19.9714 141.907 19.8508 141.595 19.5075C141.504 19.4073 141.272 19.1661 140.89 18.7819C141.354 21.263 142.039 25.2231 142.946 30.6547C143.369 33.4865 143.59 35.3905 143.59 36.3591Z" fill="#403D3F"/>
<path d="M137.257 39.4091C136.702 39.4091 136.168 39.0769 135.665 38.4218C135.927 38.3105 136.329 38.3012 136.875 38.381C137.066 38.4107 137.257 38.522 137.458 38.7039C137.66 38.895 137.76 39.0565 137.76 39.1882C137.76 39.3386 137.589 39.4091 137.257 39.4091ZM136.591 36.2247C136.114 36.2247 135.5 36.3769 134.769 36.6793C134.453 35.7997 134.13 34.4655 133.806 32.6562C133.089 27.0538 132.575 22.5686 132.273 19.2116C132.637 19.5958 132.857 19.8184 132.937 19.8982C133.241 20.2601 133.442 20.4123 133.563 20.3603V20.2397C133.563 20.0801 133.26 19.2116 132.677 17.6398C132.082 16.0681 131.709 15.2812 131.568 15.2812C131.506 15.2812 131.386 15.5336 131.206 16.0272C131.044 16.3297 130.833 16.7547 130.58 17.2984C130.549 17.419 130.66 17.5897 130.883 17.8013C131.265 24.2127 131.788 29.2807 132.475 32.9995C132.852 35.1669 133.165 36.5699 133.41 37.2138C133.418 37.2342 133.421 37.2527 133.427 37.2732C131.703 38.0693 130.566 38.4608 130.001 38.4608C129.949 38.4608 129.903 38.4701 129.857 38.4794C129.359 38.4237 128.957 38.2474 128.634 37.9523C128.522 37.8707 128.372 37.6499 128.19 37.2861C128.029 36.9651 127.908 36.8037 127.847 36.8037C127.788 36.8037 127.706 37.1061 127.606 37.7111C127.494 38.3142 127.444 38.6779 127.444 38.7781C127.444 38.6965 127.686 39.1511 128.17 40.118C128.654 41.0959 128.895 41.8734 128.895 42.4469C128.895 42.8403 127.828 43.757 125.711 45.1877C123.787 46.4774 122.092 47.1232 120.632 47.1232C118.344 47.1232 117.205 46.0135 117.205 43.8164C117.205 43.152 117.346 42.3671 117.628 41.4596C117.85 40.6932 117.93 40.3109 117.91 40.3109C117.769 40.2311 117.607 40.3499 117.407 40.6728C116.741 41.9235 116.42 43.4137 116.42 45.1469C116.42 47.8395 117.689 49.1793 120.227 49.1793C121.549 49.1793 123.171 48.5948 125.086 47.4461C126.96 46.3364 128.24 45.2081 128.936 44.0595C129.157 43.7069 129.33 43.1316 129.45 42.3355C129.58 41.532 129.601 40.9196 129.541 40.4761C130.291 40.4724 131.119 40.272 132.037 39.8934C132.711 39.5705 133.386 39.2476 134.052 38.9247C134.969 40.5782 135.947 41.404 136.975 41.404C138.124 41.404 138.688 40.3666 138.688 38.3012C138.688 36.9094 137.983 36.2247 136.591 36.2247Z" fill="#403D3F"/>
<path d="M90.6902 31.121L88.5932 29.8906L87.5856 31.7055L89.6825 32.934L90.6902 31.121Z" fill="#403D3F"/>
<path d="M125.11 33.6887C124.585 33.1858 123.98 32.8035 123.295 32.54C122.085 32.0965 120.17 32.0371 117.55 32.3396C113.681 32.7423 110.778 33.0745 108.843 33.3268C105.82 33.5996 103.573 33.62 102.11 33.4066C100.468 33.1858 99.6515 32.8221 99.6515 32.2988C99.6515 31.794 100.477 30.9682 102.11 29.8196C105.044 27.8043 107.33 26.7966 108.963 26.7966C109.195 26.7966 109.346 26.856 109.427 26.9581C109.65 27.2401 109.771 27.3812 109.791 27.3812C109.912 27.3812 110.053 27.1492 110.194 26.6946C110.344 26.2325 110.415 25.8892 110.415 25.648C110.415 25.0931 110.194 24.8203 109.75 24.8203C108.017 24.8203 105.718 25.8075 102.856 27.7839C99.9336 29.7992 98.4824 31.7142 98.4824 33.5291C98.4824 34.4959 99.4288 35.0898 101.305 35.3032C103.118 35.5333 105.749 35.4423 109.186 35.0601C113.337 34.5869 116.201 34.2733 117.772 34.1137C119.617 33.9522 120.977 34.0116 121.844 34.2733C123.447 34.7483 124.453 35.5036 124.867 36.5521C121.037 37.298 116.774 37.942 112.088 38.4875C107.392 39.0424 103.643 39.3133 100.841 39.3133C100.832 39.3133 100.822 39.3152 100.813 39.317C100.804 39.3152 100.796 39.3133 100.787 39.3133C95.2739 39.3133 91.8483 38.1851 90.5066 35.9267C90.3155 35.6149 90.1949 35.4628 90.1448 35.4628C90.0835 35.4628 89.9833 35.8172 89.8312 36.5205C89.6697 37.2275 89.6196 37.6098 89.64 37.6599C90.7998 39.2113 91.3732 40.4416 91.3732 41.3695C91.3732 41.6014 91.2935 41.7926 91.132 41.954C90.527 42.6183 89.3988 43.446 87.7454 44.4332C85.589 45.6728 83.8354 46.2871 82.464 46.2871C80.2075 46.2871 79.0792 45.1792 79.0792 42.9821C79.0792 42.3159 79.1998 41.5309 79.4411 40.6235C79.6731 39.8571 79.764 39.4544 79.7436 39.434C79.5914 39.3727 79.4411 39.5138 79.2796 39.8366C78.5949 41.0874 78.2516 42.5775 78.2516 44.3126C78.2516 47.0034 79.532 48.3432 82.0818 48.3432C83.7352 48.3432 85.7208 47.5768 88.0274 46.0458C90.1039 44.654 91.3139 43.5258 91.6572 42.6592C91.9986 41.9039 92.1601 41.067 92.1601 40.1391C93.7615 40.9055 96.4838 41.2878 100.323 41.2878C100.325 41.2878 100.327 41.2878 100.331 41.2878C100.333 41.2878 100.334 41.2878 100.336 41.2878C103.35 41.2878 108.056 40.8647 114.467 40.0185C119.829 39.2632 122.983 38.7696 123.92 38.5284C124.312 38.4467 124.685 38.3651 125.028 38.2853C125.11 38.2853 125.331 37.903 125.693 37.1459C126.056 36.3813 126.238 35.9471 126.238 35.8469C126.238 35.0601 125.854 34.3438 125.11 33.6887Z" fill="#403D3F"/>
<path d="M78.3972 46.9569L77.3877 48.7699L75.3334 47.56L74.4853 49.0724L72.3903 47.8421L73.3979 46.029L75.454 47.239L76.3002 45.7266" fill="#403D3F"/>
<path d="M86.7252 28.8752C86.7252 29.2074 86.6547 29.56 86.5043 29.9348C86.3633 30.2967 86.2408 30.4878 86.1406 30.4878C86.0905 30.4878 85.9198 30.2967 85.6266 29.9125C85.3445 29.5303 85.0922 29.3391 84.8713 29.3391C84.2664 29.3391 83.3181 29.9534 82.0284 31.2041C80.7387 32.4437 80.0948 33.3901 80.0948 34.0359C80.0948 34.3384 80.4065 34.6501 81.0412 34.9619C81.5849 35.244 82.11 35.4054 82.6129 35.4462C84.0251 35.578 84.9827 35.7895 85.4967 36.0716C85.9606 36.3537 86.2019 36.7564 86.2019 37.3001C86.2019 38.3578 85.9402 39.2263 85.3946 39.9018C84.528 41.0096 82.8152 42.1583 80.2748 43.3478C77.5135 44.6171 75.1048 45.2629 73.0598 45.2629C70.4191 45.2629 68.6043 44.0938 67.6374 41.7556C67.1141 40.4548 67.0529 38.8923 67.476 37.0588C67.7172 36.0104 68.0717 35.012 68.5449 34.0545C68.8678 33.4105 69.0682 33.1081 69.1684 33.1489C69.2704 33.1897 69.2203 33.5312 68.9884 34.1974C68.4447 35.7376 68.1626 36.9586 68.1626 37.8642C68.1626 39.2968 68.5857 40.4845 69.4523 41.4327C70.4395 42.522 71.8703 43.0657 73.7445 43.0657C75.3163 43.0657 77.0904 42.6816 79.0667 41.9171C80.5383 41.3529 81.9894 40.6366 83.4202 39.7589C84.6301 39.0333 85.2332 38.6102 85.2332 38.4692C85.2332 38.0962 84.6895 37.8457 83.602 37.7232C80.6181 37.391 79.1261 36.5541 79.1261 35.2236C79.1261 33.6518 79.9036 31.9186 81.4643 30.0035C82.9674 28.17 84.246 27.2422 85.3148 27.2422C85.6878 27.2422 86.02 27.4036 86.3021 27.7377C86.5841 28.0587 86.7252 28.4428 86.7252 28.8752Z" fill="#403D3F"/>
<path d="M127.354 22.0234C127.354 22.0828 127.295 22.2591 127.163 22.5634C127.037 22.8585 126.933 23.0218 126.851 23.0441C123.233 24.2577 120.36 25.2357 118.237 25.9891C114.21 27.3957 111.332 28.4906 109.593 29.2607C109.593 29.0677 109.666 28.8468 109.822 28.6019C109.97 28.3662 110.111 28.2103 110.23 28.1361C115.203 26.0559 120.909 24.0202 127.354 22.0234Z" fill="#403D3F"/>
<path d="M97.4112 44.4453C97.4465 44.5047 97.4242 44.6383 97.337 44.8313C97.2479 45.015 97.1811 45.1189 97.1366 45.1412C95.8858 45.607 94.6351 46.0746 93.3769 46.5404C91.7847 47.1472 90.6305 47.6501 89.9216 48.0565C89.8826 47.9767 89.8771 47.8208 89.9216 47.5981C89.9643 47.3996 90.0162 47.2808 90.0756 47.2363C92.3192 46.2286 94.7613 45.2971 97.4112 44.4453Z" fill="#403D3F"/>
<path d="M138.415 44.3452C138.415 44.8889 138.32 45.1635 138.12 45.1635C137.583 45.1635 137.108 44.9817 136.685 44.6142C136.631 44.9223 136.498 45.2173 136.282 45.4994C136.028 45.7945 135.21 46.2287 133.829 46.8114C132.695 47.3236 132.02 47.6038 131.805 47.6706C130.886 47.8654 130.088 48.0065 129.418 48.0992H129.27C129.236 48.0863 129.223 48.0677 129.244 48.0473C129.244 48.012 129.285 47.986 129.377 47.9656C129.619 47.8988 130.25 47.6576 131.281 47.2549C132.449 46.8003 133.298 46.4514 133.829 46.2101C135.117 45.6664 135.921 45.2378 136.243 44.9223C136.431 44.733 136.552 44.5734 136.603 44.4268C136.672 44.1837 136.819 43.9221 137.04 43.6418C137.255 43.3598 137.442 43.2188 137.596 43.2188C137.791 43.2188 137.979 43.3394 138.153 43.588C138.327 43.8293 138.415 44.0835 138.415 44.3452ZM137.945 44.5066C137.945 44.1039 137.804 43.9035 137.516 43.9035C137.275 43.9035 137.155 43.9833 137.155 44.1447C137.155 44.1781 137.247 44.245 137.442 44.3377C137.63 44.4324 137.799 44.4862 137.945 44.5066Z" fill="#403D3F"/>
<path d="M81.545 21.0242C81.545 21.0836 81.5023 21.1912 81.4151 21.3619C81.3298 21.5271 81.2797 21.6125 81.2574 21.6125C81.0217 21.5772 80.7563 21.4993 80.4539 21.3694C79.8953 22.2434 78.7392 23.1712 76.9967 24.1399C76.852 24.2104 76.4864 24.3607 75.8981 24.5909C75.3099 24.8135 75.0018 24.9212 74.9591 24.8989C74.9443 24.8636 75.2468 24.6688 75.8777 24.3106C78.0433 23.1545 79.5075 22.1432 80.2535 21.284C79.6077 20.9889 79.2774 20.6382 79.2774 20.2207C79.2774 19.9906 79.4147 19.7048 79.6949 19.3615C79.9658 19.0163 80.2312 18.8438 80.4836 18.8438C80.799 18.8438 80.9568 19.1945 80.9568 19.9052C80.9568 20.178 80.9141 20.4508 80.812 20.7236C81.3001 20.8813 81.545 20.9815 81.545 21.0242ZM80.5689 20.6382C80.7267 19.9702 80.6264 19.6324 80.2535 19.6324C79.9231 19.6324 79.7506 19.7697 79.7506 20.05C79.7506 20.2504 80.0233 20.4434 80.5689 20.6382Z" fill="#403D3F"/>
<path d="M81.2969 24.7744C81.2969 25.487 81.1354 26.0808 80.7921 26.58C80.4711 27.0532 80.1278 27.3037 79.7659 27.3037C79.5451 27.3037 79.3725 27.2202 79.2315 27.0532C78.6878 27.6006 78.2053 27.8845 77.7933 27.8845C77.1883 27.8845 76.8766 27.5282 76.8766 26.8156C76.8766 26.5558 76.9768 26.1643 77.1883 25.6298C77.3906 25.0954 77.5613 24.8226 77.7024 24.8226C77.8119 24.8226 77.8638 24.9284 77.8323 25.1548C77.7729 25.641 77.7432 25.8896 77.7432 25.8896C77.7432 26.0455 77.8638 26.1272 78.1143 26.1272C78.4781 26.1272 78.8102 25.9379 79.1109 25.5463C79.4133 25.1659 79.5544 24.9636 79.5247 24.9636C79.6546 24.9636 79.7455 25.0601 79.7863 25.2606C79.8272 25.4517 79.8865 25.5463 79.9775 25.5463C80.3004 25.5463 80.562 25.3571 80.7531 24.9636C80.9443 24.5851 81.0538 24.3828 81.0853 24.3828C81.2263 24.3828 81.2969 24.5127 81.2969 24.7744Z" fill="#403D3F"/>
<path d="M101.148 19.2294C101.218 19.311 101.218 19.5152 101.148 19.8511C101.096 20.1795 101.027 20.3521 100.93 20.3521C100.93 20.3521 100.862 20.25 100.715 20.0255C100.576 19.801 100.429 19.6878 100.255 19.6878C99.9265 19.6878 99.6927 20.4133 99.5442 21.8849C99.4069 23.3472 99.277 24.0709 99.1545 24.0412C99.0154 24.0412 98.8688 23.7239 98.6962 23.0707C98.5051 22.2727 98.184 21.64 97.7331 21.1909C97.7164 21.241 97.6811 21.2929 97.6292 21.3542C97.5605 21.3839 97.3694 21.3022 97.0409 21.0888C96.7291 20.8828 96.5547 20.6898 96.5287 20.5265C96.4601 19.7694 96.5733 19.3927 96.885 19.3927C97.4473 19.3723 98.0541 20.0775 98.6962 21.5268C98.7834 21.8329 98.9115 22.1818 99.0859 22.5697C99.1545 21.8738 99.2492 21.1797 99.3717 20.4746C99.5628 19.1979 99.856 18.5651 100.255 18.5947C100.559 18.5947 100.853 18.7989 101.148 19.2294Z" fill="#403D3F"/>
<path d="M114.001 43.6417C114.07 43.7234 114.07 43.9275 114.001 44.2652C113.949 44.5918 113.881 44.7663 113.784 44.7663C113.784 44.7663 113.715 44.6642 113.567 44.4378C113.43 44.2133 113.281 44.1019 113.109 44.1019C112.78 44.1019 112.546 44.8275 112.398 46.2972C112.259 47.7595 112.129 48.4851 112.008 48.4536C111.869 48.4536 111.722 48.1381 111.548 47.483C111.359 46.6869 111.038 46.0523 110.587 45.6032C110.57 45.6552 110.535 45.7053 110.483 45.7665C110.414 45.7981 110.223 45.7164 109.895 45.5011C109.581 45.297 109.408 45.1022 109.382 44.9389C109.314 44.1836 109.425 43.805 109.739 43.805C110.301 43.7846 110.908 44.4898 111.548 45.9409C111.635 46.2471 111.765 46.5942 111.94 46.982C112.008 46.288 112.103 45.5939 112.225 44.8888C112.415 43.6102 112.71 42.9774 113.109 43.0089C113.413 43.0089 113.706 43.2131 114.001 43.6417Z" fill="#403D3F"/>
<path d="M130.576 29.0975C130.576 30.2165 130.079 30.7862 129.072 30.7862C128.574 30.7862 128.32 30.48 128.32 29.8491C128.32 29.1587 128.548 28.4758 129.003 27.8134C129.116 27.4274 129.213 27.2344 129.283 27.2344C129.354 27.2344 129.37 27.2789 129.316 27.3847C129.248 27.5424 129.213 27.689 129.213 27.8134C130.122 28.3552 130.576 28.7839 130.576 29.0975ZM130.148 29.4556C130.148 29.413 129.973 29.2645 129.625 29.0103C129.283 28.7653 129.099 28.6336 129.072 28.6336C129.029 28.6336 128.958 28.7486 128.873 28.9917C128.793 29.2274 128.749 29.3944 128.749 29.4909C128.749 29.7526 128.88 29.8843 129.142 29.8843C129.255 29.8843 129.448 29.8324 129.728 29.7266C130.009 29.6227 130.148 29.5262 130.148 29.4556Z" fill="#403D3F"/>
<path d="M192.641 40.8338C192.641 41.4388 192.579 42.0549 192.438 42.6895C192.217 43.8586 192.015 44.4432 191.854 44.4432C191.763 44.4432 191.703 44.2019 191.672 43.7176C191.613 42.6895 191.572 42.105 191.572 41.9844C191.319 39.4643 190.675 35.2222 189.636 29.2654C189.345 27.6138 188.951 25.1439 188.467 21.8482C188.226 21.6366 188.124 21.4752 188.165 21.3638C188.267 21.0706 188.437 20.6382 188.669 20.0537C188.851 19.5694 188.972 19.3281 189.013 19.3281C189.092 19.3281 189.495 20.1038 190.221 21.6663C191.028 23.3995 191.381 24.307 191.269 24.3886C191.169 24.448 190.957 24.3274 190.646 23.9841C190.555 23.8839 190.321 23.6426 189.939 23.2585C190.403 25.7377 191.087 29.6996 191.995 35.1313C192.418 37.9631 192.641 39.867 192.641 40.8338Z" fill="#403D3F"/>
<path d="M164.249 33.1191L162.152 31.8906L161.144 33.7036L163.241 34.934L164.249 33.1191Z" fill="#403D3F"/>
<path d="M177.597 44.2818L179.694 45.5121L180.702 43.6972L178.607 42.4688L177.597 44.2818Z" fill="#403D3F"/>
<path d="M186.513 31.472C186.108 29.0244 185.687 26.5748 185.244 24.116C185.635 24.5094 185.867 24.76 185.949 24.8602C186.249 25.2053 186.452 25.3352 186.572 25.2851V25.2053C186.572 25.0235 186.22 24.1457 185.526 22.5628C184.839 20.991 184.436 20.2061 184.336 20.2061C184.275 20.2061 184.113 20.5382 183.831 21.1933C183.64 21.6981 183.52 22.0395 183.47 22.2214C183.438 22.3327 183.54 22.5034 183.752 22.7243C184.195 25.8084 184.557 28.0464 184.819 29.4567C185.526 33.5077 185.938 36.3804 186.069 38.0839C186.099 38.6091 185.817 39.0619 185.244 39.4348C184.743 39.7615 184.206 39.921 183.635 39.9359C183.607 39.9248 183.577 39.9173 183.544 39.9173C182.898 39.9173 182.395 39.7058 182.031 39.292C181.729 38.9412 181.638 38.3864 181.729 37.6404C181.759 37.3991 181.699 37.2767 181.567 37.2767C181.488 37.2767 181.245 37.3991 180.862 37.6404C179.773 38.3066 178.283 38.8484 176.388 39.292C174.614 39.7169 172.992 39.9173 171.53 39.9173C168.448 39.9173 166.523 39.4237 165.746 38.4476C165.302 37.8928 165.182 37.3583 165.384 36.8536C165.454 36.6736 165.404 36.5919 165.263 36.5919C165.031 36.5919 164.658 37.015 164.135 37.8631C163.369 39.1324 162.522 39.7577 161.615 39.7577C161.58 39.7577 161.55 39.7652 161.518 39.7689C160.878 39.6872 160.394 39.3959 160.073 38.8893C159.639 38.2027 159.256 36.8239 158.924 34.7566C158.481 31.9155 158.137 29.7982 157.896 28.4083C157.13 23.3088 156.465 19.731 155.92 17.6656C155.658 16.6376 155.497 16.1328 155.417 16.1328C155.385 16.1328 155.285 16.5058 155.124 17.2314C154.953 17.9662 154.871 18.4005 154.871 18.5304C154.871 18.4506 155.376 21.3028 156.363 27.0777C157.362 32.862 157.855 36.2282 157.855 37.1969C157.855 37.8816 157.553 38.4253 156.948 38.8076C155.658 39.6353 154.025 40.3998 152.071 41.105C149.701 41.9734 147.656 42.3965 145.923 42.3965C144.32 42.3965 143.06 41.9939 142.143 41.1978C141.215 40.3905 140.762 39.3513 140.762 38.0616C140.762 37.6682 140.865 37.0744 141.045 36.2894C141.226 35.6548 141.247 35.3226 141.126 35.3022C140.985 35.2001 140.813 35.4117 140.601 35.9053C140.078 37.0948 139.816 38.2342 139.816 39.3328C139.816 40.8842 140.299 42.1238 141.267 43.0627C142.275 44.0704 143.735 44.5733 145.641 44.5733C147.204 44.5733 149.198 44.1298 151.626 43.2632C153.916 42.3965 155.688 41.5095 156.948 40.5817C157.694 40.0287 158.137 39.1509 158.299 37.941C158.733 40.2885 159.642 41.5466 161.017 41.7415C161.051 41.7619 161.088 41.773 161.131 41.773C161.177 41.773 161.222 41.7656 161.266 41.7638C161.312 41.7656 161.357 41.7712 161.403 41.7712C161.483 41.7712 161.557 41.7563 161.626 41.7322C162.521 41.5967 163.241 41.0901 163.771 40.1994C164.244 39.4144 164.497 39.0322 164.517 39.0322C165.122 40.9658 167.297 41.9345 171.046 41.9345H171.047C172.701 41.9345 174.594 41.632 176.709 41.027C178.676 40.4722 180.107 39.8876 181.003 39.2734C181.154 41.0456 181.84 41.9345 183.059 41.9345C183.128 41.9345 183.191 41.9233 183.251 41.9085C184.483 41.8528 185.451 41.2905 186.149 40.2198C186.815 39.1713 187.118 37.9336 187.097 36.5121C187.097 35.3226 186.895 33.6488 186.513 31.472Z" fill="#403D3F"/>
<path d="M146.192 37.3521C147.805 37.2909 148.792 37.1498 149.134 36.9179C149.488 36.6766 149.891 36.2424 150.344 35.6189C150.898 34.8525 151.169 34.2067 151.169 33.6834C151.169 33.1601 150.757 32.8966 149.932 32.8966C149.104 32.8966 148.692 32.8168 148.692 32.6553C148.692 32.1005 149.115 31.759 149.941 31.6273C150.023 31.5976 150.162 31.3452 150.355 30.8609C150.555 30.3784 150.646 30.0555 150.646 29.8941C150.646 29.8124 150.587 29.7734 150.466 29.7734C150.032 29.7734 149.427 30.3079 148.66 31.3545C147.885 32.4141 147.502 33.2807 147.502 33.9655C147.502 34.6706 148.287 35.0343 149.861 35.0548C149.679 35.3758 149.145 35.7488 148.248 36.1626C147.562 36.4354 146.857 36.7267 146.131 37.0292C145.908 37.109 145.808 37.1814 145.808 37.2315C145.808 37.3428 145.94 37.3725 146.192 37.3521Z" fill="#403D3F"/>
<path d="M153.153 27.4974C152.986 28.0931 152.721 28.3937 152.353 28.3937C152.149 28.3937 151.997 28.3195 151.893 28.1673C151.68 27.824 151.574 27.4566 151.574 27.0613C151.574 26.7829 151.62 26.397 151.722 25.8996C151.834 25.291 152.038 24.6099 152.331 23.8472C152.442 23.5689 152.535 23.4297 152.6 23.4297C152.624 23.439 152.637 23.4705 152.637 23.5225C152.637 23.6097 152.606 23.7452 152.539 23.9233C152.418 24.2889 152.242 24.9811 152.01 25.998C151.908 26.564 151.932 26.9963 152.084 27.2895C152.186 27.4937 152.331 27.5957 152.52 27.5957C152.632 27.5957 152.73 27.5531 152.808 27.4603C152.856 27.3953 152.925 27.2933 153.018 27.1541C153.064 27.0427 153.101 26.9871 153.129 26.9871C153.24 26.9871 153.255 27.1541 153.153 27.4974Z" fill="#403D3F"/>
<path d="M176.282 37.4739C176.115 38.0696 175.85 38.3702 175.482 38.3702C175.278 38.3702 175.126 38.296 175.024 38.1439C174.809 37.8005 174.703 37.4331 174.703 37.0379C174.703 36.7595 174.749 36.3735 174.851 35.878C174.963 35.2675 175.167 34.5865 175.46 33.8238C175.571 33.5454 175.664 33.4062 175.729 33.4062C175.753 33.4155 175.766 33.4471 175.766 33.499C175.766 33.5863 175.735 33.7217 175.67 33.898C175.549 34.2654 175.371 34.9576 175.139 35.9745C175.037 36.5405 175.061 36.9729 175.213 37.2661C175.315 37.4702 175.46 37.5723 175.651 37.5723C175.761 37.5723 175.859 37.5296 175.939 37.4368C175.985 37.3719 176.054 37.2698 176.146 37.1306C176.193 37.0193 176.232 36.9636 176.26 36.9636C176.371 36.9636 176.384 37.1306 176.282 37.4739Z" fill="#403D3F"/>
<path d="M184.094 29.0156C184.094 29.075 184.035 29.2532 183.903 29.5556C183.777 29.8525 183.673 30.0158 183.592 30.0363C179.973 31.2499 177.1 32.2278 174.977 32.9831C170.951 34.3897 168.072 35.4846 166.332 36.2529C166.332 36.0617 166.406 35.839 166.562 35.5959C166.71 35.3584 166.849 35.2025 166.968 35.1283C171.943 33.0499 177.65 31.0142 184.094 29.0156Z" fill="#403D3F"/>
<path d="M152.397 22.3133C152.397 22.3708 152.354 22.4784 152.269 22.651C152.181 22.8162 152.131 22.9015 152.109 22.9015C151.873 22.8663 151.608 22.7865 151.305 22.6584C150.747 23.5325 149.591 24.4585 147.848 25.4271C147.704 25.4995 147.338 25.6498 146.75 25.8799C146.161 26.1026 145.853 26.2102 145.811 26.188C145.796 26.1527 146.096 25.9579 146.729 25.5997C148.895 24.4436 150.359 23.4322 151.105 22.5731C150.459 22.278 150.129 21.9273 150.129 21.5097C150.129 21.2815 150.266 20.9939 150.546 20.6487C150.817 20.3054 151.083 20.1328 151.335 20.1328C151.651 20.1328 151.808 20.4835 151.808 21.1943C151.808 21.4671 151.766 21.7398 151.665 22.0126C152.152 22.1704 152.397 22.2706 152.397 22.3133ZM151.42 21.9273C151.578 21.2592 151.478 20.9215 151.105 20.9215C150.775 20.9215 150.604 21.0588 150.604 21.339C150.604 21.5394 150.875 21.7324 151.42 21.9273Z" fill="#403D3F"/>
<path d="M173.808 20.6081C173.854 20.6619 173.854 20.8474 173.808 21.1703C173.778 21.2947 173.726 21.3002 173.644 21.1703C173.539 20.9773 173.399 20.8827 173.236 20.8827C172.999 20.8827 172.876 21.046 172.876 21.3893C172.846 22.0073 172.819 22.7403 172.783 23.5846C172.859 23.5846 173.015 23.7015 173.249 23.9353C173.481 24.1673 173.604 24.3195 173.62 24.3937C173.633 24.4902 173.62 24.6145 173.563 24.7648C173.511 24.9096 173.47 24.9838 173.435 24.9838C173.102 25.0172 172.754 25.1211 172.394 25.2918C172.034 25.457 171.857 25.6222 171.876 25.7799C172.464 29.1406 172.759 30.9777 172.759 31.2802C172.759 31.5066 172.737 31.6235 172.69 31.6235C172.661 31.6087 172.639 31.5474 172.62 31.4453C172.516 30.6975 172.329 29.6212 172.074 28.2201C171.818 26.9861 171.69 26.2123 171.69 25.8894C171.69 25.4978 171.805 25.149 172.05 24.8465C172.249 24.5867 172.492 24.4215 172.783 24.3659C172.707 24.299 172.59 24.2564 172.434 24.2564C172.334 24.2564 172.253 24.3324 172.189 24.4828C172.132 24.6349 172.086 24.7092 172.05 24.7092C172.037 24.7092 172.026 24.6683 172.026 24.5718C172.026 24.3807 172.074 24.1877 172.167 23.9836C172.271 23.7219 172.399 23.5846 172.549 23.5846C172.538 23.4603 172.44 23.2135 172.26 22.8572C172.061 22.4322 171.887 22.165 171.737 22.0629C171.707 22.2132 171.677 22.2949 171.642 22.2949C171.584 22.2949 171.421 22.2058 171.165 22.0147C170.909 21.8291 170.783 21.6992 170.783 21.6231C170.783 21.1147 170.851 20.8549 171.004 20.8549C171.236 20.8549 171.503 21.0126 171.805 21.3355C172.137 21.7066 172.416 22.2002 172.644 22.8034V22.7755C172.644 22.473 172.65 21.9794 172.666 21.2798C172.726 20.5672 172.9 20.2109 173.19 20.2109C173.383 20.2109 173.587 20.3408 173.808 20.6081Z" fill="#403D3F"/>
<path d="M163.825 26.0037C163.825 27.1227 163.327 27.6906 162.321 27.6906C161.822 27.6906 161.568 27.3844 161.568 26.7553C161.568 26.065 161.796 25.3821 162.251 24.7177C162.366 24.3318 162.461 24.1406 162.531 24.1406C162.602 24.1406 162.618 24.1852 162.566 24.2891C162.496 24.4468 162.461 24.5953 162.461 24.7177C163.37 25.2596 163.825 25.6883 163.825 26.0037ZM163.398 26.3619C163.398 26.3174 163.221 26.1689 162.873 25.9147C162.531 25.6716 162.347 25.5398 162.321 25.5398C162.277 25.5398 162.208 25.653 162.119 25.898C162.041 26.1336 161.997 26.3007 161.997 26.3972C161.997 26.6588 162.128 26.7906 162.39 26.7906C162.505 26.7906 162.696 26.7386 162.976 26.6328C163.257 26.5271 163.398 26.4324 163.398 26.3619Z" fill="#403D3F"/>
<path d="M114.713 58.4782H194.949V57.7656H114.713V58.4782Z" fill="#226842"/>
<path d="M1.00549 58.4782H81.2423V57.7656H1.00549V58.4782Z" fill="#226842"/>
<path d="M87.4572 56.3906C87.2772 55.7355 86.9562 54.9969 86.0766 54.9969C85.2953 54.9969 84.926 55.5481 84.926 56.1048C84.926 56.8248 85.4085 57.1718 86.2584 57.5838C87.1436 58.0161 88.064 58.4986 88.064 59.6213C88.064 60.7162 87.1306 61.5865 85.7073 61.5865C85.2749 61.5865 84.926 61.5104 84.6607 61.4195C84.3972 61.336 84.2506 61.2525 84.1448 61.2042C84.0743 61.002 83.9221 60.0741 83.859 59.5786L84.1726 59.4877C84.3471 60.1372 84.8574 61.2042 85.9244 61.2042C86.6834 61.2042 87.1306 60.7366 87.1306 60.0036C87.1306 59.265 86.572 58.9162 85.7759 58.4986C85.0522 58.1349 84.0539 57.6264 84.0539 56.5037C84.0539 55.485 84.8778 54.6406 86.238 54.6406C86.7335 54.6406 87.1993 54.7594 87.5908 54.8856C87.6316 55.2474 87.6818 55.6668 87.7727 56.3349" fill="#226842"/>
<path d="M91.9275 56.0435H91.9052C91.5712 56.886 91.2427 57.7582 90.9291 58.5821H92.8405L91.9275 56.0435ZM92.9518 61.4269V61.1337C93.5995 61.0428 93.6904 60.9519 93.5512 60.5418C93.4046 60.1372 93.2172 59.6269 92.9927 59.0405H90.7547C90.5802 59.51 90.4411 59.9071 90.3075 60.3098C90.0848 60.9315 90.1683 61.0502 90.957 61.1337V61.4269H88.6559V61.1337C89.3314 61.0298 89.4798 60.9593 89.8491 60.0518L92.0388 54.7316L92.4007 54.6406C93.0706 56.4481 93.7405 58.2611 94.4308 60.0518C94.7649 60.9519 94.9115 61.0632 95.5888 61.1337V61.4269" fill="#226842"/>
<path d="M102.061 61.4291V61.1359C102.905 61.0524 102.948 60.9838 102.933 59.9093L102.898 55.8157H102.857L100.304 61.3661H100.096L97.7446 55.9548H97.7167L97.5627 58.82C97.5219 59.6644 97.5219 60.0968 97.5423 60.5013C97.5627 60.9838 97.8077 61.0524 98.498 61.123V61.4291H96.0485V61.123C96.6497 61.0654 96.852 60.9207 96.9355 60.5161C96.9912 60.1599 97.0543 59.72 97.1378 58.6252L97.2918 56.5746C97.3827 55.2497 97.3196 55.194 96.3843 55.1031V54.7969H98.1621L100.526 59.811L102.926 54.7969H104.754V55.1031C103.841 55.1791 103.777 55.2144 103.813 56.2258L103.909 59.9093C103.944 60.9838 103.972 61.0524 104.88 61.1359V61.4291" fill="#226842"/>
<path d="M108.666 56.0435H108.645C108.311 56.886 107.983 57.7582 107.669 58.5821H109.581L108.666 56.0435ZM109.692 61.4269V61.1337C110.34 61.0428 110.431 60.9519 110.291 60.5418C110.145 60.1372 109.957 59.6269 109.733 59.0405H107.495C107.32 59.51 107.181 59.9071 107.048 60.3098C106.825 60.9315 106.909 61.0502 107.697 61.1337V61.4269H105.396V61.1337C106.072 61.0298 106.218 60.9593 106.587 60.0518L108.777 54.7316L109.141 54.6406C109.811 56.4481 110.479 58.2611 111.171 60.0518C111.505 60.9519 111.652 61.0632 112.329 61.1337V61.4269" fill="#226842"/>
<path d="M9.55228 69.9729C9.11804 68.3993 8.34793 66.6252 6.23985 66.6252C4.36559 66.6252 3.47857 67.9465 3.47857 69.2863C3.47857 71.0102 4.63281 71.8453 6.67408 72.8325C8.79886 73.8699 11.0071 75.0241 11.0071 77.7186C11.0071 80.3444 8.76546 82.4358 5.35282 82.4358C4.31549 82.4358 3.47857 82.2521 2.84392 82.0349C2.20741 81.8345 1.85668 81.6323 1.60617 81.5153C1.43915 81.031 1.06987 78.806 0.919556 77.6184L1.67297 77.4013C2.0905 78.9563 3.31155 81.5153 5.87242 81.5153C7.69472 81.5153 8.76546 80.3945 8.76546 78.639C8.76546 76.865 7.4275 76.028 5.51984 75.0241C3.78105 74.1538 1.38719 72.9327 1.38719 70.2401C1.38719 67.798 3.36166 65.7734 6.62398 65.7734C7.81163 65.7734 8.93247 66.0574 9.8696 66.358C9.96981 67.2283 10.0886 68.2322 10.3057 69.8374" fill="#403F3F"/>
<path d="M18.7539 76.1951C18.251 76.4474 17.2471 76.9151 16.7293 77.1489C15.7588 77.5683 15.2243 78.0526 15.2243 78.9564C15.2243 80.2442 16.1949 80.8139 16.9297 80.8139C17.5161 80.8139 18.3196 80.4446 18.7539 80.0104V76.1951ZM20.7116 82.3356C20.2422 82.3356 19.7077 82.1185 19.4405 81.8512C19.1046 81.5321 18.9543 81.198 18.8374 80.8139C17.8335 81.4486 16.6625 82.3356 15.9592 82.3356C14.1035 82.3356 12.8824 80.864 12.8824 79.3238C12.8824 78.1027 13.5505 77.366 14.907 76.9318C16.4955 76.4307 18.2176 75.7942 18.7539 75.3433V74.9072C18.7539 73.1517 17.9504 72.2146 16.7627 72.2146C16.3285 72.2146 15.9592 72.3816 15.7087 72.6488C15.3914 72.9662 15.1742 73.5192 14.9553 74.306C14.805 74.7402 14.5377 74.9072 14.1536 74.9072C13.6674 74.9072 13.0161 74.4062 13.0161 73.8198C13.0161 73.4523 13.3334 73.1517 13.8196 72.8158C14.5377 72.2981 16.2283 71.361 17.6163 71.0938C18.4032 71.0938 19.1213 71.2775 19.691 71.7117C20.6114 72.4818 20.8787 73.5024 20.8787 74.807V79.2069C20.8787 80.2943 21.3129 80.6636 21.7657 80.6636C22.0496 80.6636 22.3836 80.5448 22.6527 80.3945L22.9032 81.0477" fill="#403F3F"/>
<path d="M35.6857 81.4655C35.1178 81.5342 34.4145 81.6845 33.7279 81.8515C33.0431 82.0352 32.3732 82.2023 31.8555 82.3359L31.6885 82.2023V80.4616C31.1188 80.881 30.6326 81.2985 29.9311 81.7161C29.1944 82.1187 28.66 82.3359 27.9567 82.3359C26.216 82.3359 24.8112 81.2985 24.8112 78.6727V74.0038C24.8112 72.6658 24.6108 72.5489 23.9743 72.3986L23.3063 72.2316V71.6452C23.8073 71.6285 24.4772 71.545 25.1787 71.4782C25.882 71.3947 26.6187 71.2777 27.0529 71.2109C26.9861 71.9625 26.9861 73.1353 26.9861 74.7572V78.0529C26.9861 80.0942 28.0235 80.7307 29.1276 80.7307C29.9979 80.7307 30.885 80.3948 31.6885 79.6432V74.0038C31.6885 72.6658 31.4695 72.5155 30.6678 72.3819L29.7808 72.2316V71.6452C30.4823 71.6285 31.3693 71.545 32.1227 71.4448C32.8576 71.3947 33.4607 71.2777 33.8448 71.2109V79.274C33.8448 80.547 34.0471 80.714 35.0176 80.7808L35.6857 80.8142" fill="#403F3F"/>
<path d="M45.5288 73.3057C44.9275 72.452 43.957 72.0345 43.0032 72.0345C41.9491 72.0345 39.8745 72.9197 39.8745 76.4659C39.8745 79.3942 41.732 80.734 43.2704 80.734C44.0906 80.734 44.9275 80.3648 45.5288 79.9639V73.3057ZM49.5779 81.4188C49.0435 81.519 47.1024 81.8382 45.5288 82.3392V80.7674L44.0572 81.6359C43.07 82.2056 42.4168 82.3392 42.1495 82.3392C40.0749 82.3392 37.4156 80.5652 37.4156 77.1358C37.4156 73.7399 40.459 71.0974 43.9236 71.0974C44.2743 71.0974 44.9275 71.1642 45.5288 71.3646V67.9186C45.5288 66.3282 45.3618 66.2614 43.6044 66.1445V65.508C44.9943 65.341 46.6997 64.9736 47.687 64.6562V79.1604C47.687 80.5002 47.8707 80.6171 48.8746 80.7173L49.5779 80.7841" fill="#403F3F"/>
<path d="M51.8315 67.6995C51.8315 66.9145 52.4662 66.3281 53.2029 66.3281C53.9396 66.3281 54.5075 66.9145 54.5075 67.6995C54.5075 68.4028 53.9396 69.0226 53.1695 69.0226C52.4662 69.0226 51.8315 68.4028 51.8315 67.6995ZM50.527 82.0552V81.402C52.0821 81.2517 52.2658 81.1014 52.2658 79.3941V74.4765C52.2658 72.9363 52.1823 72.8194 50.7107 72.5688V71.9824C52.0487 71.7672 53.3031 71.4814 54.4239 71.0472V79.3941C54.4239 81.0847 54.591 81.2183 56.1813 81.402V82.0552" fill="#403F3F"/>
<path d="M76.1967 77.854C75.8627 79.025 75.1761 80.9494 74.7418 81.7362C74.0051 81.9013 71.7968 82.4376 69.9393 82.4376C63.4814 82.4376 60.6051 78.1714 60.6051 74.3078C60.6051 69.1545 64.7693 65.7734 70.5758 65.7734C72.7173 65.7734 74.5247 66.3598 75.2262 66.4767C75.4284 67.8667 75.6122 68.9189 75.7625 70.3088L75.0091 70.4758C74.3243 67.7665 72.6505 66.6957 69.9226 66.6957C65.6563 66.6957 63.3812 70.1418 63.3812 73.7882C63.3812 78.4052 66.2093 81.4838 70.1415 81.4838C72.734 81.4838 74.1554 80.0957 75.4767 77.5683" fill="#403F3F"/>
<path d="M82.8401 72.0142C81.7693 72.0142 80.6986 72.968 80.3479 75.0093C81.6691 75.0093 82.9904 75.0093 84.3784 74.9592C84.8145 74.9425 84.9648 74.8089 84.9648 74.4915C84.9648 73.2037 84.1613 72.0142 82.8568 72.0142H82.8401ZM87.1564 79.8786C85.5513 81.9014 83.7605 82.3374 82.957 82.3374C79.8951 82.3374 78.0895 79.8786 78.0895 77.1508C78.0895 75.5289 78.674 74.0554 79.678 72.968C80.7487 71.7971 82.1034 71.0938 83.4265 71.0938H83.4432C85.568 71.0938 87.2566 72.9179 87.2566 74.859C87.2566 75.3285 87.123 75.5456 86.6721 75.6458C86.2193 75.7126 83.1073 75.9631 80.2291 76.0633C80.2811 79.2254 82.1368 80.5634 83.8607 80.5634C84.8813 80.5634 85.8352 80.1793 86.7389 79.3423" fill="#403F3F"/>
<path d="M96.3611 82.057V81.4038C97.7825 81.2535 97.9514 81.0531 97.9514 79.3292V75.3487C97.9514 73.6414 97.2648 72.6208 95.7413 72.6208C94.8041 72.6208 93.8837 73.2072 93.1322 73.8252V79.4795C93.1322 81.1533 93.2658 81.2535 94.7058 81.4038V82.057H89.1832V81.4038C90.8404 81.2034 90.974 81.0865 90.974 79.4461V74.5285C90.974 72.9381 90.807 72.8398 89.5006 72.6041V71.9843C90.6901 71.8006 91.9779 71.4833 93.1322 71.0156V72.9882C93.6332 72.6208 94.1695 72.2367 94.8041 71.8173C95.5075 71.3664 96.1273 71.0991 96.864 71.0991C98.8366 71.0991 100.091 72.4872 100.091 74.9126V79.4795C100.091 81.1533 100.241 81.2201 101.681 81.4038V82.057" fill="#403F3F"/>
<path d="M108.134 82.0018C107.683 82.2523 107.299 82.3358 107.08 82.3358C105.425 82.3358 104.504 81.3987 104.504 79.4242V72.3985H102.814L102.697 72.1146L103.384 71.3779H104.504V69.6038L106.329 67.8984L106.663 67.9652V71.3779H109.441C109.691 71.6451 109.608 72.1814 109.274 72.3985H106.663V78.5706C106.663 80.5469 107.516 80.8809 108.134 80.8809C108.721 80.8809 109.274 80.6452 109.641 80.4615L109.858 81.1314" fill="#403F3F"/>
<path d="M116.147 73.7416C116.967 72.4037 117.988 71.0991 119.142 71.0991C120.046 71.0991 120.647 71.7505 120.647 72.3536C120.647 72.9214 120.313 73.4243 119.776 73.6748C119.476 73.7918 119.259 73.7416 119.107 73.608C118.722 73.2573 118.438 73.107 118.019 73.107C117.384 73.107 116.631 73.8252 116.097 75.1297V79.4962C116.097 81.1032 116.214 81.2535 118.155 81.4038V82.057H112.214V81.4038C113.721 81.2535 113.938 81.1032 113.938 79.4962V74.4283C113.938 72.8713 113.805 72.7711 112.415 72.5707V72.0177C113.655 71.8173 114.825 71.5334 116.097 71.0156V73.7416" fill="#403F3F"/>
<path d="M128.26 76.1951C127.757 76.4474 126.755 76.9151 126.235 77.1489C125.265 77.5683 124.73 78.0526 124.73 78.9564C124.73 80.2442 125.701 80.8139 126.435 80.8139C127.022 80.8139 127.825 80.4446 128.26 80.0104V76.1951ZM130.217 82.3356C129.748 82.3356 129.213 82.1185 128.946 81.8512C128.61 81.5321 128.46 81.198 128.343 80.8139C127.339 81.4486 126.168 82.3356 125.467 82.3356C123.609 82.3356 122.386 80.864 122.386 79.3238C122.386 78.1027 123.056 77.366 124.411 76.9318C126.001 76.4307 127.723 75.7942 128.26 75.3433V74.9072C128.26 73.1517 127.456 72.2146 126.268 72.2146C125.834 72.2146 125.467 72.3816 125.214 72.6488C124.897 72.9662 124.68 73.5192 124.461 74.306C124.311 74.7402 124.043 74.9072 123.659 74.9072C123.173 74.9072 122.522 74.4062 122.522 73.8198C122.522 73.4523 122.839 73.1517 123.323 72.8158C124.043 72.2981 125.732 71.361 127.122 71.0938C127.909 71.0938 128.627 71.2775 129.197 71.7117C130.117 72.4818 130.384 73.5024 130.384 74.807V79.2069C130.384 80.2943 130.819 80.6636 131.271 80.6636C131.555 80.6636 131.889 80.5448 132.158 80.3945L132.409 81.0477" fill="#403F3F"/>
<path d="M132.644 82.0553V81.4021C134.199 81.2184 134.416 81.0848 134.416 79.4443V67.9687C134.416 66.3115 134.249 66.2614 132.711 66.1111V65.508C134.049 65.3577 135.654 64.9402 136.558 64.6562V79.4443C136.558 81.1015 136.777 81.2518 138.399 81.4021V82.0553" fill="#403F3F"/>
<path d="M147.604 78.9138C147.604 80.738 148.088 81.2056 149.662 81.1889C151.62 81.1555 153.394 80.1516 153.394 77.6259C153.394 75.1653 151.687 74.0444 148.641 74.0444H147.604V78.9138ZM148.691 73.1927C151.403 73.1927 152.54 72.1368 152.54 70.1141C152.54 68.3567 151.553 66.9687 149.276 66.9687C148.675 66.9687 148.107 67.1023 147.888 67.2693C147.671 67.4196 147.604 67.7035 147.604 68.4569V73.1927H148.691ZM151.57 73.51C154.129 73.844 156.086 74.9148 156.086 77.3736C156.086 79.014 155.183 80.2852 153.711 81.0887C152.423 81.7753 150.716 82.0592 148.725 82.0592H142.97V81.3559C145.112 81.2056 145.279 81.0386 145.279 78.9806V69.2604C145.279 67.1691 145.162 67.0188 143.187 66.8852V66.1484H149.812C151.72 66.1484 152.807 66.4324 153.644 67.0021C154.515 67.5866 155.049 68.6573 155.049 69.7949C155.049 72.1219 153.025 73.0739 151.57 73.4265" fill="#403F3F"/>
<path d="M164.084 76.1951C163.581 76.4474 162.577 76.9151 162.059 77.1489C161.089 77.5683 160.552 78.0526 160.552 78.9564C160.552 80.2442 161.523 80.8139 162.26 80.8139C162.846 80.8139 163.65 80.4446 164.084 80.0104V76.1951ZM166.042 82.3356C165.572 82.3356 165.038 82.1185 164.769 81.8512C164.435 81.5321 164.284 81.198 164.167 80.8139C163.163 81.4486 161.992 82.3356 161.289 82.3356C159.433 82.3356 158.211 80.864 158.211 79.3238C158.211 78.1027 158.88 77.366 160.235 76.9318C161.825 76.4307 163.548 75.7942 164.084 75.3433V74.9072C164.084 73.1517 163.28 72.2146 162.093 72.2146C161.658 72.2146 161.289 72.3816 161.039 72.6488C160.721 72.9662 160.504 73.5192 160.285 74.306C160.135 74.7402 159.868 74.9072 159.482 74.9072C158.997 74.9072 158.346 74.4062 158.346 73.8198C158.346 73.4523 158.663 73.1517 159.148 72.8158C159.868 72.2981 161.558 71.361 162.946 71.0938C163.733 71.0938 164.451 71.2775 165.021 71.7117C165.94 72.4818 166.209 73.5024 166.209 74.807V79.2069C166.209 80.2943 166.643 80.6636 167.096 80.6636C167.38 80.6636 167.714 80.5448 167.981 80.3945L168.233 81.0477" fill="#403F3F"/>
<path d="M176.064 82.057V81.4038C177.486 81.2535 177.653 81.0531 177.653 79.3292V75.3487C177.653 73.6414 176.966 72.6208 175.444 72.6208C174.507 72.6208 173.587 73.2072 172.835 73.8252V79.4795C172.835 81.1533 172.967 81.2535 174.407 81.4038V82.057H168.886V81.4038C170.542 81.2034 170.675 81.0865 170.675 79.4461V74.5285C170.675 72.9381 170.508 72.8398 169.204 72.6041V71.9843C170.391 71.8006 171.679 71.4833 172.835 71.0156V72.9882C173.336 72.6208 173.871 72.2367 174.507 71.8173C175.211 71.3664 175.829 71.0991 176.565 71.0991C178.54 71.0991 179.794 72.4872 179.794 74.9126V79.4795C179.794 81.1533 179.944 81.2201 181.383 81.4038V82.057" fill="#403F3F"/>
<path d="M191.422 82.1054C190.284 80.8677 188.729 78.8431 187.425 77.2862C187.122 76.9187 186.922 76.7851 186.705 76.7851C186.604 76.7684 186.486 76.7851 186.337 76.8185V79.4777C186.337 81.1015 186.554 81.2184 188.143 81.4021V82.0553H182.388V81.4021C184.044 81.2184 184.211 81.0514 184.211 79.4777V67.9687C184.211 66.3783 184.06 66.2447 182.555 66.0944V65.508C183.726 65.3911 185.233 64.9903 186.337 64.6562V76.182C187.072 76.0317 187.473 75.6977 187.876 75.3302C188.412 74.8106 189.163 73.8234 189.583 73.1888C190.084 72.452 189.984 72.2516 188.846 72.118V71.4481L194.066 71.231V71.8656C192.376 72.1347 191.741 72.4019 190.787 73.2871C190.134 73.9069 189.716 74.3764 188.696 75.5474C189.214 76.2989 191.789 79.2272 192.576 80.0641C193.43 80.9512 194.133 81.352 195.035 81.4021V82.0553" fill="#403F3F"/>
<path d="M245.365 66.3056H244.483C244.511 65.1717 245.365 65.2237 245.365 65.2237V66.3056ZM247.117 60.1094C246.306 60.7273 245.491 61.3434 244.602 61.8426C244.812 62.082 245.035 62.3214 245.252 62.5608C245.252 62.8335 245.254 63.11 245.259 63.3865C244.543 63.6538 243.68 63.8282 243.262 64.5352C242.687 65.5039 242.891 66.673 242.836 67.7437C244.264 67.7474 245.69 67.7549 247.119 67.7419C247.107 65.1959 247.074 62.6535 247.117 60.1094Z" fill="#226842"/>
<path d="M267.616 66.485C267.177 66.485 266.82 66.1287 266.82 65.6889C266.82 65.2491 267.177 64.8928 267.616 64.8928C268.056 64.8928 268.413 65.2491 268.413 65.6889C268.413 66.1287 268.056 66.485 267.616 66.485ZM269.984 65.0821C269.539 64.2433 268.852 63.2895 267.795 63.3099C266.986 63.2431 266.325 63.8295 265.85 64.4122C265.237 65.4031 265.098 66.6112 265.25 67.7469C266.073 67.9417 266.982 67.719 267.839 67.8452C267.533 69.2222 265.956 69.4226 264.783 69.2686C264.8 69.391 264.833 69.6378 264.85 69.7603C265.49 70.0238 266.152 70.2558 266.845 70.3486C269.342 70.3616 271.166 67.2718 269.984 65.0821Z" fill="#226842"/>
<path d="M258.722 61.6016H256.928L260.931 65.9717H257.36V65.9328C257.364 65.7713 257.345 65.6154 257.318 65.4633C257.321 65.506 257.327 65.5486 257.327 65.5913L257.303 65.4206C257.307 65.4336 257.312 65.4484 257.318 65.4633C257.307 65.402 257.307 65.3445 257.297 65.287C257.151 64.2515 256.277 63.4591 255.208 63.4387C255.198 63.4331 255.184 63.4331 255.169 63.4331H250.685C250.448 63.216 250.205 62.9933 249.967 62.7836C249.468 63.6707 248.852 64.489 248.234 65.2963C248.633 65.2926 249.154 65.287 249.745 65.2833C250.053 65.2833 250.372 65.2777 250.717 65.2777H255.226V65.9717H248.234V67.7402H249.529C253.424 67.7625 258.531 67.7384 262.558 67.7421L263.104 68.347H264.885L259.483 61.9523C259.292 61.7296 259.012 61.6016 258.722 61.6016Z" fill="#226842"/>
<path d="M267.828 42.3551H266.446V41.4476L266.826 40.9726H267.448L267.828 41.4476V42.3551ZM269.58 40.9521C269.458 40.5791 269.15 40.3138 268.957 39.9816C269.163 39.5084 269.693 39.1651 269.63 38.5898C269.628 38.2966 269.625 38.0034 269.623 37.7121C269.634 36.6766 269.614 35.6411 269.621 34.6056C269.623 34.3199 269.623 34.0359 269.632 33.7539C269.71 33.7131 269.821 33.6574 269.938 33.598C270.011 33.5609 270.083 33.5256 270.154 33.4904C270.17 33.4811 270.187 33.4737 270.202 33.4644C270.254 33.4384 270.302 33.4143 270.339 33.3957C270.091 33.2064 269.857 32.9986 269.634 32.7833C269.437 32.5959 269.25 32.3992 269.064 32.2007C268.933 32.0596 268.801 31.9167 268.669 31.7738C268.573 31.6662 268.474 31.5604 268.376 31.4565C268.185 31.2505 267.992 31.0464 267.789 30.8516C267.78 31.6402 267.775 32.4308 267.769 33.2213C267.771 33.6815 267.773 34.1436 267.773 34.6056C267.775 35.2236 267.776 35.8415 267.775 36.4595C267.762 36.8844 267.793 37.3558 267.775 37.816C267.76 38.1797 267.715 38.536 267.589 38.8571C267.532 38.8608 267.461 38.8608 267.387 38.8589H267.378C267.3 38.8571 267.216 38.8552 267.138 38.8552V38.8589C266.915 38.8608 266.73 38.8589 266.685 38.8571C266.559 38.536 266.515 38.1797 266.5 37.816C266.481 37.3558 266.513 36.8844 266.5 36.4595C266.498 35.8415 266.5 35.2236 266.502 34.6056C266.502 34.1436 266.503 33.6815 266.505 33.2213C266.5 32.4308 266.492 31.6402 266.485 30.8516C266.283 31.0464 266.09 31.2505 265.899 31.4565C265.8 31.5604 265.702 31.6662 265.605 31.7738C265.474 31.9167 265.342 32.0596 265.21 32.2007C265.024 32.3992 264.837 32.5959 264.64 32.7833C264.418 32.9986 264.184 33.2064 263.935 33.3957C263.972 33.4143 264.021 33.4384 264.073 33.4644C264.087 33.4737 264.104 33.4811 264.121 33.4904C264.191 33.5256 264.264 33.5609 264.336 33.598C264.451 33.6574 264.564 33.7131 264.642 33.7539C264.65 34.0359 264.651 34.3199 264.653 34.6056C264.661 35.6411 264.64 36.6766 264.651 37.7121C264.65 38.0034 264.646 38.2966 264.644 38.5898C264.581 39.1651 265.11 39.5084 265.318 39.9816C265.125 40.3138 264.817 40.5791 264.694 40.9521C264.611 41.9728 264.698 42.9971 264.642 44.0178H269.632C269.577 42.9971 269.662 41.9728 269.58 40.9521Z" fill="#226842"/>
<path d="M261.601 34.8086C261.516 34.1647 262.123 33.801 262.475 33.363C261.82 33.016 261.15 32.6207 260.759 31.9731C260.495 31.5222 260.157 31.1269 259.734 30.8281C259.753 35.2243 259.697 39.6223 259.764 44.0166H261.618C261.616 40.9473 261.59 37.8779 261.601 34.8086Z" fill="#226842"/>
<path d="M244.507 42.2289C244.511 42.2196 244.515 42.2085 244.519 42.1992C244.617 41.2268 245.389 41.2713 245.389 41.2713V42.3532H244.507C244.509 42.3087 244.513 42.2697 244.517 42.227C244.515 42.2289 244.511 42.2289 244.507 42.2289ZM258.034 44.0159C258.1 40.9206 257.997 37.4282 258.017 34.37C257.93 33.791 258.418 33.4477 258.774 33.0914C257.681 32.5533 257.158 31.3972 256.196 30.7031C256.215 34.511 256.222 38.3226 256.185 42.1342C253.155 42.1175 250.128 42.1287 247.104 42.1769C247.144 40.1876 247.078 38.1983 247.126 36.2053C246.324 36.8566 245.439 37.3799 244.565 37.9181C244.806 38.1556 245.055 38.3894 245.309 38.6195C245.296 38.9294 245.278 39.2412 245.246 39.553C244.585 39.8554 243.787 40.0225 243.34 40.6515C242.722 41.494 242.863 42.9248 242.869 44.0159" fill="#226842"/>
<path d="M264.442 57.0738H263.057V56.1645L263.438 55.6894H264.061L264.442 56.1645V57.0738ZM266.193 55.669C266.069 55.2979 265.761 55.0325 265.57 54.7004C265.776 54.2272 266.307 53.8839 266.242 53.3086C266.242 53.0154 266.236 52.7222 266.234 52.429C266.247 51.3935 266.227 50.358 266.232 49.3225C266.234 49.0386 266.236 48.7547 266.244 48.4708C266.321 48.4318 266.435 48.3743 266.55 48.3167C266.624 48.2796 266.696 48.2425 266.765 48.2091C266.782 48.1998 266.798 48.1906 266.815 48.1831C266.865 48.1572 266.913 48.133 266.952 48.1145C266.702 47.9252 266.47 47.7174 266.245 47.5021C266.051 47.3147 265.861 47.118 265.678 46.9194C265.544 46.7765 265.412 46.6336 265.282 46.4907C265.184 46.385 265.086 46.2792 264.987 46.1734C264.796 45.9693 264.603 45.7652 264.401 45.5703C264.393 46.359 264.388 47.1495 264.38 47.9382C264.382 48.4003 264.384 48.8623 264.386 49.3225C264.386 49.9405 264.388 50.5603 264.388 51.1782C264.375 51.6032 264.405 52.0745 264.386 52.5329C264.371 52.8966 264.327 53.2548 264.2 53.5758C264.145 53.5777 264.074 53.5777 264 53.5777H263.989C263.911 53.5758 263.829 53.5739 263.749 53.5721V53.5777C263.527 53.5777 263.341 53.5777 263.299 53.5758C263.17 53.2548 263.126 52.8966 263.111 52.5329C263.094 52.0745 263.124 51.6032 263.111 51.1782C263.109 50.5603 263.111 49.9405 263.113 49.3225C263.115 48.8623 263.115 48.4003 263.119 47.9382C263.111 47.1495 263.106 46.359 263.098 45.5703C262.896 45.7652 262.703 45.9693 262.51 46.1734C262.411 46.2792 262.313 46.385 262.217 46.4907C262.087 46.6336 261.955 46.7765 261.821 46.9194C261.636 47.118 261.448 47.3147 261.254 47.5021C261.029 47.7174 260.797 47.9252 260.547 48.1145C260.585 48.133 260.634 48.1572 260.684 48.1831C260.701 48.1906 260.715 48.1998 260.734 48.2091C260.803 48.2425 260.875 48.2796 260.947 48.3167C261.064 48.3743 261.176 48.4318 261.255 48.4708C261.263 48.7547 261.263 49.0386 261.265 49.3225C261.272 50.358 261.252 51.3935 261.263 52.429C261.261 52.7222 261.257 53.0154 261.257 53.3086C261.192 53.8839 261.723 54.2272 261.929 54.7004C261.738 55.0325 261.428 55.2979 261.305 55.669C261.224 56.6915 261.309 57.7159 261.254 58.7365H266.245C266.188 57.7159 266.275 56.6915 266.193 55.669Z" fill="#226842"/>
<path d="M258.169 49.4778C258.106 48.9471 258.581 48.6502 258.93 48.3551C258.971 48.279 259.053 48.125 259.095 48.0489C257.781 47.6982 257.401 46.2489 256.304 45.6328C256.33 50.0011 256.458 54.3676 256.36 58.7378H258.21C258.236 55.6517 258.242 52.5639 258.169 49.4778Z" fill="#226842"/>
<path d="M269.437 49.5274C269.351 48.8834 269.958 48.5197 270.311 48.0818C269.658 47.7347 268.986 47.3395 268.594 46.69C268.331 46.2409 267.995 45.8456 267.57 45.5469C267.588 49.943 267.533 54.341 267.601 58.7353H269.453C269.453 55.666 269.426 52.5967 269.437 49.5274Z" fill="#226842"/>
<path d="M245.409 57.1982H244.528C244.556 56.0643 245.409 56.1181 245.409 56.1181V57.1982ZM253.87 46.6967C253.599 46.2235 253.281 45.7819 252.873 45.4219C252.828 45.8413 252.804 46.2625 252.821 46.6856C252.908 50.1187 252.769 53.5517 252.845 56.9847C252.055 56.9847 251.262 57.0107 250.477 57.0014C250.5 54.4257 250.455 51.85 250.479 49.2743C250.396 48.7157 250.913 48.3799 251.223 47.9976C250.173 47.3778 249.516 46.3423 248.631 45.5388C248.707 49.3578 248.69 53.1806 248.631 56.9996C248.134 57.0052 247.636 57.0126 247.144 57.0182C247.161 55.014 247.161 53.0117 247.135 51.0094C246.332 51.6348 245.524 52.2471 244.636 52.7482C245.207 53.136 245.396 53.7354 245.328 54.4072C244.61 54.6688 243.78 54.8618 243.333 55.5429C242.719 56.4911 242.915 57.6658 242.895 58.7347H254.452C254.512 58.7347 254.569 58.7347 254.629 58.7328C254.571 56.2981 254.484 53.8616 254.601 51.4232C254.643 50.5752 254.424 49.7067 254.667 48.8735C254.848 48.5098 255.187 48.263 255.46 47.9679C254.892 47.6005 254.209 47.3128 253.87 46.6967Z" fill="#226842"/>
<path d="M217.65 32.8661C219.443 28.7316 221.807 24.8198 224.826 21.4609C225.366 21.6651 225.733 22.1438 226.142 22.5317C225.516 23.4335 224.616 24.1164 224.112 25.1111C222.967 26.475 222.174 28.0802 221.202 29.5648C220.729 30.4592 220.289 31.3759 219.86 32.2964C220.419 32.5784 221.371 32.9793 221.729 32.2054C222.92 29.6706 224.433 27.2934 226.201 25.1241C226.548 24.6231 226.871 24.0756 227.411 23.7509C227.626 24.7214 227.983 25.6567 228.469 26.5233C227.949 26.5938 227.302 26.3451 226.888 26.7497C225.193 28.7928 224.017 31.1792 222.751 33.4933C222.46 34.1781 221.664 34.4397 220.975 34.2801C219.73 34.1855 218.782 33.291 217.65 32.8661Z" fill="#226842"/>
<path d="M241.176 9.99397C242.013 9.59499 242.904 9.3352 243.776 9.02344C244.635 10.4635 243.753 12.0074 243.202 13.3676C244.55 14.5516 246.511 15.1807 247.159 17.0159C247.812 18.6601 246.35 20.0092 245.947 21.5049C243.83 19.8069 241.525 18.3743 239.333 16.771C238.851 16.3497 238.329 17.0586 237.836 17.157C237.403 16.9009 237.051 16.5353 236.719 16.1716C236.654 16.205 236.518 16.2737 236.451 16.3089C237.385 15.7504 238.229 15.0229 239.263 14.6406C240.263 14.9821 240.846 15.9805 241.779 16.4537C243.011 17.144 244.028 18.5098 245.559 18.469C245.446 17.8417 245.307 17.1774 244.852 16.6986C243.666 15.6093 242.258 14.8077 240.879 13.9949C241.163 13.1765 241.824 12.5122 241.863 11.5973C240.103 12.4658 238.225 13.1153 236.607 14.2435C235.134 14.9969 233.874 16.0732 232.48 16.951C231.933 17.337 231.504 17.8621 230.964 18.2537C229.862 19.009 229.054 20.1057 227.969 20.8777C227.768 20.3265 227.1 19.7308 227.34 19.1463C230.192 16.4128 233.33 13.9355 236.832 12.0816C238.181 11.1872 239.743 10.7214 241.176 9.99397Z" fill="#226842"/>
<path d="M238.886 76.622C239.396 76.0412 239.513 75.0706 240.257 74.7422C240.604 75.9354 240.755 77.1787 241.146 78.3627C240.681 78.5334 240.141 78.5761 239.747 78.8878C238.29 81.2334 236.795 83.5623 235.366 85.9246C234.852 86.0768 234.347 85.6184 233.894 85.4125C233.458 85.2232 233.792 84.7426 233.967 84.4865C234.798 83.3341 235.505 82.1038 236.195 80.8641C237.158 79.4909 237.834 77.9377 238.886 76.622Z" fill="#226842"/>
<path d="M218.123 37.931C218.773 37.931 219.3 38.458 219.3 39.1075C219.3 39.757 218.773 40.2841 218.123 40.2841C217.474 40.2841 216.947 39.757 216.947 39.1075C216.947 38.458 217.474 37.931 218.123 37.931ZM236.822 71.7883C236.744 71.8013 236.591 71.8291 236.513 71.8421C234.697 74.8446 232.672 77.7191 230.874 80.7346C230.453 80.8088 230.173 80.4618 229.892 80.2206C228.684 79.0682 227.404 77.9863 226.342 76.6948C227.534 75.7706 228.601 74.698 229.89 73.9075C229.263 73.4454 228.554 73.1114 227.925 72.6586C227.426 73.8926 226.135 74.4753 225.21 75.3419C224.227 74.1228 223.182 72.9165 222.488 71.5062C223.77 70.8641 224.875 69.9344 226.179 69.335C226.177 69.2645 226.172 69.1198 226.17 69.0493C225.659 68.5631 225.116 68.1251 224.615 67.6371C223.887 68.7802 222.609 69.3313 221.443 69.914C220.653 68.7839 220.291 67.4218 219.497 66.2973C219.56 66.223 219.684 66.082 219.749 66.0096C221.133 65.5253 222.44 64.8591 223.776 64.2523C223.152 63.7735 222.627 63.1964 222.193 62.545C221.416 63.6603 220.005 63.9758 218.819 64.475C217.517 61.3611 216.76 58.0505 216.364 54.701C217.934 54.9793 219.204 55.9721 220.653 56.553C220.567 55.8237 220.538 55.0888 220.404 54.3688C219.487 53.9309 218.458 53.6859 217.494 53.3389C218.365 52.7822 219.35 52.4649 220.295 52.0622C220.271 51.2624 220.232 50.4644 220.146 49.6683C219.391 50.0358 218.868 50.7205 218.146 51.1325C217.465 51.5259 216.786 51.91 216.106 52.2979C215.913 50.9061 215.952 49.4995 215.982 48.0966C215.962 45.9829 216.518 43.9324 216.719 41.8391C217.84 41.8595 219.064 41.8614 219.972 41.0931C220.605 40.5216 221.345 40.0911 221.98 39.5214C221.644 39.4787 221.31 39.4434 220.978 39.4156C220.573 38.5397 220.263 37.5024 219.371 36.992C218.806 36.6153 218.046 36.3722 217.368 36.4947C217.055 36.5504 216.758 36.6766 216.509 36.9197C215.776 37.4133 215.644 38.3448 215.444 39.1354C215.405 39.1168 215.362 39.0983 215.323 39.0797C214.805 38.8422 214.245 38.6028 213.989 38.0591C213.462 37.1312 213.839 36.0493 213.824 35.0547C212.851 36.0382 212.072 37.5339 212.673 38.9164C212.996 39.9853 213.98 40.568 214.833 41.1841C214.275 43.9231 213.98 46.7586 213.98 49.6628C213.98 63.5991 220.753 75.9506 231.186 83.611L231.39 83.2899C231.425 83.2472 231.457 83.2008 231.483 83.1452C231.601 82.954 231.722 82.7666 231.841 82.5755C233.29 80.2596 234.797 77.9789 236.248 75.663C236.528 75.2343 237.104 75.2362 237.536 75.0413C237.337 73.9465 237.079 72.8683 236.822 71.7883Z" fill="#226842"/>
<path d="M294.072 64.5155C293.519 65.2615 294.241 66.0446 294.869 66.4306C295.308 66.2932 295.869 66.3526 296.21 65.9815C296.652 65.6456 296.581 65.0072 296.464 64.534C296.034 63.5654 294.52 63.5579 294.072 64.5155ZM285.564 57.0518C286.314 56.2762 287.095 55.5302 287.861 54.7656C288.47 55.0254 288.969 55.5914 289.695 55.5302C292.671 55.5265 295.633 55.918 298.615 55.9069C298.374 58.2525 297.786 60.5424 296.999 62.7618C297.504 63.3 298.166 63.8419 298.166 64.6491C298.32 65.6604 297.943 66.7108 297.153 67.3621C296.55 67.9504 295.663 67.9504 294.889 68.1155C294.377 69.4052 293.558 70.5409 292.909 71.762C293.75 72.5191 294.93 73.1445 295.11 74.3711C295.186 75.3472 294.763 76.6146 293.714 76.8819C293.677 76.2732 293.705 75.6608 293.696 75.0503C292.755 74.076 291.547 73.4099 290.331 72.8457C289.764 72.5414 289.114 72.5488 288.496 72.5507C288.529 71.5504 288.504 70.5484 288.359 69.5556C289.3 70.0269 290.151 70.682 291.157 71.029C292.024 69.9787 292.61 68.6908 293.256 67.4846C292.293 66.3675 291.825 64.5637 292.872 63.3445C293.397 62.4185 294.481 62.1754 295.44 61.9713C295.91 60.5832 296.286 59.1692 296.58 57.731C294.776 57.4193 292.95 57.3209 291.127 57.2151C289.279 57.0055 287.418 57.0092 285.564 57.0518Z" fill="#226842"/>
<path d="M243.212 80.2399C243.921 78.7795 245.735 78.8314 246.958 78.0391C247.168 79.0727 247.304 80.1267 247.664 81.1232C248.228 82.8026 248.461 84.573 249.011 86.2561C249.387 86.3823 249.994 86.167 250.239 86.5846C250.429 87.0745 250.466 87.6089 250.575 88.1229C249.503 88.0042 248.458 87.7351 247.394 87.5681C246.882 85.2373 246.637 82.8045 245.613 80.6241C245.478 80.6352 245.21 80.6575 245.077 80.6667C244.347 81.9861 244.824 83.4707 245.195 84.8161C245.411 85.5881 245.611 86.3656 245.875 87.1227C245.16 87.2749 244.472 87.5124 243.807 87.8149C243.807 87.9114 243.806 88.1081 243.806 88.2064C246.331 89.1788 249.027 89.5815 251.692 89.9694C254.53 90.2032 257.391 90.4036 260.234 90.0677C260.104 90.682 259.932 91.2851 259.744 91.8844C256.539 92.1053 253.303 92.0218 250.132 91.5059C246.789 91.1644 243.635 89.9824 240.48 88.9042C240.749 87.2693 242.406 86.6384 243.635 85.8423C243.338 84.0107 242.401 82.0659 243.212 80.2399Z" fill="#226842"/>
<path d="M286.097 53.359C287.131 52.5314 287.912 51.4217 289.042 50.7109C289.508 50.9763 289.835 51.5237 290.397 51.5943C293.262 51.7167 296.144 51.6555 299 51.945C298.978 52.5184 298.946 53.0899 298.915 53.6615C294.641 53.6095 290.367 53.4407 286.097 53.359Z" fill="#226842"/>
<path d="M285.306 74.2403C286.139 73.73 287.208 73.9415 287.932 74.5465C288.602 75.0253 289.275 75.556 289.68 76.2946C288.383 78.1094 286.698 79.6033 285.13 81.1769C282.443 83.5596 279.466 85.6046 276.302 87.2989C274.441 88.1209 272.643 89.1082 270.674 89.6612C268.898 90.1492 267.185 90.8952 265.342 91.1142C265.417 92.1051 265.771 93.239 265.148 94.1278C264.595 94.6734 263.765 94.7959 263.027 94.6679C263.294 94.3747 263.598 94.087 263.765 93.7177C263.954 92.621 263.555 91.5429 263.359 90.4758C263.175 89.6575 262.644 88.9894 262.088 88.3937C262.91 87.863 263.542 87.1152 264.186 86.3914C264.468 87.4084 264.776 88.4216 264.975 89.4589C267.426 88.9894 269.748 88.0783 272.105 87.2803C277.243 85.085 282.023 81.9823 285.898 77.9313C286.403 77.3375 286.961 76.7845 287.579 76.3038C287.147 75.9457 286.62 75.3945 286.004 75.6859C285.48 76.0144 285.08 76.4987 284.621 76.9032C282.012 79.6404 278.926 81.8914 275.653 83.7693C274.638 84.2574 273.63 84.764 272.626 85.2706C271.373 85.8904 269.985 86.1502 268.733 86.757C268.406 86.8925 268.052 86.9277 267.718 87.0001C268.599 85.8496 269.119 84.4875 269.898 83.2701C270.451 82.3423 270.819 81.3087 271.411 80.3994C271.399 81.8338 270.7 83.1198 270.305 84.4671C274.855 82.7635 279.002 80.0412 282.521 76.701C283.525 75.9605 284.098 74.7172 285.306 74.2403Z" fill="#226842"/>
<path d="M263.162 83.5686C263.162 82.9952 262.696 82.5312 262.125 82.5312C261.551 82.5312 261.086 82.9952 261.086 83.5686C261.086 84.142 261.551 84.6059 262.125 84.6059C262.696 84.6059 263.162 84.142 263.162 83.5686Z" fill="#226842"/>
<path d="M269.328 9.03906C269.948 9.20422 270.556 9.41391 271.17 9.6032C270.519 12.0676 269.584 14.4336 268.94 16.8961C268.574 18.4976 267.784 19.9562 267.442 21.5632C266.821 20.4349 266.229 19.2844 265.644 18.1394C266.08 17.7794 266.644 17.5178 266.867 16.9555C267.275 16.0202 267.439 14.994 267.786 14.0365C268.428 12.4127 268.893 10.7259 269.328 9.03906Z" fill="#226842"/>
<path d="M273.172 10.4844C274.393 10.9019 275.583 11.4363 276.689 12.1044C282.74 15.2758 287.925 20.0245 291.772 25.6529C292.77 26.8554 293.346 28.3288 294.22 29.6129C295.361 32.0124 296.543 34.4081 297.222 36.9894C298.445 40.6005 298.976 44.4196 299.046 48.2238C298.211 48.2405 297.38 48.285 296.549 48.2943C296.858 47.7209 297.161 47.1122 297.113 46.4386C297.126 43.7998 296.554 41.1962 295.934 38.6446C295.413 37.3011 295.049 35.9038 294.528 34.5602C293.16 31.0752 291.254 27.8278 289.037 24.8197C288.962 24.7881 288.821 24.7287 288.751 24.7009C288.497 25.0628 288.216 25.4098 288.027 25.8088C288.02 26.3952 288.471 26.8238 288.788 27.2655C290.798 30.2402 292.54 33.432 293.63 36.8687C294.826 39.8267 295.172 43.0222 295.589 46.1584C294.531 45.4495 293.724 44.4474 292.722 43.6736C291.959 43.0909 291.241 42.4507 290.445 41.9144C290.239 41.7195 290.041 41.5117 289.864 41.2946C291.249 41.7177 292.499 42.4804 293.663 43.3321C293.071 40.8808 292.694 38.3422 291.59 36.0485C290.989 34.1947 290.018 32.506 289.113 30.7913C288.367 29.4144 287.296 28.2286 286.645 26.8053C286.092 25.549 286.869 24.1961 287.916 23.491C287.188 22.424 286.249 21.5369 285.31 20.6592C284.589 21.8042 282.946 22.487 283.139 24.0588C282.31 23.7174 281.454 23.4576 280.578 23.285C281.684 21.9396 282.902 20.6889 284.008 19.3435C282.64 18.2765 281.393 17.048 279.892 16.1665C279.064 17.28 277.895 18.373 278.043 19.8872C277.297 19.4938 276.472 19.3379 275.651 19.1913C276.466 17.7569 277.546 16.5024 278.429 15.1143C277.043 14.398 275.794 13.4238 274.314 12.8986C273.889 14.862 273.115 16.7177 272.636 18.6662C272.289 20.2769 271.665 21.8116 271.296 23.413C271.205 23.4093 271.025 23.4056 270.934 23.4019C270.6 22.3367 269.736 21.5425 269.429 20.4773C269.732 20.3938 270.031 20.2955 270.331 20.1823C270.906 19.234 270.921 18.0872 271.279 17.0628C272.05 14.9121 272.584 12.6871 273.172 10.4844Z" fill="#226842"/>
<path d="M282.811 12.3264C282.811 11.7548 282.345 11.2891 281.771 11.2891C281.198 11.2891 280.734 11.7548 280.734 12.3264C280.734 12.8998 281.198 13.3656 281.771 13.3656C282.345 13.3656 282.811 12.8998 282.811 12.3264Z" fill="#226842"/>
<path d="M281.078 26.0842C281.078 25.5108 280.612 25.0469 280.041 25.0469C279.467 25.0469 279.002 25.5108 279.002 26.0842C279.002 26.6576 279.467 27.1215 280.041 27.1215C280.612 27.1215 281.078 26.6576 281.078 26.0842Z" fill="#226842"/>
<mask id="mask0_864_1806" style="mask-type:luminance" maskUnits="userSpaceOnUse" x="206" y="0" width="101" height="101">
<path d="M206.146 0.492188H306.597V100.492H206.146V0.492188Z" fill="white"/>
</mask>
<g mask="url(#mask0_864_1806)">
<path d="M256.597 99.073C229.812 99.073 208.022 77.2833 208.022 50.5C208.022 25.8136 226.533 5.36936 250.401 2.31859C250.67 4.39512 251.96 6.15061 253.753 7.06918C251.732 8.10466 250.347 10.2035 250.347 12.6289C250.347 15.0543 251.732 17.1512 253.753 18.1867C251.732 19.2222 250.347 21.321 250.347 23.7464C250.347 23.7631 250.349 23.7779 250.349 23.7946C238.215 26.6227 229.17 37.5027 229.17 50.5C229.17 65.6462 241.449 77.9254 256.597 77.9254C271.745 77.9254 284.025 65.6462 284.025 50.5C284.025 37.5027 274.98 26.6227 262.844 23.7946C262.844 23.7779 262.845 23.7631 262.845 23.7464C262.845 21.321 261.461 19.2222 259.442 18.1867C261.461 17.1512 262.845 15.0543 262.845 12.6289C262.845 10.2035 261.461 8.10466 259.442 7.06918C261.233 6.15061 262.523 4.39512 262.792 2.31859C286.66 5.36936 305.17 25.8136 305.17 50.5C305.17 77.2833 283.381 99.073 256.597 99.073ZM251.748 12.6289C251.748 9.9548 253.923 7.77991 256.597 7.77991C259.27 7.77991 261.444 9.9548 261.444 12.6289C261.444 15.3011 259.27 17.476 256.597 17.476C253.923 17.476 251.748 15.3011 251.748 12.6289ZM256.597 23.0727C254.946 23.0727 253.331 23.2268 251.761 23.5051C251.888 20.9443 254.005 18.8974 256.597 18.8974C259.188 18.8974 261.305 20.9443 261.433 23.5051C259.861 23.2268 258.247 23.0727 256.597 23.0727ZM251.901 24.9303C253.424 24.6501 254.992 24.4979 256.597 24.4979C258.201 24.4979 259.767 24.6501 261.292 24.9303C261.754 25.0138 262.211 25.1103 262.664 25.2179C274.084 27.9607 282.599 38.2505 282.599 50.5C282.599 64.8372 270.934 76.5002 256.597 76.5002C242.258 76.5002 230.595 64.8372 230.595 50.5C230.595 38.2505 239.109 27.9607 250.529 25.2179C250.982 25.1103 251.438 25.0138 251.901 24.9303ZM256.597 1.92518C258.215 1.92518 259.817 2.00683 261.396 2.16271C261.075 4.52687 259.047 6.35845 256.597 6.35845C254.146 6.35845 252.118 4.52687 251.798 2.16271C253.378 2.00683 254.977 1.92518 256.597 1.92518ZM262.814 0.88413C262.337 0.824748 261.856 0.772788 261.376 0.728251C259.802 0.579795 258.208 0.5 256.597 0.5C254.985 0.5 253.391 0.579795 251.817 0.728251C251.336 0.772788 250.856 0.824748 250.379 0.88413C225.7 3.94604 206.597 24.9915 206.597 50.5C206.597 78.1128 228.983 100.498 256.597 100.498C284.21 100.498 306.595 78.1128 306.595 50.5C306.595 24.9915 287.493 3.94604 262.814 0.88413Z" fill="#226842"/>
</g>
</g>
<defs>
<clipPath id="clip0_864_1806">
<rect width="305.677" height="100" fill="white" transform="translate(0.919556 0.5)"/>
</clipPath>
</defs>
</svg>
