<svg width="504" height="593" viewBox="0 0 504 593" fill="none" xmlns="http://www.w3.org/2000/svg">
<g filter="url(#filter0_d_99_13)">
<path d="M47.4895 111.693C37.3198 225.461 32.3085 287.51 29.8711 381.823C33.3686 418.459 40.0223 434.29 66.4762 447.917C172.917 493.739 247.182 529.013 334.305 562.148C371.02 565.993 385.299 558.134 399.691 538.284C429.288 465.538 443.634 383.557 471.579 280.54C478.725 240.343 472.841 222.883 443.088 201.496C332.281 137.154 170.661 47.9103 170.661 47.9103C170.661 47.9103 140.131 28.0383 120.381 29.5794C96.9806 33.7351 86.189 40.2873 72.0399 54.5662C55.663 71.4552 50.3297 83.9802 47.4895 111.693Z" fill="#004267"/>
</g>
<defs>
<filter id="filter0_d_99_13" x="0.544289" y="0.167397" width="503.108" height="592.254" filterUnits="userSpaceOnUse" color-interpolation-filters="sRGB">
<feFlood flood-opacity="0" result="BackgroundImageFix"/>
<feColorMatrix in="SourceAlpha" type="matrix" values="0 0 0 0 0 0 0 0 0 0 0 0 0 0 0 0 0 0 127 0" result="hardAlpha"/>
<feOffset/>
<feGaussianBlur stdDeviation="14.6634"/>
<feComposite in2="hardAlpha" operator="out"/>
<feColorMatrix type="matrix" values="0 0 0 0 0 0 0 0 0 0 0 0 0 0 0 0 0 0 0.1 0"/>
<feBlend mode="normal" in2="BackgroundImageFix" result="effect1_dropShadow_99_13"/>
<feBlend mode="normal" in="SourceGraphic" in2="effect1_dropShadow_99_13" result="shape"/>
</filter>
</defs>
</svg>
