<svg width="503" height="591" viewBox="0 0 503 591" fill="none" xmlns="http://www.w3.org/2000/svg">
<g filter="url(#filter0_d_99_23)">
<path d="M455.557 111.426C465.69 224.859 470.683 286.725 473.111 380.76C469.625 417.289 462.994 433.073 436.633 446.661C330.566 492.35 256.561 527.521 169.744 560.559C133.158 564.393 118.93 556.558 104.588 536.766C75.096 464.235 60.8014 382.494 32.9561 279.782C25.8356 239.703 31.6995 222.295 61.3475 200.97C171.766 136.816 332.819 47.8325 332.819 47.8325C332.819 47.8325 363.243 28.0186 382.923 29.5549C406.241 33.6981 416.995 40.2309 431.094 54.4675C447.413 71.3067 452.728 83.7947 455.557 111.426Z" fill="#004267"/>
</g>
<defs>
<filter id="filter0_d_99_23" x="0.892187" y="0.143225" width="501.545" height="590.686" filterUnits="userSpaceOnUse" color-interpolation-filters="sRGB">
<feFlood flood-opacity="0" result="BackgroundImageFix"/>
<feColorMatrix in="SourceAlpha" type="matrix" values="0 0 0 0 0 0 0 0 0 0 0 0 0 0 0 0 0 0 127 0" result="hardAlpha"/>
<feOffset/>
<feGaussianBlur stdDeviation="14.6634"/>
<feComposite in2="hardAlpha" operator="out"/>
<feColorMatrix type="matrix" values="0 0 0 0 0 0 0 0 0 0 0 0 0 0 0 0 0 0 0.1 0"/>
<feBlend mode="normal" in2="BackgroundImageFix" result="effect1_dropShadow_99_23"/>
<feBlend mode="normal" in="SourceGraphic" in2="effect1_dropShadow_99_23" result="shape"/>
</filter>
</defs>
</svg>
