<svg width="441" height="500" viewBox="0 0 441 500" fill="none" xmlns="http://www.w3.org/2000/svg">
<path d="M440.914 91.161C436.477 204.958 433.527 266.954 423.925 360.526C415.803 396.308 407.211 411.113 379.33 421.213C268.296 452.944 190.406 478.349 100.08 499.999C63.3041 499.116 50.193 489.524 38.4962 468.059C18.5093 392.348 14.7712 309.45 0.271912 204.017C-1.67163 163.357 6.36749 146.843 38.4963 129.49C156.204 80.0025 327.303 12.3745 327.303 12.3745C327.303 12.3745 360.008 -3.38066 379.33 0.662945C401.929 7.75795 411.76 15.6139 423.925 31.5387C437.96 50.3289 441.636 63.3946 440.914 91.161Z" fill="#FAFAFA"/>
</svg>
