<svg width="442" height="501" viewBox="0 0 442 501" fill="none" xmlns="http://www.w3.org/2000/svg">
<path d="M0.0861006 91.3441C4.53366 205.368 7.48956 267.488 17.1132 361.248C25.2541 397.101 33.8657 411.936 61.8095 422.056C173.095 453.85 251.162 479.307 341.693 501C378.552 500.115 391.693 490.504 403.416 468.996C423.449 393.133 427.195 310.07 441.727 204.426C443.675 163.684 435.618 147.137 403.416 129.749C285.442 80.1632 113.955 12.3999 113.955 12.3999C113.955 12.3999 81.1757 -3.38668 61.8095 0.665005C39.1599 7.7742 29.3064 15.6459 17.1132 31.6026C3.04648 50.4303 -0.637805 63.5221 0.0861006 91.3441Z" fill="#FAFAFA"/>
</svg>
