<svg width="50" height="50" viewBox="0 0 50 50" fill="none" xmlns="http://www.w3.org/2000/svg">
<g clipPath="url(#clip0_227_2401)">
<path d="M28.3747 28.656H30.4C32.4254 18.8685 43.0005 20.9501 43.0005 20.9501C40.6376 13.1879 30.0624 15.4946 28.3747 28.656ZM30.4 31.469H28.3747C28.3747 31.469 28.3747 38.1623 33.7739 38.1623C31.7486 36.812 30.3983 34.8429 30.3983 31.469H30.4ZM25.0007 4.75061C16.901 10.1499 22.9754 20.5563 22.9754 28.6577H27.0261C27.0261 20.5579 33.1005 10.1515 25.0007 4.75061ZM21.6251 28.656H19.5998C17.5744 18.8685 6.99927 20.9501 6.99927 20.9501C9.36218 13.1879 19.9373 15.4946 21.6251 28.656ZM19.5998 31.469H21.6251C21.6251 31.469 21.6251 38.1623 16.2259 38.1623C18.2512 36.812 19.6014 34.8429 19.6014 31.469H19.5998ZM27.0261 31.469H22.9754C22.9754 31.469 22.6378 36.4761 20.95 38.4998C23.6505 41.2003 25.0007 45.2493 25.0007 45.2493C25.0007 45.2493 26.351 41.1986 29.0514 38.4998C27.3636 36.4745 27.0261 31.469 27.0261 31.469Z" fill="#9CCC65"/>
<path d="M43.3002 20.8591C42.8236 19.2921 41.988 18.0362 40.8826 17.2271C39.822 16.451 38.5495 16.1002 37.1993 16.2144C35.1657 16.3848 33.1585 17.5795 31.5485 19.5751C29.7862 21.7593 28.5982 24.7874 28.1034 28.345H27.3423C27.3869 26.0383 27.9115 23.4984 28.4195 21.0378C29.7035 14.8211 31.0306 8.39428 25.1746 4.49084C25.0704 4.42135 24.933 4.42135 24.8271 4.49084C18.9711 8.39428 20.2982 14.8228 21.5823 21.0378C22.0902 23.4984 22.6148 26.0383 22.6595 28.345H21.8983C21.4035 24.789 20.2155 21.7609 18.4532 19.5751C16.8432 17.5795 14.8377 16.3865 12.8024 16.2144C11.4538 16.1002 10.1797 16.451 9.11907 17.2271C8.01373 18.0362 7.17811 19.2921 6.70156 20.8591C6.67012 20.9634 6.69494 21.0775 6.7694 21.1603C6.84221 21.2413 6.95473 21.2778 7.06228 21.2579C7.08876 21.2529 9.67174 20.7582 12.4682 21.4383C16.0671 22.3119 18.3341 24.6351 19.2127 28.3499C18.3142 28.4062 17.6011 29.1541 17.6011 30.0642C17.6011 30.9743 18.3523 31.7636 19.2839 31.7818C19.2127 34.5335 18.1802 36.4844 16.0523 37.9042C15.9381 37.9803 15.8868 38.1226 15.9265 38.255C15.9662 38.3873 16.0887 38.4767 16.226 38.4767C18.5724 38.4767 20.3065 37.2522 21.2414 34.934C21.7643 33.6383 21.895 32.3576 21.9281 31.7834H22.6363C22.5271 32.9219 22.0704 36.6731 20.7119 38.3029C20.6076 38.427 20.6159 38.6091 20.7317 38.7232C23.3462 41.3377 24.6931 45.3106 24.7063 45.3519C24.7493 45.4794 24.8685 45.5654 25.0025 45.5654C25.1365 45.5654 25.2557 45.4794 25.2987 45.3519C25.3119 45.3122 26.6589 41.3377 29.2733 38.7232C29.3875 38.6091 29.3957 38.427 29.2931 38.3029C27.9346 36.6731 27.4779 32.9219 27.3687 31.7834H28.0769C28.11 32.3576 28.2408 33.6383 28.7636 34.934C29.6985 37.2522 31.4327 38.4767 33.779 38.4767C33.9164 38.4767 34.0388 38.3873 34.0785 38.255C34.1182 38.1226 34.0669 37.9803 33.9528 37.9042C31.8248 36.4861 30.7923 34.5335 30.7211 31.7818C31.6527 31.7619 32.404 30.9991 32.404 30.0642C32.404 29.1293 31.6908 28.4045 30.7923 28.3499C31.6693 24.6434 33.9313 22.3202 37.5186 21.4432C40.3167 20.7582 42.9179 21.2529 42.9444 21.2579C43.052 21.2794 43.1628 21.243 43.2373 21.1603C43.3101 21.0792 43.3366 20.965 43.3051 20.8591H43.3002ZM22.1945 20.9104C21.569 17.8823 20.922 14.75 21.1471 11.9866C21.392 8.96349 22.6181 6.77929 25.0009 5.1279C27.3836 6.77929 28.6098 8.96349 28.8546 11.9866C29.078 14.7516 28.4327 17.8823 27.8072 20.9104C27.2926 23.4024 26.7615 25.9771 26.7168 28.3433H23.2866C23.2419 25.9771 22.7108 23.4024 22.1961 20.9104H22.1945ZM16.9888 23.093C15.8206 22.0108 14.3479 21.2496 12.6138 20.8277C10.4147 20.2932 8.38273 20.4438 7.45941 20.5613C8.40093 18.018 10.3485 16.633 12.7495 16.8349C14.6127 16.9921 16.4643 18.104 17.9667 19.9656C19.6429 22.0455 20.7814 24.9363 21.2679 28.3433H19.8531C19.36 26.1608 18.397 24.3952 16.9905 23.093H16.9888ZM20.654 34.7139C19.9606 36.4232 18.8321 37.4392 17.2916 37.7486C17.9882 37.1513 18.5326 36.4828 18.9463 35.7249C19.5552 34.608 19.8713 33.3157 19.9094 31.7818H21.2993C21.2646 32.3328 21.1338 33.5324 20.654 34.7139ZM28.6362 38.4767C27.3092 39.8666 26.3312 41.5528 25.7322 42.7475C25.4129 43.3862 25.1696 43.9471 24.9992 44.3657C24.8288 43.9471 24.5855 43.3862 24.2662 42.7475C23.6688 41.5528 22.6892 39.865 21.3622 38.4767C22.7372 36.5771 23.1641 32.8573 23.2618 31.7818H26.735C26.8326 32.8573 27.2595 36.5771 28.6346 38.4767H28.6362ZM31.0537 35.7249C31.4674 36.4828 32.0135 37.1513 32.7084 37.7486C31.1679 37.4392 30.0394 36.4215 29.3461 34.7139C28.8662 33.5324 28.7355 32.3328 28.7008 31.7818H30.0907C30.1288 33.3157 30.4432 34.608 31.0537 35.7249ZM37.3863 20.8293C35.6521 21.2496 34.1795 22.0124 33.0112 23.0946C31.6048 24.3969 30.6417 26.1624 30.1486 28.345H28.7339C29.2203 24.9379 30.3588 22.0472 32.035 19.9672C33.5358 18.1057 35.389 16.9937 37.2522 16.8365C39.6532 16.6347 41.6008 18.0197 42.5423 20.5629C41.6173 20.4454 39.5854 20.2949 37.3879 20.8293H37.3863Z" fill="#689F38"/>
</g>
<defs>
<clipPath id="clip0_227_2401">
<rect width="50" height="50" fill="white"/>
</clipPath>
</defs>
</svg>
