<svg width="120" height="90" viewBox="0 0 142 108" fill="none" xmlns="http://www.w3.org/2000/svg">
<path d="M41.2727 107.645C41.0785 107.645 40.9452 107.555 40.8756 107.379L37.4271 100.374H34.3234C34.2161 100.374 34.164 100.426 34.164 100.532V107.379C34.164 107.555 34.0741 107.645 33.8974 107.645H31.2979C31.1211 107.645 31.0342 107.555 31.0342 107.379V89.9057C31.0342 89.7295 31.1211 89.64 31.2979 89.64H38.2762C39.1079 89.64 39.873 89.7729 40.5714 90.0385C41.2698 90.3042 41.8754 90.6709 42.3884 91.1358C42.9013 91.6036 43.3041 92.1696 43.5968 92.8309C43.8895 93.4922 44.0344 94.2199 44.0344 95.014C44.0344 96.198 43.7243 97.2202 43.1042 98.0865C42.484 98.9528 41.6523 99.5795 40.6119 99.9664L44.4054 107.301C44.4575 107.391 44.4633 107.469 44.417 107.541C44.3735 107.61 44.3068 107.648 44.217 107.648H41.2727V107.645ZM38.1661 97.5465C38.9978 97.5465 39.6643 97.3184 40.1685 96.8622C40.6728 96.4059 40.9249 95.7937 40.9249 95.0198C40.9249 94.2315 40.6728 93.6077 40.1685 93.1515C39.6643 92.6952 38.9949 92.4671 38.1661 92.4671H34.3176C34.2103 92.4671 34.1582 92.5191 34.1582 92.6259V97.3848C34.1582 97.4888 34.2103 97.5436 34.3176 97.5436H38.1661V97.5465Z" fill="#004267"/>
<path d="M54.1918 107.936C53.5195 107.936 52.8645 107.873 52.227 107.749C51.5894 107.625 50.9838 107.454 50.41 107.243C49.8362 107.03 49.3029 106.776 48.819 106.481C48.3321 106.187 47.9119 105.872 47.5584 105.534C47.4164 105.392 47.399 105.26 47.5062 105.133L49.1522 103.23C49.2769 103.088 49.4015 103.079 49.5232 103.204C49.8072 103.432 50.1289 103.663 50.4911 103.891C50.8534 104.119 51.2417 104.324 51.659 104.497C52.0734 104.673 52.511 104.821 52.9718 104.933C53.4325 105.049 53.9194 105.104 54.4323 105.104C55.5104 105.104 56.3479 104.861 56.9391 104.376C57.5303 103.891 57.8287 103.27 57.8287 102.513C57.8287 101.861 57.5882 101.329 57.1129 100.914C56.6348 100.501 55.777 100.203 54.5396 100.027L53.5832 99.8942C51.8329 99.6488 50.4882 99.1059 49.5493 98.2684C48.6103 97.431 48.1438 96.2644 48.1438 94.7657C48.1438 93.9542 48.2858 93.215 48.5698 92.545C48.8538 91.8751 49.2595 91.3033 49.7898 90.8269C50.3201 90.3504 50.9606 89.9865 51.7141 89.7295C52.4646 89.4754 53.3108 89.3455 54.2469 89.3455C55.38 89.3455 56.4522 89.51 57.4694 89.8392C58.4866 90.1684 59.356 90.6103 60.0834 91.1589C60.208 91.2658 60.2254 91.3899 60.1355 91.5314L58.8633 93.4922C58.7561 93.6337 58.6344 93.6597 58.4924 93.5702C57.7476 93.0937 57.0318 92.7414 56.3421 92.5133C55.6524 92.2851 54.9279 92.1696 54.1657 92.1696C53.2471 92.1696 52.5429 92.3949 52.056 92.8425C51.5692 93.2929 51.3257 93.8705 51.3257 94.5751C51.3257 95.193 51.5749 95.7071 52.0705 96.1229C52.566 96.5358 53.4267 96.8333 54.6526 97.0094L55.6089 97.1423C57.3651 97.3906 58.7039 97.9306 59.6255 98.768C60.547 99.6055 61.0078 100.801 61.0078 102.349C61.0078 103.143 60.8658 103.882 60.5789 104.569C60.2949 105.257 59.8602 105.849 59.2806 106.34C58.701 106.833 57.9852 107.22 57.1361 107.503C56.2899 107.795 55.3075 107.936 54.1918 107.936Z" fill="#004267"/>
<path d="M65.1489 89.9057C65.1489 89.7295 65.2359 89.64 65.4126 89.64H76.7147C76.8914 89.64 76.9784 89.7295 76.9784 89.9057V92.2014C76.9784 92.3804 76.8885 92.4671 76.7147 92.4671H68.4352C68.328 92.4671 68.2758 92.5191 68.2758 92.6259V96.9892C68.2758 97.0932 68.328 97.148 68.4352 97.148H75.4135C75.5903 97.148 75.6772 97.2376 75.6772 97.4166V99.7123C75.6772 99.8914 75.5874 99.978 75.4135 99.978H68.4352C68.328 99.978 68.2758 100.03 68.2758 100.137V104.659C68.2758 104.763 68.328 104.818 68.4352 104.818H76.7147C76.8914 104.818 76.9784 104.907 76.9784 105.083V107.379C76.9784 107.558 76.8885 107.645 76.7147 107.645H65.4126C65.2359 107.645 65.1489 107.555 65.1489 107.379V89.9057Z" fill="#004267"/>
<path d="M81.334 89.9057C81.334 89.7295 81.4209 89.64 81.5977 89.64H92.8997C93.0765 89.64 93.1635 89.7295 93.1635 89.9057V92.2014C93.1635 92.3804 93.0736 92.4671 92.8997 92.4671H84.6203C84.5131 92.4671 84.4609 92.5191 84.4609 92.6259V96.9892C84.4609 97.0932 84.5131 97.148 84.6203 97.148H91.5986C91.7753 97.148 91.8623 97.2376 91.8623 97.4166V99.7123C91.8623 99.8914 91.7724 99.978 91.5986 99.978H84.6203C84.5131 99.978 84.4609 100.03 84.4609 100.137V104.659C84.4609 104.763 84.5131 104.818 84.6203 104.818H92.8997C93.0765 104.818 93.1635 104.907 93.1635 105.083V107.379C93.1635 107.558 93.0736 107.645 92.8997 107.645H81.5977C81.4209 107.645 81.334 107.555 81.334 107.379V89.9057Z" fill="#004267"/>
<path d="M97.519 89.9317C97.519 89.7556 97.606 89.6689 97.7827 89.6689H100.223C100.417 89.6689 100.568 89.7585 100.675 89.9317L108.024 102.332H108.131V89.9317C108.131 89.7556 108.221 89.6689 108.398 89.6689H110.705C110.882 89.6689 110.968 89.7585 110.968 89.9317V107.379C110.968 107.555 110.882 107.645 110.705 107.645H108.291C108.097 107.645 107.946 107.555 107.839 107.379L100.463 95.0054H100.356V107.379C100.356 107.555 100.266 107.645 100.09 107.645H97.7827C97.606 107.645 97.519 107.555 97.519 107.379V89.9317Z" fill="#004267"/>
<path d="M142.012 99.9202H118.987V104.006H142.012V99.9202Z" fill="#EA8D09"/>
<path d="M23.0099 99.9202H-0.0144043V104.006H23.0099V99.9202Z" fill="#EA8D09"/>
<path d="M112.939 77.4712H79.3318V79.4897H112.939V77.4712Z" fill="#004267"/>
<path d="M37.8184 9.6709H36.268L33.3584 18.1434H37.0301C37.0301 19.2754 37.9517 20.1966 39.0906 20.1966C40.2295 20.1966 41.1539 19.2783 41.1539 18.1434H44.8256L41.9161 9.6709H40.3657V7.58887H37.8213V9.6709H37.8184Z" fill="#EA8D09"/>
<path d="M99.0609 26.5234L72.7039 8.39156C71.0492 7.24514 68.8554 7.24514 67.2007 8.39156L40.8438 26.5234C39.5136 27.4186 38.7572 28.8885 38.7572 30.4998V65.6142H49.726V36.2348C49.726 34.6581 50.5171 33.1536 51.8125 32.2584L67.2036 21.6865C68.8583 20.5401 71.0521 20.5401 72.7068 21.6865L88.0602 32.2584C89.3904 33.1536 90.1815 34.6581 90.1815 36.2348V73.1049H82.6671V40.1765C82.6671 38.5651 81.876 37.0953 80.5458 36.2001L72.7068 30.7886C71.0521 29.6421 68.8583 29.6421 67.2036 30.7886L59.3269 36.2001C58.0315 37.0953 57.2433 38.5651 57.2433 40.1765V73.1049H30.5966V6.92172C30.5966 4.84258 32.3238 3.15905 34.4074 3.15905C36.5287 3.15905 38.2182 4.84258 38.2182 6.92172V7.81691H39.9454V6.92172C39.9454 3.8752 37.4647 1.40332 34.4074 1.40332C31.35 1.40332 28.8694 3.8752 28.8694 6.92172V74.8231H58.9676V41.0717C58.9676 39.495 59.7587 37.9905 61.0889 37.0953L67.2036 32.8677C68.8583 31.7559 71.0521 31.7559 72.7068 32.8677L78.8215 37.0953C80.1517 37.9905 80.9051 39.495 80.9051 41.0717V74.826H101.15V30.4998C101.144 28.8885 100.356 27.4186 99.0609 26.5234Z" fill="#EA8D09"/>
<path d="M72.4488 0.337812L72.0634 0.0634766L71.052 1.66615L111.736 30.8031L112.119 31.0774L113.133 29.4776L72.4488 0.337812Z" fill="#004267"/>
<path d="M106.112 15.481H104.086V82.6662H106.112V15.481Z" fill="#004267"/>
<path d="M102.246 17.4994L105.097 11.5565L107.555 17.4994" fill="#004267"/>
</svg>
