<svg width="196" height="60" viewBox="0 0 196 60" fill="none" xmlns="http://www.w3.org/2000/svg">
<g clip-path="url(#clip0_253_181)">
<g clip-path="url(#clip1_253_181)">
<path d="M188.105 59.1861H7.24679C3.26794 59.1861 0.0124512 55.9252 0.0124512 51.9397V8.46149C0.0124512 4.47595 3.26789 1.21509 7.24679 1.21509H188.105C192.084 1.21509 195.34 4.47595 195.34 8.46149V51.9397C195.34 55.9252 192.084 59.1861 188.105 59.1861Z" fill="black"/>
<path d="M188.105 1.21509H7.24679C3.26794 1.21509 0.0124512 4.47595 0.0124512 8.46149V51.9397C0.0124512 55.9252 3.26789 59.1861 7.24679 59.1861H188.105C192.084 59.1861 195.34 55.9252 195.34 51.9397V8.46149C195.34 4.47595 192.084 1.21509 188.105 1.21509ZM188.105 2.37447C191.456 2.37447 194.182 5.10555 194.182 8.46149V51.9397C194.182 55.2963 191.456 58.0273 188.105 58.0273H7.24679C3.89646 58.0273 1.16996 55.2963 1.16996 51.9397V8.46149C1.16996 5.10555 3.8964 2.37454 7.24679 2.37454L188.105 2.37447Z" fill="#A6A6A6"/>
<path d="M68.6206 16.0607C68.6206 17.2749 68.2616 18.2418 67.5427 18.9632C66.7261 19.8208 65.6616 20.25 64.3532 20.25C63.1004 20.25 62.0349 19.8152 61.1589 18.9445C60.2813 18.0744 59.8433 16.9953 59.8433 15.7079C59.8433 14.42 60.2813 13.3416 61.1589 12.4708C62.0349 11.6007 63.1004 11.1653 64.3532 11.1653C64.975 11.1653 65.5703 11.2871 66.1354 11.53C66.7005 11.7734 67.1538 12.0966 67.4929 12.5014L66.7298 13.2662C66.1552 12.5784 65.3639 12.2347 64.3532 12.2347C63.4395 12.2347 62.6492 12.5564 61.9824 13.2C61.3155 13.8443 60.9819 14.6799 60.9819 15.7079C60.9819 16.7361 61.3155 17.5715 61.9824 18.2159C62.6492 18.8596 63.4395 19.1811 64.3532 19.1811C65.3227 19.1811 66.1309 18.8578 66.778 18.2103C67.1981 17.7884 67.4408 17.202 67.5059 16.449H64.3532V15.4045H68.5601C68.6007 15.6316 68.6206 15.8495 68.6206 16.0607Z" fill="white"/>
<path d="M68.6202 16.0608H68.4754C68.4744 17.2473 68.1284 18.169 67.44 18.8607L67.4383 18.8619C66.6476 19.6901 65.6306 20.1033 64.3528 20.1051C63.1334 20.1033 62.1126 19.6867 61.2602 18.842C60.4097 17.9957 59.9892 16.9625 59.9875 15.708C59.9892 14.4529 60.4097 13.4203 61.2602 12.5745C62.1126 11.7293 63.1334 11.3121 64.3528 11.3103C64.956 11.3103 65.5303 11.4282 66.0778 11.6631C66.626 11.8998 67.0591 12.2099 67.3817 12.595L67.4925 12.5015L67.3903 12.399L66.6273 13.1643L66.7294 13.2663L66.8409 13.1735C66.2394 12.4516 65.3953 12.0877 64.353 12.0899C63.4052 12.0887 62.5715 12.4279 61.8819 13.096C61.1857 13.7662 60.8359 14.6488 60.8369 15.708C60.8359 16.7673 61.1857 17.6498 61.8819 18.32C62.5715 18.9882 63.4052 19.3273 64.3528 19.3262C65.3544 19.3278 66.208 18.9876 66.8799 18.3128C67.3287 17.862 67.5831 17.2377 67.6496 16.4615L67.6631 16.3041H64.4975V15.5495H68.5596V15.4046L68.4172 15.43C68.4567 15.6498 68.4754 15.8586 68.4754 16.0608H68.7647C68.7647 15.8405 68.7444 15.6141 68.702 15.3786L68.6806 15.2596H64.2082V16.594H67.5054V16.449L67.3614 16.4366C67.2976 17.1658 67.0658 17.715 66.6753 18.1079C66.0537 18.7284 65.2906 19.0346 64.353 19.0364C63.473 19.0351 62.7265 18.7316 62.0826 18.1118C61.4452 17.4941 61.128 16.7055 61.1264 15.708C61.128 14.7105 61.4452 13.9219 62.0826 13.3042C62.7265 12.6844 63.473 12.3809 64.353 12.3797C65.3313 12.3821 66.0701 12.7059 66.6188 13.3597L66.7206 13.4809L67.595 12.604L67.6886 12.5101L67.6034 12.4086C67.2478 11.9841 66.7742 11.6472 66.1921 11.397C65.6089 11.1461 64.9934 11.0204 64.353 11.0204C63.0666 11.0193 61.9566 11.4722 61.0563 12.3685C60.1526 13.2629 59.697 14.3873 59.6982 15.708C59.697 17.0281 60.1526 18.1532 61.0568 19.0482C61.9566 19.9438 63.0666 20.3962 64.353 20.3949C65.6925 20.3962 66.8036 19.9505 67.6469 19.0633L67.5423 18.9632L67.6446 19.0657C68.394 18.3155 68.7656 17.3022 68.7647 16.0608H68.6202ZM75.2892 12.4284H71.3357V15.1856H74.901V16.2305H71.3357V18.9876H75.2892V20.0558H70.2213V11.3602H75.2892V12.4284Z" fill="white"/>
<path d="M75.2898 12.4288V12.2839H71.1916V15.3309H74.7568V16.0855L71.1916 16.0859V19.1329H75.145V19.9112H70.3664V11.5055H75.145V12.4288H75.2898H75.4343V11.2156H70.0771V20.2011H75.4343V18.843H71.4809V16.3758H75.0461V15.041H71.4809V12.5738H75.4343V12.4288H75.2898ZM79.9938 20.0563H78.8775V12.4288H76.4529V11.3605H82.4184V12.4288H79.9938V20.0563Z" fill="white"/>
<path d="M79.9934 20.0563V19.9112H79.0218V12.2839H76.5972V11.5055H82.2733V12.2839H79.8487V20.0561L79.9934 20.0563L80.1382 20.0561V12.5738H82.5628V11.2156H76.3079V12.5737H78.7325V20.2011H80.1382V20.0561L79.9934 20.0563ZM86.7344 20.0563V11.3605H87.8495V20.0561L86.7344 20.0563Z" fill="white"/>
<path d="M86.7342 20.0563H86.8789V11.5055H87.7045V19.9112H86.7342V20.0563V20.2011H87.994V11.2156H86.5896V20.2011H86.7342V20.0563ZM92.7974 20.0563H91.6812V12.4288H89.2566V11.3605H95.2221V12.4288H92.7974V20.0563Z" fill="white"/>
<path d="M92.7982 20.0558V19.9109H91.8267V12.2834H89.4021V11.5051H95.0783V12.2834H92.6536V20.0558H92.7982H92.9429V12.5733H95.3676V11.2152H89.1128V12.5732H91.5372V20.2006H92.9429V20.0558H92.7982ZM100.974 18.204C101.617 18.8556 102.403 19.1811 103.333 19.1811C104.263 19.1811 105.049 18.8556 105.691 18.204C106.334 17.5525 106.656 16.7195 106.656 15.7079C106.656 14.6964 106.334 13.8635 105.691 13.2119C105.049 12.5603 104.263 12.2347 103.333 12.2347C102.403 12.2347 101.617 12.5603 100.974 13.2119C100.333 13.8635 100.011 14.6963 100.011 15.7079C100.011 16.7195 100.333 17.5525 100.974 18.204ZM106.516 18.9321C105.662 19.8111 104.601 20.25 103.333 20.25C102.063 20.25 101.002 19.8111 100.151 18.9321C99.2968 18.0539 98.8717 16.979 98.8717 15.7079C98.8717 14.4369 99.2968 13.3618 100.151 12.4839C101.002 11.6046 102.063 11.1653 103.333 11.1653C104.594 11.1653 105.653 11.6069 106.51 12.4895C107.366 13.3721 107.795 14.4448 107.795 15.7079C107.795 16.979 107.368 18.0539 106.516 18.9321Z" fill="white"/>
<path d="M100.973 18.2042L100.87 18.306C101.537 18.9837 102.368 19.3278 103.332 19.3262C104.295 19.3278 105.127 18.9837 105.792 18.306C106.463 17.6277 106.801 16.7502 106.8 15.708C106.801 14.6659 106.463 13.7883 105.792 13.11C105.127 12.4324 104.295 12.0882 103.332 12.0899C102.368 12.0882 101.537 12.4324 100.87 13.11C100.201 13.7883 99.8631 14.6659 99.8648 15.708C99.8631 16.7502 100.201 17.6277 100.87 18.306L100.973 18.2042L101.076 18.1023C100.462 17.4766 100.155 16.6897 100.154 15.708C100.155 14.7265 100.462 13.9395 101.076 13.3138C101.695 12.6883 102.435 12.3815 103.332 12.3798C104.227 12.3815 104.969 12.6883 105.587 13.3138C106.202 13.9395 106.509 14.7265 106.51 15.708C106.509 16.6896 106.202 17.4766 105.587 18.1023C104.969 18.7278 104.227 19.0346 103.332 19.0362C102.435 19.0346 101.695 18.7278 101.076 18.1023L100.973 18.2042ZM106.515 18.9321L106.411 18.8314C105.582 19.6827 104.567 20.1035 103.332 20.1051C102.096 20.1035 101.081 19.6827 100.253 18.8314C99.4251 17.977 99.0166 16.9467 99.0154 15.708C99.0166 14.4693 99.4251 13.439 100.253 12.5847C101.081 11.7332 102.096 11.3121 103.332 11.3104C104.559 11.3121 105.571 11.735 106.406 12.5909C107.236 13.4492 107.647 14.4778 107.649 15.708C107.647 16.9467 107.238 17.977 106.411 18.8314L106.515 18.9321L106.619 19.0328C107.496 18.1305 107.939 17.0112 107.938 15.708C107.939 14.4122 107.494 13.2952 106.613 12.3889C105.731 11.479 104.627 11.0189 103.332 11.0205C102.03 11.0189 100.922 11.4768 100.046 12.3832C99.1669 13.2862 98.7248 14.4048 98.7261 15.708C98.7248 17.0112 99.1669 18.1305 100.046 19.0333C100.922 19.9397 102.03 20.3962 103.332 20.3949C104.633 20.3962 105.741 19.9391 106.619 19.0328L106.515 18.9321ZM109.359 20.0558V11.3601H110.717L114.936 18.1248H114.984L114.936 16.449V11.3601H116.052V20.0558H114.888L110.474 12.9633H110.426L110.474 14.6397V20.0558H109.359Z" fill="white"/>
<path d="M109.36 20.0563H109.505V11.5055H110.637L114.856 18.2702H115.133L115.081 16.4473V11.5055H115.908V19.9112H114.969L110.555 12.8189H110.278L110.33 14.6425V19.9112H109.36V20.0563V20.2011H110.619V14.6378L110.571 12.9599L110.427 12.9638V13.1087H110.475V12.9638L110.352 13.0408L114.808 20.2011H116.198V11.2156H114.792V16.4511L114.84 18.129L114.985 18.1253V17.9803H114.937V18.1253L115.059 18.0483L110.798 11.2156H109.215V20.2011H109.36V20.0563ZM154.735 44.6938H157.435V26.5763H154.735V44.6938ZM179.052 33.1027L175.957 40.9576H175.865L172.653 33.1026H169.744L174.561 44.0813L171.815 50.1882H174.632L182.055 33.1026L179.052 33.1027ZM163.741 42.6362C162.856 42.6362 161.623 42.1933 161.623 41.0974C161.623 39.6989 163.16 39.163 164.485 39.163C165.673 39.163 166.23 39.4194 166.952 39.7693C166.742 41.4472 165.3 42.6362 163.741 42.6362ZM164.067 32.7063C162.112 32.7063 160.088 33.569 159.25 35.4803L161.646 36.4823C162.158 35.4803 163.112 35.1536 164.113 35.1536C165.509 35.1536 166.929 35.9932 166.952 37.4849V37.6711C166.463 37.3916 165.417 36.9721 164.136 36.9721C161.554 36.9721 158.923 38.3934 158.923 41.0509C158.923 43.4752 161.042 45.0369 163.414 45.0369C165.23 45.0369 166.23 44.2211 166.859 43.2657H166.952V44.664H169.558V37.7175C169.558 34.5014 167.162 32.7063 164.067 32.7063ZM147.382 35.308H143.542V29.0978H147.382C149.4 29.0978 150.546 30.7718 150.546 32.2028C150.546 33.6069 149.4 35.308 147.382 35.308ZM147.312 26.5763H140.843V44.6938H143.542V37.8297H147.312C150.304 37.8297 153.246 35.6597 153.246 32.2028C153.246 28.7463 150.304 26.5763 147.312 26.5763ZM112.036 42.6394C110.171 42.6394 108.609 41.0753 108.609 38.9269C108.609 36.7558 110.171 35.1678 112.036 35.1678C113.878 35.1678 115.323 36.7558 115.323 38.9269C115.323 41.0753 113.878 42.6394 112.036 42.6394ZM115.136 34.1172H115.043C114.437 33.3935 113.271 32.7397 111.803 32.7397C108.726 32.7397 105.906 35.4481 105.906 38.9269C105.906 42.3825 108.726 45.0677 111.803 45.0677C113.271 45.0677 114.437 44.4137 115.043 43.667H115.136V44.5541C115.136 46.9126 113.878 48.1734 111.85 48.1734C110.195 48.1734 109.169 46.9822 108.749 45.9783L106.395 46.959C107.071 48.5934 108.866 50.6014 111.85 50.6014C115.02 50.6014 117.7 48.7333 117.7 44.1805V33.1134H115.136V34.1172ZM119.565 44.6938H122.269V26.5756H119.565V44.6938ZM126.255 38.7169C126.185 36.335 128.096 35.1214 129.472 35.1214C130.544 35.1214 131.453 35.6581 131.756 36.4293L126.255 38.7169ZM134.646 36.6623C134.134 35.2843 132.572 32.7397 129.378 32.7397C126.208 32.7397 123.574 35.2379 123.574 38.9037C123.574 42.3593 126.185 45.0677 129.681 45.0677C132.502 45.0677 134.134 43.3398 134.81 42.3359L132.712 40.9347C132.013 41.9623 131.057 42.6394 129.681 42.6394C128.306 42.6394 127.327 42.0089 126.698 40.7717L134.926 37.3626L134.646 36.6623ZM69.0914 34.6311V37.2459H75.3383C75.1518 38.7169 74.6622 39.7908 73.9162 40.5379C73.0075 41.4488 71.5854 42.4526 69.0914 42.4526C65.2451 42.4526 62.2385 39.3474 62.2385 35.4948C62.2385 31.6426 65.2451 28.5369 69.0914 28.5369C71.1661 28.5369 72.6808 29.3542 73.7997 30.4048L75.6412 28.5606C74.0797 27.0659 72.0049 25.9218 69.0914 25.9218C63.8232 25.9218 59.3945 30.2182 59.3945 35.4948C59.3945 40.7717 63.8232 45.0677 69.0914 45.0677C71.9353 45.0677 74.0797 44.1341 75.7578 42.3825C77.4826 40.6546 78.0189 38.2266 78.0189 36.2655C78.0189 35.6581 77.9725 35.0982 77.8789 34.6311H69.0914ZM85.1211 42.6394C83.256 42.6394 81.6475 41.0983 81.6475 38.9037C81.6475 36.6855 83.256 35.1678 85.1211 35.1678C86.9855 35.1678 88.594 36.6855 88.594 38.9037C88.594 41.0985 86.9855 42.6394 85.1211 42.6394ZM85.1211 32.7397C81.7175 32.7397 78.9435 35.3312 78.9435 38.9037C78.9435 42.4526 81.7175 45.0677 85.1211 45.0677C88.524 45.0677 91.2978 42.4526 91.2978 38.9037C91.2978 35.3312 88.524 32.7397 85.1211 32.7397ZM98.596 42.6394C96.7316 42.6394 95.1229 41.0983 95.1229 38.9037C95.1229 36.6855 96.7316 35.1678 98.596 35.1678C100.461 35.1678 102.069 36.6855 102.069 38.9037C102.069 41.0985 100.461 42.6394 98.596 42.6394ZM98.596 32.7397C95.1925 32.7397 92.4193 35.3312 92.4193 38.9037C92.4193 42.4526 95.1925 45.0677 98.596 45.0677C101.999 45.0677 104.773 42.4526 104.773 38.9037C104.773 35.3312 101.999 32.7397 98.596 32.7397Z" fill="white"/>
<path d="M15.2168 12.247C14.7312 12.6858 14.4414 13.4177 14.4414 14.3893V14.1696V46.2292V46.0181C14.4414 46.9154 14.69 47.6081 15.111 48.0544L15.2185 48.1574C15.5593 48.4654 15.9962 48.6294 16.497 48.6289C16.9863 48.6289 17.5369 48.4726 18.118 48.1427L39.1196 36.1902L46.3334 32.084C47.2497 31.5626 47.7639 30.8902 47.8498 30.2049V30.2022C47.7639 29.5156 47.2497 28.8435 46.3334 28.3221L39.1188 24.2165L18.118 12.2639C17.5357 11.9334 16.9848 11.7766 16.4941 11.7766C15.9939 11.7766 15.5574 11.9396 15.2168 12.247Z" fill="#00C1FF"/>
<path d="M15.2185 48.1558L15.111 48.0528C14.69 47.6067 14.4414 46.9138 14.4414 46.0165V46.2276V14.176V14.3877C14.4414 13.4161 14.7312 12.6842 15.2168 12.2454L33.1431 30.2012L15.2185 48.1558Z" fill="url(#paint0_linear_253_181)"/>
<path d="M39.1196 36.1891L33.1433 30.2017L39.119 24.2155L46.3336 28.3209C47.2497 28.8424 47.7639 29.5145 47.85 30.2011V30.2038C47.7639 30.889 47.2497 31.5617 46.3336 32.0829L39.1196 36.1891Z" fill="url(#paint1_linear_253_181)"/>
<path d="M16.4976 48.6283C15.9969 48.6288 15.5599 48.4652 15.2192 48.1572L33.1438 30.202L39.1203 36.1894L18.1185 48.1421C17.5375 48.472 16.987 48.6283 16.4976 48.6283Z" fill="url(#paint2_linear_253_181)"/>
<path d="M33.1431 30.202L15.2166 12.2462C15.5573 11.9387 15.9937 11.7757 16.4938 11.7757C16.9845 11.7757 17.5355 11.9325 18.1177 12.2631L39.1188 24.2157L33.1431 30.202Z" fill="url(#paint3_linear_253_181)"/>
<path d="M16.4978 48.8389C15.997 48.8389 15.5595 48.6753 15.2187 48.3673C15.2173 48.3658 15.2152 48.3651 15.2137 48.3639L15.1204 48.2727C15.1175 48.2698 15.1148 48.2666 15.1113 48.2632L15.2188 48.1556C15.5596 48.4635 15.9965 48.6271 16.4973 48.6266C16.9866 48.6266 17.5371 48.4703 18.1182 48.1404L39.1198 36.1877L39.2543 36.3225L39.118 36.4L18.118 48.352C17.5886 48.6526 17.0849 48.8094 16.63 48.8357C16.5859 48.8376 16.5419 48.8389 16.4978 48.8389Z" fill="url(#paint4_linear_253_181)"/>
<path d="M15.1102 48.2655C14.6897 47.8193 14.4414 47.1268 14.4414 46.2291V46.018C14.4414 46.9152 14.6897 47.608 15.1102 48.0543L15.2176 48.1573L15.1102 48.2655Z" fill="url(#paint5_linear_253_181)"/>
<path d="M39.2536 36.3242L39.1191 36.1893L46.333 32.0834C47.2492 31.5621 47.7637 30.8895 47.8496 30.2043C47.8496 30.4558 47.7935 30.7072 47.6822 30.9517C47.4578 31.4449 47.0081 31.9108 46.3331 32.295L39.2536 36.3242Z" fill="url(#paint6_linear_253_181)"/>
<path d="M47.8504 30.2016C47.7644 29.5149 47.25 28.8428 46.3339 28.3214L39.1194 24.2158L39.2539 24.0809L46.3339 28.1101C47.3439 28.6855 47.8498 29.4433 47.8504 30.2016Z" fill="url(#paint7_linear_253_181)"/>
<path d="M14.4414 14.3889V14.1675C14.4414 14.0876 14.4436 14.0095 14.4477 13.9337V13.9303L14.448 13.9269V13.9184C14.4916 13.1456 14.7309 12.5428 15.1102 12.1403L15.2159 12.2466C14.7309 12.6855 14.4414 13.4174 14.4414 14.3889Z" fill="url(#paint8_linear_253_181)"/>
<path d="M39.1191 24.2152L18.1182 12.2624C17.536 11.9319 16.985 11.7751 16.4944 11.7751C15.9942 11.7751 15.5578 11.9381 15.2171 12.2456L15.1113 12.1392C15.1444 12.1041 15.1787 12.0703 15.2142 12.0379C15.2153 12.0367 15.2171 12.0355 15.2182 12.0344C15.5562 11.7293 15.988 11.5663 16.4837 11.5634H16.4944C16.985 11.5634 17.536 11.7202 18.1182 12.0509L39.2543 24.0798L39.1191 24.2152Z" fill="url(#paint9_linear_253_181)"/>
</g>
</g>
<defs>
<linearGradient id="paint0_linear_253_181" x1="25.8975" y1="13.8372" x2="10.4482" y2="29.3106" gradientUnits="userSpaceOnUse">
<stop stop-color="#00A0FF"/>
<stop offset="0.00657" stop-color="#00A1FF"/>
<stop offset="0.2601" stop-color="#00BEFF"/>
<stop offset="0.5122" stop-color="#00D2FF"/>
<stop offset="0.7604" stop-color="#00DFFF"/>
<stop offset="1" stop-color="#00E3FF"/>
</linearGradient>
<linearGradient id="paint1_linear_253_181" x1="48.9662" y1="30.0983" x2="13.9563" y2="30.0983" gradientUnits="userSpaceOnUse">
<stop stop-color="#FFE000"/>
<stop offset="0.4087" stop-color="#FFBD00"/>
<stop offset="0.7754" stop-color="#FFA500"/>
<stop offset="1" stop-color="#FF9C00"/>
</linearGradient>
<linearGradient id="paint2_linear_253_181" x1="35.9473" y1="35.8946" x2="9.76732" y2="61.9239" gradientUnits="userSpaceOnUse">
<stop stop-color="#FF3A44"/>
<stop offset="1" stop-color="#C31162"/>
</linearGradient>
<linearGradient id="paint3_linear_253_181" x1="10.5964" y1="9.58413" x2="22.2642" y2="21.2026" gradientUnits="userSpaceOnUse">
<stop stop-color="#32A071"/>
<stop offset="0.0685" stop-color="#2DA771"/>
<stop offset="0.4762" stop-color="#15CF74"/>
<stop offset="0.8009" stop-color="#06E775"/>
<stop offset="1" stop-color="#00F076"/>
</linearGradient>
<linearGradient id="paint4_linear_253_181" x1="35.9339" y1="40.046" x2="14.9676" y2="61.0451" gradientUnits="userSpaceOnUse">
<stop stop-color="#CC2E36"/>
<stop offset="1" stop-color="#9C0E4E"/>
</linearGradient>
<linearGradient id="paint5_linear_253_181" x1="16.8266" y1="13.8385" x2="3.21593" y2="27.4543" gradientUnits="userSpaceOnUse">
<stop stop-color="#008DE0"/>
<stop offset="0.00657" stop-color="#008DE0"/>
<stop offset="0.2601" stop-color="#00A7E0"/>
<stop offset="0.5122" stop-color="#00B8E0"/>
<stop offset="0.7604" stop-color="#00C4E0"/>
<stop offset="1" stop-color="#00C7E0"/>
</linearGradient>
<linearGradient id="paint6_linear_253_181" x1="48.9658" y1="30.203" x2="13.9559" y2="30.203" gradientUnits="userSpaceOnUse">
<stop stop-color="#E0C500"/>
<stop offset="0.4087" stop-color="#E0A600"/>
<stop offset="0.7754" stop-color="#E09100"/>
<stop offset="1" stop-color="#E08900"/>
</linearGradient>
<linearGradient id="paint7_linear_253_181" x1="48.9666" y1="30.203" x2="13.9569" y2="30.203" gradientUnits="userSpaceOnUse">
<stop stop-color="#FFE840"/>
<stop offset="0.4087" stop-color="#FFCE40"/>
<stop offset="0.7754" stop-color="#FFBC40"/>
<stop offset="1" stop-color="#FFB540"/>
</linearGradient>
<linearGradient id="paint8_linear_253_181" x1="16.8119" y1="13.8631" x2="3.70316" y2="26.4086" gradientUnits="userSpaceOnUse">
<stop stop-color="#40B8FF"/>
<stop offset="0.00657" stop-color="#40B9FF"/>
<stop offset="0.2601" stop-color="#40CEFF"/>
<stop offset="0.5122" stop-color="#40DDFF"/>
<stop offset="0.7604" stop-color="#40E7FF"/>
<stop offset="1" stop-color="#40EAFF"/>
</linearGradient>
<linearGradient id="paint9_linear_253_181" x1="10.5708" y1="13.3808" x2="19.9331" y2="22.7579" gradientUnits="userSpaceOnUse">
<stop stop-color="#65B895"/>
<stop offset="0.0685" stop-color="#62BD95"/>
<stop offset="0.4762" stop-color="#50DB97"/>
<stop offset="0.8009" stop-color="#44ED98"/>
<stop offset="1" stop-color="#40F498"/>
</linearGradient>
<clipPath id="clip0_253_181">
<rect width="196.009" height="59.3346" fill="white"/>
</clipPath>
<clipPath id="clip1_253_181">
<rect width="195.984" height="59.3346" fill="white" transform="translate(0.0124512 0.000183105)"/>
</clipPath>
</defs>
</svg>
